G04 EAGLE Gerber RS-274X export*
G75*
%MOMM*%
%FSLAX34Y34*%
%LPD*%
%INCopper Layer 15*%
%IPPOS*%
%AMOC8*
5,1,8,0,0,1.08239X$1,22.5*%
G01*
%ADD10C,1.524000*%
%ADD11C,0.889000*%
%ADD12C,1.650000*%
%ADD13C,3.000000*%
%ADD14C,1.108000*%
%ADD15C,1.320800*%
%ADD16C,0.756400*%
%ADD17C,0.152400*%

G36*
X1101958Y2004D02*
X1101958Y2004D01*
X1101977Y2002D01*
X1102079Y2024D01*
X1102181Y2040D01*
X1102198Y2050D01*
X1102218Y2054D01*
X1102307Y2107D01*
X1102398Y2156D01*
X1102412Y2170D01*
X1102429Y2180D01*
X1102496Y2259D01*
X1102568Y2334D01*
X1102576Y2352D01*
X1102589Y2367D01*
X1102628Y2463D01*
X1102671Y2557D01*
X1102673Y2577D01*
X1102681Y2595D01*
X1102699Y2762D01*
X1102699Y997238D01*
X1102696Y997258D01*
X1102698Y997277D01*
X1102676Y997379D01*
X1102660Y997481D01*
X1102650Y997498D01*
X1102646Y997518D01*
X1102593Y997607D01*
X1102544Y997698D01*
X1102530Y997712D01*
X1102520Y997729D01*
X1102441Y997796D01*
X1102366Y997868D01*
X1102348Y997876D01*
X1102333Y997889D01*
X1102237Y997928D01*
X1102143Y997971D01*
X1102123Y997973D01*
X1102105Y997981D01*
X1101938Y997999D01*
X2762Y997999D01*
X2742Y997996D01*
X2723Y997998D01*
X2621Y997976D01*
X2519Y997960D01*
X2502Y997950D01*
X2482Y997946D01*
X2393Y997893D01*
X2302Y997844D01*
X2288Y997830D01*
X2271Y997820D01*
X2204Y997741D01*
X2132Y997666D01*
X2124Y997648D01*
X2111Y997633D01*
X2072Y997537D01*
X2029Y997443D01*
X2027Y997423D01*
X2019Y997405D01*
X2001Y997238D01*
X2001Y2762D01*
X2004Y2742D01*
X2002Y2723D01*
X2024Y2621D01*
X2040Y2519D01*
X2050Y2502D01*
X2054Y2482D01*
X2107Y2393D01*
X2156Y2302D01*
X2170Y2288D01*
X2180Y2271D01*
X2259Y2204D01*
X2334Y2132D01*
X2352Y2124D01*
X2367Y2111D01*
X2463Y2072D01*
X2557Y2029D01*
X2577Y2027D01*
X2595Y2019D01*
X2762Y2001D01*
X1101938Y2001D01*
X1101958Y2004D01*
G37*
%LPC*%
G36*
X1052186Y472979D02*
X1052186Y472979D01*
X1048650Y474444D01*
X1045944Y477150D01*
X1044479Y480686D01*
X1044479Y484514D01*
X1045700Y487461D01*
X1045727Y487574D01*
X1045755Y487688D01*
X1045755Y487694D01*
X1045756Y487700D01*
X1045745Y487817D01*
X1045736Y487933D01*
X1045734Y487939D01*
X1045733Y487945D01*
X1045685Y488053D01*
X1045640Y488159D01*
X1045635Y488165D01*
X1045633Y488170D01*
X1045620Y488184D01*
X1045535Y488290D01*
X1014220Y519605D01*
X1014162Y519647D01*
X1014110Y519696D01*
X1014063Y519718D01*
X1014021Y519749D01*
X1013952Y519770D01*
X1013887Y519800D01*
X1013835Y519806D01*
X1013785Y519821D01*
X1013714Y519819D01*
X1013643Y519827D01*
X1013592Y519816D01*
X1013540Y519815D01*
X1013472Y519790D01*
X1013402Y519775D01*
X1013358Y519748D01*
X1013309Y519730D01*
X1013253Y519685D01*
X1013191Y519649D01*
X1013157Y519609D01*
X1013117Y519576D01*
X1013078Y519516D01*
X1013031Y519462D01*
X1013012Y519413D01*
X1012984Y519369D01*
X1012966Y519300D01*
X1012939Y519233D01*
X1012931Y519162D01*
X1012923Y519131D01*
X1012925Y519108D01*
X1012921Y519067D01*
X1012921Y518786D01*
X1011456Y515250D01*
X1008750Y512544D01*
X1005214Y511079D01*
X1001386Y511079D01*
X997850Y512544D01*
X995144Y515250D01*
X993679Y518786D01*
X993679Y522614D01*
X995144Y526150D01*
X997850Y528856D01*
X1001386Y530321D01*
X1005214Y530321D01*
X1005264Y530300D01*
X1005359Y530277D01*
X1005452Y530249D01*
X1005478Y530250D01*
X1005504Y530244D01*
X1005601Y530253D01*
X1005698Y530255D01*
X1005723Y530264D01*
X1005749Y530267D01*
X1005838Y530306D01*
X1005929Y530340D01*
X1005950Y530356D01*
X1005973Y530367D01*
X1006045Y530433D01*
X1006121Y530493D01*
X1006135Y530515D01*
X1006155Y530533D01*
X1006202Y530618D01*
X1006254Y530700D01*
X1006261Y530726D01*
X1006273Y530749D01*
X1006290Y530845D01*
X1006314Y530939D01*
X1006312Y530965D01*
X1006317Y530991D01*
X1006303Y531087D01*
X1006295Y531184D01*
X1006285Y531208D01*
X1006281Y531234D01*
X1006237Y531321D01*
X1006199Y531410D01*
X1006178Y531436D01*
X1006170Y531453D01*
X1006146Y531476D01*
X1006094Y531541D01*
X901831Y635804D01*
X901757Y635857D01*
X901688Y635917D01*
X901657Y635929D01*
X901631Y635948D01*
X901544Y635975D01*
X901459Y636009D01*
X901418Y636013D01*
X901396Y636020D01*
X901364Y636019D01*
X901293Y636027D01*
X882926Y636027D01*
X771909Y747044D01*
X771835Y747097D01*
X771765Y747157D01*
X771735Y747169D01*
X771709Y747188D01*
X771622Y747215D01*
X771537Y747249D01*
X771496Y747253D01*
X771474Y747260D01*
X771442Y747259D01*
X771370Y747267D01*
X253155Y747267D01*
X253065Y747253D01*
X252974Y747245D01*
X252945Y747233D01*
X252913Y747228D01*
X252832Y747185D01*
X252748Y747149D01*
X252716Y747123D01*
X252695Y747112D01*
X252693Y747110D01*
X252673Y747089D01*
X252617Y747044D01*
X249566Y743993D01*
X245170Y743993D01*
X242061Y747102D01*
X242061Y751498D01*
X245170Y754607D01*
X249566Y754607D01*
X252617Y751556D01*
X252691Y751503D01*
X252761Y751443D01*
X252791Y751431D01*
X252817Y751412D01*
X252904Y751385D01*
X252989Y751351D01*
X253030Y751347D01*
X253052Y751340D01*
X253084Y751341D01*
X253155Y751333D01*
X773370Y751333D01*
X884387Y640316D01*
X884461Y640263D01*
X884530Y640203D01*
X884560Y640191D01*
X884586Y640172D01*
X884673Y640145D01*
X884758Y640111D01*
X884799Y640107D01*
X884821Y640100D01*
X884854Y640101D01*
X884925Y640093D01*
X903292Y640093D01*
X1018033Y525352D01*
X1018033Y521857D01*
X1018047Y521767D01*
X1018055Y521676D01*
X1018067Y521647D01*
X1018072Y521615D01*
X1018115Y521534D01*
X1018151Y521450D01*
X1018177Y521418D01*
X1018188Y521397D01*
X1018211Y521375D01*
X1018256Y521319D01*
X1048410Y491165D01*
X1048504Y491098D01*
X1048598Y491027D01*
X1048604Y491025D01*
X1048609Y491022D01*
X1048720Y490987D01*
X1048832Y490951D01*
X1048839Y490951D01*
X1048844Y490949D01*
X1048961Y490952D01*
X1049078Y490953D01*
X1049085Y490955D01*
X1049090Y490956D01*
X1049108Y490962D01*
X1049239Y491000D01*
X1052186Y492221D01*
X1056165Y492221D01*
X1056227Y492231D01*
X1056310Y492233D01*
X1056334Y492242D01*
X1056360Y492244D01*
X1056390Y492258D01*
X1056408Y492260D01*
X1056458Y492287D01*
X1056541Y492317D01*
X1056561Y492333D01*
X1056585Y492344D01*
X1056611Y492368D01*
X1056625Y492376D01*
X1056661Y492413D01*
X1056733Y492471D01*
X1056747Y492493D01*
X1056766Y492510D01*
X1056784Y492543D01*
X1056795Y492554D01*
X1056816Y492599D01*
X1056866Y492678D01*
X1056873Y492703D01*
X1056885Y492725D01*
X1056892Y492763D01*
X1056898Y492777D01*
X1056904Y492826D01*
X1056926Y492917D01*
X1056924Y492942D01*
X1056929Y492967D01*
X1056924Y493005D01*
X1056925Y493021D01*
X1056914Y493072D01*
X1056907Y493162D01*
X1056897Y493185D01*
X1056894Y493211D01*
X1056877Y493243D01*
X1056873Y493262D01*
X1056844Y493310D01*
X1056811Y493388D01*
X1056791Y493413D01*
X1056782Y493430D01*
X1056759Y493453D01*
X1056758Y493454D01*
X1056747Y493473D01*
X1056735Y493483D01*
X1056725Y493496D01*
X1056723Y493498D01*
X1056722Y493499D01*
X1056706Y493519D01*
X918571Y631654D01*
X918497Y631707D01*
X918428Y631767D01*
X918397Y631779D01*
X918371Y631798D01*
X918284Y631825D01*
X918199Y631859D01*
X918158Y631863D01*
X918136Y631870D01*
X918104Y631869D01*
X918033Y631877D01*
X914102Y631877D01*
X903001Y642978D01*
X903001Y644136D01*
X902987Y644226D01*
X902979Y644317D01*
X902967Y644347D01*
X902962Y644379D01*
X902919Y644460D01*
X902883Y644544D01*
X902857Y644576D01*
X902846Y644596D01*
X902823Y644619D01*
X902778Y644675D01*
X775009Y772444D01*
X774935Y772497D01*
X774865Y772557D01*
X774835Y772569D01*
X774809Y772588D01*
X774722Y772615D01*
X774637Y772649D01*
X774596Y772653D01*
X774574Y772660D01*
X774542Y772659D01*
X774470Y772667D01*
X708777Y772667D01*
X708707Y772656D01*
X708635Y772654D01*
X708586Y772636D01*
X708535Y772628D01*
X708471Y772594D01*
X708404Y772569D01*
X708363Y772537D01*
X708317Y772512D01*
X708268Y772460D01*
X708212Y772416D01*
X708184Y772372D01*
X708148Y772334D01*
X708118Y772269D01*
X708079Y772209D01*
X708066Y772158D01*
X708044Y772111D01*
X708036Y772040D01*
X708019Y771970D01*
X708023Y771918D01*
X708017Y771867D01*
X708032Y771796D01*
X708038Y771725D01*
X708058Y771677D01*
X708069Y771626D01*
X708106Y771565D01*
X708134Y771499D01*
X708179Y771443D01*
X708195Y771415D01*
X708213Y771400D01*
X708239Y771368D01*
X710600Y769007D01*
X712161Y765239D01*
X712161Y761161D01*
X710600Y757393D01*
X707717Y754510D01*
X703949Y752949D01*
X699871Y752949D01*
X696103Y754510D01*
X693220Y757393D01*
X691659Y761161D01*
X691659Y765239D01*
X693220Y769007D01*
X695581Y771368D01*
X695623Y771426D01*
X695672Y771478D01*
X695694Y771525D01*
X695725Y771567D01*
X695746Y771636D01*
X695776Y771701D01*
X695782Y771753D01*
X695797Y771803D01*
X695795Y771874D01*
X695803Y771945D01*
X695792Y771996D01*
X695791Y772048D01*
X695766Y772116D01*
X695751Y772186D01*
X695724Y772231D01*
X695706Y772279D01*
X695661Y772335D01*
X695625Y772397D01*
X695585Y772431D01*
X695552Y772471D01*
X695492Y772510D01*
X695438Y772557D01*
X695389Y772576D01*
X695345Y772604D01*
X695276Y772622D01*
X695209Y772649D01*
X695138Y772657D01*
X695107Y772665D01*
X695084Y772663D01*
X695043Y772667D01*
X683777Y772667D01*
X683707Y772656D01*
X683635Y772654D01*
X683586Y772636D01*
X683535Y772628D01*
X683471Y772594D01*
X683404Y772569D01*
X683363Y772537D01*
X683317Y772512D01*
X683268Y772460D01*
X683212Y772416D01*
X683184Y772372D01*
X683148Y772334D01*
X683118Y772269D01*
X683079Y772209D01*
X683066Y772158D01*
X683044Y772111D01*
X683036Y772040D01*
X683019Y771970D01*
X683023Y771918D01*
X683017Y771867D01*
X683032Y771796D01*
X683038Y771725D01*
X683058Y771677D01*
X683069Y771626D01*
X683106Y771565D01*
X683134Y771499D01*
X683179Y771443D01*
X683195Y771415D01*
X683213Y771400D01*
X683239Y771368D01*
X685600Y769007D01*
X687161Y765239D01*
X687161Y761161D01*
X685600Y757393D01*
X682717Y754510D01*
X678949Y752949D01*
X674871Y752949D01*
X671103Y754510D01*
X668220Y757393D01*
X666659Y761161D01*
X666659Y765239D01*
X668220Y769007D01*
X670581Y771368D01*
X670623Y771426D01*
X670672Y771478D01*
X670694Y771525D01*
X670725Y771567D01*
X670746Y771636D01*
X670776Y771701D01*
X670782Y771753D01*
X670797Y771803D01*
X670795Y771874D01*
X670803Y771945D01*
X670792Y771996D01*
X670791Y772048D01*
X670766Y772116D01*
X670751Y772186D01*
X670724Y772231D01*
X670706Y772279D01*
X670661Y772335D01*
X670625Y772397D01*
X670585Y772431D01*
X670552Y772471D01*
X670492Y772510D01*
X670438Y772557D01*
X670389Y772576D01*
X670345Y772604D01*
X670276Y772622D01*
X670209Y772649D01*
X670138Y772657D01*
X670107Y772665D01*
X670084Y772663D01*
X670043Y772667D01*
X658777Y772667D01*
X658707Y772656D01*
X658635Y772654D01*
X658586Y772636D01*
X658535Y772628D01*
X658471Y772594D01*
X658404Y772569D01*
X658363Y772537D01*
X658317Y772512D01*
X658268Y772460D01*
X658212Y772416D01*
X658184Y772372D01*
X658148Y772334D01*
X658118Y772269D01*
X658079Y772209D01*
X658066Y772158D01*
X658044Y772111D01*
X658036Y772040D01*
X658019Y771970D01*
X658023Y771918D01*
X658017Y771867D01*
X658032Y771796D01*
X658038Y771725D01*
X658058Y771677D01*
X658069Y771626D01*
X658106Y771565D01*
X658134Y771499D01*
X658179Y771443D01*
X658195Y771415D01*
X658213Y771400D01*
X658239Y771368D01*
X660600Y769007D01*
X662161Y765239D01*
X662161Y761161D01*
X660600Y757393D01*
X657717Y754510D01*
X653949Y752949D01*
X649871Y752949D01*
X646103Y754510D01*
X643220Y757393D01*
X641659Y761161D01*
X641659Y765239D01*
X643220Y769007D01*
X645581Y771368D01*
X645623Y771426D01*
X645672Y771478D01*
X645694Y771525D01*
X645725Y771567D01*
X645746Y771636D01*
X645776Y771701D01*
X645782Y771753D01*
X645797Y771803D01*
X645795Y771874D01*
X645803Y771945D01*
X645792Y771996D01*
X645791Y772048D01*
X645766Y772116D01*
X645751Y772186D01*
X645724Y772231D01*
X645706Y772279D01*
X645661Y772335D01*
X645625Y772397D01*
X645585Y772431D01*
X645552Y772471D01*
X645492Y772510D01*
X645438Y772557D01*
X645389Y772576D01*
X645345Y772604D01*
X645276Y772622D01*
X645209Y772649D01*
X645138Y772657D01*
X645107Y772665D01*
X645084Y772663D01*
X645043Y772667D01*
X241019Y772667D01*
X240929Y772653D01*
X240838Y772645D01*
X240809Y772633D01*
X240777Y772628D01*
X240696Y772585D01*
X240612Y772549D01*
X240580Y772523D01*
X240559Y772512D01*
X240537Y772489D01*
X240481Y772444D01*
X237430Y769393D01*
X233034Y769393D01*
X229925Y772502D01*
X229925Y776898D01*
X233034Y780007D01*
X237430Y780007D01*
X240481Y776956D01*
X240555Y776903D01*
X240625Y776843D01*
X240655Y776831D01*
X240681Y776812D01*
X240768Y776785D01*
X240853Y776751D01*
X240894Y776747D01*
X240916Y776740D01*
X240948Y776741D01*
X241019Y776733D01*
X259281Y776733D01*
X259351Y776744D01*
X259423Y776746D01*
X259472Y776764D01*
X259523Y776772D01*
X259586Y776806D01*
X259654Y776831D01*
X259695Y776863D01*
X259741Y776888D01*
X259790Y776939D01*
X259846Y776984D01*
X259874Y777028D01*
X259910Y777066D01*
X259940Y777131D01*
X259979Y777191D01*
X259992Y777242D01*
X260014Y777289D01*
X260022Y777360D01*
X260039Y777430D01*
X260035Y777482D01*
X260041Y777533D01*
X260025Y777604D01*
X260020Y777675D01*
X260000Y777723D01*
X259988Y777774D01*
X259952Y777835D01*
X259924Y777901D01*
X259879Y777957D01*
X259862Y777985D01*
X259845Y778000D01*
X259819Y778032D01*
X250023Y787828D01*
X249949Y787881D01*
X249880Y787941D01*
X249849Y787953D01*
X249823Y787972D01*
X249736Y787998D01*
X249651Y788033D01*
X249610Y788037D01*
X249588Y788044D01*
X249556Y788043D01*
X249485Y788051D01*
X245170Y788051D01*
X242061Y791160D01*
X242061Y795556D01*
X243273Y796768D01*
X243315Y796826D01*
X243364Y796878D01*
X243386Y796925D01*
X243417Y796967D01*
X243438Y797036D01*
X243468Y797101D01*
X243474Y797153D01*
X243489Y797203D01*
X243487Y797274D01*
X243495Y797345D01*
X243484Y797396D01*
X243483Y797448D01*
X243458Y797516D01*
X243443Y797586D01*
X243416Y797631D01*
X243398Y797679D01*
X243353Y797735D01*
X243317Y797797D01*
X243277Y797831D01*
X243244Y797871D01*
X243184Y797910D01*
X243130Y797957D01*
X243081Y797976D01*
X243038Y798004D01*
X242968Y798022D01*
X242902Y798049D01*
X242830Y798057D01*
X242799Y798065D01*
X242776Y798063D01*
X242735Y798067D01*
X240455Y798067D01*
X240365Y798053D01*
X240274Y798045D01*
X240245Y798033D01*
X240213Y798028D01*
X240132Y797985D01*
X240048Y797949D01*
X240016Y797923D01*
X239995Y797912D01*
X239973Y797889D01*
X239917Y797844D01*
X236866Y794793D01*
X232470Y794793D01*
X229361Y797902D01*
X229361Y802298D01*
X232470Y805407D01*
X236866Y805407D01*
X239917Y802356D01*
X239991Y802303D01*
X240061Y802243D01*
X240091Y802231D01*
X240117Y802212D01*
X240204Y802185D01*
X240289Y802151D01*
X240330Y802147D01*
X240352Y802140D01*
X240384Y802141D01*
X240455Y802133D01*
X288886Y802133D01*
X288982Y802148D01*
X289079Y802158D01*
X289103Y802168D01*
X289129Y802172D01*
X289215Y802218D01*
X289304Y802258D01*
X289323Y802275D01*
X289346Y802288D01*
X289413Y802358D01*
X289485Y802424D01*
X289497Y802447D01*
X289515Y802466D01*
X289556Y802554D01*
X289603Y802640D01*
X289608Y802665D01*
X289619Y802689D01*
X289630Y802786D01*
X289647Y802882D01*
X289643Y802908D01*
X289646Y802933D01*
X289625Y803029D01*
X289611Y803125D01*
X289599Y803148D01*
X289594Y803174D01*
X289544Y803257D01*
X289500Y803344D01*
X289481Y803363D01*
X289468Y803385D01*
X289394Y803448D01*
X289324Y803516D01*
X289296Y803532D01*
X289281Y803545D01*
X289250Y803557D01*
X289177Y803597D01*
X286650Y804644D01*
X283944Y807350D01*
X282479Y810886D01*
X282479Y814714D01*
X283944Y818250D01*
X286650Y820956D01*
X289177Y822003D01*
X289260Y822054D01*
X289346Y822100D01*
X289364Y822118D01*
X289386Y822132D01*
X289448Y822208D01*
X289515Y822278D01*
X289526Y822302D01*
X289543Y822322D01*
X289578Y822413D01*
X289619Y822501D01*
X289622Y822527D01*
X289631Y822551D01*
X289635Y822649D01*
X289646Y822745D01*
X289641Y822771D01*
X289642Y822797D01*
X289615Y822891D01*
X289594Y822986D01*
X289580Y823008D01*
X289573Y823033D01*
X289518Y823113D01*
X289468Y823197D01*
X289448Y823214D01*
X289433Y823235D01*
X289355Y823294D01*
X289281Y823357D01*
X289256Y823367D01*
X289235Y823382D01*
X289143Y823412D01*
X289053Y823449D01*
X289020Y823452D01*
X289002Y823458D01*
X288969Y823458D01*
X288886Y823467D01*
X261225Y823467D01*
X261135Y823453D01*
X261044Y823445D01*
X261015Y823433D01*
X260983Y823428D01*
X260902Y823385D01*
X260818Y823349D01*
X260786Y823323D01*
X260765Y823312D01*
X260743Y823289D01*
X260687Y823244D01*
X252898Y815455D01*
X252845Y815381D01*
X252785Y815312D01*
X252773Y815281D01*
X252754Y815255D01*
X252727Y815168D01*
X252693Y815083D01*
X252689Y815042D01*
X252682Y815020D01*
X252683Y814988D01*
X252675Y814917D01*
X252675Y810602D01*
X249566Y807493D01*
X245170Y807493D01*
X242061Y810602D01*
X242061Y814998D01*
X245170Y818107D01*
X249485Y818107D01*
X249575Y818121D01*
X249666Y818129D01*
X249695Y818141D01*
X249727Y818146D01*
X249808Y818189D01*
X249892Y818225D01*
X249924Y818251D01*
X249945Y818262D01*
X249967Y818285D01*
X250023Y818330D01*
X259226Y827533D01*
X419942Y827533D01*
X440293Y807182D01*
X440367Y807129D01*
X440436Y807069D01*
X440467Y807057D01*
X440493Y807038D01*
X440580Y807011D01*
X440665Y806977D01*
X440706Y806973D01*
X440728Y806966D01*
X440760Y806967D01*
X440831Y806959D01*
X1033606Y806959D01*
X1035020Y805545D01*
X1077774Y762791D01*
X1077868Y762723D01*
X1077962Y762653D01*
X1077969Y762651D01*
X1077974Y762647D01*
X1078085Y762613D01*
X1078196Y762577D01*
X1078203Y762577D01*
X1078209Y762575D01*
X1078325Y762578D01*
X1078442Y762579D01*
X1078449Y762581D01*
X1078454Y762581D01*
X1078472Y762588D01*
X1078603Y762626D01*
X1078856Y762731D01*
X1082684Y762731D01*
X1086220Y761266D01*
X1088926Y758560D01*
X1090391Y755024D01*
X1090391Y751196D01*
X1088926Y747660D01*
X1086220Y744954D01*
X1082684Y743489D01*
X1078856Y743489D01*
X1075320Y744954D01*
X1072614Y747660D01*
X1071149Y751196D01*
X1071149Y755024D01*
X1072614Y758560D01*
X1073896Y759842D01*
X1073908Y759858D01*
X1073924Y759871D01*
X1073980Y759958D01*
X1074040Y760042D01*
X1074046Y760061D01*
X1074057Y760078D01*
X1074082Y760178D01*
X1074112Y760277D01*
X1074112Y760297D01*
X1074117Y760316D01*
X1074109Y760419D01*
X1074106Y760523D01*
X1074099Y760542D01*
X1074098Y760562D01*
X1074057Y760656D01*
X1074022Y760754D01*
X1074009Y760770D01*
X1074001Y760788D01*
X1073896Y760919D01*
X1032145Y802670D01*
X1032071Y802723D01*
X1032002Y802783D01*
X1031971Y802795D01*
X1031945Y802814D01*
X1031858Y802841D01*
X1031773Y802875D01*
X1031732Y802879D01*
X1031710Y802886D01*
X1031678Y802885D01*
X1031607Y802893D01*
X1012659Y802893D01*
X1012588Y802882D01*
X1012516Y802880D01*
X1012467Y802862D01*
X1012416Y802854D01*
X1012353Y802820D01*
X1012285Y802795D01*
X1012244Y802763D01*
X1012198Y802738D01*
X1012149Y802687D01*
X1012093Y802642D01*
X1012065Y802598D01*
X1012029Y802560D01*
X1011999Y802495D01*
X1011960Y802435D01*
X1011947Y802384D01*
X1011925Y802337D01*
X1011917Y802266D01*
X1011900Y802196D01*
X1011904Y802144D01*
X1011898Y802093D01*
X1011914Y802022D01*
X1011919Y801951D01*
X1011939Y801903D01*
X1011951Y801852D01*
X1011987Y801791D01*
X1012015Y801725D01*
X1012060Y801669D01*
X1012077Y801641D01*
X1012095Y801626D01*
X1012120Y801594D01*
X1051348Y762366D01*
X1051443Y762298D01*
X1051537Y762228D01*
X1051543Y762226D01*
X1051548Y762223D01*
X1051659Y762188D01*
X1051770Y762152D01*
X1051777Y762152D01*
X1051783Y762150D01*
X1051900Y762153D01*
X1052016Y762154D01*
X1052024Y762156D01*
X1052029Y762157D01*
X1052046Y762163D01*
X1052178Y762201D01*
X1053456Y762731D01*
X1057284Y762731D01*
X1060820Y761266D01*
X1063526Y758560D01*
X1064991Y755024D01*
X1064991Y751196D01*
X1063526Y747660D01*
X1060820Y744954D01*
X1057284Y743489D01*
X1053456Y743489D01*
X1049920Y744954D01*
X1047214Y747660D01*
X1045749Y751196D01*
X1045749Y755024D01*
X1047214Y758560D01*
X1047771Y759117D01*
X1047783Y759133D01*
X1047798Y759145D01*
X1047854Y759233D01*
X1047915Y759317D01*
X1047920Y759336D01*
X1047931Y759352D01*
X1047957Y759453D01*
X1047987Y759552D01*
X1047986Y759572D01*
X1047991Y759591D01*
X1047983Y759694D01*
X1047981Y759798D01*
X1047974Y759816D01*
X1047972Y759836D01*
X1047932Y759931D01*
X1047896Y760029D01*
X1047884Y760044D01*
X1047876Y760062D01*
X1047771Y760193D01*
X1015490Y792474D01*
X1015432Y792516D01*
X1015380Y792565D01*
X1015333Y792587D01*
X1015291Y792618D01*
X1015222Y792639D01*
X1015157Y792669D01*
X1015105Y792675D01*
X1015055Y792690D01*
X1014984Y792688D01*
X1014913Y792696D01*
X1014862Y792685D01*
X1014810Y792684D01*
X1014742Y792659D01*
X1014672Y792644D01*
X1014628Y792617D01*
X1014579Y792599D01*
X1014523Y792554D01*
X1014461Y792518D01*
X1014427Y792478D01*
X1014387Y792446D01*
X1014348Y792385D01*
X1014301Y792331D01*
X1014282Y792283D01*
X1014254Y792239D01*
X1014236Y792169D01*
X1014209Y792103D01*
X1014201Y792031D01*
X1014193Y792000D01*
X1014195Y791977D01*
X1014191Y791936D01*
X1014191Y789296D01*
X1012726Y785760D01*
X1010020Y783054D01*
X1006484Y781589D01*
X1002656Y781589D01*
X999120Y783054D01*
X996414Y785760D01*
X994949Y789296D01*
X994949Y793124D01*
X996414Y796660D01*
X998428Y798674D01*
X998470Y798732D01*
X998520Y798784D01*
X998542Y798832D01*
X998572Y798874D01*
X998593Y798942D01*
X998623Y799007D01*
X998629Y799059D01*
X998644Y799109D01*
X998642Y799181D01*
X998650Y799252D01*
X998639Y799303D01*
X998638Y799355D01*
X998613Y799422D01*
X998598Y799492D01*
X998571Y799537D01*
X998553Y799586D01*
X998509Y799642D01*
X998472Y799703D01*
X998432Y799737D01*
X998400Y799778D01*
X998339Y799817D01*
X998285Y799863D01*
X998237Y799883D01*
X998193Y799911D01*
X998123Y799928D01*
X998057Y799955D01*
X997985Y799963D01*
X997954Y799971D01*
X997931Y799969D01*
X997890Y799974D01*
X985850Y799974D01*
X985779Y799962D01*
X985707Y799960D01*
X985659Y799942D01*
X985607Y799934D01*
X985544Y799900D01*
X985476Y799876D01*
X985436Y799843D01*
X985390Y799819D01*
X985340Y799767D01*
X985284Y799722D01*
X985256Y799678D01*
X985220Y799640D01*
X985190Y799575D01*
X985151Y799515D01*
X985139Y799465D01*
X985117Y799417D01*
X985109Y799346D01*
X985091Y799277D01*
X985095Y799225D01*
X985090Y799173D01*
X985105Y799103D01*
X985111Y799031D01*
X985131Y798984D01*
X985142Y798933D01*
X985179Y798871D01*
X985207Y798805D01*
X985252Y798749D01*
X985268Y798721D01*
X985286Y798706D01*
X985312Y798674D01*
X987326Y796660D01*
X988791Y793124D01*
X988791Y789296D01*
X987326Y785760D01*
X984620Y783054D01*
X981084Y781589D01*
X977256Y781589D01*
X973720Y783054D01*
X971014Y785760D01*
X969549Y789296D01*
X969549Y793124D01*
X971014Y796660D01*
X971122Y796768D01*
X971164Y796826D01*
X971213Y796878D01*
X971235Y796925D01*
X971266Y796967D01*
X971287Y797036D01*
X971317Y797101D01*
X971323Y797153D01*
X971338Y797202D01*
X971336Y797274D01*
X971344Y797345D01*
X971333Y797396D01*
X971332Y797448D01*
X971307Y797516D01*
X971292Y797586D01*
X971265Y797631D01*
X971247Y797679D01*
X971202Y797735D01*
X971165Y797797D01*
X971126Y797831D01*
X971093Y797871D01*
X971033Y797910D01*
X970979Y797957D01*
X970930Y797976D01*
X970886Y798004D01*
X970817Y798022D01*
X970750Y798049D01*
X970679Y798057D01*
X970648Y798065D01*
X970625Y798063D01*
X970584Y798067D01*
X924505Y798067D01*
X924435Y798056D01*
X924363Y798054D01*
X924314Y798036D01*
X924263Y798028D01*
X924199Y797994D01*
X924132Y797969D01*
X924091Y797937D01*
X924045Y797912D01*
X923996Y797860D01*
X923940Y797816D01*
X923912Y797772D01*
X923876Y797734D01*
X923846Y797669D01*
X923807Y797609D01*
X923794Y797558D01*
X923772Y797511D01*
X923764Y797440D01*
X923747Y797370D01*
X923751Y797318D01*
X923745Y797267D01*
X923760Y797196D01*
X923766Y797125D01*
X923786Y797077D01*
X923797Y797026D01*
X923834Y796965D01*
X923862Y796899D01*
X923907Y796843D01*
X923924Y796815D01*
X923941Y796800D01*
X923967Y796768D01*
X924787Y795948D01*
X924787Y791552D01*
X921678Y788443D01*
X917282Y788443D01*
X914173Y791552D01*
X914173Y795948D01*
X914993Y796768D01*
X915035Y796826D01*
X915084Y796878D01*
X915106Y796925D01*
X915136Y796967D01*
X915158Y797036D01*
X915188Y797101D01*
X915193Y797153D01*
X915209Y797203D01*
X915207Y797274D01*
X915215Y797345D01*
X915204Y797396D01*
X915202Y797448D01*
X915178Y797516D01*
X915163Y797586D01*
X915136Y797631D01*
X915118Y797679D01*
X915073Y797735D01*
X915036Y797797D01*
X914997Y797831D01*
X914964Y797871D01*
X914904Y797910D01*
X914849Y797957D01*
X914801Y797976D01*
X914757Y798004D01*
X914688Y798022D01*
X914621Y798049D01*
X914550Y798057D01*
X914519Y798065D01*
X914496Y798063D01*
X914455Y798067D01*
X252001Y798067D01*
X251930Y798056D01*
X251859Y798054D01*
X251810Y798036D01*
X251758Y798028D01*
X251695Y797994D01*
X251628Y797969D01*
X251587Y797937D01*
X251541Y797912D01*
X251492Y797860D01*
X251436Y797816D01*
X251408Y797772D01*
X251372Y797734D01*
X251341Y797669D01*
X251303Y797609D01*
X251290Y797558D01*
X251268Y797511D01*
X251260Y797440D01*
X251243Y797370D01*
X251247Y797318D01*
X251241Y797267D01*
X251256Y797196D01*
X251262Y797125D01*
X251282Y797077D01*
X251293Y797026D01*
X251330Y796965D01*
X251358Y796899D01*
X251403Y796843D01*
X251419Y796815D01*
X251437Y796800D01*
X251463Y796768D01*
X252675Y795556D01*
X252675Y791241D01*
X252689Y791151D01*
X252697Y791060D01*
X252709Y791030D01*
X252714Y790998D01*
X252757Y790918D01*
X252793Y790834D01*
X252819Y790802D01*
X252830Y790781D01*
X252853Y790759D01*
X252898Y790703D01*
X263597Y780004D01*
X263671Y779951D01*
X263740Y779891D01*
X263770Y779879D01*
X263797Y779860D01*
X263883Y779833D01*
X263968Y779799D01*
X264009Y779795D01*
X264032Y779788D01*
X264064Y779789D01*
X264135Y779781D01*
X840432Y779781D01*
X841846Y778367D01*
X864847Y755366D01*
X864921Y755313D01*
X864991Y755253D01*
X865021Y755241D01*
X865047Y755222D01*
X865134Y755195D01*
X865219Y755161D01*
X865260Y755157D01*
X865282Y755150D01*
X865314Y755151D01*
X865385Y755143D01*
X892890Y755143D01*
X893005Y755162D01*
X893121Y755179D01*
X893127Y755181D01*
X893133Y755182D01*
X893235Y755237D01*
X893340Y755290D01*
X893345Y755295D01*
X893350Y755298D01*
X893430Y755382D01*
X893512Y755466D01*
X893516Y755472D01*
X893519Y755476D01*
X893527Y755493D01*
X893593Y755613D01*
X894814Y758560D01*
X897520Y761266D01*
X901056Y762731D01*
X904884Y762731D01*
X908420Y761266D01*
X911126Y758560D01*
X912591Y755024D01*
X912591Y751196D01*
X911126Y747660D01*
X908420Y744954D01*
X904884Y743489D01*
X901056Y743489D01*
X897520Y744954D01*
X894814Y747660D01*
X893593Y750607D01*
X893531Y750707D01*
X893472Y750807D01*
X893467Y750811D01*
X893464Y750816D01*
X893373Y750891D01*
X893285Y750967D01*
X893279Y750969D01*
X893274Y750973D01*
X893166Y751015D01*
X893057Y751059D01*
X893049Y751060D01*
X893045Y751061D01*
X893026Y751062D01*
X892890Y751077D01*
X863386Y751077D01*
X861973Y752491D01*
X861972Y752491D01*
X838971Y775492D01*
X838897Y775545D01*
X838828Y775605D01*
X838798Y775617D01*
X838771Y775636D01*
X838684Y775663D01*
X838600Y775697D01*
X838559Y775701D01*
X838536Y775708D01*
X838504Y775707D01*
X838433Y775715D01*
X779325Y775715D01*
X779254Y775704D01*
X779182Y775702D01*
X779133Y775684D01*
X779082Y775676D01*
X779019Y775642D01*
X778951Y775617D01*
X778911Y775585D01*
X778865Y775560D01*
X778815Y775509D01*
X778759Y775464D01*
X778731Y775420D01*
X778695Y775382D01*
X778665Y775317D01*
X778626Y775257D01*
X778614Y775206D01*
X778592Y775159D01*
X778584Y775088D01*
X778566Y775018D01*
X778570Y774966D01*
X778565Y774915D01*
X778580Y774844D01*
X778585Y774773D01*
X778606Y774725D01*
X778617Y774674D01*
X778654Y774613D01*
X778682Y774547D01*
X778727Y774491D01*
X778743Y774463D01*
X778761Y774448D01*
X778787Y774416D01*
X890396Y662807D01*
X890454Y662765D01*
X890506Y662715D01*
X890553Y662693D01*
X890595Y662663D01*
X890664Y662642D01*
X890729Y662612D01*
X890781Y662606D01*
X890831Y662591D01*
X890902Y662593D01*
X890973Y662585D01*
X891024Y662596D01*
X891076Y662597D01*
X891144Y662622D01*
X891214Y662637D01*
X891258Y662664D01*
X891307Y662682D01*
X891363Y662726D01*
X891425Y662763D01*
X891459Y662803D01*
X891499Y662835D01*
X891538Y662896D01*
X891585Y662950D01*
X891604Y662998D01*
X891632Y663042D01*
X891650Y663112D01*
X891677Y663178D01*
X891685Y663250D01*
X891693Y663281D01*
X891691Y663304D01*
X891695Y663345D01*
X891695Y665912D01*
X893005Y669074D01*
X895426Y671495D01*
X898588Y672805D01*
X902012Y672805D01*
X905174Y671495D01*
X907595Y669074D01*
X908905Y665912D01*
X908905Y662488D01*
X907595Y659326D01*
X905174Y656905D01*
X902012Y655595D01*
X899445Y655595D01*
X899374Y655584D01*
X899302Y655582D01*
X899253Y655564D01*
X899202Y655556D01*
X899139Y655522D01*
X899071Y655497D01*
X899031Y655465D01*
X898985Y655440D01*
X898935Y655388D01*
X898879Y655344D01*
X898851Y655300D01*
X898815Y655262D01*
X898785Y655197D01*
X898746Y655137D01*
X898734Y655086D01*
X898712Y655039D01*
X898704Y654968D01*
X898686Y654898D01*
X898690Y654846D01*
X898685Y654795D01*
X898700Y654724D01*
X898705Y654653D01*
X898726Y654605D01*
X898737Y654554D01*
X898774Y654493D01*
X898802Y654427D01*
X898847Y654371D01*
X898863Y654343D01*
X898881Y654328D01*
X898907Y654296D01*
X907067Y646136D01*
X907067Y644978D01*
X907081Y644888D01*
X907089Y644797D01*
X907101Y644767D01*
X907106Y644735D01*
X907149Y644654D01*
X907185Y644570D01*
X907211Y644538D01*
X907222Y644518D01*
X907245Y644495D01*
X907290Y644439D01*
X915563Y636166D01*
X915637Y636113D01*
X915707Y636053D01*
X915737Y636041D01*
X915763Y636022D01*
X915850Y635995D01*
X915935Y635961D01*
X915976Y635957D01*
X915998Y635950D01*
X916030Y635951D01*
X916102Y635943D01*
X920032Y635943D01*
X921446Y634529D01*
X1069537Y486438D01*
X1069574Y486411D01*
X1069605Y486377D01*
X1069674Y486340D01*
X1069737Y486294D01*
X1069780Y486281D01*
X1069821Y486259D01*
X1069897Y486245D01*
X1069972Y486222D01*
X1070018Y486223D01*
X1070063Y486215D01*
X1070140Y486226D01*
X1070218Y486228D01*
X1070261Y486244D01*
X1070306Y486251D01*
X1070375Y486286D01*
X1070449Y486313D01*
X1070485Y486341D01*
X1070525Y486362D01*
X1070580Y486418D01*
X1070641Y486466D01*
X1070666Y486505D01*
X1070698Y486538D01*
X1070764Y486658D01*
X1070774Y486673D01*
X1070775Y486678D01*
X1070779Y486685D01*
X1071344Y488050D01*
X1074050Y490756D01*
X1077586Y492221D01*
X1081414Y492221D01*
X1084950Y490756D01*
X1087656Y488050D01*
X1089121Y484514D01*
X1089121Y480686D01*
X1087656Y477150D01*
X1084950Y474444D01*
X1081414Y472979D01*
X1077586Y472979D01*
X1074050Y474444D01*
X1071344Y477150D01*
X1070123Y480097D01*
X1070062Y480197D01*
X1070002Y480297D01*
X1069997Y480301D01*
X1069994Y480306D01*
X1069904Y480381D01*
X1069815Y480457D01*
X1069809Y480459D01*
X1069804Y480463D01*
X1069736Y480489D01*
X1068244Y481981D01*
X1065019Y485206D01*
X1064954Y485253D01*
X1064910Y485295D01*
X1064891Y485303D01*
X1064864Y485326D01*
X1064840Y485335D01*
X1064819Y485350D01*
X1064737Y485375D01*
X1064687Y485398D01*
X1064669Y485400D01*
X1064634Y485413D01*
X1064609Y485415D01*
X1064584Y485422D01*
X1064493Y485420D01*
X1064443Y485425D01*
X1064427Y485422D01*
X1064389Y485424D01*
X1064364Y485416D01*
X1064338Y485416D01*
X1064251Y485384D01*
X1064202Y485373D01*
X1064189Y485365D01*
X1064153Y485355D01*
X1064131Y485340D01*
X1064107Y485331D01*
X1064034Y485273D01*
X1063991Y485247D01*
X1063981Y485236D01*
X1063951Y485214D01*
X1063935Y485194D01*
X1063915Y485178D01*
X1063866Y485101D01*
X1063831Y485060D01*
X1063825Y485045D01*
X1063804Y485017D01*
X1063796Y484992D01*
X1063782Y484971D01*
X1063761Y484886D01*
X1063739Y484832D01*
X1063737Y484808D01*
X1063728Y484783D01*
X1063729Y484757D01*
X1063722Y484732D01*
X1063725Y484701D01*
X1063721Y484665D01*
X1063721Y480686D01*
X1062256Y477150D01*
X1059550Y474444D01*
X1056014Y472979D01*
X1052186Y472979D01*
G37*
%LPD*%
%LPC*%
G36*
X590604Y202811D02*
X590604Y202811D01*
X180003Y613412D01*
X179929Y613465D01*
X179860Y613525D01*
X179829Y613537D01*
X179803Y613556D01*
X179716Y613583D01*
X179631Y613617D01*
X179590Y613621D01*
X179568Y613628D01*
X179536Y613627D01*
X179465Y613635D01*
X167481Y613635D01*
X166067Y615049D01*
X105454Y675662D01*
X105380Y675715D01*
X105310Y675775D01*
X105280Y675787D01*
X105254Y675806D01*
X105167Y675833D01*
X105082Y675867D01*
X105041Y675871D01*
X105019Y675878D01*
X104987Y675877D01*
X104915Y675885D01*
X95458Y675885D01*
X88185Y683158D01*
X88185Y692615D01*
X88171Y692706D01*
X88163Y692796D01*
X88151Y692826D01*
X88146Y692858D01*
X88103Y692939D01*
X88067Y693023D01*
X88041Y693055D01*
X88030Y693076D01*
X88007Y693098D01*
X87962Y693154D01*
X80161Y700955D01*
X80161Y710707D01*
X80147Y710797D01*
X80139Y710888D01*
X80127Y710918D01*
X80122Y710950D01*
X80079Y711031D01*
X80043Y711114D01*
X80017Y711147D01*
X80006Y711167D01*
X79983Y711189D01*
X79971Y711205D01*
X79964Y711215D01*
X79958Y711221D01*
X79938Y711245D01*
X52538Y738646D01*
X52521Y738658D01*
X52509Y738673D01*
X52422Y738730D01*
X52338Y738790D01*
X52319Y738796D01*
X52302Y738806D01*
X52202Y738832D01*
X52103Y738862D01*
X52083Y738862D01*
X52064Y738866D01*
X51961Y738858D01*
X51857Y738856D01*
X51838Y738849D01*
X51818Y738847D01*
X51723Y738807D01*
X51626Y738771D01*
X51610Y738759D01*
X51592Y738751D01*
X51461Y738646D01*
X49188Y736373D01*
X44792Y736373D01*
X41683Y739482D01*
X41683Y743878D01*
X44792Y746987D01*
X49188Y746987D01*
X52239Y743936D01*
X52313Y743883D01*
X52383Y743823D01*
X52413Y743811D01*
X52439Y743792D01*
X52526Y743765D01*
X52611Y743731D01*
X52652Y743727D01*
X52674Y743720D01*
X52706Y743721D01*
X52777Y743713D01*
X53221Y743713D01*
X54634Y742299D01*
X55624Y741309D01*
X55682Y741268D01*
X55734Y741218D01*
X55781Y741196D01*
X55823Y741166D01*
X55892Y741145D01*
X55957Y741115D01*
X56009Y741109D01*
X56059Y741094D01*
X56130Y741095D01*
X56201Y741088D01*
X56252Y741099D01*
X56304Y741100D01*
X56372Y741125D01*
X56442Y741140D01*
X56487Y741167D01*
X56535Y741184D01*
X56591Y741229D01*
X56653Y741266D01*
X56687Y741306D01*
X56727Y741338D01*
X56766Y741398D01*
X56813Y741453D01*
X56832Y741501D01*
X56860Y741545D01*
X56878Y741615D01*
X56905Y741681D01*
X56913Y741752D01*
X56921Y741784D01*
X56919Y741807D01*
X56923Y741848D01*
X56923Y745148D01*
X60032Y748257D01*
X64428Y748257D01*
X67537Y745148D01*
X67537Y741398D01*
X67540Y741378D01*
X67538Y741359D01*
X67560Y741257D01*
X67576Y741155D01*
X67586Y741138D01*
X67590Y741118D01*
X67643Y741029D01*
X67692Y740938D01*
X67706Y740924D01*
X67716Y740907D01*
X67795Y740840D01*
X67870Y740768D01*
X67888Y740760D01*
X67903Y740747D01*
X67999Y740708D01*
X68093Y740665D01*
X68113Y740663D01*
X68131Y740655D01*
X68298Y740637D01*
X69508Y740637D01*
X72617Y737528D01*
X72617Y735240D01*
X72628Y735169D01*
X72630Y735097D01*
X72648Y735048D01*
X72656Y734997D01*
X72690Y734933D01*
X72715Y734866D01*
X72747Y734825D01*
X72772Y734779D01*
X72824Y734730D01*
X72868Y734674D01*
X72912Y734646D01*
X72950Y734610D01*
X73015Y734580D01*
X73075Y734541D01*
X73126Y734528D01*
X73173Y734506D01*
X73244Y734498D01*
X73314Y734481D01*
X73366Y734485D01*
X73417Y734479D01*
X73488Y734495D01*
X73559Y734500D01*
X73607Y734520D01*
X73658Y734532D01*
X73667Y734537D01*
X78148Y734537D01*
X81257Y731428D01*
X81257Y727032D01*
X78148Y723923D01*
X74848Y723923D01*
X74777Y723912D01*
X74705Y723910D01*
X74656Y723892D01*
X74605Y723884D01*
X74542Y723850D01*
X74474Y723825D01*
X74434Y723793D01*
X74388Y723769D01*
X74338Y723717D01*
X74282Y723672D01*
X74254Y723628D01*
X74218Y723590D01*
X74188Y723525D01*
X74149Y723465D01*
X74137Y723414D01*
X74115Y723367D01*
X74107Y723296D01*
X74089Y723226D01*
X74093Y723174D01*
X74087Y723123D01*
X74103Y723052D01*
X74108Y722981D01*
X74129Y722933D01*
X74140Y722882D01*
X74177Y722821D01*
X74205Y722755D01*
X74249Y722699D01*
X74266Y722671D01*
X74284Y722656D01*
X74309Y722624D01*
X84227Y712707D01*
X84227Y702954D01*
X84241Y702864D01*
X84249Y702773D01*
X84261Y702743D01*
X84266Y702711D01*
X84309Y702631D01*
X84345Y702547D01*
X84371Y702515D01*
X84382Y702494D01*
X84405Y702472D01*
X84450Y702416D01*
X92242Y694624D01*
X92258Y694612D01*
X92270Y694597D01*
X92357Y694541D01*
X92441Y694480D01*
X92460Y694475D01*
X92477Y694464D01*
X92578Y694438D01*
X92676Y694408D01*
X92696Y694409D01*
X92716Y694404D01*
X92819Y694412D01*
X92922Y694414D01*
X92941Y694421D01*
X92961Y694423D01*
X93056Y694463D01*
X93153Y694499D01*
X93169Y694511D01*
X93187Y694519D01*
X93318Y694624D01*
X95150Y696456D01*
X98686Y697921D01*
X102514Y697921D01*
X106050Y696456D01*
X108756Y693750D01*
X110221Y690214D01*
X110221Y686386D01*
X108756Y682850D01*
X106924Y681018D01*
X106912Y681002D01*
X106897Y680990D01*
X106841Y680902D01*
X106780Y680818D01*
X106775Y680799D01*
X106764Y680783D01*
X106738Y680682D01*
X106708Y680583D01*
X106709Y680563D01*
X106704Y680544D01*
X106712Y680441D01*
X106714Y680337D01*
X106721Y680319D01*
X106723Y680299D01*
X106763Y680204D01*
X106799Y680106D01*
X106811Y680091D01*
X106819Y680073D01*
X106924Y679942D01*
X108328Y678537D01*
X168942Y617924D01*
X169016Y617870D01*
X169085Y617811D01*
X169115Y617799D01*
X169142Y617780D01*
X169228Y617753D01*
X169313Y617719D01*
X169354Y617715D01*
X169377Y617708D01*
X169409Y617709D01*
X169480Y617701D01*
X171223Y617701D01*
X171293Y617712D01*
X171365Y617714D01*
X171414Y617732D01*
X171465Y617740D01*
X171529Y617774D01*
X171596Y617799D01*
X171637Y617831D01*
X171683Y617856D01*
X171732Y617908D01*
X171788Y617952D01*
X171816Y617996D01*
X171852Y618034D01*
X171882Y618099D01*
X171921Y618159D01*
X171934Y618210D01*
X171956Y618257D01*
X171964Y618328D01*
X171981Y618398D01*
X171977Y618450D01*
X171983Y618501D01*
X171968Y618572D01*
X171962Y618643D01*
X171942Y618691D01*
X171931Y618742D01*
X171894Y618803D01*
X171866Y618869D01*
X171821Y618925D01*
X171804Y618953D01*
X171787Y618968D01*
X171761Y619000D01*
X171223Y619538D01*
X171223Y623934D01*
X172118Y624829D01*
X172129Y624845D01*
X172145Y624857D01*
X172201Y624945D01*
X172261Y625028D01*
X172267Y625047D01*
X172278Y625064D01*
X172303Y625165D01*
X172334Y625263D01*
X172333Y625283D01*
X172338Y625303D01*
X172330Y625406D01*
X172327Y625509D01*
X172320Y625528D01*
X172319Y625548D01*
X172278Y625643D01*
X172243Y625740D01*
X172230Y625756D01*
X172223Y625774D01*
X172118Y625905D01*
X169397Y628626D01*
X169397Y633022D01*
X172506Y636131D01*
X176902Y636131D01*
X180010Y633022D01*
X180010Y628626D01*
X179116Y627731D01*
X179104Y627715D01*
X179089Y627703D01*
X179033Y627616D01*
X178972Y627532D01*
X178967Y627513D01*
X178956Y627496D01*
X178931Y627395D01*
X178900Y627297D01*
X178901Y627277D01*
X178896Y627257D01*
X178904Y627154D01*
X178906Y627051D01*
X178913Y627032D01*
X178915Y627012D01*
X178955Y626917D01*
X178991Y626820D01*
X179003Y626804D01*
X179011Y626786D01*
X179116Y626655D01*
X181837Y623934D01*
X181837Y619538D01*
X181270Y618971D01*
X181258Y618955D01*
X181243Y618943D01*
X181187Y618855D01*
X181127Y618772D01*
X181121Y618753D01*
X181110Y618736D01*
X181085Y618635D01*
X181054Y618536D01*
X181055Y618516D01*
X181050Y618497D01*
X181058Y618394D01*
X181061Y618291D01*
X181067Y618272D01*
X181069Y618252D01*
X181109Y618157D01*
X181145Y618060D01*
X181158Y618044D01*
X181165Y618026D01*
X181270Y617895D01*
X592065Y207100D01*
X592139Y207047D01*
X592208Y206987D01*
X592239Y206975D01*
X592265Y206956D01*
X592352Y206929D01*
X592437Y206895D01*
X592478Y206891D01*
X592500Y206884D01*
X592532Y206885D01*
X592603Y206877D01*
X895280Y206877D01*
X895350Y206888D01*
X895422Y206890D01*
X895471Y206908D01*
X895522Y206916D01*
X895586Y206950D01*
X895653Y206975D01*
X895694Y207007D01*
X895740Y207032D01*
X895789Y207084D01*
X895845Y207128D01*
X895873Y207172D01*
X895909Y207210D01*
X895939Y207275D01*
X895978Y207335D01*
X895991Y207386D01*
X896013Y207433D01*
X896021Y207504D01*
X896038Y207574D01*
X896034Y207626D01*
X896040Y207677D01*
X896025Y207748D01*
X896019Y207819D01*
X895999Y207867D01*
X895988Y207918D01*
X895951Y207979D01*
X895923Y208045D01*
X895878Y208101D01*
X895861Y208129D01*
X895844Y208144D01*
X895818Y208176D01*
X893544Y210450D01*
X892079Y213986D01*
X892079Y217814D01*
X893300Y220761D01*
X893327Y220874D01*
X893355Y220988D01*
X893355Y220994D01*
X893356Y221000D01*
X893345Y221117D01*
X893336Y221233D01*
X893334Y221239D01*
X893333Y221245D01*
X893285Y221353D01*
X893240Y221459D01*
X893235Y221465D01*
X893233Y221470D01*
X893220Y221484D01*
X893135Y221590D01*
X875681Y239044D01*
X875607Y239097D01*
X875538Y239157D01*
X875507Y239169D01*
X875481Y239188D01*
X875394Y239215D01*
X875309Y239249D01*
X875268Y239253D01*
X875246Y239260D01*
X875214Y239259D01*
X875143Y239267D01*
X621458Y239267D01*
X213594Y647131D01*
X213520Y647184D01*
X213451Y647243D01*
X213421Y647256D01*
X213395Y647274D01*
X213308Y647301D01*
X213223Y647335D01*
X213182Y647340D01*
X213160Y647347D01*
X213127Y647346D01*
X213056Y647354D01*
X200522Y647354D01*
X195036Y652840D01*
X195036Y665374D01*
X195021Y665464D01*
X195014Y665555D01*
X195001Y665585D01*
X194996Y665617D01*
X194953Y665697D01*
X194918Y665781D01*
X194892Y665813D01*
X194881Y665834D01*
X194858Y665856D01*
X194813Y665912D01*
X148469Y712256D01*
X148469Y727993D01*
X148455Y728083D01*
X148447Y728174D01*
X148435Y728204D01*
X148430Y728236D01*
X148387Y728316D01*
X148351Y728400D01*
X148325Y728432D01*
X148314Y728453D01*
X148291Y728475D01*
X148246Y728531D01*
X146251Y730526D01*
X146177Y730579D01*
X146108Y730639D01*
X146078Y730651D01*
X146052Y730670D01*
X145965Y730697D01*
X145880Y730731D01*
X145839Y730735D01*
X145817Y730742D01*
X145784Y730741D01*
X145713Y730749D01*
X129976Y730749D01*
X33135Y827590D01*
X33061Y827643D01*
X32992Y827703D01*
X32961Y827715D01*
X32935Y827734D01*
X32848Y827761D01*
X32763Y827795D01*
X32722Y827799D01*
X32700Y827806D01*
X32668Y827805D01*
X32597Y827813D01*
X28282Y827813D01*
X25173Y830922D01*
X25173Y835318D01*
X28282Y838427D01*
X32678Y838427D01*
X35787Y835318D01*
X35787Y831003D01*
X35791Y830978D01*
X35789Y830963D01*
X35802Y830901D01*
X35809Y830822D01*
X35821Y830793D01*
X35826Y830761D01*
X35838Y830740D01*
X35841Y830722D01*
X35876Y830665D01*
X35905Y830596D01*
X35931Y830564D01*
X35942Y830543D01*
X35957Y830528D01*
X35968Y830511D01*
X35984Y830497D01*
X36010Y830465D01*
X131437Y735038D01*
X131511Y734985D01*
X131580Y734925D01*
X131611Y734913D01*
X131637Y734894D01*
X131724Y734867D01*
X131809Y734833D01*
X131850Y734829D01*
X131872Y734822D01*
X131904Y734823D01*
X131975Y734815D01*
X147712Y734815D01*
X152535Y729992D01*
X152535Y714255D01*
X152549Y714165D01*
X152557Y714074D01*
X152569Y714045D01*
X152574Y714013D01*
X152617Y713932D01*
X152653Y713848D01*
X152679Y713816D01*
X152690Y713795D01*
X152713Y713773D01*
X152758Y713717D01*
X199101Y667373D01*
X199101Y661503D01*
X199113Y661433D01*
X199115Y661361D01*
X199133Y661312D01*
X199141Y661261D01*
X199175Y661197D01*
X199199Y661130D01*
X199232Y661089D01*
X199256Y661043D01*
X199308Y660994D01*
X199353Y660938D01*
X199397Y660910D01*
X199435Y660874D01*
X199500Y660844D01*
X199560Y660805D01*
X199610Y660792D01*
X199658Y660770D01*
X199729Y660762D01*
X199798Y660745D01*
X199850Y660749D01*
X199902Y660743D01*
X199972Y660758D01*
X200044Y660764D01*
X200091Y660784D01*
X200142Y660795D01*
X200204Y660832D01*
X200270Y660860D01*
X200326Y660905D01*
X200354Y660922D01*
X200369Y660939D01*
X200401Y660965D01*
X200938Y661503D01*
X205335Y661503D01*
X208456Y658382D01*
X208457Y658334D01*
X208475Y658285D01*
X208483Y658233D01*
X208517Y658170D01*
X208541Y658103D01*
X208574Y658062D01*
X208598Y658016D01*
X208650Y657967D01*
X208695Y657911D01*
X208739Y657882D01*
X208777Y657847D01*
X208842Y657816D01*
X208902Y657778D01*
X208952Y657765D01*
X209000Y657743D01*
X209071Y657735D01*
X209140Y657717D01*
X209192Y657722D01*
X209244Y657716D01*
X209314Y657731D01*
X209386Y657737D01*
X209433Y657757D01*
X209484Y657768D01*
X209546Y657805D01*
X209612Y657833D01*
X209668Y657878D01*
X209696Y657894D01*
X209711Y657912D01*
X209743Y657938D01*
X212566Y660761D01*
X216963Y660761D01*
X220071Y657653D01*
X220071Y653256D01*
X217183Y650368D01*
X217171Y650352D01*
X217156Y650340D01*
X217105Y650261D01*
X217097Y650253D01*
X217092Y650242D01*
X217040Y650168D01*
X217034Y650150D01*
X217023Y650133D01*
X217001Y650045D01*
X216994Y650029D01*
X216992Y650014D01*
X216967Y649933D01*
X216968Y649913D01*
X216963Y649894D01*
X216969Y649810D01*
X216967Y649785D01*
X216972Y649762D01*
X216974Y649687D01*
X216980Y649669D01*
X216982Y649649D01*
X217011Y649581D01*
X217019Y649545D01*
X217037Y649515D01*
X217058Y649456D01*
X217071Y649441D01*
X217078Y649423D01*
X217132Y649356D01*
X217145Y649334D01*
X217159Y649321D01*
X217183Y649292D01*
X350264Y516211D01*
X350322Y516169D01*
X350374Y516120D01*
X350421Y516098D01*
X350463Y516067D01*
X350532Y516046D01*
X350597Y516016D01*
X350649Y516010D01*
X350699Y515995D01*
X350770Y515997D01*
X350841Y515989D01*
X350892Y516000D01*
X350944Y516001D01*
X351012Y516026D01*
X351082Y516041D01*
X351126Y516068D01*
X351175Y516086D01*
X351231Y516131D01*
X351293Y516167D01*
X351327Y516207D01*
X351367Y516240D01*
X351406Y516300D01*
X351453Y516354D01*
X351472Y516403D01*
X351500Y516447D01*
X351518Y516516D01*
X351545Y516583D01*
X351553Y516654D01*
X351561Y516685D01*
X351559Y516708D01*
X351563Y516749D01*
X351563Y519088D01*
X354672Y522197D01*
X359068Y522197D01*
X362177Y519088D01*
X362177Y514692D01*
X359068Y511583D01*
X356729Y511583D01*
X356659Y511572D01*
X356587Y511570D01*
X356538Y511552D01*
X356487Y511544D01*
X356423Y511510D01*
X356356Y511485D01*
X356315Y511453D01*
X356269Y511428D01*
X356220Y511376D01*
X356164Y511332D01*
X356136Y511288D01*
X356100Y511250D01*
X356070Y511185D01*
X356031Y511125D01*
X356018Y511074D01*
X355996Y511027D01*
X355988Y510956D01*
X355971Y510886D01*
X355975Y510834D01*
X355969Y510783D01*
X355984Y510712D01*
X355990Y510641D01*
X356010Y510593D01*
X356021Y510542D01*
X356058Y510481D01*
X356086Y510415D01*
X356131Y510359D01*
X356147Y510331D01*
X356165Y510316D01*
X356191Y510284D01*
X622919Y243556D01*
X622993Y243503D01*
X623062Y243443D01*
X623093Y243431D01*
X623119Y243412D01*
X623206Y243385D01*
X623291Y243351D01*
X623332Y243347D01*
X623354Y243340D01*
X623386Y243341D01*
X623457Y243333D01*
X877142Y243333D01*
X896010Y224465D01*
X896104Y224398D01*
X896198Y224327D01*
X896204Y224325D01*
X896209Y224322D01*
X896320Y224287D01*
X896432Y224251D01*
X896439Y224251D01*
X896444Y224249D01*
X896561Y224252D01*
X896678Y224253D01*
X896685Y224255D01*
X896690Y224256D01*
X896708Y224262D01*
X896839Y224300D01*
X899786Y225521D01*
X903614Y225521D01*
X907150Y224056D01*
X909856Y221350D01*
X911321Y217814D01*
X911321Y213986D01*
X909856Y210450D01*
X907582Y208176D01*
X907540Y208118D01*
X907491Y208066D01*
X907469Y208019D01*
X907438Y207977D01*
X907417Y207908D01*
X907387Y207843D01*
X907381Y207791D01*
X907366Y207741D01*
X907368Y207670D01*
X907360Y207599D01*
X907371Y207548D01*
X907372Y207496D01*
X907397Y207428D01*
X907412Y207358D01*
X907439Y207313D01*
X907457Y207265D01*
X907502Y207209D01*
X907539Y207147D01*
X907578Y207113D01*
X907611Y207073D01*
X907671Y207034D01*
X907725Y206987D01*
X907774Y206968D01*
X907818Y206940D01*
X907887Y206922D01*
X907954Y206895D01*
X908025Y206887D01*
X908056Y206879D01*
X908079Y206881D01*
X908120Y206877D01*
X920680Y206877D01*
X920750Y206888D01*
X920822Y206890D01*
X920871Y206908D01*
X920922Y206916D01*
X920986Y206950D01*
X921053Y206975D01*
X921094Y207007D01*
X921140Y207032D01*
X921189Y207084D01*
X921245Y207128D01*
X921273Y207172D01*
X921309Y207210D01*
X921339Y207275D01*
X921378Y207335D01*
X921391Y207386D01*
X921413Y207433D01*
X921421Y207504D01*
X921438Y207574D01*
X921434Y207626D01*
X921440Y207677D01*
X921425Y207748D01*
X921419Y207819D01*
X921399Y207867D01*
X921388Y207918D01*
X921351Y207979D01*
X921323Y208045D01*
X921278Y208101D01*
X921261Y208129D01*
X921244Y208144D01*
X921218Y208176D01*
X918944Y210450D01*
X917479Y213986D01*
X917479Y217814D01*
X918944Y221350D01*
X921650Y224056D01*
X925186Y225521D01*
X929014Y225521D01*
X932550Y224056D01*
X935256Y221350D01*
X936721Y217814D01*
X936721Y213986D01*
X935256Y210450D01*
X932982Y208176D01*
X932940Y208118D01*
X932891Y208066D01*
X932869Y208019D01*
X932838Y207977D01*
X932817Y207908D01*
X932787Y207843D01*
X932781Y207791D01*
X932766Y207741D01*
X932768Y207670D01*
X932760Y207599D01*
X932771Y207548D01*
X932772Y207496D01*
X932797Y207428D01*
X932812Y207358D01*
X932839Y207313D01*
X932857Y207265D01*
X932902Y207209D01*
X932939Y207147D01*
X932978Y207113D01*
X933011Y207073D01*
X933071Y207034D01*
X933125Y206987D01*
X933174Y206968D01*
X933218Y206940D01*
X933287Y206922D01*
X933354Y206895D01*
X933425Y206887D01*
X933456Y206879D01*
X933479Y206881D01*
X933520Y206877D01*
X946080Y206877D01*
X946150Y206888D01*
X946222Y206890D01*
X946271Y206908D01*
X946322Y206916D01*
X946386Y206950D01*
X946453Y206975D01*
X946494Y207007D01*
X946540Y207032D01*
X946589Y207084D01*
X946645Y207128D01*
X946673Y207172D01*
X946709Y207210D01*
X946739Y207275D01*
X946778Y207335D01*
X946791Y207386D01*
X946813Y207433D01*
X946821Y207504D01*
X946838Y207574D01*
X946834Y207626D01*
X946840Y207677D01*
X946825Y207748D01*
X946819Y207819D01*
X946799Y207867D01*
X946788Y207918D01*
X946751Y207979D01*
X946723Y208045D01*
X946678Y208101D01*
X946661Y208129D01*
X946644Y208144D01*
X946618Y208176D01*
X944344Y210450D01*
X942879Y213986D01*
X942879Y217814D01*
X944344Y221350D01*
X947050Y224056D01*
X950586Y225521D01*
X954414Y225521D01*
X957950Y224056D01*
X960656Y221350D01*
X962121Y217814D01*
X962121Y213986D01*
X960656Y210450D01*
X958382Y208176D01*
X958340Y208118D01*
X958291Y208066D01*
X958269Y208019D01*
X958238Y207977D01*
X958217Y207908D01*
X958187Y207843D01*
X958181Y207791D01*
X958166Y207741D01*
X958168Y207670D01*
X958160Y207599D01*
X958171Y207548D01*
X958172Y207496D01*
X958197Y207428D01*
X958212Y207358D01*
X958239Y207313D01*
X958257Y207265D01*
X958302Y207209D01*
X958339Y207147D01*
X958378Y207113D01*
X958411Y207073D01*
X958471Y207034D01*
X958525Y206987D01*
X958574Y206968D01*
X958618Y206940D01*
X958687Y206922D01*
X958754Y206895D01*
X958825Y206887D01*
X958856Y206879D01*
X958879Y206881D01*
X958920Y206877D01*
X971480Y206877D01*
X971550Y206888D01*
X971622Y206890D01*
X971671Y206908D01*
X971722Y206916D01*
X971786Y206950D01*
X971853Y206975D01*
X971894Y207007D01*
X971940Y207032D01*
X971989Y207084D01*
X972045Y207128D01*
X972073Y207172D01*
X972109Y207210D01*
X972139Y207275D01*
X972178Y207335D01*
X972191Y207386D01*
X972213Y207433D01*
X972221Y207504D01*
X972238Y207574D01*
X972234Y207626D01*
X972240Y207677D01*
X972225Y207748D01*
X972219Y207819D01*
X972199Y207867D01*
X972188Y207918D01*
X972151Y207979D01*
X972123Y208045D01*
X972078Y208101D01*
X972061Y208129D01*
X972044Y208144D01*
X972018Y208176D01*
X969744Y210450D01*
X968279Y213986D01*
X968279Y217814D01*
X969744Y221350D01*
X972450Y224056D01*
X975986Y225521D01*
X979814Y225521D01*
X983350Y224056D01*
X986056Y221350D01*
X987521Y217814D01*
X987521Y213986D01*
X986056Y210450D01*
X983782Y208176D01*
X983740Y208118D01*
X983691Y208066D01*
X983669Y208019D01*
X983638Y207977D01*
X983617Y207908D01*
X983587Y207843D01*
X983581Y207791D01*
X983566Y207741D01*
X983568Y207670D01*
X983560Y207599D01*
X983571Y207548D01*
X983572Y207496D01*
X983597Y207428D01*
X983612Y207358D01*
X983639Y207313D01*
X983657Y207265D01*
X983702Y207209D01*
X983739Y207147D01*
X983778Y207113D01*
X983811Y207073D01*
X983871Y207034D01*
X983925Y206987D01*
X983974Y206968D01*
X984018Y206940D01*
X984087Y206922D01*
X984154Y206895D01*
X984225Y206887D01*
X984256Y206879D01*
X984279Y206881D01*
X984320Y206877D01*
X996880Y206877D01*
X996950Y206888D01*
X997022Y206890D01*
X997071Y206908D01*
X997122Y206916D01*
X997186Y206950D01*
X997253Y206975D01*
X997294Y207007D01*
X997340Y207032D01*
X997389Y207084D01*
X997445Y207128D01*
X997473Y207172D01*
X997509Y207210D01*
X997539Y207275D01*
X997578Y207335D01*
X997591Y207386D01*
X997613Y207433D01*
X997621Y207504D01*
X997638Y207574D01*
X997634Y207626D01*
X997640Y207677D01*
X997625Y207748D01*
X997619Y207819D01*
X997599Y207867D01*
X997588Y207918D01*
X997551Y207979D01*
X997523Y208045D01*
X997478Y208101D01*
X997461Y208129D01*
X997444Y208144D01*
X997418Y208176D01*
X995144Y210450D01*
X993679Y213986D01*
X993679Y217814D01*
X995144Y221350D01*
X997850Y224056D01*
X1001386Y225521D01*
X1005214Y225521D01*
X1008750Y224056D01*
X1011456Y221350D01*
X1012921Y217814D01*
X1012921Y213986D01*
X1011456Y210450D01*
X1009182Y208176D01*
X1009140Y208118D01*
X1009091Y208066D01*
X1009069Y208019D01*
X1009038Y207977D01*
X1009017Y207908D01*
X1008987Y207843D01*
X1008981Y207791D01*
X1008966Y207741D01*
X1008968Y207670D01*
X1008960Y207599D01*
X1008971Y207548D01*
X1008972Y207496D01*
X1008997Y207428D01*
X1009012Y207358D01*
X1009039Y207313D01*
X1009057Y207265D01*
X1009102Y207209D01*
X1009139Y207147D01*
X1009178Y207113D01*
X1009211Y207073D01*
X1009271Y207034D01*
X1009325Y206987D01*
X1009374Y206968D01*
X1009418Y206940D01*
X1009487Y206922D01*
X1009554Y206895D01*
X1009625Y206887D01*
X1009656Y206879D01*
X1009679Y206881D01*
X1009720Y206877D01*
X1022280Y206877D01*
X1022350Y206888D01*
X1022422Y206890D01*
X1022471Y206908D01*
X1022522Y206916D01*
X1022586Y206950D01*
X1022653Y206975D01*
X1022694Y207007D01*
X1022740Y207032D01*
X1022789Y207084D01*
X1022845Y207128D01*
X1022873Y207172D01*
X1022909Y207210D01*
X1022939Y207275D01*
X1022978Y207335D01*
X1022991Y207386D01*
X1023013Y207433D01*
X1023021Y207504D01*
X1023038Y207574D01*
X1023034Y207626D01*
X1023040Y207677D01*
X1023025Y207748D01*
X1023019Y207819D01*
X1022999Y207867D01*
X1022988Y207918D01*
X1022951Y207979D01*
X1022923Y208045D01*
X1022878Y208101D01*
X1022861Y208129D01*
X1022844Y208144D01*
X1022818Y208176D01*
X1020544Y210450D01*
X1019079Y213986D01*
X1019079Y217814D01*
X1020544Y221350D01*
X1023250Y224056D01*
X1026786Y225521D01*
X1030614Y225521D01*
X1034150Y224056D01*
X1036856Y221350D01*
X1038321Y217814D01*
X1038321Y213986D01*
X1036856Y210450D01*
X1034582Y208176D01*
X1034540Y208118D01*
X1034491Y208066D01*
X1034469Y208019D01*
X1034438Y207977D01*
X1034417Y207908D01*
X1034387Y207843D01*
X1034381Y207791D01*
X1034366Y207741D01*
X1034368Y207670D01*
X1034360Y207599D01*
X1034371Y207548D01*
X1034372Y207496D01*
X1034397Y207428D01*
X1034412Y207358D01*
X1034439Y207313D01*
X1034457Y207265D01*
X1034502Y207209D01*
X1034539Y207147D01*
X1034578Y207113D01*
X1034611Y207073D01*
X1034671Y207034D01*
X1034725Y206987D01*
X1034774Y206968D01*
X1034818Y206940D01*
X1034887Y206922D01*
X1034954Y206895D01*
X1035025Y206887D01*
X1035056Y206879D01*
X1035079Y206881D01*
X1035120Y206877D01*
X1044046Y206877D01*
X1044136Y206891D01*
X1044227Y206899D01*
X1044257Y206911D01*
X1044289Y206916D01*
X1044369Y206959D01*
X1044453Y206995D01*
X1044485Y207021D01*
X1044506Y207032D01*
X1044528Y207055D01*
X1044584Y207100D01*
X1046401Y208917D01*
X1046413Y208933D01*
X1046428Y208945D01*
X1046484Y209032D01*
X1046545Y209116D01*
X1046551Y209135D01*
X1046561Y209152D01*
X1046587Y209252D01*
X1046617Y209351D01*
X1046616Y209371D01*
X1046621Y209391D01*
X1046613Y209494D01*
X1046611Y209597D01*
X1046604Y209616D01*
X1046602Y209636D01*
X1046562Y209731D01*
X1046526Y209828D01*
X1046514Y209844D01*
X1046506Y209862D01*
X1046401Y209993D01*
X1045944Y210450D01*
X1044479Y213986D01*
X1044479Y217814D01*
X1045944Y221350D01*
X1048650Y224056D01*
X1052186Y225521D01*
X1056014Y225521D01*
X1059550Y224056D01*
X1062256Y221350D01*
X1063721Y217814D01*
X1063721Y213986D01*
X1062256Y210450D01*
X1059550Y207744D01*
X1056014Y206279D01*
X1052186Y206279D01*
X1050766Y206868D01*
X1050653Y206894D01*
X1050539Y206923D01*
X1050533Y206922D01*
X1050527Y206924D01*
X1050410Y206913D01*
X1050294Y206904D01*
X1050288Y206901D01*
X1050282Y206901D01*
X1050174Y206853D01*
X1050067Y206807D01*
X1050062Y206803D01*
X1050057Y206801D01*
X1050043Y206788D01*
X1049937Y206703D01*
X1046045Y202811D01*
X590604Y202811D01*
G37*
%LPD*%
%LPC*%
G36*
X1077586Y206279D02*
X1077586Y206279D01*
X1074050Y207744D01*
X1071344Y210450D01*
X1069879Y213986D01*
X1069879Y217814D01*
X1071100Y220761D01*
X1071127Y220874D01*
X1071155Y220988D01*
X1071155Y220994D01*
X1071156Y221000D01*
X1071145Y221117D01*
X1071136Y221233D01*
X1071134Y221239D01*
X1071133Y221245D01*
X1071085Y221353D01*
X1071040Y221459D01*
X1071035Y221465D01*
X1071033Y221470D01*
X1071020Y221484D01*
X1070935Y221590D01*
X1028081Y264444D01*
X1028007Y264497D01*
X1027938Y264557D01*
X1027907Y264569D01*
X1027881Y264588D01*
X1027794Y264615D01*
X1027709Y264649D01*
X1027668Y264653D01*
X1027646Y264660D01*
X1027614Y264659D01*
X1027543Y264667D01*
X1006514Y264667D01*
X1006418Y264652D01*
X1006321Y264642D01*
X1006297Y264632D01*
X1006271Y264628D01*
X1006185Y264582D01*
X1006096Y264542D01*
X1006077Y264525D01*
X1006054Y264512D01*
X1005987Y264442D01*
X1005915Y264376D01*
X1005903Y264353D01*
X1005885Y264334D01*
X1005844Y264246D01*
X1005797Y264160D01*
X1005792Y264135D01*
X1005781Y264111D01*
X1005770Y264014D01*
X1005753Y263918D01*
X1005757Y263892D01*
X1005754Y263867D01*
X1005775Y263771D01*
X1005789Y263675D01*
X1005801Y263652D01*
X1005806Y263626D01*
X1005856Y263543D01*
X1005900Y263456D01*
X1005919Y263437D01*
X1005932Y263415D01*
X1006006Y263352D01*
X1006076Y263284D01*
X1006104Y263268D01*
X1006119Y263255D01*
X1006150Y263243D01*
X1006223Y263203D01*
X1008750Y262156D01*
X1011456Y259450D01*
X1012921Y255914D01*
X1012921Y252086D01*
X1011456Y248550D01*
X1008750Y245844D01*
X1005214Y244379D01*
X1001386Y244379D01*
X997850Y245844D01*
X995144Y248550D01*
X993679Y252086D01*
X993679Y255914D01*
X995144Y259450D01*
X997850Y262156D01*
X1000377Y263203D01*
X1000460Y263254D01*
X1000546Y263300D01*
X1000564Y263318D01*
X1000586Y263332D01*
X1000649Y263408D01*
X1000715Y263478D01*
X1000726Y263502D01*
X1000743Y263522D01*
X1000778Y263613D01*
X1000819Y263701D01*
X1000822Y263727D01*
X1000831Y263751D01*
X1000835Y263849D01*
X1000846Y263945D01*
X1000841Y263971D01*
X1000842Y263997D01*
X1000815Y264091D01*
X1000794Y264186D01*
X1000780Y264208D01*
X1000773Y264233D01*
X1000718Y264313D01*
X1000668Y264397D01*
X1000648Y264414D01*
X1000633Y264435D01*
X1000555Y264494D01*
X1000481Y264557D01*
X1000456Y264567D01*
X1000436Y264582D01*
X1000343Y264612D01*
X1000253Y264649D01*
X1000220Y264652D01*
X1000202Y264658D01*
X1000169Y264658D01*
X1000086Y264667D01*
X981114Y264667D01*
X981018Y264652D01*
X980921Y264642D01*
X980897Y264632D01*
X980871Y264628D01*
X980785Y264582D01*
X980696Y264542D01*
X980677Y264525D01*
X980654Y264512D01*
X980587Y264442D01*
X980515Y264376D01*
X980503Y264353D01*
X980485Y264334D01*
X980444Y264246D01*
X980397Y264160D01*
X980392Y264135D01*
X980381Y264111D01*
X980370Y264014D01*
X980353Y263918D01*
X980357Y263892D01*
X980354Y263867D01*
X980375Y263771D01*
X980389Y263675D01*
X980401Y263652D01*
X980406Y263626D01*
X980456Y263543D01*
X980500Y263456D01*
X980519Y263437D01*
X980532Y263415D01*
X980606Y263352D01*
X980676Y263284D01*
X980704Y263268D01*
X980719Y263255D01*
X980750Y263243D01*
X980823Y263203D01*
X983350Y262156D01*
X986056Y259450D01*
X987521Y255914D01*
X987521Y252086D01*
X986056Y248550D01*
X983350Y245844D01*
X979814Y244379D01*
X975986Y244379D01*
X972450Y245844D01*
X969744Y248550D01*
X968279Y252086D01*
X968279Y255914D01*
X969744Y259450D01*
X972450Y262156D01*
X974977Y263203D01*
X975060Y263254D01*
X975146Y263300D01*
X975164Y263318D01*
X975186Y263332D01*
X975249Y263408D01*
X975315Y263478D01*
X975326Y263502D01*
X975343Y263522D01*
X975378Y263613D01*
X975419Y263701D01*
X975422Y263727D01*
X975431Y263751D01*
X975435Y263849D01*
X975446Y263945D01*
X975441Y263971D01*
X975442Y263997D01*
X975415Y264091D01*
X975394Y264186D01*
X975380Y264208D01*
X975373Y264233D01*
X975318Y264313D01*
X975268Y264397D01*
X975248Y264414D01*
X975233Y264435D01*
X975155Y264494D01*
X975081Y264557D01*
X975056Y264567D01*
X975036Y264582D01*
X974943Y264612D01*
X974853Y264649D01*
X974820Y264652D01*
X974802Y264658D01*
X974769Y264658D01*
X974686Y264667D01*
X634158Y264667D01*
X199099Y699726D01*
X199099Y715286D01*
X199088Y715356D01*
X199086Y715428D01*
X199068Y715477D01*
X199060Y715528D01*
X199026Y715592D01*
X199001Y715659D01*
X198969Y715700D01*
X198944Y715746D01*
X198892Y715795D01*
X198848Y715851D01*
X198804Y715879D01*
X198766Y715915D01*
X198701Y715945D01*
X198641Y715984D01*
X198590Y715997D01*
X198543Y716019D01*
X198472Y716027D01*
X198402Y716044D01*
X198350Y716040D01*
X198299Y716046D01*
X198228Y716031D01*
X198157Y716025D01*
X198109Y716005D01*
X198058Y715994D01*
X197997Y715957D01*
X197931Y715929D01*
X197875Y715884D01*
X197847Y715867D01*
X197832Y715850D01*
X197800Y715824D01*
X196150Y714174D01*
X192614Y712709D01*
X188786Y712709D01*
X185250Y714174D01*
X182544Y716880D01*
X181079Y720416D01*
X181079Y724244D01*
X182544Y727780D01*
X185250Y730486D01*
X186728Y731098D01*
X186768Y731123D01*
X186811Y731138D01*
X186871Y731187D01*
X186937Y731228D01*
X186967Y731263D01*
X187003Y731292D01*
X187045Y731357D01*
X187094Y731417D01*
X187111Y731460D01*
X187136Y731499D01*
X187155Y731574D01*
X187182Y731647D01*
X187184Y731693D01*
X187196Y731737D01*
X187190Y731815D01*
X187193Y731893D01*
X187180Y731937D01*
X187177Y731983D01*
X187146Y732054D01*
X187124Y732129D01*
X187098Y732167D01*
X187080Y732209D01*
X186995Y732316D01*
X186984Y732331D01*
X186980Y732334D01*
X186975Y732340D01*
X181501Y737814D01*
X181427Y737867D01*
X181358Y737927D01*
X181327Y737939D01*
X181301Y737958D01*
X181214Y737985D01*
X181129Y738019D01*
X181088Y738023D01*
X181066Y738030D01*
X181034Y738029D01*
X180963Y738037D01*
X176648Y738037D01*
X173539Y741146D01*
X173539Y745542D01*
X176648Y748651D01*
X181044Y748651D01*
X183217Y746478D01*
X183233Y746467D01*
X183245Y746451D01*
X183333Y746395D01*
X183416Y746335D01*
X183435Y746329D01*
X183452Y746318D01*
X183553Y746293D01*
X183652Y746262D01*
X183671Y746263D01*
X183691Y746258D01*
X183794Y746266D01*
X183897Y746269D01*
X183916Y746275D01*
X183936Y746277D01*
X184031Y746317D01*
X184128Y746353D01*
X184144Y746366D01*
X184162Y746373D01*
X184293Y746478D01*
X187302Y749487D01*
X191698Y749487D01*
X194807Y746378D01*
X194807Y743076D01*
X194810Y743056D01*
X194808Y743037D01*
X194830Y742935D01*
X194846Y742833D01*
X194856Y742816D01*
X194860Y742796D01*
X194913Y742707D01*
X194962Y742616D01*
X194976Y742602D01*
X194986Y742585D01*
X195065Y742518D01*
X195140Y742446D01*
X195158Y742438D01*
X195173Y742425D01*
X195269Y742386D01*
X195363Y742343D01*
X195383Y742341D01*
X195401Y742333D01*
X195568Y742315D01*
X214242Y742315D01*
X228515Y728042D01*
X228515Y717175D01*
X228493Y717145D01*
X228433Y717075D01*
X228421Y717045D01*
X228402Y717019D01*
X228375Y716932D01*
X228341Y716847D01*
X228337Y716806D01*
X228330Y716784D01*
X228331Y716752D01*
X228323Y716680D01*
X228323Y710047D01*
X228337Y709957D01*
X228345Y709866D01*
X228357Y709837D01*
X228362Y709805D01*
X228405Y709724D01*
X228441Y709640D01*
X228467Y709608D01*
X228478Y709587D01*
X228501Y709565D01*
X228546Y709509D01*
X453199Y484856D01*
X453273Y484803D01*
X453342Y484743D01*
X453373Y484731D01*
X453399Y484712D01*
X453486Y484685D01*
X453571Y484651D01*
X453612Y484647D01*
X453634Y484640D01*
X453666Y484641D01*
X453737Y484633D01*
X891620Y484633D01*
X891735Y484652D01*
X891851Y484669D01*
X891857Y484671D01*
X891863Y484672D01*
X891965Y484727D01*
X892070Y484780D01*
X892075Y484785D01*
X892080Y484788D01*
X892160Y484872D01*
X892242Y484956D01*
X892246Y484962D01*
X892249Y484966D01*
X892257Y484983D01*
X892323Y485103D01*
X893544Y488050D01*
X896250Y490756D01*
X899786Y492221D01*
X903614Y492221D01*
X907150Y490756D01*
X909856Y488050D01*
X911321Y484514D01*
X911321Y480686D01*
X909856Y477150D01*
X907150Y474444D01*
X903614Y472979D01*
X899786Y472979D01*
X896250Y474444D01*
X893544Y477150D01*
X892323Y480097D01*
X892261Y480197D01*
X892202Y480297D01*
X892197Y480301D01*
X892194Y480306D01*
X892103Y480381D01*
X892015Y480457D01*
X892009Y480459D01*
X892004Y480463D01*
X891896Y480505D01*
X891787Y480549D01*
X891779Y480550D01*
X891775Y480551D01*
X891756Y480552D01*
X891620Y480567D01*
X451738Y480567D01*
X224257Y708048D01*
X224257Y715044D01*
X224246Y715114D01*
X224244Y715186D01*
X224226Y715235D01*
X224218Y715286D01*
X224184Y715350D01*
X224159Y715417D01*
X224127Y715458D01*
X224102Y715504D01*
X224050Y715553D01*
X224006Y715609D01*
X223962Y715637D01*
X223924Y715673D01*
X223859Y715703D01*
X223799Y715742D01*
X223748Y715755D01*
X223701Y715777D01*
X223630Y715785D01*
X223560Y715802D01*
X223508Y715798D01*
X223457Y715804D01*
X223386Y715789D01*
X223315Y715783D01*
X223267Y715763D01*
X223216Y715752D01*
X223155Y715715D01*
X223089Y715687D01*
X223033Y715642D01*
X223005Y715625D01*
X222990Y715608D01*
X222958Y715582D01*
X221550Y714174D01*
X218014Y712709D01*
X214186Y712709D01*
X210650Y714174D01*
X207944Y716880D01*
X206479Y720416D01*
X206479Y724244D01*
X207944Y727780D01*
X210650Y730486D01*
X214186Y731951D01*
X217019Y731951D01*
X217090Y731962D01*
X217162Y731964D01*
X217211Y731982D01*
X217262Y731990D01*
X217325Y732024D01*
X217393Y732049D01*
X217433Y732081D01*
X217479Y732106D01*
X217529Y732158D01*
X217585Y732202D01*
X217613Y732246D01*
X217649Y732284D01*
X217679Y732349D01*
X217718Y732409D01*
X217730Y732460D01*
X217752Y732507D01*
X217760Y732578D01*
X217778Y732648D01*
X217774Y732700D01*
X217779Y732751D01*
X217764Y732822D01*
X217759Y732893D01*
X217738Y732941D01*
X217727Y732992D01*
X217690Y733053D01*
X217662Y733119D01*
X217617Y733175D01*
X217601Y733203D01*
X217583Y733218D01*
X217557Y733250D01*
X212781Y738026D01*
X212707Y738079D01*
X212638Y738139D01*
X212608Y738151D01*
X212582Y738170D01*
X212494Y738197D01*
X212410Y738231D01*
X212369Y738235D01*
X212347Y738242D01*
X212314Y738241D01*
X212243Y738249D01*
X192556Y738249D01*
X192155Y738650D01*
X192081Y738703D01*
X192012Y738763D01*
X191981Y738775D01*
X191955Y738794D01*
X191868Y738821D01*
X191783Y738855D01*
X191742Y738859D01*
X191720Y738866D01*
X191688Y738865D01*
X191617Y738873D01*
X188029Y738873D01*
X187959Y738862D01*
X187887Y738860D01*
X187838Y738842D01*
X187787Y738834D01*
X187723Y738800D01*
X187656Y738775D01*
X187615Y738743D01*
X187569Y738718D01*
X187520Y738666D01*
X187464Y738622D01*
X187436Y738578D01*
X187400Y738540D01*
X187370Y738475D01*
X187331Y738415D01*
X187318Y738364D01*
X187296Y738317D01*
X187288Y738246D01*
X187271Y738176D01*
X187275Y738124D01*
X187269Y738073D01*
X187284Y738002D01*
X187290Y737931D01*
X187310Y737883D01*
X187321Y737832D01*
X187358Y737771D01*
X187386Y737705D01*
X187431Y737649D01*
X187447Y737621D01*
X187465Y737606D01*
X187491Y737574D01*
X190097Y734968D01*
X190171Y734915D01*
X190240Y734855D01*
X190271Y734843D01*
X190297Y734824D01*
X190384Y734797D01*
X190469Y734763D01*
X190510Y734759D01*
X190532Y734752D01*
X190564Y734753D01*
X190635Y734745D01*
X198602Y734745D01*
X203165Y730182D01*
X203165Y701725D01*
X203179Y701635D01*
X203187Y701544D01*
X203199Y701515D01*
X203204Y701483D01*
X203247Y701402D01*
X203283Y701318D01*
X203309Y701286D01*
X203320Y701265D01*
X203343Y701243D01*
X203388Y701187D01*
X635619Y268956D01*
X635693Y268903D01*
X635762Y268843D01*
X635793Y268831D01*
X635819Y268812D01*
X635906Y268785D01*
X635991Y268751D01*
X636032Y268747D01*
X636054Y268740D01*
X636086Y268741D01*
X636157Y268733D01*
X1029542Y268733D01*
X1030956Y267319D01*
X1073810Y224465D01*
X1073904Y224398D01*
X1073998Y224327D01*
X1074004Y224325D01*
X1074009Y224322D01*
X1074120Y224287D01*
X1074232Y224251D01*
X1074239Y224251D01*
X1074244Y224249D01*
X1074361Y224252D01*
X1074478Y224253D01*
X1074485Y224255D01*
X1074490Y224256D01*
X1074508Y224262D01*
X1074639Y224300D01*
X1077586Y225521D01*
X1081414Y225521D01*
X1084950Y224056D01*
X1087656Y221350D01*
X1089121Y217814D01*
X1089121Y213986D01*
X1087656Y210450D01*
X1084950Y207744D01*
X1081414Y206279D01*
X1077586Y206279D01*
G37*
%LPD*%
%LPC*%
G36*
X730528Y821199D02*
X730528Y821199D01*
X724280Y823787D01*
X719497Y828570D01*
X716909Y834818D01*
X716909Y841582D01*
X719497Y847830D01*
X724280Y852613D01*
X730528Y855201D01*
X737292Y855201D01*
X743540Y852613D01*
X748323Y847830D01*
X750911Y841582D01*
X750911Y834818D01*
X748323Y828570D01*
X743540Y823787D01*
X737292Y821199D01*
X730528Y821199D01*
G37*
%LPD*%
%LPC*%
G36*
X616528Y821199D02*
X616528Y821199D01*
X610280Y823787D01*
X605497Y828570D01*
X602909Y834818D01*
X602909Y841582D01*
X605497Y847830D01*
X610280Y852613D01*
X616528Y855201D01*
X623292Y855201D01*
X629540Y852613D01*
X634323Y847830D01*
X636911Y841582D01*
X636911Y834818D01*
X634323Y828570D01*
X629540Y823787D01*
X623292Y821199D01*
X616528Y821199D01*
G37*
%LPD*%
%LPC*%
G36*
X187317Y491999D02*
X187317Y491999D01*
X181436Y494435D01*
X176935Y498936D01*
X174499Y504817D01*
X174499Y511183D01*
X176935Y517064D01*
X181436Y521565D01*
X187317Y524001D01*
X193683Y524001D01*
X199564Y521565D01*
X204065Y517064D01*
X206501Y511183D01*
X206501Y504817D01*
X204065Y498936D01*
X199564Y494435D01*
X193683Y491999D01*
X187317Y491999D01*
G37*
%LPD*%
%LPC*%
G36*
X809617Y834899D02*
X809617Y834899D01*
X803736Y837335D01*
X799235Y841836D01*
X796799Y847717D01*
X796799Y854083D01*
X799235Y859964D01*
X803736Y864465D01*
X809617Y866901D01*
X815983Y866901D01*
X821864Y864465D01*
X826365Y859964D01*
X828801Y854083D01*
X828801Y847717D01*
X826365Y841836D01*
X821864Y837335D01*
X815983Y834899D01*
X809617Y834899D01*
G37*
%LPD*%
%LPC*%
G36*
X987417Y34799D02*
X987417Y34799D01*
X981536Y37235D01*
X977035Y41736D01*
X974599Y47617D01*
X974599Y53983D01*
X977035Y59864D01*
X981536Y64365D01*
X987417Y66801D01*
X993783Y66801D01*
X999664Y64365D01*
X1004165Y59864D01*
X1006601Y53983D01*
X1006601Y47617D01*
X1004165Y41736D01*
X999664Y37235D01*
X993783Y34799D01*
X987417Y34799D01*
G37*
%LPD*%
%LPC*%
G36*
X327017Y174499D02*
X327017Y174499D01*
X321136Y176935D01*
X316635Y181436D01*
X314199Y187317D01*
X314199Y193683D01*
X316635Y199564D01*
X321136Y204065D01*
X327017Y206501D01*
X333383Y206501D01*
X339264Y204065D01*
X343765Y199564D01*
X346201Y193683D01*
X346201Y187317D01*
X343765Y181436D01*
X339264Y176935D01*
X333383Y174499D01*
X327017Y174499D01*
G37*
%LPD*%
%LPC*%
G36*
X95313Y483299D02*
X95313Y483299D01*
X90902Y485126D01*
X87526Y488502D01*
X85699Y492913D01*
X85699Y497687D01*
X87526Y502098D01*
X90902Y505474D01*
X95313Y507301D01*
X100087Y507301D01*
X104498Y505474D01*
X107874Y502098D01*
X109701Y497687D01*
X109701Y492913D01*
X107874Y488502D01*
X104498Y485126D01*
X100087Y483299D01*
X95313Y483299D01*
G37*
%LPD*%
%LPC*%
G36*
X699871Y897949D02*
X699871Y897949D01*
X696103Y899510D01*
X693220Y902393D01*
X691659Y906161D01*
X691659Y910239D01*
X693220Y914007D01*
X696103Y916890D01*
X699871Y918451D01*
X703949Y918451D01*
X707717Y916890D01*
X710600Y914007D01*
X712161Y910239D01*
X712161Y906161D01*
X710600Y902393D01*
X707717Y899510D01*
X703949Y897949D01*
X699871Y897949D01*
G37*
%LPD*%
%LPC*%
G36*
X649871Y897949D02*
X649871Y897949D01*
X646103Y899510D01*
X643220Y902393D01*
X641659Y906161D01*
X641659Y910239D01*
X643220Y914007D01*
X646103Y916890D01*
X649871Y918451D01*
X653949Y918451D01*
X657717Y916890D01*
X660600Y914007D01*
X662161Y910239D01*
X662161Y906161D01*
X660600Y902393D01*
X657717Y899510D01*
X653949Y897949D01*
X649871Y897949D01*
G37*
%LPD*%
%LPC*%
G36*
X1028056Y959389D02*
X1028056Y959389D01*
X1024520Y960854D01*
X1021814Y963560D01*
X1020349Y967096D01*
X1020349Y970924D01*
X1021814Y974460D01*
X1024520Y977166D01*
X1028056Y978631D01*
X1031884Y978631D01*
X1035420Y977166D01*
X1038126Y974460D01*
X1039591Y970924D01*
X1039591Y967096D01*
X1038126Y963560D01*
X1035420Y960854D01*
X1031884Y959389D01*
X1028056Y959389D01*
G37*
%LPD*%
%LPC*%
G36*
X951856Y959389D02*
X951856Y959389D01*
X948320Y960854D01*
X945614Y963560D01*
X944149Y967096D01*
X944149Y970924D01*
X945614Y974460D01*
X948320Y977166D01*
X951856Y978631D01*
X955684Y978631D01*
X959220Y977166D01*
X961926Y974460D01*
X963391Y970924D01*
X963391Y967096D01*
X961926Y963560D01*
X959220Y960854D01*
X955684Y959389D01*
X951856Y959389D01*
G37*
%LPD*%
%LPC*%
G36*
X1078856Y959389D02*
X1078856Y959389D01*
X1075320Y960854D01*
X1072614Y963560D01*
X1071149Y967096D01*
X1071149Y970924D01*
X1072614Y974460D01*
X1075320Y977166D01*
X1078856Y978631D01*
X1082684Y978631D01*
X1086220Y977166D01*
X1088926Y974460D01*
X1090391Y970924D01*
X1090391Y967096D01*
X1088926Y963560D01*
X1086220Y960854D01*
X1082684Y959389D01*
X1078856Y959389D01*
G37*
%LPD*%
%LPC*%
G36*
X1053456Y959389D02*
X1053456Y959389D01*
X1049920Y960854D01*
X1047214Y963560D01*
X1045749Y967096D01*
X1045749Y970924D01*
X1047214Y974460D01*
X1049920Y977166D01*
X1053456Y978631D01*
X1057284Y978631D01*
X1060820Y977166D01*
X1063526Y974460D01*
X1064991Y970924D01*
X1064991Y967096D01*
X1063526Y963560D01*
X1060820Y960854D01*
X1057284Y959389D01*
X1053456Y959389D01*
G37*
%LPD*%
%LPC*%
G36*
X1002656Y959389D02*
X1002656Y959389D01*
X999120Y960854D01*
X996414Y963560D01*
X994949Y967096D01*
X994949Y970924D01*
X996414Y974460D01*
X999120Y977166D01*
X1002656Y978631D01*
X1006484Y978631D01*
X1010020Y977166D01*
X1012726Y974460D01*
X1014191Y970924D01*
X1014191Y967096D01*
X1012726Y963560D01*
X1010020Y960854D01*
X1006484Y959389D01*
X1002656Y959389D01*
G37*
%LPD*%
%LPC*%
G36*
X977256Y959389D02*
X977256Y959389D01*
X973720Y960854D01*
X971014Y963560D01*
X969549Y967096D01*
X969549Y970924D01*
X971014Y974460D01*
X973720Y977166D01*
X977256Y978631D01*
X981084Y978631D01*
X984620Y977166D01*
X987326Y974460D01*
X988791Y970924D01*
X988791Y967096D01*
X987326Y963560D01*
X984620Y960854D01*
X981084Y959389D01*
X977256Y959389D01*
G37*
%LPD*%
%LPC*%
G36*
X926456Y959389D02*
X926456Y959389D01*
X922920Y960854D01*
X920214Y963560D01*
X918749Y967096D01*
X918749Y970924D01*
X920214Y974460D01*
X922920Y977166D01*
X926456Y978631D01*
X930284Y978631D01*
X933820Y977166D01*
X936526Y974460D01*
X937991Y970924D01*
X937991Y967096D01*
X936526Y963560D01*
X933820Y960854D01*
X930284Y959389D01*
X926456Y959389D01*
G37*
%LPD*%
%LPC*%
G36*
X901056Y959389D02*
X901056Y959389D01*
X897520Y960854D01*
X894814Y963560D01*
X893349Y967096D01*
X893349Y970924D01*
X894814Y974460D01*
X897520Y977166D01*
X901056Y978631D01*
X904884Y978631D01*
X908420Y977166D01*
X911126Y974460D01*
X912591Y970924D01*
X912591Y967096D01*
X911126Y963560D01*
X908420Y960854D01*
X904884Y959389D01*
X901056Y959389D01*
G37*
%LPD*%
%LPC*%
G36*
X379086Y29749D02*
X379086Y29749D01*
X375550Y31214D01*
X372844Y33920D01*
X371379Y37456D01*
X371379Y41284D01*
X372844Y44820D01*
X375550Y47526D01*
X379086Y48991D01*
X382914Y48991D01*
X386450Y47526D01*
X389156Y44820D01*
X390621Y41284D01*
X390621Y37456D01*
X389156Y33920D01*
X386450Y31214D01*
X382914Y29749D01*
X379086Y29749D01*
G37*
%LPD*%
%LPC*%
G36*
X277486Y29749D02*
X277486Y29749D01*
X273950Y31214D01*
X271244Y33920D01*
X269779Y37456D01*
X269779Y41284D01*
X271244Y44820D01*
X273950Y47526D01*
X277486Y48991D01*
X281314Y48991D01*
X284850Y47526D01*
X287556Y44820D01*
X289021Y41284D01*
X289021Y37456D01*
X287556Y33920D01*
X284850Y31214D01*
X281314Y29749D01*
X277486Y29749D01*
G37*
%LPD*%
%LPC*%
G36*
X749926Y937799D02*
X749926Y937799D01*
X746390Y939264D01*
X743684Y941970D01*
X742219Y945506D01*
X742219Y949334D01*
X743684Y952870D01*
X746390Y955576D01*
X749926Y957041D01*
X753754Y957041D01*
X757290Y955576D01*
X759996Y952870D01*
X761461Y949334D01*
X761461Y945506D01*
X759996Y941970D01*
X757290Y939264D01*
X753754Y937799D01*
X749926Y937799D01*
G37*
%LPD*%
%LPC*%
G36*
X724526Y937799D02*
X724526Y937799D01*
X720990Y939264D01*
X718284Y941970D01*
X716819Y945506D01*
X716819Y949334D01*
X718284Y952870D01*
X720990Y955576D01*
X724526Y957041D01*
X728354Y957041D01*
X731890Y955576D01*
X734596Y952870D01*
X736061Y949334D01*
X736061Y945506D01*
X734596Y941970D01*
X731890Y939264D01*
X728354Y937799D01*
X724526Y937799D01*
G37*
%LPD*%
%LPC*%
G36*
X826126Y937799D02*
X826126Y937799D01*
X822590Y939264D01*
X819884Y941970D01*
X818419Y945506D01*
X818419Y949334D01*
X819884Y952870D01*
X822590Y955576D01*
X826126Y957041D01*
X829954Y957041D01*
X833490Y955576D01*
X836196Y952870D01*
X837661Y949334D01*
X837661Y945506D01*
X836196Y941970D01*
X833490Y939264D01*
X829954Y937799D01*
X826126Y937799D01*
G37*
%LPD*%
%LPC*%
G36*
X800726Y937799D02*
X800726Y937799D01*
X797190Y939264D01*
X794484Y941970D01*
X793019Y945506D01*
X793019Y949334D01*
X794484Y952870D01*
X797190Y955576D01*
X800726Y957041D01*
X804554Y957041D01*
X808090Y955576D01*
X810796Y952870D01*
X812261Y949334D01*
X812261Y945506D01*
X810796Y941970D01*
X808090Y939264D01*
X804554Y937799D01*
X800726Y937799D01*
G37*
%LPD*%
%LPC*%
G36*
X775326Y937799D02*
X775326Y937799D01*
X771790Y939264D01*
X769084Y941970D01*
X767619Y945506D01*
X767619Y949334D01*
X769084Y952870D01*
X771790Y955576D01*
X775326Y957041D01*
X779154Y957041D01*
X782690Y955576D01*
X785396Y952870D01*
X786861Y949334D01*
X786861Y945506D01*
X785396Y941970D01*
X782690Y939264D01*
X779154Y937799D01*
X775326Y937799D01*
G37*
%LPD*%
%LPC*%
G36*
X699126Y937799D02*
X699126Y937799D01*
X695590Y939264D01*
X692884Y941970D01*
X691419Y945506D01*
X691419Y949334D01*
X692884Y952870D01*
X695590Y955576D01*
X699126Y957041D01*
X702954Y957041D01*
X706490Y955576D01*
X709196Y952870D01*
X710661Y949334D01*
X710661Y945506D01*
X709196Y941970D01*
X706490Y939264D01*
X702954Y937799D01*
X699126Y937799D01*
G37*
%LPD*%
%LPC*%
G36*
X545456Y936529D02*
X545456Y936529D01*
X541920Y937994D01*
X539214Y940700D01*
X537749Y944236D01*
X537749Y948064D01*
X539214Y951600D01*
X541920Y954306D01*
X545456Y955771D01*
X549284Y955771D01*
X552820Y954306D01*
X555526Y951600D01*
X556991Y948064D01*
X556991Y944236D01*
X555526Y940700D01*
X552820Y937994D01*
X549284Y936529D01*
X545456Y936529D01*
G37*
%LPD*%
%LPC*%
G36*
X520056Y936529D02*
X520056Y936529D01*
X516520Y937994D01*
X513814Y940700D01*
X512349Y944236D01*
X512349Y948064D01*
X513814Y951600D01*
X516520Y954306D01*
X520056Y955771D01*
X523884Y955771D01*
X527420Y954306D01*
X530126Y951600D01*
X531591Y948064D01*
X531591Y944236D01*
X530126Y940700D01*
X527420Y937994D01*
X523884Y936529D01*
X520056Y936529D01*
G37*
%LPD*%
%LPC*%
G36*
X647056Y936529D02*
X647056Y936529D01*
X643520Y937994D01*
X640814Y940700D01*
X639349Y944236D01*
X639349Y948064D01*
X640814Y951600D01*
X643520Y954306D01*
X647056Y955771D01*
X650884Y955771D01*
X654420Y954306D01*
X657126Y951600D01*
X658591Y948064D01*
X658591Y944236D01*
X657126Y940700D01*
X654420Y937994D01*
X650884Y936529D01*
X647056Y936529D01*
G37*
%LPD*%
%LPC*%
G36*
X596256Y936529D02*
X596256Y936529D01*
X592720Y937994D01*
X590014Y940700D01*
X588549Y944236D01*
X588549Y948064D01*
X590014Y951600D01*
X592720Y954306D01*
X596256Y955771D01*
X600084Y955771D01*
X603620Y954306D01*
X606326Y951600D01*
X607791Y948064D01*
X607791Y944236D01*
X606326Y940700D01*
X603620Y937994D01*
X600084Y936529D01*
X596256Y936529D01*
G37*
%LPD*%
%LPC*%
G36*
X570856Y936529D02*
X570856Y936529D01*
X567320Y937994D01*
X564614Y940700D01*
X563149Y944236D01*
X563149Y948064D01*
X564614Y951600D01*
X567320Y954306D01*
X570856Y955771D01*
X574684Y955771D01*
X578220Y954306D01*
X580926Y951600D01*
X582391Y948064D01*
X582391Y944236D01*
X580926Y940700D01*
X578220Y937994D01*
X574684Y936529D01*
X570856Y936529D01*
G37*
%LPD*%
%LPC*%
G36*
X291456Y936529D02*
X291456Y936529D01*
X287920Y937994D01*
X285214Y940700D01*
X283749Y944236D01*
X283749Y948064D01*
X285214Y951600D01*
X287920Y954306D01*
X291456Y955771D01*
X295284Y955771D01*
X298820Y954306D01*
X301526Y951600D01*
X302991Y948064D01*
X302991Y944236D01*
X301526Y940700D01*
X298820Y937994D01*
X295284Y936529D01*
X291456Y936529D01*
G37*
%LPD*%
%LPC*%
G36*
X266056Y936529D02*
X266056Y936529D01*
X262520Y937994D01*
X259814Y940700D01*
X258349Y944236D01*
X258349Y948064D01*
X259814Y951600D01*
X262520Y954306D01*
X266056Y955771D01*
X269884Y955771D01*
X273420Y954306D01*
X276126Y951600D01*
X277591Y948064D01*
X277591Y944236D01*
X276126Y940700D01*
X273420Y937994D01*
X269884Y936529D01*
X266056Y936529D01*
G37*
%LPD*%
%LPC*%
G36*
X494656Y936529D02*
X494656Y936529D01*
X491120Y937994D01*
X488414Y940700D01*
X486949Y944236D01*
X486949Y948064D01*
X488414Y951600D01*
X491120Y954306D01*
X494656Y955771D01*
X498484Y955771D01*
X502020Y954306D01*
X504726Y951600D01*
X506191Y948064D01*
X506191Y944236D01*
X504726Y940700D01*
X502020Y937994D01*
X498484Y936529D01*
X494656Y936529D01*
G37*
%LPD*%
%LPC*%
G36*
X469256Y936529D02*
X469256Y936529D01*
X465720Y937994D01*
X463014Y940700D01*
X461549Y944236D01*
X461549Y948064D01*
X463014Y951600D01*
X465720Y954306D01*
X469256Y955771D01*
X473084Y955771D01*
X476620Y954306D01*
X479326Y951600D01*
X480791Y948064D01*
X480791Y944236D01*
X479326Y940700D01*
X476620Y937994D01*
X473084Y936529D01*
X469256Y936529D01*
G37*
%LPD*%
%LPC*%
G36*
X443856Y936529D02*
X443856Y936529D01*
X440320Y937994D01*
X437614Y940700D01*
X436149Y944236D01*
X436149Y948064D01*
X437614Y951600D01*
X440320Y954306D01*
X443856Y955771D01*
X447684Y955771D01*
X451220Y954306D01*
X453926Y951600D01*
X455391Y948064D01*
X455391Y944236D01*
X453926Y940700D01*
X451220Y937994D01*
X447684Y936529D01*
X443856Y936529D01*
G37*
%LPD*%
%LPC*%
G36*
X418456Y936529D02*
X418456Y936529D01*
X414920Y937994D01*
X412214Y940700D01*
X410749Y944236D01*
X410749Y948064D01*
X412214Y951600D01*
X414920Y954306D01*
X418456Y955771D01*
X422284Y955771D01*
X425820Y954306D01*
X428526Y951600D01*
X429991Y948064D01*
X429991Y944236D01*
X428526Y940700D01*
X425820Y937994D01*
X422284Y936529D01*
X418456Y936529D01*
G37*
%LPD*%
%LPC*%
G36*
X393056Y936529D02*
X393056Y936529D01*
X389520Y937994D01*
X386814Y940700D01*
X385349Y944236D01*
X385349Y948064D01*
X386814Y951600D01*
X389520Y954306D01*
X393056Y955771D01*
X396884Y955771D01*
X400420Y954306D01*
X403126Y951600D01*
X404591Y948064D01*
X404591Y944236D01*
X403126Y940700D01*
X400420Y937994D01*
X396884Y936529D01*
X393056Y936529D01*
G37*
%LPD*%
%LPC*%
G36*
X367656Y936529D02*
X367656Y936529D01*
X364120Y937994D01*
X361414Y940700D01*
X359949Y944236D01*
X359949Y948064D01*
X361414Y951600D01*
X364120Y954306D01*
X367656Y955771D01*
X371484Y955771D01*
X375020Y954306D01*
X377726Y951600D01*
X379191Y948064D01*
X379191Y944236D01*
X377726Y940700D01*
X375020Y937994D01*
X371484Y936529D01*
X367656Y936529D01*
G37*
%LPD*%
%LPC*%
G36*
X342256Y936529D02*
X342256Y936529D01*
X338720Y937994D01*
X336014Y940700D01*
X334549Y944236D01*
X334549Y948064D01*
X336014Y951600D01*
X338720Y954306D01*
X342256Y955771D01*
X346084Y955771D01*
X349620Y954306D01*
X352326Y951600D01*
X353791Y948064D01*
X353791Y944236D01*
X352326Y940700D01*
X349620Y937994D01*
X346084Y936529D01*
X342256Y936529D01*
G37*
%LPD*%
%LPC*%
G36*
X316856Y936529D02*
X316856Y936529D01*
X313320Y937994D01*
X310614Y940700D01*
X309149Y944236D01*
X309149Y948064D01*
X310614Y951600D01*
X313320Y954306D01*
X316856Y955771D01*
X320684Y955771D01*
X324220Y954306D01*
X326926Y951600D01*
X328391Y948064D01*
X328391Y944236D01*
X326926Y940700D01*
X324220Y937994D01*
X320684Y936529D01*
X316856Y936529D01*
G37*
%LPD*%
%LPC*%
G36*
X226686Y29749D02*
X226686Y29749D01*
X223150Y31214D01*
X220444Y33920D01*
X218979Y37456D01*
X218979Y41284D01*
X220444Y44820D01*
X223150Y47526D01*
X226686Y48991D01*
X230514Y48991D01*
X234050Y47526D01*
X236756Y44820D01*
X238221Y41284D01*
X238221Y37456D01*
X236756Y33920D01*
X234050Y31214D01*
X230514Y29749D01*
X226686Y29749D01*
G37*
%LPD*%
%LPC*%
G36*
X1077586Y422179D02*
X1077586Y422179D01*
X1074050Y423644D01*
X1071344Y426350D01*
X1069879Y429886D01*
X1069879Y433714D01*
X1071344Y437250D01*
X1074050Y439956D01*
X1077586Y441421D01*
X1081414Y441421D01*
X1084950Y439956D01*
X1087656Y437250D01*
X1089121Y433714D01*
X1089121Y429886D01*
X1087656Y426350D01*
X1084950Y423644D01*
X1081414Y422179D01*
X1077586Y422179D01*
G37*
%LPD*%
%LPC*%
G36*
X975986Y511079D02*
X975986Y511079D01*
X972450Y512544D01*
X969744Y515250D01*
X968279Y518786D01*
X968279Y522614D01*
X969744Y526150D01*
X972450Y528856D01*
X975986Y530321D01*
X979814Y530321D01*
X983350Y528856D01*
X986056Y526150D01*
X987521Y522614D01*
X987521Y518786D01*
X986056Y515250D01*
X983350Y512544D01*
X979814Y511079D01*
X975986Y511079D01*
G37*
%LPD*%
%LPC*%
G36*
X1001386Y472979D02*
X1001386Y472979D01*
X997850Y474444D01*
X995144Y477150D01*
X993679Y480686D01*
X993679Y484514D01*
X995144Y488050D01*
X997850Y490756D01*
X1001386Y492221D01*
X1005214Y492221D01*
X1008750Y490756D01*
X1011456Y488050D01*
X1012921Y484514D01*
X1012921Y480686D01*
X1011456Y477150D01*
X1008750Y474444D01*
X1005214Y472979D01*
X1001386Y472979D01*
G37*
%LPD*%
%LPC*%
G36*
X975986Y472979D02*
X975986Y472979D01*
X972450Y474444D01*
X969744Y477150D01*
X968279Y480686D01*
X968279Y484514D01*
X969744Y488050D01*
X972450Y490756D01*
X975986Y492221D01*
X979814Y492221D01*
X983350Y490756D01*
X986056Y488050D01*
X987521Y484514D01*
X987521Y480686D01*
X986056Y477150D01*
X983350Y474444D01*
X979814Y472979D01*
X975986Y472979D01*
G37*
%LPD*%
%LPC*%
G36*
X950586Y472979D02*
X950586Y472979D01*
X947050Y474444D01*
X944344Y477150D01*
X942879Y480686D01*
X942879Y484514D01*
X944344Y488050D01*
X947050Y490756D01*
X950586Y492221D01*
X954414Y492221D01*
X957950Y490756D01*
X960656Y488050D01*
X962121Y484514D01*
X962121Y480686D01*
X960656Y477150D01*
X957950Y474444D01*
X954414Y472979D01*
X950586Y472979D01*
G37*
%LPD*%
%LPC*%
G36*
X925186Y472979D02*
X925186Y472979D01*
X921650Y474444D01*
X918944Y477150D01*
X917479Y480686D01*
X917479Y484514D01*
X918944Y488050D01*
X921650Y490756D01*
X925186Y492221D01*
X929014Y492221D01*
X932550Y490756D01*
X935256Y488050D01*
X936721Y484514D01*
X936721Y480686D01*
X935256Y477150D01*
X932550Y474444D01*
X929014Y472979D01*
X925186Y472979D01*
G37*
%LPD*%
%LPC*%
G36*
X436998Y889285D02*
X436998Y889285D01*
X433462Y890750D01*
X430756Y893456D01*
X429291Y896992D01*
X429291Y900820D01*
X430756Y904356D01*
X433462Y907062D01*
X436998Y908527D01*
X440826Y908527D01*
X444362Y907062D01*
X447068Y904356D01*
X448533Y900820D01*
X448533Y896992D01*
X447068Y893456D01*
X444362Y890750D01*
X440826Y889285D01*
X436998Y889285D01*
G37*
%LPD*%
%LPC*%
G36*
X1026786Y472979D02*
X1026786Y472979D01*
X1023250Y474444D01*
X1020544Y477150D01*
X1019079Y480686D01*
X1019079Y484514D01*
X1020544Y488050D01*
X1023250Y490756D01*
X1026786Y492221D01*
X1030614Y492221D01*
X1034150Y490756D01*
X1036856Y488050D01*
X1038321Y484514D01*
X1038321Y480686D01*
X1036856Y477150D01*
X1034150Y474444D01*
X1030614Y472979D01*
X1026786Y472979D01*
G37*
%LPD*%
%LPC*%
G36*
X339716Y883189D02*
X339716Y883189D01*
X336180Y884654D01*
X333474Y887360D01*
X332009Y890896D01*
X332009Y894724D01*
X333474Y898260D01*
X336180Y900966D01*
X339716Y902431D01*
X343544Y902431D01*
X347080Y900966D01*
X349786Y898260D01*
X351251Y894724D01*
X351251Y890896D01*
X349786Y887360D01*
X347080Y884654D01*
X343544Y883189D01*
X339716Y883189D01*
G37*
%LPD*%
%LPC*%
G36*
X314316Y883189D02*
X314316Y883189D01*
X310780Y884654D01*
X308074Y887360D01*
X306609Y890896D01*
X306609Y894724D01*
X308074Y898260D01*
X310780Y900966D01*
X314316Y902431D01*
X318144Y902431D01*
X321680Y900966D01*
X324386Y898260D01*
X325851Y894724D01*
X325851Y890896D01*
X324386Y887360D01*
X321680Y884654D01*
X318144Y883189D01*
X314316Y883189D01*
G37*
%LPD*%
%LPC*%
G36*
X288916Y883189D02*
X288916Y883189D01*
X285380Y884654D01*
X282674Y887360D01*
X281209Y890896D01*
X281209Y894724D01*
X282674Y898260D01*
X285380Y900966D01*
X288916Y902431D01*
X292744Y902431D01*
X296280Y900966D01*
X298986Y898260D01*
X300451Y894724D01*
X300451Y890896D01*
X298986Y887360D01*
X296280Y884654D01*
X292744Y883189D01*
X288916Y883189D01*
G37*
%LPD*%
%LPC*%
G36*
X925186Y422179D02*
X925186Y422179D01*
X921650Y423644D01*
X918944Y426350D01*
X917479Y429886D01*
X917479Y433714D01*
X918944Y437250D01*
X921650Y439956D01*
X925186Y441421D01*
X929014Y441421D01*
X932550Y439956D01*
X935256Y437250D01*
X936721Y433714D01*
X936721Y429886D01*
X935256Y426350D01*
X932550Y423644D01*
X929014Y422179D01*
X925186Y422179D01*
G37*
%LPD*%
%LPC*%
G36*
X975986Y422179D02*
X975986Y422179D01*
X972450Y423644D01*
X969744Y426350D01*
X968279Y429886D01*
X968279Y433714D01*
X969744Y437250D01*
X972450Y439956D01*
X975986Y441421D01*
X979814Y441421D01*
X983350Y439956D01*
X986056Y437250D01*
X987521Y433714D01*
X987521Y429886D01*
X986056Y426350D01*
X983350Y423644D01*
X979814Y422179D01*
X975986Y422179D01*
G37*
%LPD*%
%LPC*%
G36*
X1001386Y422179D02*
X1001386Y422179D01*
X997850Y423644D01*
X995144Y426350D01*
X993679Y429886D01*
X993679Y433714D01*
X995144Y437250D01*
X997850Y439956D01*
X1001386Y441421D01*
X1005214Y441421D01*
X1008750Y439956D01*
X1011456Y437250D01*
X1012921Y433714D01*
X1012921Y429886D01*
X1011456Y426350D01*
X1008750Y423644D01*
X1005214Y422179D01*
X1001386Y422179D01*
G37*
%LPD*%
%LPC*%
G36*
X950586Y422179D02*
X950586Y422179D01*
X947050Y423644D01*
X944344Y426350D01*
X942879Y429886D01*
X942879Y433714D01*
X944344Y437250D01*
X947050Y439956D01*
X950586Y441421D01*
X954414Y441421D01*
X957950Y439956D01*
X960656Y437250D01*
X962121Y433714D01*
X962121Y429886D01*
X960656Y426350D01*
X957950Y423644D01*
X954414Y422179D01*
X950586Y422179D01*
G37*
%LPD*%
%LPC*%
G36*
X899786Y422179D02*
X899786Y422179D01*
X896250Y423644D01*
X893544Y426350D01*
X892079Y429886D01*
X892079Y433714D01*
X893544Y437250D01*
X896250Y439956D01*
X899786Y441421D01*
X903614Y441421D01*
X907150Y439956D01*
X909856Y437250D01*
X911321Y433714D01*
X911321Y429886D01*
X909856Y426350D01*
X907150Y423644D01*
X903614Y422179D01*
X899786Y422179D01*
G37*
%LPD*%
%LPC*%
G36*
X1052186Y422179D02*
X1052186Y422179D01*
X1048650Y423644D01*
X1045944Y426350D01*
X1044479Y429886D01*
X1044479Y433714D01*
X1045944Y437250D01*
X1048650Y439956D01*
X1052186Y441421D01*
X1056014Y441421D01*
X1059550Y439956D01*
X1062256Y437250D01*
X1063721Y433714D01*
X1063721Y429886D01*
X1062256Y426350D01*
X1059550Y423644D01*
X1056014Y422179D01*
X1052186Y422179D01*
G37*
%LPD*%
%LPC*%
G36*
X1026786Y422179D02*
X1026786Y422179D01*
X1023250Y423644D01*
X1020544Y426350D01*
X1019079Y429886D01*
X1019079Y433714D01*
X1020544Y437250D01*
X1023250Y439956D01*
X1026786Y441421D01*
X1030614Y441421D01*
X1034150Y439956D01*
X1036856Y437250D01*
X1038321Y433714D01*
X1038321Y429886D01*
X1036856Y426350D01*
X1034150Y423644D01*
X1030614Y422179D01*
X1026786Y422179D01*
G37*
%LPD*%
%LPC*%
G36*
X125086Y29749D02*
X125086Y29749D01*
X121550Y31214D01*
X118844Y33920D01*
X117379Y37456D01*
X117379Y41284D01*
X118844Y44820D01*
X121550Y47526D01*
X125086Y48991D01*
X128914Y48991D01*
X132450Y47526D01*
X135156Y44820D01*
X136621Y41284D01*
X136621Y37456D01*
X135156Y33920D01*
X132450Y31214D01*
X128914Y29749D01*
X125086Y29749D01*
G37*
%LPD*%
%LPC*%
G36*
X371974Y844073D02*
X371974Y844073D01*
X368438Y845538D01*
X365732Y848244D01*
X364267Y851780D01*
X364267Y855608D01*
X365732Y859144D01*
X368438Y861850D01*
X371974Y863315D01*
X375802Y863315D01*
X379338Y861850D01*
X382044Y859144D01*
X383509Y855608D01*
X383509Y851780D01*
X382044Y848244D01*
X379338Y845538D01*
X375802Y844073D01*
X371974Y844073D01*
G37*
%LPD*%
%LPC*%
G36*
X436998Y844073D02*
X436998Y844073D01*
X433462Y845538D01*
X430756Y848244D01*
X429291Y851780D01*
X429291Y855608D01*
X430756Y859144D01*
X433462Y861850D01*
X436998Y863315D01*
X440826Y863315D01*
X444362Y861850D01*
X447068Y859144D01*
X448533Y855608D01*
X448533Y851780D01*
X447068Y848244D01*
X444362Y845538D01*
X440826Y844073D01*
X436998Y844073D01*
G37*
%LPD*%
%LPC*%
G36*
X340986Y841279D02*
X340986Y841279D01*
X337450Y842744D01*
X334744Y845450D01*
X333279Y848986D01*
X333279Y852814D01*
X334744Y856350D01*
X337450Y859056D01*
X340986Y860521D01*
X344814Y860521D01*
X348350Y859056D01*
X351056Y856350D01*
X352521Y852814D01*
X352521Y848986D01*
X351056Y845450D01*
X348350Y842744D01*
X344814Y841279D01*
X340986Y841279D01*
G37*
%LPD*%
%LPC*%
G36*
X315586Y841279D02*
X315586Y841279D01*
X312050Y842744D01*
X309344Y845450D01*
X307879Y848986D01*
X307879Y852814D01*
X309344Y856350D01*
X312050Y859056D01*
X315586Y860521D01*
X319414Y860521D01*
X322950Y859056D01*
X325656Y856350D01*
X327121Y852814D01*
X327121Y848986D01*
X325656Y845450D01*
X322950Y842744D01*
X319414Y841279D01*
X315586Y841279D01*
G37*
%LPD*%
%LPC*%
G36*
X290186Y841279D02*
X290186Y841279D01*
X286650Y842744D01*
X283944Y845450D01*
X282479Y848986D01*
X282479Y852814D01*
X283944Y856350D01*
X286650Y859056D01*
X290186Y860521D01*
X294014Y860521D01*
X297550Y859056D01*
X300256Y856350D01*
X301721Y852814D01*
X301721Y848986D01*
X300256Y845450D01*
X297550Y842744D01*
X294014Y841279D01*
X290186Y841279D01*
G37*
%LPD*%
%LPC*%
G36*
X506086Y79279D02*
X506086Y79279D01*
X502550Y80744D01*
X499844Y83450D01*
X498379Y86986D01*
X498379Y90814D01*
X499844Y94350D01*
X502550Y97056D01*
X506086Y98521D01*
X509914Y98521D01*
X513450Y97056D01*
X516156Y94350D01*
X517621Y90814D01*
X517621Y86986D01*
X516156Y83450D01*
X513450Y80744D01*
X509914Y79279D01*
X506086Y79279D01*
G37*
%LPD*%
%LPC*%
G36*
X480686Y79279D02*
X480686Y79279D01*
X477150Y80744D01*
X474444Y83450D01*
X472979Y86986D01*
X472979Y90814D01*
X474444Y94350D01*
X477150Y97056D01*
X480686Y98521D01*
X484514Y98521D01*
X488050Y97056D01*
X490756Y94350D01*
X492221Y90814D01*
X492221Y86986D01*
X490756Y83450D01*
X488050Y80744D01*
X484514Y79279D01*
X480686Y79279D01*
G37*
%LPD*%
%LPC*%
G36*
X455286Y79279D02*
X455286Y79279D01*
X451750Y80744D01*
X449044Y83450D01*
X447579Y86986D01*
X447579Y90814D01*
X449044Y94350D01*
X451750Y97056D01*
X455286Y98521D01*
X459114Y98521D01*
X462650Y97056D01*
X465356Y94350D01*
X466821Y90814D01*
X466821Y86986D01*
X465356Y83450D01*
X462650Y80744D01*
X459114Y79279D01*
X455286Y79279D01*
G37*
%LPD*%
%LPC*%
G36*
X429886Y79279D02*
X429886Y79279D01*
X426350Y80744D01*
X423644Y83450D01*
X422179Y86986D01*
X422179Y90814D01*
X423644Y94350D01*
X426350Y97056D01*
X429886Y98521D01*
X433714Y98521D01*
X437250Y97056D01*
X439956Y94350D01*
X441421Y90814D01*
X441421Y86986D01*
X439956Y83450D01*
X437250Y80744D01*
X433714Y79279D01*
X429886Y79279D01*
G37*
%LPD*%
%LPC*%
G36*
X404486Y79279D02*
X404486Y79279D01*
X400950Y80744D01*
X398244Y83450D01*
X396779Y86986D01*
X396779Y90814D01*
X398244Y94350D01*
X400950Y97056D01*
X404486Y98521D01*
X408314Y98521D01*
X411850Y97056D01*
X414556Y94350D01*
X416021Y90814D01*
X416021Y86986D01*
X414556Y83450D01*
X411850Y80744D01*
X408314Y79279D01*
X404486Y79279D01*
G37*
%LPD*%
%LPC*%
G36*
X379086Y79279D02*
X379086Y79279D01*
X375550Y80744D01*
X372844Y83450D01*
X371379Y86986D01*
X371379Y90814D01*
X372844Y94350D01*
X375550Y97056D01*
X379086Y98521D01*
X382914Y98521D01*
X386450Y97056D01*
X389156Y94350D01*
X390621Y90814D01*
X390621Y86986D01*
X389156Y83450D01*
X386450Y80744D01*
X382914Y79279D01*
X379086Y79279D01*
G37*
%LPD*%
%LPC*%
G36*
X74286Y29749D02*
X74286Y29749D01*
X70750Y31214D01*
X68044Y33920D01*
X66579Y37456D01*
X66579Y41284D01*
X68044Y44820D01*
X70750Y47526D01*
X74286Y48991D01*
X78114Y48991D01*
X81650Y47526D01*
X84356Y44820D01*
X85821Y41284D01*
X85821Y37456D01*
X84356Y33920D01*
X81650Y31214D01*
X78114Y29749D01*
X74286Y29749D01*
G37*
%LPD*%
%LPC*%
G36*
X887086Y29749D02*
X887086Y29749D01*
X883550Y31214D01*
X880844Y33920D01*
X879379Y37456D01*
X879379Y41284D01*
X880844Y44820D01*
X883550Y47526D01*
X887086Y48991D01*
X890914Y48991D01*
X894450Y47526D01*
X897156Y44820D01*
X898621Y41284D01*
X898621Y37456D01*
X897156Y33920D01*
X894450Y31214D01*
X890914Y29749D01*
X887086Y29749D01*
G37*
%LPD*%
%LPC*%
G36*
X836286Y29749D02*
X836286Y29749D01*
X832750Y31214D01*
X830044Y33920D01*
X828579Y37456D01*
X828579Y41284D01*
X830044Y44820D01*
X832750Y47526D01*
X836286Y48991D01*
X840114Y48991D01*
X843650Y47526D01*
X846356Y44820D01*
X847821Y41284D01*
X847821Y37456D01*
X846356Y33920D01*
X843650Y31214D01*
X840114Y29749D01*
X836286Y29749D01*
G37*
%LPD*%
%LPC*%
G36*
X734686Y29749D02*
X734686Y29749D01*
X731150Y31214D01*
X728444Y33920D01*
X726979Y37456D01*
X726979Y41284D01*
X728444Y44820D01*
X731150Y47526D01*
X734686Y48991D01*
X738514Y48991D01*
X742050Y47526D01*
X744756Y44820D01*
X746221Y41284D01*
X746221Y37456D01*
X744756Y33920D01*
X742050Y31214D01*
X738514Y29749D01*
X734686Y29749D01*
G37*
%LPD*%
%LPC*%
G36*
X926456Y743489D02*
X926456Y743489D01*
X922920Y744954D01*
X920214Y747660D01*
X918749Y751196D01*
X918749Y755024D01*
X920214Y758560D01*
X922920Y761266D01*
X926456Y762731D01*
X930284Y762731D01*
X933820Y761266D01*
X936526Y758560D01*
X937991Y755024D01*
X937991Y751196D01*
X936526Y747660D01*
X933820Y744954D01*
X930284Y743489D01*
X926456Y743489D01*
G37*
%LPD*%
%LPC*%
G36*
X1028056Y743489D02*
X1028056Y743489D01*
X1024520Y744954D01*
X1021814Y747660D01*
X1020349Y751196D01*
X1020349Y755024D01*
X1021814Y758560D01*
X1024520Y761266D01*
X1028056Y762731D01*
X1031884Y762731D01*
X1035420Y761266D01*
X1038126Y758560D01*
X1039591Y755024D01*
X1039591Y751196D01*
X1038126Y747660D01*
X1035420Y744954D01*
X1031884Y743489D01*
X1028056Y743489D01*
G37*
%LPD*%
%LPC*%
G36*
X1002656Y743489D02*
X1002656Y743489D01*
X999120Y744954D01*
X996414Y747660D01*
X994949Y751196D01*
X994949Y755024D01*
X996414Y758560D01*
X999120Y761266D01*
X1002656Y762731D01*
X1006484Y762731D01*
X1010020Y761266D01*
X1012726Y758560D01*
X1014191Y755024D01*
X1014191Y751196D01*
X1012726Y747660D01*
X1010020Y744954D01*
X1006484Y743489D01*
X1002656Y743489D01*
G37*
%LPD*%
%LPC*%
G36*
X977256Y743489D02*
X977256Y743489D01*
X973720Y744954D01*
X971014Y747660D01*
X969549Y751196D01*
X969549Y755024D01*
X971014Y758560D01*
X973720Y761266D01*
X977256Y762731D01*
X981084Y762731D01*
X984620Y761266D01*
X987326Y758560D01*
X988791Y755024D01*
X988791Y751196D01*
X987326Y747660D01*
X984620Y744954D01*
X981084Y743489D01*
X977256Y743489D01*
G37*
%LPD*%
%LPC*%
G36*
X951856Y743489D02*
X951856Y743489D01*
X948320Y744954D01*
X945614Y747660D01*
X944149Y751196D01*
X944149Y755024D01*
X945614Y758560D01*
X948320Y761266D01*
X951856Y762731D01*
X955684Y762731D01*
X959220Y761266D01*
X961926Y758560D01*
X963391Y755024D01*
X963391Y751196D01*
X961926Y747660D01*
X959220Y744954D01*
X955684Y743489D01*
X951856Y743489D01*
G37*
%LPD*%
%LPC*%
G36*
X112586Y712709D02*
X112586Y712709D01*
X109050Y714174D01*
X106344Y716880D01*
X104879Y720416D01*
X104879Y724244D01*
X106344Y727780D01*
X109050Y730486D01*
X112586Y731951D01*
X116414Y731951D01*
X119950Y730486D01*
X122656Y727780D01*
X124121Y724244D01*
X124121Y720416D01*
X122656Y716880D01*
X119950Y714174D01*
X116414Y712709D01*
X112586Y712709D01*
G37*
%LPD*%
%LPC*%
G36*
X341186Y712709D02*
X341186Y712709D01*
X337650Y714174D01*
X334944Y716880D01*
X333479Y720416D01*
X333479Y724244D01*
X334944Y727780D01*
X337650Y730486D01*
X341186Y731951D01*
X345014Y731951D01*
X348550Y730486D01*
X351256Y727780D01*
X352721Y724244D01*
X352721Y720416D01*
X351256Y716880D01*
X348550Y714174D01*
X345014Y712709D01*
X341186Y712709D01*
G37*
%LPD*%
%LPC*%
G36*
X468186Y712709D02*
X468186Y712709D01*
X464650Y714174D01*
X461944Y716880D01*
X460479Y720416D01*
X460479Y724244D01*
X461944Y727780D01*
X464650Y730486D01*
X468186Y731951D01*
X472014Y731951D01*
X475550Y730486D01*
X478256Y727780D01*
X479721Y724244D01*
X479721Y720416D01*
X478256Y716880D01*
X475550Y714174D01*
X472014Y712709D01*
X468186Y712709D01*
G37*
%LPD*%
%LPC*%
G36*
X442786Y712709D02*
X442786Y712709D01*
X439250Y714174D01*
X436544Y716880D01*
X435079Y720416D01*
X435079Y724244D01*
X436544Y727780D01*
X439250Y730486D01*
X442786Y731951D01*
X446614Y731951D01*
X450150Y730486D01*
X452856Y727780D01*
X454321Y724244D01*
X454321Y720416D01*
X452856Y716880D01*
X450150Y714174D01*
X446614Y712709D01*
X442786Y712709D01*
G37*
%LPD*%
%LPC*%
G36*
X417386Y712709D02*
X417386Y712709D01*
X413850Y714174D01*
X411144Y716880D01*
X409679Y720416D01*
X409679Y724244D01*
X411144Y727780D01*
X413850Y730486D01*
X417386Y731951D01*
X421214Y731951D01*
X424750Y730486D01*
X427456Y727780D01*
X428921Y724244D01*
X428921Y720416D01*
X427456Y716880D01*
X424750Y714174D01*
X421214Y712709D01*
X417386Y712709D01*
G37*
%LPD*%
%LPC*%
G36*
X391986Y712709D02*
X391986Y712709D01*
X388450Y714174D01*
X385744Y716880D01*
X384279Y720416D01*
X384279Y724244D01*
X385744Y727780D01*
X388450Y730486D01*
X391986Y731951D01*
X395814Y731951D01*
X399350Y730486D01*
X402056Y727780D01*
X403521Y724244D01*
X403521Y720416D01*
X402056Y716880D01*
X399350Y714174D01*
X395814Y712709D01*
X391986Y712709D01*
G37*
%LPD*%
%LPC*%
G36*
X366586Y712709D02*
X366586Y712709D01*
X363050Y714174D01*
X360344Y716880D01*
X358879Y720416D01*
X358879Y724244D01*
X360344Y727780D01*
X363050Y730486D01*
X366586Y731951D01*
X370414Y731951D01*
X373950Y730486D01*
X376656Y727780D01*
X378121Y724244D01*
X378121Y720416D01*
X376656Y716880D01*
X373950Y714174D01*
X370414Y712709D01*
X366586Y712709D01*
G37*
%LPD*%
%LPC*%
G36*
X315786Y712709D02*
X315786Y712709D01*
X312250Y714174D01*
X309544Y716880D01*
X308079Y720416D01*
X308079Y724244D01*
X309544Y727780D01*
X312250Y730486D01*
X315786Y731951D01*
X319614Y731951D01*
X323150Y730486D01*
X325856Y727780D01*
X327321Y724244D01*
X327321Y720416D01*
X325856Y716880D01*
X323150Y714174D01*
X319614Y712709D01*
X315786Y712709D01*
G37*
%LPD*%
%LPC*%
G36*
X290386Y712709D02*
X290386Y712709D01*
X286850Y714174D01*
X284144Y716880D01*
X282679Y720416D01*
X282679Y724244D01*
X284144Y727780D01*
X286850Y730486D01*
X290386Y731951D01*
X294214Y731951D01*
X297750Y730486D01*
X300456Y727780D01*
X301921Y724244D01*
X301921Y720416D01*
X300456Y716880D01*
X297750Y714174D01*
X294214Y712709D01*
X290386Y712709D01*
G37*
%LPD*%
%LPC*%
G36*
X264986Y712709D02*
X264986Y712709D01*
X261450Y714174D01*
X258744Y716880D01*
X257279Y720416D01*
X257279Y724244D01*
X258744Y727780D01*
X261450Y730486D01*
X264986Y731951D01*
X268814Y731951D01*
X272350Y730486D01*
X275056Y727780D01*
X276521Y724244D01*
X276521Y720416D01*
X275056Y716880D01*
X272350Y714174D01*
X268814Y712709D01*
X264986Y712709D01*
G37*
%LPD*%
%LPC*%
G36*
X239586Y712709D02*
X239586Y712709D01*
X236050Y714174D01*
X233344Y716880D01*
X231879Y720416D01*
X231879Y724244D01*
X233344Y727780D01*
X236050Y730486D01*
X239586Y731951D01*
X243414Y731951D01*
X246950Y730486D01*
X249656Y727780D01*
X251121Y724244D01*
X251121Y720416D01*
X249656Y716880D01*
X246950Y714174D01*
X243414Y712709D01*
X239586Y712709D01*
G37*
%LPD*%
%LPC*%
G36*
X544386Y712709D02*
X544386Y712709D01*
X540850Y714174D01*
X538144Y716880D01*
X536679Y720416D01*
X536679Y724244D01*
X538144Y727780D01*
X540850Y730486D01*
X544386Y731951D01*
X548214Y731951D01*
X551750Y730486D01*
X554456Y727780D01*
X555921Y724244D01*
X555921Y720416D01*
X554456Y716880D01*
X551750Y714174D01*
X548214Y712709D01*
X544386Y712709D01*
G37*
%LPD*%
%LPC*%
G36*
X569786Y712709D02*
X569786Y712709D01*
X566250Y714174D01*
X563544Y716880D01*
X562079Y720416D01*
X562079Y724244D01*
X563544Y727780D01*
X566250Y730486D01*
X569786Y731951D01*
X573614Y731951D01*
X577150Y730486D01*
X579856Y727780D01*
X581321Y724244D01*
X581321Y720416D01*
X579856Y716880D01*
X577150Y714174D01*
X573614Y712709D01*
X569786Y712709D01*
G37*
%LPD*%
%LPC*%
G36*
X518986Y712709D02*
X518986Y712709D01*
X515450Y714174D01*
X512744Y716880D01*
X511279Y720416D01*
X511279Y724244D01*
X512744Y727780D01*
X515450Y730486D01*
X518986Y731951D01*
X522814Y731951D01*
X526350Y730486D01*
X529056Y727780D01*
X530521Y724244D01*
X530521Y720416D01*
X529056Y716880D01*
X526350Y714174D01*
X522814Y712709D01*
X518986Y712709D01*
G37*
%LPD*%
%LPC*%
G36*
X595186Y712709D02*
X595186Y712709D01*
X591650Y714174D01*
X588944Y716880D01*
X587479Y720416D01*
X587479Y724244D01*
X588944Y727780D01*
X591650Y730486D01*
X595186Y731951D01*
X599014Y731951D01*
X602550Y730486D01*
X605256Y727780D01*
X606721Y724244D01*
X606721Y720416D01*
X605256Y716880D01*
X602550Y714174D01*
X599014Y712709D01*
X595186Y712709D01*
G37*
%LPD*%
%LPC*%
G36*
X493586Y712709D02*
X493586Y712709D01*
X490050Y714174D01*
X487344Y716880D01*
X485879Y720416D01*
X485879Y724244D01*
X487344Y727780D01*
X490050Y730486D01*
X493586Y731951D01*
X497414Y731951D01*
X500950Y730486D01*
X503656Y727780D01*
X505121Y724244D01*
X505121Y720416D01*
X503656Y716880D01*
X500950Y714174D01*
X497414Y712709D01*
X493586Y712709D01*
G37*
%LPD*%
%LPC*%
G36*
X163386Y712709D02*
X163386Y712709D01*
X159850Y714174D01*
X157144Y716880D01*
X155679Y720416D01*
X155679Y724244D01*
X157144Y727780D01*
X159850Y730486D01*
X163386Y731951D01*
X167214Y731951D01*
X170750Y730486D01*
X173456Y727780D01*
X174921Y724244D01*
X174921Y720416D01*
X173456Y716880D01*
X170750Y714174D01*
X167214Y712709D01*
X163386Y712709D01*
G37*
%LPD*%
%LPC*%
G36*
X975986Y701579D02*
X975986Y701579D01*
X972450Y703044D01*
X969744Y705750D01*
X968279Y709286D01*
X968279Y713114D01*
X969744Y716650D01*
X972450Y719356D01*
X975986Y720821D01*
X979814Y720821D01*
X983350Y719356D01*
X986056Y716650D01*
X987521Y713114D01*
X987521Y709286D01*
X986056Y705750D01*
X983350Y703044D01*
X979814Y701579D01*
X975986Y701579D01*
G37*
%LPD*%
%LPC*%
G36*
X1026786Y701579D02*
X1026786Y701579D01*
X1023250Y703044D01*
X1020544Y705750D01*
X1019079Y709286D01*
X1019079Y713114D01*
X1020544Y716650D01*
X1023250Y719356D01*
X1026786Y720821D01*
X1030614Y720821D01*
X1034150Y719356D01*
X1036856Y716650D01*
X1038321Y713114D01*
X1038321Y709286D01*
X1036856Y705750D01*
X1034150Y703044D01*
X1030614Y701579D01*
X1026786Y701579D01*
G37*
%LPD*%
%LPC*%
G36*
X1052186Y701579D02*
X1052186Y701579D01*
X1048650Y703044D01*
X1045944Y705750D01*
X1044479Y709286D01*
X1044479Y713114D01*
X1045944Y716650D01*
X1048650Y719356D01*
X1052186Y720821D01*
X1056014Y720821D01*
X1059550Y719356D01*
X1062256Y716650D01*
X1063721Y713114D01*
X1063721Y709286D01*
X1062256Y705750D01*
X1059550Y703044D01*
X1056014Y701579D01*
X1052186Y701579D01*
G37*
%LPD*%
%LPC*%
G36*
X1077586Y701579D02*
X1077586Y701579D01*
X1074050Y703044D01*
X1071344Y705750D01*
X1069879Y709286D01*
X1069879Y713114D01*
X1071344Y716650D01*
X1074050Y719356D01*
X1077586Y720821D01*
X1081414Y720821D01*
X1084950Y719356D01*
X1087656Y716650D01*
X1089121Y713114D01*
X1089121Y709286D01*
X1087656Y705750D01*
X1084950Y703044D01*
X1081414Y701579D01*
X1077586Y701579D01*
G37*
%LPD*%
%LPC*%
G36*
X925186Y701579D02*
X925186Y701579D01*
X921650Y703044D01*
X918944Y705750D01*
X917479Y709286D01*
X917479Y713114D01*
X918944Y716650D01*
X921650Y719356D01*
X925186Y720821D01*
X929014Y720821D01*
X932550Y719356D01*
X935256Y716650D01*
X936721Y713114D01*
X936721Y709286D01*
X935256Y705750D01*
X932550Y703044D01*
X929014Y701579D01*
X925186Y701579D01*
G37*
%LPD*%
%LPC*%
G36*
X899786Y701579D02*
X899786Y701579D01*
X896250Y703044D01*
X893544Y705750D01*
X892079Y709286D01*
X892079Y713114D01*
X893544Y716650D01*
X896250Y719356D01*
X899786Y720821D01*
X903614Y720821D01*
X907150Y719356D01*
X909856Y716650D01*
X911321Y713114D01*
X911321Y709286D01*
X909856Y705750D01*
X907150Y703044D01*
X903614Y701579D01*
X899786Y701579D01*
G37*
%LPD*%
%LPC*%
G36*
X950586Y701579D02*
X950586Y701579D01*
X947050Y703044D01*
X944344Y705750D01*
X942879Y709286D01*
X942879Y713114D01*
X944344Y716650D01*
X947050Y719356D01*
X950586Y720821D01*
X954414Y720821D01*
X957950Y719356D01*
X960656Y716650D01*
X962121Y713114D01*
X962121Y709286D01*
X960656Y705750D01*
X957950Y703044D01*
X954414Y701579D01*
X950586Y701579D01*
G37*
%LPD*%
%LPC*%
G36*
X1001386Y701579D02*
X1001386Y701579D01*
X997850Y703044D01*
X995144Y705750D01*
X993679Y709286D01*
X993679Y713114D01*
X995144Y716650D01*
X997850Y719356D01*
X1001386Y720821D01*
X1005214Y720821D01*
X1008750Y719356D01*
X1011456Y716650D01*
X1012921Y713114D01*
X1012921Y709286D01*
X1011456Y705750D01*
X1008750Y703044D01*
X1005214Y701579D01*
X1001386Y701579D01*
G37*
%LPD*%
%LPC*%
G36*
X16786Y678679D02*
X16786Y678679D01*
X13250Y680144D01*
X10544Y682850D01*
X9079Y686386D01*
X9079Y690214D01*
X10544Y693750D01*
X13250Y696456D01*
X16786Y697921D01*
X20614Y697921D01*
X24150Y696456D01*
X26856Y693750D01*
X28321Y690214D01*
X28321Y686386D01*
X26856Y682850D01*
X24150Y680144D01*
X20614Y678679D01*
X16786Y678679D01*
G37*
%LPD*%
%LPC*%
G36*
X67586Y678679D02*
X67586Y678679D01*
X64050Y680144D01*
X61344Y682850D01*
X59879Y686386D01*
X59879Y690214D01*
X61344Y693750D01*
X64050Y696456D01*
X67586Y697921D01*
X71414Y697921D01*
X74950Y696456D01*
X77656Y693750D01*
X79121Y690214D01*
X79121Y686386D01*
X77656Y682850D01*
X74950Y680144D01*
X71414Y678679D01*
X67586Y678679D01*
G37*
%LPD*%
%LPC*%
G36*
X124086Y678679D02*
X124086Y678679D01*
X120550Y680144D01*
X117844Y682850D01*
X116379Y686386D01*
X116379Y690214D01*
X117844Y693750D01*
X120550Y696456D01*
X124086Y697921D01*
X127914Y697921D01*
X131450Y696456D01*
X134156Y693750D01*
X135621Y690214D01*
X135621Y686386D01*
X134156Y682850D01*
X131450Y680144D01*
X127914Y678679D01*
X124086Y678679D01*
G37*
%LPD*%
%LPC*%
G36*
X149486Y678679D02*
X149486Y678679D01*
X145950Y680144D01*
X143244Y682850D01*
X141779Y686386D01*
X141779Y690214D01*
X143244Y693750D01*
X145950Y696456D01*
X149486Y697921D01*
X153314Y697921D01*
X156850Y696456D01*
X159556Y693750D01*
X161021Y690214D01*
X161021Y686386D01*
X159556Y682850D01*
X156850Y680144D01*
X153314Y678679D01*
X149486Y678679D01*
G37*
%LPD*%
%LPC*%
G36*
X42186Y678679D02*
X42186Y678679D01*
X38650Y680144D01*
X35944Y682850D01*
X34479Y686386D01*
X34479Y690214D01*
X35944Y693750D01*
X38650Y696456D01*
X42186Y697921D01*
X46014Y697921D01*
X49550Y696456D01*
X52256Y693750D01*
X53721Y690214D01*
X53721Y686386D01*
X52256Y682850D01*
X49550Y680144D01*
X46014Y678679D01*
X42186Y678679D01*
G37*
%LPD*%
%LPC*%
G36*
X683886Y29749D02*
X683886Y29749D01*
X680350Y31214D01*
X677644Y33920D01*
X676179Y37456D01*
X676179Y41284D01*
X677644Y44820D01*
X680350Y47526D01*
X683886Y48991D01*
X687714Y48991D01*
X691250Y47526D01*
X693956Y44820D01*
X695421Y41284D01*
X695421Y37456D01*
X693956Y33920D01*
X691250Y31214D01*
X687714Y29749D01*
X683886Y29749D01*
G37*
%LPD*%
%LPC*%
G36*
X582286Y29749D02*
X582286Y29749D01*
X578750Y31214D01*
X576044Y33920D01*
X574579Y37456D01*
X574579Y41284D01*
X576044Y44820D01*
X578750Y47526D01*
X582286Y48991D01*
X586114Y48991D01*
X589650Y47526D01*
X592356Y44820D01*
X593821Y41284D01*
X593821Y37456D01*
X592356Y33920D01*
X589650Y31214D01*
X586114Y29749D01*
X582286Y29749D01*
G37*
%LPD*%
%LPC*%
G36*
X531486Y29749D02*
X531486Y29749D01*
X527950Y31214D01*
X525244Y33920D01*
X523779Y37456D01*
X523779Y41284D01*
X525244Y44820D01*
X527950Y47526D01*
X531486Y48991D01*
X535314Y48991D01*
X538850Y47526D01*
X541556Y44820D01*
X543021Y41284D01*
X543021Y37456D01*
X541556Y33920D01*
X538850Y31214D01*
X535314Y29749D01*
X531486Y29749D01*
G37*
%LPD*%
%LPC*%
G36*
X429886Y29749D02*
X429886Y29749D01*
X426350Y31214D01*
X423644Y33920D01*
X422179Y37456D01*
X422179Y41284D01*
X423644Y44820D01*
X426350Y47526D01*
X429886Y48991D01*
X433714Y48991D01*
X437250Y47526D01*
X439956Y44820D01*
X441421Y41284D01*
X441421Y37456D01*
X439956Y33920D01*
X437250Y31214D01*
X433714Y29749D01*
X429886Y29749D01*
G37*
%LPD*%
%LPC*%
G36*
X163388Y385095D02*
X163388Y385095D01*
X160226Y386405D01*
X157805Y388826D01*
X156495Y391988D01*
X156495Y395412D01*
X157805Y398574D01*
X160226Y400995D01*
X163388Y402305D01*
X166812Y402305D01*
X169974Y400995D01*
X172395Y398574D01*
X173705Y395412D01*
X173705Y391988D01*
X172395Y388826D01*
X169974Y386405D01*
X166812Y385095D01*
X163388Y385095D01*
G37*
%LPD*%
%LPC*%
G36*
X74488Y385095D02*
X74488Y385095D01*
X71326Y386405D01*
X68905Y388826D01*
X67595Y391988D01*
X67595Y395412D01*
X68905Y398574D01*
X71326Y400995D01*
X74488Y402305D01*
X77912Y402305D01*
X81074Y400995D01*
X83495Y398574D01*
X84805Y395412D01*
X84805Y391988D01*
X83495Y388826D01*
X81074Y386405D01*
X77912Y385095D01*
X74488Y385095D01*
G37*
%LPD*%
%LPC*%
G36*
X926388Y375895D02*
X926388Y375895D01*
X923226Y377205D01*
X920805Y379626D01*
X919495Y382788D01*
X919495Y386212D01*
X920805Y389374D01*
X923226Y391795D01*
X926388Y393105D01*
X929812Y393105D01*
X932974Y391795D01*
X935395Y389374D01*
X936705Y386212D01*
X936705Y382788D01*
X935395Y379626D01*
X932974Y377205D01*
X929812Y375895D01*
X926388Y375895D01*
G37*
%LPD*%
%LPC*%
G36*
X922618Y909685D02*
X922618Y909685D01*
X919456Y910995D01*
X917035Y913416D01*
X915725Y916578D01*
X915725Y920002D01*
X917035Y923164D01*
X919456Y925585D01*
X922618Y926895D01*
X926042Y926895D01*
X929204Y925585D01*
X931625Y923164D01*
X932935Y920002D01*
X932935Y916578D01*
X931625Y913416D01*
X929204Y910995D01*
X926042Y909685D01*
X922618Y909685D01*
G37*
%LPD*%
%LPC*%
G36*
X897218Y909685D02*
X897218Y909685D01*
X894056Y910995D01*
X891635Y913416D01*
X890325Y916578D01*
X890325Y920002D01*
X891635Y923164D01*
X894056Y925585D01*
X897218Y926895D01*
X900642Y926895D01*
X903804Y925585D01*
X906225Y923164D01*
X907535Y920002D01*
X907535Y916578D01*
X906225Y913416D01*
X903804Y910995D01*
X900642Y909685D01*
X897218Y909685D01*
G37*
%LPD*%
%LPC*%
G36*
X900988Y375895D02*
X900988Y375895D01*
X897826Y377205D01*
X895405Y379626D01*
X894095Y382788D01*
X894095Y386212D01*
X895405Y389374D01*
X897826Y391795D01*
X900988Y393105D01*
X904412Y393105D01*
X907574Y391795D01*
X909995Y389374D01*
X911305Y386212D01*
X911305Y382788D01*
X909995Y379626D01*
X907574Y377205D01*
X904412Y375895D01*
X900988Y375895D01*
G37*
%LPD*%
%LPC*%
G36*
X150688Y404145D02*
X150688Y404145D01*
X147526Y405455D01*
X145105Y407876D01*
X143795Y411038D01*
X143795Y414462D01*
X145105Y417624D01*
X147526Y420045D01*
X150688Y421355D01*
X154112Y421355D01*
X157274Y420045D01*
X159695Y417624D01*
X161005Y414462D01*
X161005Y411038D01*
X159695Y407876D01*
X157274Y405455D01*
X154112Y404145D01*
X150688Y404145D01*
G37*
%LPD*%
%LPC*%
G36*
X87188Y404145D02*
X87188Y404145D01*
X84026Y405455D01*
X81605Y407876D01*
X80295Y411038D01*
X80295Y414462D01*
X81605Y417624D01*
X84026Y420045D01*
X87188Y421355D01*
X90612Y421355D01*
X93774Y420045D01*
X96195Y417624D01*
X97505Y414462D01*
X97505Y411038D01*
X96195Y407876D01*
X93774Y405455D01*
X90612Y404145D01*
X87188Y404145D01*
G37*
%LPD*%
%LPC*%
G36*
X99888Y385095D02*
X99888Y385095D01*
X96726Y386405D01*
X94305Y388826D01*
X92995Y391988D01*
X92995Y395412D01*
X94305Y398574D01*
X96726Y400995D01*
X99888Y402305D01*
X103312Y402305D01*
X106474Y400995D01*
X108895Y398574D01*
X110205Y395412D01*
X110205Y391988D01*
X108895Y388826D01*
X106474Y386405D01*
X103312Y385095D01*
X99888Y385095D01*
G37*
%LPD*%
%LPC*%
G36*
X137988Y385095D02*
X137988Y385095D01*
X134826Y386405D01*
X132405Y388826D01*
X131095Y391988D01*
X131095Y395412D01*
X132405Y398574D01*
X134826Y400995D01*
X137988Y402305D01*
X141412Y402305D01*
X144574Y400995D01*
X146995Y398574D01*
X148305Y395412D01*
X148305Y391988D01*
X146995Y388826D01*
X144574Y386405D01*
X141412Y385095D01*
X137988Y385095D01*
G37*
%LPD*%
%LPC*%
G36*
X923988Y655595D02*
X923988Y655595D01*
X920826Y656905D01*
X918405Y659326D01*
X917095Y662488D01*
X917095Y665912D01*
X918405Y669074D01*
X920826Y671495D01*
X923988Y672805D01*
X927412Y672805D01*
X930574Y671495D01*
X932995Y669074D01*
X934305Y665912D01*
X934305Y662488D01*
X932995Y659326D01*
X930574Y656905D01*
X927412Y655595D01*
X923988Y655595D01*
G37*
%LPD*%
%LPC*%
G36*
X56147Y660172D02*
X56147Y660172D01*
X56072Y660247D01*
X56072Y670353D01*
X56147Y670428D01*
X77253Y670428D01*
X77328Y670353D01*
X77328Y660247D01*
X77253Y660172D01*
X56147Y660172D01*
G37*
%LPD*%
%LPC*%
G36*
X56147Y574172D02*
X56147Y574172D01*
X56072Y574247D01*
X56072Y584353D01*
X56147Y584428D01*
X77253Y584428D01*
X77328Y584353D01*
X77328Y574247D01*
X77253Y574172D01*
X56147Y574172D01*
G37*
%LPD*%
%LPC*%
G36*
X28282Y859563D02*
X28282Y859563D01*
X25173Y862672D01*
X25173Y867068D01*
X27799Y869694D01*
X27841Y869752D01*
X27890Y869804D01*
X27912Y869851D01*
X27942Y869893D01*
X27964Y869962D01*
X27994Y870027D01*
X27999Y870079D01*
X28015Y870129D01*
X28013Y870200D01*
X28021Y870271D01*
X28010Y870322D01*
X28008Y870374D01*
X27984Y870442D01*
X27969Y870512D01*
X27942Y870557D01*
X27924Y870605D01*
X27879Y870661D01*
X27842Y870723D01*
X27803Y870757D01*
X27770Y870797D01*
X27710Y870836D01*
X27655Y870883D01*
X27607Y870902D01*
X27563Y870930D01*
X27494Y870948D01*
X27427Y870975D01*
X27356Y870983D01*
X27325Y870991D01*
X27302Y870989D01*
X27261Y870993D01*
X23202Y870993D01*
X20093Y874102D01*
X20093Y878498D01*
X23202Y881607D01*
X27598Y881607D01*
X30707Y878498D01*
X30707Y874102D01*
X28081Y871476D01*
X28039Y871418D01*
X27990Y871366D01*
X27968Y871319D01*
X27938Y871277D01*
X27916Y871208D01*
X27886Y871143D01*
X27881Y871091D01*
X27865Y871041D01*
X27867Y870970D01*
X27859Y870899D01*
X27870Y870848D01*
X27872Y870796D01*
X27896Y870728D01*
X27911Y870658D01*
X27938Y870613D01*
X27956Y870565D01*
X28001Y870509D01*
X28038Y870447D01*
X28077Y870413D01*
X28110Y870373D01*
X28170Y870334D01*
X28225Y870287D01*
X28273Y870268D01*
X28317Y870240D01*
X28386Y870222D01*
X28453Y870195D01*
X28524Y870187D01*
X28555Y870179D01*
X28578Y870181D01*
X28619Y870177D01*
X32678Y870177D01*
X35787Y867068D01*
X35787Y862672D01*
X32678Y859563D01*
X28282Y859563D01*
G37*
%LPD*%
%LPC*%
G36*
X1034820Y590629D02*
X1034820Y590629D01*
X1032048Y591777D01*
X1029927Y593898D01*
X1028779Y596670D01*
X1028779Y599670D01*
X1029927Y602442D01*
X1032048Y604563D01*
X1034820Y605711D01*
X1037820Y605711D01*
X1040592Y604563D01*
X1042713Y602442D01*
X1043861Y599670D01*
X1043861Y596670D01*
X1042713Y593898D01*
X1040592Y591777D01*
X1037820Y590629D01*
X1034820Y590629D01*
G37*
%LPD*%
%LPC*%
G36*
X1037360Y318849D02*
X1037360Y318849D01*
X1034588Y319997D01*
X1032467Y322118D01*
X1031319Y324890D01*
X1031319Y327890D01*
X1032467Y330662D01*
X1034588Y332783D01*
X1037360Y333931D01*
X1040360Y333931D01*
X1043132Y332783D01*
X1045253Y330662D01*
X1046401Y327890D01*
X1046401Y324890D01*
X1045253Y322118D01*
X1043132Y319997D01*
X1040360Y318849D01*
X1037360Y318849D01*
G37*
%LPD*%
%LPC*%
G36*
X1037360Y857329D02*
X1037360Y857329D01*
X1034588Y858477D01*
X1032467Y860598D01*
X1031319Y863370D01*
X1031319Y866370D01*
X1032467Y869142D01*
X1034588Y871263D01*
X1037360Y872411D01*
X1040360Y872411D01*
X1043132Y871263D01*
X1045253Y869142D01*
X1046401Y866370D01*
X1046401Y863370D01*
X1045253Y860598D01*
X1043132Y858477D01*
X1040360Y857329D01*
X1037360Y857329D01*
G37*
%LPD*%
%LPC*%
G36*
X17147Y660172D02*
X17147Y660172D01*
X17072Y660247D01*
X17072Y670353D01*
X17147Y670428D01*
X33253Y670428D01*
X33328Y670353D01*
X33328Y660247D01*
X33253Y660172D01*
X17147Y660172D01*
G37*
%LPD*%
%LPC*%
G36*
X17147Y574172D02*
X17147Y574172D01*
X17072Y574247D01*
X17072Y584353D01*
X17147Y584428D01*
X33253Y584428D01*
X33328Y584353D01*
X33328Y574247D01*
X33253Y574172D01*
X17147Y574172D01*
G37*
%LPD*%
%LPC*%
G36*
X13958Y946054D02*
X13958Y946054D01*
X11589Y947036D01*
X9776Y948849D01*
X8794Y951218D01*
X8794Y953782D01*
X9776Y956151D01*
X11589Y957964D01*
X13958Y958946D01*
X16522Y958946D01*
X18891Y957964D01*
X20704Y956151D01*
X21686Y953782D01*
X21686Y951218D01*
X20704Y948849D01*
X18891Y947036D01*
X16522Y946054D01*
X13958Y946054D01*
G37*
%LPD*%
%LPC*%
G36*
X28282Y933223D02*
X28282Y933223D01*
X25173Y936332D01*
X25173Y940728D01*
X28282Y943837D01*
X32678Y943837D01*
X35787Y940728D01*
X35787Y936332D01*
X32678Y933223D01*
X28282Y933223D01*
G37*
%LPD*%
%LPC*%
G36*
X223128Y921793D02*
X223128Y921793D01*
X220019Y924902D01*
X220019Y929298D01*
X223128Y932407D01*
X227524Y932407D01*
X230633Y929298D01*
X230633Y924902D01*
X227524Y921793D01*
X223128Y921793D01*
G37*
%LPD*%
%LPC*%
G36*
X29552Y917983D02*
X29552Y917983D01*
X26443Y921092D01*
X26443Y925488D01*
X29552Y928597D01*
X33948Y928597D01*
X37057Y925488D01*
X37057Y921092D01*
X33948Y917983D01*
X29552Y917983D01*
G37*
%LPD*%
%LPC*%
G36*
X28282Y904013D02*
X28282Y904013D01*
X25173Y907122D01*
X25173Y911518D01*
X28282Y914627D01*
X32678Y914627D01*
X35787Y911518D01*
X35787Y907122D01*
X32678Y904013D01*
X28282Y904013D01*
G37*
%LPD*%
%LPC*%
G36*
X226402Y896393D02*
X226402Y896393D01*
X223293Y899502D01*
X223293Y903898D01*
X226402Y907007D01*
X230798Y907007D01*
X233907Y903898D01*
X233907Y899502D01*
X230798Y896393D01*
X226402Y896393D01*
G37*
%LPD*%
%LPC*%
G36*
X28282Y888773D02*
X28282Y888773D01*
X25173Y891882D01*
X25173Y896278D01*
X28282Y899387D01*
X32678Y899387D01*
X35787Y896278D01*
X35787Y891882D01*
X32678Y888773D01*
X28282Y888773D01*
G37*
%LPD*%
%LPC*%
G36*
X1020152Y886233D02*
X1020152Y886233D01*
X1017043Y889342D01*
X1017043Y893738D01*
X1020152Y896847D01*
X1024548Y896847D01*
X1027657Y893738D01*
X1027657Y889342D01*
X1024548Y886233D01*
X1020152Y886233D01*
G37*
%LPD*%
%LPC*%
G36*
X959192Y886233D02*
X959192Y886233D01*
X956083Y889342D01*
X956083Y893738D01*
X959192Y896847D01*
X963588Y896847D01*
X966697Y893738D01*
X966697Y889342D01*
X963588Y886233D01*
X959192Y886233D01*
G37*
%LPD*%
%LPC*%
G36*
X976702Y871493D02*
X976702Y871493D01*
X973593Y874602D01*
X973593Y878998D01*
X976702Y882107D01*
X981098Y882107D01*
X984207Y878998D01*
X984207Y874602D01*
X981098Y871493D01*
X976702Y871493D01*
G37*
%LPD*%
%LPC*%
G36*
X988402Y858293D02*
X988402Y858293D01*
X985293Y861402D01*
X985293Y865798D01*
X988402Y868907D01*
X992798Y868907D01*
X995907Y865798D01*
X995907Y861402D01*
X992798Y858293D01*
X988402Y858293D01*
G37*
%LPD*%
%LPC*%
G36*
X1001302Y849193D02*
X1001302Y849193D01*
X998193Y852302D01*
X998193Y856698D01*
X1001302Y859807D01*
X1005698Y859807D01*
X1008807Y856698D01*
X1008807Y852302D01*
X1005698Y849193D01*
X1001302Y849193D01*
G37*
%LPD*%
%LPC*%
G36*
X976802Y848693D02*
X976802Y848693D01*
X973693Y851802D01*
X973693Y856198D01*
X976802Y859307D01*
X981198Y859307D01*
X984307Y856198D01*
X984307Y851802D01*
X981198Y848693D01*
X976802Y848693D01*
G37*
%LPD*%
%LPC*%
G36*
X29552Y844323D02*
X29552Y844323D01*
X26443Y847432D01*
X26443Y851828D01*
X29552Y854937D01*
X33948Y854937D01*
X37057Y851828D01*
X37057Y847432D01*
X33948Y844323D01*
X29552Y844323D01*
G37*
%LPD*%
%LPC*%
G36*
X1025232Y836703D02*
X1025232Y836703D01*
X1022123Y839812D01*
X1022123Y844208D01*
X1025232Y847317D01*
X1029628Y847317D01*
X1032737Y844208D01*
X1032737Y839812D01*
X1029628Y836703D01*
X1025232Y836703D01*
G37*
%LPD*%
%LPC*%
G36*
X900772Y836703D02*
X900772Y836703D01*
X897663Y839812D01*
X897663Y844208D01*
X900772Y847317D01*
X905168Y847317D01*
X908277Y844208D01*
X908277Y839812D01*
X905168Y836703D01*
X900772Y836703D01*
G37*
%LPD*%
%LPC*%
G36*
X969352Y825273D02*
X969352Y825273D01*
X966243Y828382D01*
X966243Y832778D01*
X969352Y835887D01*
X973748Y835887D01*
X976857Y832778D01*
X976857Y828382D01*
X973748Y825273D01*
X969352Y825273D01*
G37*
%LPD*%
%LPC*%
G36*
X29552Y813843D02*
X29552Y813843D01*
X26443Y816952D01*
X26443Y821348D01*
X29552Y824457D01*
X33948Y824457D01*
X37057Y821348D01*
X37057Y816952D01*
X33948Y813843D01*
X29552Y813843D01*
G37*
%LPD*%
%LPC*%
G36*
X30822Y798603D02*
X30822Y798603D01*
X27713Y801712D01*
X27713Y806108D01*
X30822Y809217D01*
X35218Y809217D01*
X38327Y806108D01*
X38327Y801712D01*
X35218Y798603D01*
X30822Y798603D01*
G37*
%LPD*%
%LPC*%
G36*
X29552Y783363D02*
X29552Y783363D01*
X26443Y786472D01*
X26443Y790868D01*
X29552Y793977D01*
X33948Y793977D01*
X37057Y790868D01*
X37057Y786472D01*
X33948Y783363D01*
X29552Y783363D01*
G37*
%LPD*%
%LPC*%
G36*
X29552Y768123D02*
X29552Y768123D01*
X26443Y771232D01*
X26443Y775628D01*
X29552Y778737D01*
X33948Y778737D01*
X37057Y775628D01*
X37057Y771232D01*
X33948Y768123D01*
X29552Y768123D01*
G37*
%LPD*%
%LPC*%
G36*
X1064602Y680493D02*
X1064602Y680493D01*
X1061493Y683602D01*
X1061493Y687998D01*
X1064602Y691107D01*
X1068998Y691107D01*
X1072107Y687998D01*
X1072107Y683602D01*
X1068998Y680493D01*
X1064602Y680493D01*
G37*
%LPD*%
%LPC*%
G36*
X1001102Y870993D02*
X1001102Y870993D01*
X997993Y874102D01*
X997993Y878498D01*
X1001102Y881607D01*
X1005498Y881607D01*
X1008607Y878498D01*
X1008607Y874102D01*
X1005498Y870993D01*
X1001102Y870993D01*
G37*
%LPD*%
%LPC*%
G36*
X486752Y639853D02*
X486752Y639853D01*
X483643Y642962D01*
X483643Y647358D01*
X486752Y650467D01*
X491148Y650467D01*
X494257Y647358D01*
X494257Y642962D01*
X491148Y639853D01*
X486752Y639853D01*
G37*
%LPD*%
%LPC*%
G36*
X405472Y634773D02*
X405472Y634773D01*
X402363Y637882D01*
X402363Y642278D01*
X405472Y645387D01*
X409868Y645387D01*
X412977Y642278D01*
X412977Y637882D01*
X409868Y634773D01*
X405472Y634773D01*
G37*
%LPD*%
%LPC*%
G36*
X1001102Y604293D02*
X1001102Y604293D01*
X997993Y607402D01*
X997993Y611798D01*
X1001102Y614907D01*
X1005498Y614907D01*
X1008607Y611798D01*
X1008607Y607402D01*
X1005498Y604293D01*
X1001102Y604293D01*
G37*
%LPD*%
%LPC*%
G36*
X1064602Y401093D02*
X1064602Y401093D01*
X1061493Y404202D01*
X1061493Y408598D01*
X1064602Y411707D01*
X1068998Y411707D01*
X1072107Y408598D01*
X1072107Y404202D01*
X1068998Y401093D01*
X1064602Y401093D01*
G37*
%LPD*%
%LPC*%
G36*
X281302Y372693D02*
X281302Y372693D01*
X278193Y375802D01*
X278193Y380198D01*
X281302Y383307D01*
X285698Y383307D01*
X288807Y380198D01*
X288807Y375802D01*
X285698Y372693D01*
X281302Y372693D01*
G37*
%LPD*%
%LPC*%
G36*
X958462Y353293D02*
X958462Y353293D01*
X955353Y356402D01*
X955353Y360798D01*
X958462Y363907D01*
X962858Y363907D01*
X965967Y360798D01*
X965967Y356402D01*
X962858Y353293D01*
X958462Y353293D01*
G37*
%LPD*%
%LPC*%
G36*
X1020152Y351563D02*
X1020152Y351563D01*
X1017043Y354672D01*
X1017043Y359068D01*
X1020152Y362177D01*
X1024548Y362177D01*
X1027657Y359068D01*
X1027657Y354672D01*
X1024548Y351563D01*
X1020152Y351563D01*
G37*
%LPD*%
%LPC*%
G36*
X213702Y350293D02*
X213702Y350293D01*
X210593Y353402D01*
X210593Y357798D01*
X213702Y360907D01*
X218098Y360907D01*
X221207Y357798D01*
X221207Y353402D01*
X218098Y350293D01*
X213702Y350293D01*
G37*
%LPD*%
%LPC*%
G36*
X201002Y350293D02*
X201002Y350293D01*
X197893Y353402D01*
X197893Y357798D01*
X201002Y360907D01*
X205398Y360907D01*
X208507Y357798D01*
X208507Y353402D01*
X205398Y350293D01*
X201002Y350293D01*
G37*
%LPD*%
%LPC*%
G36*
X188302Y350293D02*
X188302Y350293D01*
X185193Y353402D01*
X185193Y357798D01*
X188302Y360907D01*
X192698Y360907D01*
X195807Y357798D01*
X195807Y353402D01*
X192698Y350293D01*
X188302Y350293D01*
G37*
%LPD*%
%LPC*%
G36*
X976702Y338093D02*
X976702Y338093D01*
X973593Y341202D01*
X973593Y345598D01*
X976702Y348707D01*
X981098Y348707D01*
X984207Y345598D01*
X984207Y341202D01*
X981098Y338093D01*
X976702Y338093D01*
G37*
%LPD*%
%LPC*%
G36*
X1001102Y337593D02*
X1001102Y337593D01*
X997993Y340702D01*
X997993Y345098D01*
X1001102Y348207D01*
X1005498Y348207D01*
X1008607Y345098D01*
X1008607Y340702D01*
X1005498Y337593D01*
X1001102Y337593D01*
G37*
%LPD*%
%LPC*%
G36*
X213702Y337593D02*
X213702Y337593D01*
X210593Y340702D01*
X210593Y345098D01*
X213702Y348207D01*
X218098Y348207D01*
X221207Y345098D01*
X221207Y340702D01*
X218098Y337593D01*
X213702Y337593D01*
G37*
%LPD*%
%LPC*%
G36*
X201002Y337593D02*
X201002Y337593D01*
X197893Y340702D01*
X197893Y345098D01*
X201002Y348207D01*
X205398Y348207D01*
X208507Y345098D01*
X208507Y340702D01*
X205398Y337593D01*
X201002Y337593D01*
G37*
%LPD*%
%LPC*%
G36*
X188302Y337593D02*
X188302Y337593D01*
X185193Y340702D01*
X185193Y345098D01*
X188302Y348207D01*
X192698Y348207D01*
X195807Y345098D01*
X195807Y340702D01*
X192698Y337593D01*
X188302Y337593D01*
G37*
%LPD*%
%LPC*%
G36*
X188302Y324893D02*
X188302Y324893D01*
X185193Y328002D01*
X185193Y332398D01*
X188302Y335507D01*
X192698Y335507D01*
X195807Y332398D01*
X195807Y328002D01*
X192698Y324893D01*
X188302Y324893D01*
G37*
%LPD*%
%LPC*%
G36*
X201002Y324893D02*
X201002Y324893D01*
X197893Y328002D01*
X197893Y332398D01*
X201002Y335507D01*
X205398Y335507D01*
X208507Y332398D01*
X208507Y328002D01*
X205398Y324893D01*
X201002Y324893D01*
G37*
%LPD*%
%LPC*%
G36*
X213702Y324893D02*
X213702Y324893D01*
X210593Y328002D01*
X210593Y332398D01*
X213702Y335507D01*
X218098Y335507D01*
X221207Y332398D01*
X221207Y328002D01*
X218098Y324893D01*
X213702Y324893D01*
G37*
%LPD*%
%LPC*%
G36*
X988402Y324893D02*
X988402Y324893D01*
X985293Y328002D01*
X985293Y332398D01*
X988402Y335507D01*
X992798Y335507D01*
X995907Y332398D01*
X995907Y328002D01*
X992798Y324893D01*
X988402Y324893D01*
G37*
%LPD*%
%LPC*%
G36*
X1001302Y315793D02*
X1001302Y315793D01*
X998193Y318902D01*
X998193Y323298D01*
X1001302Y326407D01*
X1005698Y326407D01*
X1008807Y323298D01*
X1008807Y318902D01*
X1005698Y315793D01*
X1001302Y315793D01*
G37*
%LPD*%
%LPC*%
G36*
X976802Y315293D02*
X976802Y315293D01*
X973693Y318402D01*
X973693Y322798D01*
X976802Y325907D01*
X981198Y325907D01*
X984307Y322798D01*
X984307Y318402D01*
X981198Y315293D01*
X976802Y315293D01*
G37*
%LPD*%
%LPC*%
G36*
X213702Y312193D02*
X213702Y312193D01*
X210593Y315302D01*
X210593Y319698D01*
X213702Y322807D01*
X218098Y322807D01*
X221207Y319698D01*
X221207Y315302D01*
X218098Y312193D01*
X213702Y312193D01*
G37*
%LPD*%
%LPC*%
G36*
X918552Y514123D02*
X918552Y514123D01*
X915443Y517232D01*
X915443Y521628D01*
X918552Y524737D01*
X922948Y524737D01*
X926057Y521628D01*
X926057Y517232D01*
X922948Y514123D01*
X918552Y514123D01*
G37*
%LPD*%
%LPC*%
G36*
X188302Y312193D02*
X188302Y312193D01*
X185193Y315302D01*
X185193Y319698D01*
X188302Y322807D01*
X192698Y322807D01*
X195807Y319698D01*
X195807Y315302D01*
X192698Y312193D01*
X188302Y312193D01*
G37*
%LPD*%
%LPC*%
G36*
X1026502Y302033D02*
X1026502Y302033D01*
X1023393Y305142D01*
X1023393Y309538D01*
X1026502Y312647D01*
X1030898Y312647D01*
X1034007Y309538D01*
X1034007Y305142D01*
X1030898Y302033D01*
X1026502Y302033D01*
G37*
%LPD*%
%LPC*%
G36*
X899502Y300344D02*
X899502Y300344D01*
X896393Y303453D01*
X896393Y307849D01*
X899502Y310958D01*
X903898Y310958D01*
X907007Y307849D01*
X907007Y303453D01*
X903898Y300344D01*
X899502Y300344D01*
G37*
%LPD*%
%LPC*%
G36*
X188302Y299493D02*
X188302Y299493D01*
X185193Y302602D01*
X185193Y306998D01*
X188302Y310107D01*
X192698Y310107D01*
X195807Y306998D01*
X195807Y302602D01*
X192698Y299493D01*
X188302Y299493D01*
G37*
%LPD*%
%LPC*%
G36*
X201002Y299493D02*
X201002Y299493D01*
X197893Y302602D01*
X197893Y306998D01*
X201002Y310107D01*
X205398Y310107D01*
X208507Y306998D01*
X208507Y302602D01*
X205398Y299493D01*
X201002Y299493D01*
G37*
%LPD*%
%LPC*%
G36*
X213702Y299493D02*
X213702Y299493D01*
X210593Y302602D01*
X210593Y306998D01*
X213702Y310107D01*
X218098Y310107D01*
X221207Y306998D01*
X221207Y302602D01*
X218098Y299493D01*
X213702Y299493D01*
G37*
%LPD*%
%LPC*%
G36*
X966812Y286793D02*
X966812Y286793D01*
X963703Y289902D01*
X963703Y294298D01*
X966812Y297407D01*
X971208Y297407D01*
X974317Y294298D01*
X974317Y289902D01*
X971208Y286793D01*
X966812Y286793D01*
G37*
%LPD*%
%LPC*%
G36*
X162902Y261393D02*
X162902Y261393D01*
X159793Y264502D01*
X159793Y268898D01*
X162902Y272007D01*
X167298Y272007D01*
X170407Y268898D01*
X170407Y264502D01*
X167298Y261393D01*
X162902Y261393D01*
G37*
%LPD*%
%LPC*%
G36*
X922362Y247027D02*
X922362Y247027D01*
X919253Y250136D01*
X919253Y254532D01*
X922362Y257641D01*
X926758Y257641D01*
X929867Y254532D01*
X929867Y250136D01*
X926758Y247027D01*
X922362Y247027D01*
G37*
%LPD*%
%LPC*%
G36*
X289902Y223293D02*
X289902Y223293D01*
X286793Y226402D01*
X286793Y230798D01*
X289902Y233907D01*
X294298Y233907D01*
X297407Y230798D01*
X297407Y226402D01*
X294298Y223293D01*
X289902Y223293D01*
G37*
%LPD*%
%LPC*%
G36*
X188302Y197893D02*
X188302Y197893D01*
X185193Y201002D01*
X185193Y205398D01*
X188302Y208507D01*
X192698Y208507D01*
X195807Y205398D01*
X195807Y201002D01*
X192698Y197893D01*
X188302Y197893D01*
G37*
%LPD*%
%LPC*%
G36*
X213702Y197893D02*
X213702Y197893D01*
X210593Y201002D01*
X210593Y205398D01*
X213702Y208507D01*
X218098Y208507D01*
X221207Y205398D01*
X221207Y201002D01*
X218098Y197893D01*
X213702Y197893D01*
G37*
%LPD*%
%LPC*%
G36*
X201002Y197893D02*
X201002Y197893D01*
X197893Y201002D01*
X197893Y205398D01*
X201002Y208507D01*
X205398Y208507D01*
X208507Y205398D01*
X208507Y201002D01*
X205398Y197893D01*
X201002Y197893D01*
G37*
%LPD*%
%LPC*%
G36*
X74002Y197893D02*
X74002Y197893D01*
X70893Y201002D01*
X70893Y205398D01*
X74002Y208507D01*
X78398Y208507D01*
X81507Y205398D01*
X81507Y201002D01*
X78398Y197893D01*
X74002Y197893D01*
G37*
%LPD*%
%LPC*%
G36*
X61302Y197893D02*
X61302Y197893D01*
X58193Y201002D01*
X58193Y205398D01*
X61302Y208507D01*
X65698Y208507D01*
X68807Y205398D01*
X68807Y201002D01*
X65698Y197893D01*
X61302Y197893D01*
G37*
%LPD*%
%LPC*%
G36*
X48602Y197893D02*
X48602Y197893D01*
X45493Y201002D01*
X45493Y205398D01*
X48602Y208507D01*
X52998Y208507D01*
X56107Y205398D01*
X56107Y201002D01*
X52998Y197893D01*
X48602Y197893D01*
G37*
%LPD*%
%LPC*%
G36*
X961962Y621263D02*
X961962Y621263D01*
X958853Y624372D01*
X958853Y628768D01*
X961962Y631877D01*
X966358Y631877D01*
X969467Y628768D01*
X969467Y624372D01*
X966358Y621263D01*
X961962Y621263D01*
G37*
%LPD*%
%LPC*%
G36*
X48602Y185193D02*
X48602Y185193D01*
X45493Y188302D01*
X45493Y192698D01*
X48602Y195807D01*
X52998Y195807D01*
X56107Y192698D01*
X56107Y188302D01*
X52998Y185193D01*
X48602Y185193D01*
G37*
%LPD*%
%LPC*%
G36*
X213702Y185193D02*
X213702Y185193D01*
X210593Y188302D01*
X210593Y192698D01*
X213702Y195807D01*
X218098Y195807D01*
X221207Y192698D01*
X221207Y188302D01*
X218098Y185193D01*
X213702Y185193D01*
G37*
%LPD*%
%LPC*%
G36*
X201002Y185193D02*
X201002Y185193D01*
X197893Y188302D01*
X197893Y192698D01*
X201002Y195807D01*
X205398Y195807D01*
X208507Y192698D01*
X208507Y188302D01*
X205398Y185193D01*
X201002Y185193D01*
G37*
%LPD*%
%LPC*%
G36*
X188302Y185193D02*
X188302Y185193D01*
X185193Y188302D01*
X185193Y192698D01*
X188302Y195807D01*
X192698Y195807D01*
X195807Y192698D01*
X195807Y188302D01*
X192698Y185193D01*
X188302Y185193D01*
G37*
%LPD*%
%LPC*%
G36*
X74002Y185193D02*
X74002Y185193D01*
X70893Y188302D01*
X70893Y192698D01*
X74002Y195807D01*
X78398Y195807D01*
X81507Y192698D01*
X81507Y188302D01*
X78398Y185193D01*
X74002Y185193D01*
G37*
%LPD*%
%LPC*%
G36*
X61302Y185193D02*
X61302Y185193D01*
X58193Y188302D01*
X58193Y192698D01*
X61302Y195807D01*
X65698Y195807D01*
X68807Y192698D01*
X68807Y188302D01*
X65698Y185193D01*
X61302Y185193D01*
G37*
%LPD*%
%LPC*%
G36*
X48602Y172493D02*
X48602Y172493D01*
X45493Y175602D01*
X45493Y179998D01*
X48602Y183107D01*
X52998Y183107D01*
X56107Y179998D01*
X56107Y175602D01*
X52998Y172493D01*
X48602Y172493D01*
G37*
%LPD*%
%LPC*%
G36*
X213702Y172493D02*
X213702Y172493D01*
X210593Y175602D01*
X210593Y179998D01*
X213702Y183107D01*
X218098Y183107D01*
X221207Y179998D01*
X221207Y175602D01*
X218098Y172493D01*
X213702Y172493D01*
G37*
%LPD*%
%LPC*%
G36*
X201002Y172493D02*
X201002Y172493D01*
X197893Y175602D01*
X197893Y179998D01*
X201002Y183107D01*
X205398Y183107D01*
X208507Y179998D01*
X208507Y175602D01*
X205398Y172493D01*
X201002Y172493D01*
G37*
%LPD*%
%LPC*%
G36*
X188302Y172493D02*
X188302Y172493D01*
X185193Y175602D01*
X185193Y179998D01*
X188302Y183107D01*
X192698Y183107D01*
X195807Y179998D01*
X195807Y175602D01*
X192698Y172493D01*
X188302Y172493D01*
G37*
%LPD*%
%LPC*%
G36*
X74002Y172493D02*
X74002Y172493D01*
X70893Y175602D01*
X70893Y179998D01*
X74002Y183107D01*
X78398Y183107D01*
X81507Y179998D01*
X81507Y175602D01*
X78398Y172493D01*
X74002Y172493D01*
G37*
%LPD*%
%LPC*%
G36*
X61302Y172493D02*
X61302Y172493D01*
X58193Y175602D01*
X58193Y179998D01*
X61302Y183107D01*
X65698Y183107D01*
X68807Y179998D01*
X68807Y175602D01*
X65698Y172493D01*
X61302Y172493D01*
G37*
%LPD*%
%LPC*%
G36*
X201002Y312193D02*
X201002Y312193D01*
X197893Y315302D01*
X197893Y319698D01*
X201002Y322807D01*
X205398Y322807D01*
X208507Y319698D01*
X208507Y315302D01*
X205398Y312193D01*
X201002Y312193D01*
G37*
%LPD*%
%LPC*%
G36*
X213702Y159793D02*
X213702Y159793D01*
X210593Y162902D01*
X210593Y167298D01*
X213702Y170407D01*
X218098Y170407D01*
X221207Y167298D01*
X221207Y162902D01*
X218098Y159793D01*
X213702Y159793D01*
G37*
%LPD*%
%LPC*%
G36*
X201002Y159793D02*
X201002Y159793D01*
X197893Y162902D01*
X197893Y167298D01*
X201002Y170407D01*
X205398Y170407D01*
X208507Y167298D01*
X208507Y162902D01*
X205398Y159793D01*
X201002Y159793D01*
G37*
%LPD*%
%LPC*%
G36*
X188302Y159793D02*
X188302Y159793D01*
X185193Y162902D01*
X185193Y167298D01*
X188302Y170407D01*
X192698Y170407D01*
X195807Y167298D01*
X195807Y162902D01*
X192698Y159793D01*
X188302Y159793D01*
G37*
%LPD*%
%LPC*%
G36*
X74002Y159793D02*
X74002Y159793D01*
X70893Y162902D01*
X70893Y167298D01*
X74002Y170407D01*
X78398Y170407D01*
X81507Y167298D01*
X81507Y162902D01*
X78398Y159793D01*
X74002Y159793D01*
G37*
%LPD*%
%LPC*%
G36*
X61302Y159793D02*
X61302Y159793D01*
X58193Y162902D01*
X58193Y167298D01*
X61302Y170407D01*
X65698Y170407D01*
X68807Y167298D01*
X68807Y162902D01*
X65698Y159793D01*
X61302Y159793D01*
G37*
%LPD*%
%LPC*%
G36*
X213702Y147093D02*
X213702Y147093D01*
X210593Y150202D01*
X210593Y154598D01*
X213702Y157707D01*
X218098Y157707D01*
X221207Y154598D01*
X221207Y150202D01*
X218098Y147093D01*
X213702Y147093D01*
G37*
%LPD*%
%LPC*%
G36*
X201002Y147093D02*
X201002Y147093D01*
X197893Y150202D01*
X197893Y154598D01*
X201002Y157707D01*
X205398Y157707D01*
X208507Y154598D01*
X208507Y150202D01*
X205398Y147093D01*
X201002Y147093D01*
G37*
%LPD*%
%LPC*%
G36*
X188302Y147093D02*
X188302Y147093D01*
X185193Y150202D01*
X185193Y154598D01*
X188302Y157707D01*
X192698Y157707D01*
X195807Y154598D01*
X195807Y150202D01*
X192698Y147093D01*
X188302Y147093D01*
G37*
%LPD*%
%LPC*%
G36*
X74002Y147093D02*
X74002Y147093D01*
X70893Y150202D01*
X70893Y154598D01*
X74002Y157707D01*
X78398Y157707D01*
X81507Y154598D01*
X81507Y150202D01*
X78398Y147093D01*
X74002Y147093D01*
G37*
%LPD*%
%LPC*%
G36*
X61302Y147093D02*
X61302Y147093D01*
X58193Y150202D01*
X58193Y154598D01*
X61302Y157707D01*
X65698Y157707D01*
X68807Y154598D01*
X68807Y150202D01*
X65698Y147093D01*
X61302Y147093D01*
G37*
%LPD*%
%LPC*%
G36*
X48602Y147093D02*
X48602Y147093D01*
X45493Y150202D01*
X45493Y154598D01*
X48602Y157707D01*
X52998Y157707D01*
X56107Y154598D01*
X56107Y150202D01*
X52998Y147093D01*
X48602Y147093D01*
G37*
%LPD*%
%LPC*%
G36*
X53682Y618263D02*
X53682Y618263D01*
X50573Y621372D01*
X50573Y625768D01*
X53682Y628877D01*
X58078Y628877D01*
X61187Y625768D01*
X61187Y621372D01*
X58078Y618263D01*
X53682Y618263D01*
G37*
%LPD*%
%LPC*%
G36*
X246722Y509043D02*
X246722Y509043D01*
X243613Y512152D01*
X243613Y516548D01*
X246722Y519657D01*
X251118Y519657D01*
X254227Y516548D01*
X254227Y512152D01*
X251118Y509043D01*
X246722Y509043D01*
G37*
%LPD*%
%LPC*%
G36*
X1016342Y620803D02*
X1016342Y620803D01*
X1013233Y623912D01*
X1013233Y628308D01*
X1016342Y631417D01*
X1020738Y631417D01*
X1023847Y628308D01*
X1023847Y623912D01*
X1020738Y620803D01*
X1016342Y620803D01*
G37*
%LPD*%
%LPC*%
G36*
X239102Y489993D02*
X239102Y489993D01*
X235993Y493102D01*
X235993Y497498D01*
X239102Y500607D01*
X243498Y500607D01*
X246607Y497498D01*
X246607Y493102D01*
X243498Y489993D01*
X239102Y489993D01*
G37*
%LPD*%
%LPC*%
G36*
X376262Y634773D02*
X376262Y634773D01*
X373153Y637882D01*
X373153Y642278D01*
X376262Y645387D01*
X380658Y645387D01*
X383767Y642278D01*
X383767Y637882D01*
X380658Y634773D01*
X376262Y634773D01*
G37*
%LPD*%
%LPC*%
G36*
X988402Y591593D02*
X988402Y591593D01*
X985293Y594702D01*
X985293Y599098D01*
X988402Y602207D01*
X992798Y602207D01*
X995907Y599098D01*
X995907Y594702D01*
X992798Y591593D01*
X988402Y591593D01*
G37*
%LPD*%
%LPC*%
G36*
X1001302Y582493D02*
X1001302Y582493D01*
X998193Y585602D01*
X998193Y589998D01*
X1001302Y593107D01*
X1005698Y593107D01*
X1008807Y589998D01*
X1008807Y585602D01*
X1005698Y582493D01*
X1001302Y582493D01*
G37*
%LPD*%
%LPC*%
G36*
X976802Y581993D02*
X976802Y581993D01*
X973693Y585102D01*
X973693Y589498D01*
X976802Y592607D01*
X981198Y592607D01*
X984307Y589498D01*
X984307Y585102D01*
X981198Y581993D01*
X976802Y581993D01*
G37*
%LPD*%
%LPC*%
G36*
X239102Y947193D02*
X239102Y947193D01*
X235993Y950302D01*
X235993Y954698D01*
X239102Y957807D01*
X243498Y957807D01*
X246607Y954698D01*
X246607Y950302D01*
X243498Y947193D01*
X239102Y947193D01*
G37*
%LPD*%
%LPC*%
G36*
X1059522Y934493D02*
X1059522Y934493D01*
X1056413Y937602D01*
X1056413Y941998D01*
X1059522Y945107D01*
X1063918Y945107D01*
X1067027Y941998D01*
X1067027Y937602D01*
X1063918Y934493D01*
X1059522Y934493D01*
G37*
%LPD*%
%LPC*%
G36*
X1026502Y571273D02*
X1026502Y571273D01*
X1023393Y574382D01*
X1023393Y578778D01*
X1026502Y581887D01*
X1030898Y581887D01*
X1034007Y578778D01*
X1034007Y574382D01*
X1030898Y571273D01*
X1026502Y571273D01*
G37*
%LPD*%
%LPC*%
G36*
X899502Y558154D02*
X899502Y558154D01*
X896393Y561263D01*
X896393Y565659D01*
X899502Y568768D01*
X903898Y568768D01*
X907007Y565659D01*
X907007Y561263D01*
X903898Y558154D01*
X899502Y558154D01*
G37*
%LPD*%
%LPC*%
G36*
X961732Y553493D02*
X961732Y553493D01*
X958623Y556602D01*
X958623Y560998D01*
X961732Y564107D01*
X966128Y564107D01*
X969237Y560998D01*
X969237Y556602D01*
X966128Y553493D01*
X961732Y553493D01*
G37*
%LPD*%
%LPC*%
G36*
X976702Y604793D02*
X976702Y604793D01*
X973593Y607902D01*
X973593Y612298D01*
X976702Y615407D01*
X981098Y615407D01*
X984207Y612298D01*
X984207Y607902D01*
X981098Y604793D01*
X976702Y604793D01*
G37*
%LPD*%
%LPC*%
G36*
X84162Y535713D02*
X84162Y535713D01*
X81053Y538822D01*
X81053Y543218D01*
X84162Y546327D01*
X88558Y546327D01*
X91667Y543218D01*
X91667Y538822D01*
X88558Y535713D01*
X84162Y535713D01*
G37*
%LPD*%
%LPC*%
G36*
X48602Y159793D02*
X48602Y159793D01*
X45493Y162902D01*
X45493Y167298D01*
X48602Y170407D01*
X52998Y170407D01*
X56107Y167298D01*
X56107Y162902D01*
X52998Y159793D01*
X48602Y159793D01*
G37*
%LPD*%
%LPC*%
G36*
X59575Y645949D02*
X59575Y645949D01*
X56499Y649025D01*
X56499Y653375D01*
X59575Y656451D01*
X63925Y656451D01*
X67001Y653375D01*
X67001Y649025D01*
X63925Y645949D01*
X59575Y645949D01*
G37*
%LPD*%
%LPC*%
G36*
X59575Y588149D02*
X59575Y588149D01*
X56499Y591225D01*
X56499Y595575D01*
X59575Y598651D01*
X63925Y598651D01*
X67001Y595575D01*
X67001Y591225D01*
X63925Y588149D01*
X59575Y588149D01*
G37*
%LPD*%
%LPC*%
G36*
X51556Y490124D02*
X51556Y490124D01*
X48524Y493156D01*
X48524Y497444D01*
X51556Y500476D01*
X55844Y500476D01*
X58876Y497444D01*
X58876Y493156D01*
X55844Y490124D01*
X51556Y490124D01*
G37*
%LPD*%
D10*
X100600Y688300D03*
X126000Y688300D03*
X151400Y688300D03*
X18700Y688300D03*
X44100Y688300D03*
X69500Y688300D03*
D11*
X15240Y952500D03*
D12*
X651910Y908200D03*
X701910Y908200D03*
X651910Y763200D03*
X676910Y763200D03*
X701910Y763200D03*
D13*
X619910Y838200D03*
X733910Y838200D03*
D10*
X1079500Y431800D03*
X1054100Y431800D03*
X1028700Y431800D03*
X1003300Y431800D03*
X977900Y431800D03*
X952500Y431800D03*
X927100Y431800D03*
X901700Y431800D03*
X977900Y254000D03*
X1003300Y254000D03*
D14*
X1038860Y326390D03*
D10*
X1079500Y215900D03*
X1054100Y215900D03*
X1028700Y215900D03*
X1003300Y215900D03*
X977900Y215900D03*
X952500Y215900D03*
X927100Y215900D03*
X901700Y215900D03*
X1079500Y711200D03*
X1054100Y711200D03*
X1028700Y711200D03*
X1003300Y711200D03*
X977900Y711200D03*
X952500Y711200D03*
X927100Y711200D03*
X901700Y711200D03*
X977900Y520700D03*
X1003300Y520700D03*
D14*
X1036320Y598170D03*
D10*
X1079500Y482600D03*
X1054100Y482600D03*
X1028700Y482600D03*
X1003300Y482600D03*
X977900Y482600D03*
X952500Y482600D03*
X927100Y482600D03*
X901700Y482600D03*
X1080770Y969010D03*
X1055370Y969010D03*
X1029970Y969010D03*
X1004570Y969010D03*
X979170Y969010D03*
X953770Y969010D03*
X928370Y969010D03*
X902970Y969010D03*
X979170Y791210D03*
X1004570Y791210D03*
D14*
X1038860Y864870D03*
D10*
X1080770Y753110D03*
X1055370Y753110D03*
X1029970Y753110D03*
X1004570Y753110D03*
X979170Y753110D03*
X953770Y753110D03*
X928370Y753110D03*
X902970Y753110D03*
X292100Y812800D03*
X317500Y812800D03*
X342900Y812800D03*
X292100Y850900D03*
X317500Y850900D03*
X342900Y850900D03*
X290830Y892810D03*
X316230Y892810D03*
X341630Y892810D03*
X597100Y722330D03*
X571700Y722330D03*
X546300Y722330D03*
X520900Y722330D03*
X495500Y722330D03*
X470100Y722330D03*
X444700Y722330D03*
X419300Y722330D03*
X393900Y722330D03*
X368500Y722330D03*
X343100Y722330D03*
X317700Y722330D03*
X292300Y722330D03*
X266900Y722330D03*
X241500Y722330D03*
X216100Y722330D03*
X190700Y722330D03*
X165300Y722330D03*
X139900Y722330D03*
X114500Y722330D03*
X701040Y947420D03*
X726440Y947420D03*
X751840Y947420D03*
X777240Y947420D03*
X802640Y947420D03*
X828040Y947420D03*
X25400Y39370D03*
X76200Y39370D03*
X127000Y39370D03*
X177800Y39370D03*
X228600Y39370D03*
X279400Y39370D03*
X330200Y39370D03*
X381000Y39370D03*
X431800Y39370D03*
X482600Y39370D03*
X533400Y39370D03*
X584200Y39370D03*
X635000Y39370D03*
X685800Y39370D03*
X736600Y39370D03*
X787400Y39370D03*
X838200Y39370D03*
X889000Y39370D03*
D15*
X928100Y384500D03*
X902700Y384500D03*
X925700Y664200D03*
X900300Y664200D03*
X924330Y918290D03*
X898930Y918290D03*
D10*
X373888Y898906D03*
X373888Y853694D03*
X438912Y898906D03*
X438912Y853694D03*
X648970Y946150D03*
X623570Y946150D03*
X598170Y946150D03*
X572770Y946150D03*
X547370Y946150D03*
X521970Y946150D03*
X496570Y946150D03*
X471170Y946150D03*
X445770Y946150D03*
X420370Y946150D03*
X394970Y946150D03*
X369570Y946150D03*
X344170Y946150D03*
X318770Y946150D03*
X293370Y946150D03*
X267970Y946150D03*
X508000Y88900D03*
X482600Y88900D03*
X457200Y88900D03*
X431800Y88900D03*
X406400Y88900D03*
X381000Y88900D03*
D15*
X165100Y393700D03*
X152400Y412750D03*
X139700Y393700D03*
X101600Y393700D03*
X88900Y412750D03*
X76200Y393700D03*
D16*
X279400Y640744D03*
X274320Y565150D03*
X499110Y863600D03*
X13942Y965200D03*
X177800Y609600D03*
X177800Y114300D03*
X384810Y139700D03*
X30480Y113030D03*
X279400Y914400D03*
X241300Y495300D03*
X241300Y952500D03*
X978900Y876800D03*
X1003300Y876300D03*
X990600Y863600D03*
X979000Y854000D03*
X1003500Y854500D03*
X978900Y343400D03*
X1003300Y342900D03*
X990600Y330200D03*
X979000Y320600D03*
X1003500Y321100D03*
X978900Y610100D03*
X1003300Y609600D03*
X990600Y596900D03*
X979000Y587300D03*
X1003500Y587800D03*
X67310Y735330D03*
X75950Y729230D03*
X62230Y742950D03*
X31750Y819150D03*
X31750Y849630D03*
X25400Y876300D03*
X214765Y655455D03*
X228600Y901700D03*
X203137Y656196D03*
X225326Y927100D03*
X30480Y938530D03*
X31750Y923290D03*
X174704Y630824D03*
X176530Y621736D03*
X55880Y623570D03*
X356870Y516890D03*
X165100Y266700D03*
X1028700Y307340D03*
X1028700Y576580D03*
X963930Y558800D03*
X969010Y292100D03*
X1027430Y842010D03*
X971550Y830580D03*
X1061720Y939800D03*
X902970Y842010D03*
X407670Y640080D03*
X901700Y563461D03*
X901700Y305651D03*
X1066800Y685800D03*
X1066800Y406400D03*
X30480Y833120D03*
D17*
X622300Y241300D02*
X876300Y241300D01*
X901700Y215900D01*
X197069Y653683D02*
X197069Y666531D01*
X201365Y649387D02*
X214213Y649387D01*
X201365Y649387D02*
X197069Y653683D01*
X214213Y649387D02*
X622300Y241300D01*
X146870Y732782D02*
X130818Y732782D01*
X146870Y732782D02*
X150502Y729150D01*
X150502Y713098D01*
X130818Y732782D02*
X30480Y833120D01*
X150502Y713098D02*
X197069Y666531D01*
X591446Y204844D02*
X1045203Y204844D01*
X1054100Y213741D02*
X1054100Y215900D01*
X1054100Y213741D02*
X1045203Y204844D01*
D16*
X46990Y741680D03*
D17*
X82194Y711865D02*
X82194Y701797D01*
X82194Y711865D02*
X52379Y741680D01*
X46990Y741680D01*
X168323Y615668D02*
X180622Y615668D01*
X591446Y204844D01*
X96300Y677918D02*
X90218Y684000D01*
X90218Y693773D01*
X96300Y677918D02*
X106073Y677918D01*
X90218Y693773D02*
X82194Y701797D01*
X106073Y677918D02*
X168323Y615668D01*
X1028700Y266700D02*
X1079500Y215900D01*
X1028700Y266700D02*
X635000Y266700D01*
D16*
X178846Y743344D03*
D17*
X201132Y700568D02*
X635000Y266700D01*
X201132Y700568D02*
X201132Y729340D01*
X189478Y732712D02*
X178846Y743344D01*
X189478Y732712D02*
X197760Y732712D01*
X201132Y729340D01*
X452580Y482600D02*
X901700Y482600D01*
D16*
X189500Y744180D03*
D17*
X226290Y708890D02*
X452580Y482600D01*
X193398Y740282D02*
X189500Y744180D01*
X193398Y740282D02*
X213400Y740282D01*
X226482Y718030D02*
X226290Y717838D01*
X226290Y708890D01*
X226482Y718030D02*
X226482Y727200D01*
X213400Y740282D01*
X247368Y749300D02*
X772528Y749300D01*
X883768Y638060D01*
X1016000Y524510D02*
X1016000Y520700D01*
X1054100Y482600D01*
X1016000Y524510D02*
X902450Y638060D01*
X883768Y638060D01*
D16*
X247368Y749300D03*
D17*
X919190Y633910D02*
X1070500Y482600D01*
X1079500Y482600D01*
X235232Y774700D02*
X235232Y774700D01*
D16*
X235232Y774700D03*
D17*
X775628Y774700D01*
X905034Y645294D02*
X905034Y643820D01*
X914944Y633910D01*
X905034Y645294D02*
X775628Y774700D01*
X914944Y633910D02*
X919190Y633910D01*
D16*
X247368Y793358D03*
D17*
X864228Y753110D02*
X902970Y753110D01*
X864228Y753110D02*
X839590Y777748D01*
X262978Y777748D02*
X247368Y793358D01*
X262978Y777748D02*
X839590Y777748D01*
D16*
X234668Y800100D03*
D17*
X973151Y800100D02*
X975057Y802006D01*
X1008833Y802006D01*
X1055370Y755469D02*
X1055370Y753110D01*
X1055370Y755469D02*
X1008833Y802006D01*
X973151Y800100D02*
X234668Y800100D01*
X1032764Y804926D02*
X1080770Y756920D01*
X1080770Y753110D01*
X419100Y825500D02*
X260068Y825500D01*
X247368Y812800D01*
D16*
X247368Y812800D03*
D17*
X419100Y825500D02*
X439674Y804926D01*
X1032764Y804926D01*
D16*
X86360Y541020D03*
X248920Y514350D03*
X919480Y793750D03*
X378460Y640080D03*
X960660Y358600D03*
X1022350Y356870D03*
X1018540Y626110D03*
X964160Y626570D03*
X1022350Y891540D03*
X961390Y891540D03*
X488950Y645160D03*
X920750Y519430D03*
X924560Y252334D03*
X283500Y378000D03*
X292100Y228600D03*
X30480Y864870D03*
X30480Y909320D03*
X30480Y894080D03*
X33020Y803910D03*
X31750Y788670D03*
X31750Y773430D03*
X190500Y355600D03*
X203200Y355600D03*
X215900Y355600D03*
X190500Y342900D03*
X203200Y342900D03*
X215900Y342900D03*
X190500Y330200D03*
X203200Y330200D03*
X215900Y330200D03*
X190500Y317500D03*
X203200Y317500D03*
X215900Y317500D03*
X190500Y304800D03*
X203200Y304800D03*
X215900Y304800D03*
X190500Y203200D03*
X203200Y203200D03*
X215900Y203200D03*
X190500Y190500D03*
X203200Y190500D03*
X215900Y190500D03*
X190500Y177800D03*
X203200Y177800D03*
X215900Y177800D03*
X190500Y165100D03*
X203200Y165100D03*
X215900Y165100D03*
X190500Y152400D03*
X203200Y152400D03*
X215900Y152400D03*
X50800Y203200D03*
X63500Y203200D03*
X50800Y190500D03*
X63500Y190500D03*
X76200Y190500D03*
X50800Y177800D03*
X63500Y177800D03*
X76200Y177800D03*
X50800Y165100D03*
X63500Y165100D03*
X76200Y165100D03*
X50800Y152400D03*
X63500Y152400D03*
X76200Y152400D03*
X76200Y203200D03*
M02*
