G04 EAGLE Gerber RS-274X export*
G75*
%MOMM*%
%FSLAX34Y34*%
%LPD*%
%INCopper Layer 2*%
%IPPOS*%
%AMOC8*
5,1,8,0,0,1.08239X$1,22.5*%
G01*
%ADD10C,1.524000*%
%ADD11C,0.889000*%
%ADD12C,1.650000*%
%ADD13C,3.000000*%
%ADD14C,1.108000*%
%ADD15C,1.320800*%
%ADD16C,0.756400*%
%ADD17C,0.152400*%

G36*
X1101958Y2004D02*
X1101958Y2004D01*
X1101977Y2002D01*
X1102079Y2024D01*
X1102181Y2040D01*
X1102198Y2050D01*
X1102218Y2054D01*
X1102307Y2107D01*
X1102398Y2156D01*
X1102412Y2170D01*
X1102429Y2180D01*
X1102496Y2259D01*
X1102568Y2334D01*
X1102576Y2352D01*
X1102589Y2367D01*
X1102628Y2463D01*
X1102671Y2557D01*
X1102673Y2577D01*
X1102681Y2595D01*
X1102699Y2762D01*
X1102699Y997238D01*
X1102696Y997258D01*
X1102698Y997277D01*
X1102676Y997379D01*
X1102660Y997481D01*
X1102650Y997498D01*
X1102646Y997518D01*
X1102593Y997607D01*
X1102544Y997698D01*
X1102530Y997712D01*
X1102520Y997729D01*
X1102441Y997796D01*
X1102366Y997868D01*
X1102348Y997876D01*
X1102333Y997889D01*
X1102237Y997928D01*
X1102143Y997971D01*
X1102123Y997973D01*
X1102105Y997981D01*
X1101938Y997999D01*
X2762Y997999D01*
X2742Y997996D01*
X2723Y997998D01*
X2621Y997976D01*
X2519Y997960D01*
X2502Y997950D01*
X2482Y997946D01*
X2393Y997893D01*
X2302Y997844D01*
X2288Y997830D01*
X2271Y997820D01*
X2204Y997741D01*
X2132Y997666D01*
X2124Y997648D01*
X2111Y997633D01*
X2072Y997537D01*
X2029Y997443D01*
X2027Y997423D01*
X2019Y997405D01*
X2001Y997238D01*
X2001Y2762D01*
X2004Y2742D01*
X2002Y2723D01*
X2024Y2621D01*
X2040Y2519D01*
X2050Y2502D01*
X2054Y2482D01*
X2107Y2393D01*
X2156Y2302D01*
X2170Y2288D01*
X2180Y2271D01*
X2259Y2204D01*
X2334Y2132D01*
X2352Y2124D01*
X2367Y2111D01*
X2463Y2072D01*
X2557Y2029D01*
X2577Y2027D01*
X2595Y2019D01*
X2762Y2001D01*
X1101938Y2001D01*
X1101958Y2004D01*
G37*
%LPC*%
G36*
X379086Y79279D02*
X379086Y79279D01*
X375550Y80744D01*
X372844Y83450D01*
X371379Y86986D01*
X371379Y90814D01*
X372844Y94350D01*
X375550Y97056D01*
X379086Y98521D01*
X382914Y98521D01*
X385861Y97300D01*
X385974Y97273D01*
X386088Y97245D01*
X386094Y97245D01*
X386100Y97244D01*
X386217Y97255D01*
X386333Y97264D01*
X386339Y97266D01*
X386345Y97267D01*
X386453Y97315D01*
X386559Y97360D01*
X386565Y97365D01*
X386570Y97367D01*
X386584Y97380D01*
X386690Y97465D01*
X391444Y102219D01*
X391497Y102293D01*
X391557Y102362D01*
X391569Y102393D01*
X391588Y102419D01*
X391615Y102506D01*
X391649Y102591D01*
X391653Y102632D01*
X391660Y102654D01*
X391659Y102686D01*
X391667Y102757D01*
X391667Y354443D01*
X391653Y354533D01*
X391645Y354624D01*
X391633Y354653D01*
X391628Y354685D01*
X391585Y354766D01*
X391549Y354850D01*
X391523Y354882D01*
X391512Y354903D01*
X391489Y354925D01*
X391478Y354939D01*
X391471Y354950D01*
X391464Y354957D01*
X391444Y354981D01*
X79987Y666438D01*
X78627Y667798D01*
X78569Y667840D01*
X78517Y667889D01*
X78470Y667911D01*
X78428Y667942D01*
X78359Y667963D01*
X78294Y667993D01*
X78242Y667999D01*
X78192Y668014D01*
X78121Y668012D01*
X78050Y668020D01*
X77999Y668009D01*
X77947Y668008D01*
X77879Y667983D01*
X77809Y667968D01*
X77764Y667941D01*
X77716Y667923D01*
X77660Y667878D01*
X77598Y667842D01*
X77564Y667802D01*
X77524Y667769D01*
X77485Y667709D01*
X77438Y667655D01*
X77419Y667606D01*
X77391Y667562D01*
X77373Y667493D01*
X77346Y667426D01*
X77338Y667355D01*
X77330Y667324D01*
X77332Y667301D01*
X77328Y667260D01*
X77328Y660247D01*
X77253Y660172D01*
X56147Y660172D01*
X56072Y660247D01*
X56072Y670353D01*
X56147Y670428D01*
X77253Y670428D01*
X77274Y670407D01*
X77332Y670365D01*
X77384Y670316D01*
X77431Y670294D01*
X77473Y670263D01*
X77542Y670242D01*
X77607Y670212D01*
X77659Y670206D01*
X77709Y670191D01*
X77780Y670193D01*
X77851Y670185D01*
X77902Y670196D01*
X77954Y670197D01*
X78022Y670222D01*
X78092Y670237D01*
X78137Y670264D01*
X78185Y670282D01*
X78241Y670327D01*
X78303Y670363D01*
X78337Y670403D01*
X78377Y670435D01*
X78416Y670496D01*
X78463Y670550D01*
X78482Y670599D01*
X78510Y670642D01*
X78528Y670712D01*
X78555Y670778D01*
X78563Y670850D01*
X78571Y670881D01*
X78569Y670904D01*
X78573Y670945D01*
X78573Y681930D01*
X78562Y682000D01*
X78560Y682072D01*
X78542Y682121D01*
X78534Y682172D01*
X78500Y682236D01*
X78475Y682303D01*
X78443Y682344D01*
X78418Y682390D01*
X78366Y682439D01*
X78322Y682495D01*
X78278Y682523D01*
X78240Y682559D01*
X78175Y682589D01*
X78115Y682628D01*
X78064Y682641D01*
X78017Y682663D01*
X77946Y682671D01*
X77876Y682688D01*
X77824Y682684D01*
X77773Y682690D01*
X77702Y682675D01*
X77631Y682669D01*
X77583Y682649D01*
X77532Y682638D01*
X77471Y682601D01*
X77405Y682573D01*
X77349Y682528D01*
X77321Y682511D01*
X77306Y682494D01*
X77274Y682468D01*
X74950Y680144D01*
X71414Y678679D01*
X67586Y678679D01*
X64050Y680144D01*
X61344Y682850D01*
X59879Y686386D01*
X59879Y690214D01*
X61344Y693750D01*
X64050Y696456D01*
X67586Y697921D01*
X71414Y697921D01*
X74950Y696456D01*
X77274Y694132D01*
X77332Y694090D01*
X77384Y694041D01*
X77431Y694019D01*
X77473Y693988D01*
X77542Y693967D01*
X77607Y693937D01*
X77659Y693931D01*
X77709Y693916D01*
X77780Y693918D01*
X77851Y693910D01*
X77902Y693921D01*
X77954Y693922D01*
X78022Y693947D01*
X78092Y693962D01*
X78137Y693989D01*
X78185Y694007D01*
X78241Y694052D01*
X78303Y694089D01*
X78337Y694128D01*
X78377Y694161D01*
X78416Y694221D01*
X78463Y694275D01*
X78482Y694324D01*
X78510Y694368D01*
X78528Y694437D01*
X78555Y694504D01*
X78563Y694575D01*
X78571Y694606D01*
X78569Y694629D01*
X78573Y694670D01*
X78573Y712346D01*
X78559Y712436D01*
X78551Y712527D01*
X78539Y712557D01*
X78534Y712589D01*
X78491Y712669D01*
X78455Y712753D01*
X78429Y712785D01*
X78418Y712806D01*
X78395Y712828D01*
X78350Y712884D01*
X67817Y723417D01*
X67817Y729262D01*
X67814Y729282D01*
X67816Y729301D01*
X67794Y729403D01*
X67778Y729505D01*
X67768Y729522D01*
X67764Y729542D01*
X67711Y729631D01*
X67662Y729722D01*
X67648Y729736D01*
X67638Y729753D01*
X67559Y729820D01*
X67484Y729892D01*
X67466Y729900D01*
X67451Y729913D01*
X67355Y729952D01*
X67261Y729995D01*
X67241Y729997D01*
X67223Y730005D01*
X67056Y730023D01*
X65112Y730023D01*
X62003Y733132D01*
X62003Y736882D01*
X62000Y736902D01*
X62002Y736921D01*
X61980Y737023D01*
X61964Y737125D01*
X61954Y737142D01*
X61950Y737162D01*
X61897Y737251D01*
X61848Y737342D01*
X61834Y737356D01*
X61824Y737373D01*
X61745Y737440D01*
X61670Y737512D01*
X61652Y737520D01*
X61637Y737533D01*
X61541Y737572D01*
X61447Y737615D01*
X61427Y737617D01*
X61409Y737625D01*
X61242Y737643D01*
X60032Y737643D01*
X56923Y740752D01*
X56923Y745148D01*
X60032Y748257D01*
X64428Y748257D01*
X66679Y746006D01*
X66753Y745953D01*
X66823Y745893D01*
X66853Y745881D01*
X66879Y745862D01*
X66966Y745835D01*
X67051Y745801D01*
X67092Y745797D01*
X67114Y745790D01*
X67146Y745791D01*
X67217Y745783D01*
X73551Y745783D01*
X118396Y700938D01*
X118470Y700885D01*
X118540Y700825D01*
X118570Y700813D01*
X118596Y700794D01*
X118683Y700767D01*
X118768Y700733D01*
X118809Y700729D01*
X118831Y700722D01*
X118863Y700723D01*
X118935Y700715D01*
X131142Y700715D01*
X138415Y693442D01*
X138415Y681235D01*
X138429Y681144D01*
X138437Y681054D01*
X138449Y681024D01*
X138454Y680992D01*
X138497Y680911D01*
X138533Y680827D01*
X138559Y680795D01*
X138570Y680774D01*
X138593Y680752D01*
X138638Y680696D01*
X433833Y385501D01*
X433833Y98980D01*
X433852Y98865D01*
X433869Y98749D01*
X433871Y98744D01*
X433872Y98737D01*
X433927Y98635D01*
X433980Y98530D01*
X433985Y98525D01*
X433988Y98520D01*
X434072Y98440D01*
X434156Y98358D01*
X434162Y98354D01*
X434166Y98351D01*
X434183Y98343D01*
X434303Y98277D01*
X437250Y97056D01*
X439956Y94350D01*
X441421Y90814D01*
X441421Y86986D01*
X439956Y83450D01*
X437250Y80744D01*
X433714Y79279D01*
X429886Y79279D01*
X426350Y80744D01*
X423644Y83450D01*
X422179Y86986D01*
X422179Y90814D01*
X423644Y94350D01*
X426350Y97056D01*
X429297Y98277D01*
X429397Y98338D01*
X429497Y98398D01*
X429501Y98403D01*
X429506Y98406D01*
X429581Y98496D01*
X429657Y98585D01*
X429659Y98591D01*
X429663Y98596D01*
X429705Y98704D01*
X429749Y98813D01*
X429750Y98821D01*
X429751Y98825D01*
X429752Y98844D01*
X429767Y98980D01*
X429767Y383502D01*
X429753Y383592D01*
X429745Y383683D01*
X429733Y383713D01*
X429728Y383745D01*
X429685Y383825D01*
X429649Y383909D01*
X429623Y383941D01*
X429612Y383962D01*
X429589Y383984D01*
X429544Y384040D01*
X181310Y632275D01*
X181252Y632316D01*
X181200Y632366D01*
X181152Y632388D01*
X181110Y632418D01*
X181042Y632439D01*
X180977Y632469D01*
X180925Y632475D01*
X180875Y632490D01*
X180803Y632489D01*
X180732Y632496D01*
X180681Y632485D01*
X180629Y632484D01*
X180562Y632459D01*
X180492Y632444D01*
X180447Y632418D01*
X180398Y632400D01*
X180342Y632355D01*
X180281Y632318D01*
X180247Y632278D01*
X180206Y632246D01*
X180168Y632186D01*
X180121Y632131D01*
X180101Y632083D01*
X180073Y632039D01*
X180056Y631970D01*
X180029Y631903D01*
X180021Y631832D01*
X180013Y631800D01*
X180015Y631777D01*
X180010Y631736D01*
X180010Y628626D01*
X179116Y627731D01*
X179104Y627715D01*
X179089Y627703D01*
X179033Y627616D01*
X178972Y627532D01*
X178967Y627513D01*
X178956Y627496D01*
X178931Y627395D01*
X178900Y627297D01*
X178901Y627277D01*
X178896Y627257D01*
X178904Y627154D01*
X178906Y627051D01*
X178913Y627032D01*
X178915Y627012D01*
X178955Y626917D01*
X178991Y626820D01*
X179003Y626804D01*
X179011Y626786D01*
X179116Y626655D01*
X181837Y623934D01*
X181837Y619538D01*
X181116Y618817D01*
X181104Y618801D01*
X181089Y618788D01*
X181032Y618701D01*
X180972Y618617D01*
X180966Y618598D01*
X180956Y618581D01*
X180930Y618481D01*
X180900Y618382D01*
X180900Y618362D01*
X180896Y618343D01*
X180904Y618240D01*
X180906Y618136D01*
X180913Y618117D01*
X180915Y618098D01*
X180955Y618003D01*
X180991Y617905D01*
X181003Y617890D01*
X181011Y617871D01*
X181116Y617740D01*
X407019Y391837D01*
X408433Y390424D01*
X408433Y98980D01*
X408452Y98865D01*
X408469Y98749D01*
X408471Y98744D01*
X408472Y98737D01*
X408527Y98635D01*
X408580Y98530D01*
X408585Y98525D01*
X408588Y98520D01*
X408672Y98440D01*
X408756Y98358D01*
X408762Y98354D01*
X408766Y98351D01*
X408783Y98343D01*
X408903Y98277D01*
X411850Y97056D01*
X414556Y94350D01*
X416021Y90814D01*
X416021Y86986D01*
X414556Y83450D01*
X411850Y80744D01*
X408314Y79279D01*
X404486Y79279D01*
X400950Y80744D01*
X398244Y83450D01*
X396779Y86986D01*
X396779Y90814D01*
X398244Y94350D01*
X400950Y97056D01*
X403897Y98277D01*
X403997Y98338D01*
X404097Y98398D01*
X404101Y98403D01*
X404106Y98406D01*
X404181Y98496D01*
X404257Y98585D01*
X404259Y98591D01*
X404263Y98596D01*
X404305Y98704D01*
X404349Y98813D01*
X404350Y98821D01*
X404351Y98825D01*
X404352Y98844D01*
X404367Y98980D01*
X404367Y388424D01*
X404353Y388514D01*
X404345Y388605D01*
X404333Y388635D01*
X404328Y388667D01*
X404285Y388748D01*
X404249Y388831D01*
X404223Y388864D01*
X404212Y388884D01*
X404189Y388906D01*
X404144Y388962D01*
X184406Y608701D01*
X184348Y608742D01*
X184296Y608792D01*
X184249Y608814D01*
X184207Y608844D01*
X184138Y608865D01*
X184073Y608895D01*
X184021Y608901D01*
X183971Y608916D01*
X183900Y608915D01*
X183829Y608922D01*
X183778Y608911D01*
X183726Y608910D01*
X183658Y608885D01*
X183588Y608870D01*
X183544Y608844D01*
X183495Y608826D01*
X183439Y608781D01*
X183377Y608744D01*
X183343Y608704D01*
X183303Y608672D01*
X183264Y608612D01*
X183217Y608557D01*
X183198Y608509D01*
X183170Y608465D01*
X183152Y608396D01*
X183125Y608329D01*
X183117Y608258D01*
X183109Y608226D01*
X183111Y608203D01*
X183107Y608162D01*
X183107Y607402D01*
X179998Y604293D01*
X175602Y604293D01*
X172493Y607402D01*
X172493Y611798D01*
X173031Y612336D01*
X173073Y612394D01*
X173122Y612446D01*
X173144Y612493D01*
X173174Y612535D01*
X173196Y612604D01*
X173226Y612669D01*
X173231Y612721D01*
X173247Y612771D01*
X173245Y612842D01*
X173253Y612913D01*
X173242Y612964D01*
X173240Y613016D01*
X173216Y613084D01*
X173201Y613154D01*
X173174Y613199D01*
X173156Y613247D01*
X173111Y613303D01*
X173074Y613365D01*
X173035Y613399D01*
X173002Y613439D01*
X172942Y613478D01*
X172887Y613525D01*
X172839Y613544D01*
X172795Y613572D01*
X172726Y613590D01*
X172659Y613617D01*
X172588Y613625D01*
X172557Y613633D01*
X172534Y613631D01*
X172493Y613635D01*
X141631Y613635D01*
X85457Y669809D01*
X85457Y716533D01*
X85442Y716623D01*
X85435Y716714D01*
X85423Y716744D01*
X85417Y716776D01*
X85375Y716856D01*
X85339Y716940D01*
X85313Y716972D01*
X85302Y716993D01*
X85279Y717015D01*
X85234Y717071D01*
X78605Y723700D01*
X78531Y723753D01*
X78462Y723813D01*
X78431Y723825D01*
X78405Y723844D01*
X78318Y723871D01*
X78233Y723905D01*
X78192Y723909D01*
X78170Y723916D01*
X78138Y723915D01*
X78067Y723923D01*
X74898Y723923D01*
X74828Y723912D01*
X74756Y723910D01*
X74707Y723892D01*
X74656Y723884D01*
X74592Y723850D01*
X74525Y723825D01*
X74484Y723793D01*
X74438Y723769D01*
X74389Y723717D01*
X74333Y723672D01*
X74305Y723628D01*
X74269Y723590D01*
X74239Y723525D01*
X74200Y723465D01*
X74187Y723414D01*
X74165Y723367D01*
X74157Y723296D01*
X74140Y723226D01*
X74144Y723174D01*
X74138Y723123D01*
X74153Y723052D01*
X74159Y722981D01*
X74179Y722933D01*
X74190Y722882D01*
X74227Y722821D01*
X74255Y722755D01*
X74300Y722699D01*
X74317Y722671D01*
X74334Y722656D01*
X74360Y722624D01*
X81225Y715759D01*
X82639Y714345D01*
X82639Y669851D01*
X82653Y669761D01*
X82661Y669670D01*
X82673Y669641D01*
X82678Y669609D01*
X82721Y669528D01*
X82757Y669444D01*
X82783Y669412D01*
X82794Y669391D01*
X82817Y669369D01*
X82862Y669313D01*
X395733Y356442D01*
X395733Y100758D01*
X389565Y94590D01*
X389497Y94496D01*
X389427Y94402D01*
X389425Y94396D01*
X389422Y94391D01*
X389387Y94279D01*
X389351Y94168D01*
X389351Y94161D01*
X389349Y94156D01*
X389352Y94039D01*
X389353Y93922D01*
X389355Y93915D01*
X389356Y93910D01*
X389362Y93892D01*
X389400Y93761D01*
X390621Y90814D01*
X390621Y86986D01*
X389156Y83450D01*
X386450Y80744D01*
X382914Y79279D01*
X379086Y79279D01*
G37*
%LPD*%
%LPC*%
G36*
X480686Y79279D02*
X480686Y79279D01*
X477150Y80744D01*
X474444Y83450D01*
X472979Y86986D01*
X472979Y90814D01*
X474200Y93761D01*
X474227Y93874D01*
X474255Y93988D01*
X474255Y93994D01*
X474256Y94000D01*
X474245Y94117D01*
X474236Y94233D01*
X474234Y94239D01*
X474233Y94245D01*
X474185Y94353D01*
X474140Y94459D01*
X474135Y94465D01*
X474133Y94470D01*
X474120Y94484D01*
X474035Y94590D01*
X469281Y99344D01*
X467867Y100758D01*
X467867Y413153D01*
X467853Y413244D01*
X467845Y413334D01*
X467833Y413364D01*
X467828Y413396D01*
X467785Y413477D01*
X467749Y413561D01*
X467723Y413593D01*
X467712Y413614D01*
X467689Y413636D01*
X467644Y413692D01*
X175181Y706155D01*
X175181Y717218D01*
X175166Y717314D01*
X175156Y717411D01*
X175146Y717435D01*
X175142Y717461D01*
X175096Y717547D01*
X175056Y717636D01*
X175039Y717655D01*
X175026Y717678D01*
X174956Y717745D01*
X174890Y717817D01*
X174867Y717830D01*
X174848Y717848D01*
X174760Y717889D01*
X174674Y717936D01*
X174649Y717940D01*
X174625Y717951D01*
X174528Y717962D01*
X174432Y717979D01*
X174406Y717976D01*
X174381Y717979D01*
X174286Y717958D01*
X174189Y717944D01*
X174166Y717932D01*
X174140Y717926D01*
X174056Y717876D01*
X173970Y717832D01*
X173952Y717814D01*
X173929Y717800D01*
X173866Y717726D01*
X173798Y717657D01*
X173782Y717628D01*
X173769Y717613D01*
X173757Y717582D01*
X173717Y717510D01*
X173456Y716880D01*
X170750Y714174D01*
X167214Y712709D01*
X163386Y712709D01*
X159850Y714174D01*
X157144Y716880D01*
X155679Y720416D01*
X155679Y724244D01*
X157144Y727780D01*
X159850Y730486D01*
X163386Y731951D01*
X166597Y731951D01*
X166667Y731962D01*
X166739Y731964D01*
X166788Y731982D01*
X166839Y731990D01*
X166903Y732024D01*
X166970Y732049D01*
X167011Y732081D01*
X167057Y732106D01*
X167106Y732158D01*
X167162Y732202D01*
X167190Y732246D01*
X167226Y732284D01*
X167256Y732349D01*
X167295Y732409D01*
X167308Y732460D01*
X167330Y732507D01*
X167338Y732578D01*
X167355Y732648D01*
X167351Y732700D01*
X167357Y732751D01*
X167342Y732822D01*
X167336Y732893D01*
X167316Y732941D01*
X167305Y732992D01*
X167268Y733053D01*
X167240Y733119D01*
X167195Y733175D01*
X167179Y733203D01*
X167161Y733218D01*
X167135Y733250D01*
X53011Y847374D01*
X52937Y847427D01*
X52868Y847487D01*
X52837Y847499D01*
X52811Y847518D01*
X52724Y847545D01*
X52639Y847579D01*
X52598Y847583D01*
X52576Y847590D01*
X52544Y847589D01*
X52473Y847597D01*
X37537Y847597D01*
X37447Y847583D01*
X37356Y847575D01*
X37327Y847563D01*
X37295Y847558D01*
X37214Y847515D01*
X37130Y847479D01*
X37098Y847453D01*
X37077Y847442D01*
X37055Y847419D01*
X36999Y847374D01*
X33948Y844323D01*
X29552Y844323D01*
X26443Y847432D01*
X26443Y851828D01*
X29552Y854937D01*
X33948Y854937D01*
X36999Y851886D01*
X37073Y851833D01*
X37143Y851773D01*
X37173Y851761D01*
X37199Y851742D01*
X37286Y851715D01*
X37371Y851681D01*
X37412Y851677D01*
X37434Y851670D01*
X37466Y851671D01*
X37537Y851663D01*
X51826Y851663D01*
X51897Y851674D01*
X51969Y851676D01*
X52018Y851694D01*
X52069Y851702D01*
X52132Y851736D01*
X52200Y851761D01*
X52240Y851793D01*
X52286Y851818D01*
X52336Y851870D01*
X52392Y851914D01*
X52420Y851958D01*
X52456Y851996D01*
X52486Y852061D01*
X52525Y852121D01*
X52537Y852172D01*
X52559Y852219D01*
X52567Y852290D01*
X52585Y852360D01*
X52581Y852412D01*
X52586Y852463D01*
X52571Y852534D01*
X52566Y852605D01*
X52545Y852653D01*
X52534Y852704D01*
X52497Y852765D01*
X52469Y852831D01*
X52425Y852887D01*
X52408Y852915D01*
X52390Y852930D01*
X52365Y852962D01*
X36644Y868682D01*
X36571Y868735D01*
X36501Y868795D01*
X36471Y868807D01*
X36445Y868826D01*
X36358Y868853D01*
X36273Y868887D01*
X36232Y868891D01*
X36210Y868898D01*
X36177Y868897D01*
X36106Y868905D01*
X35787Y868905D01*
X35717Y868894D01*
X35645Y868892D01*
X35596Y868874D01*
X35545Y868866D01*
X35481Y868832D01*
X35414Y868807D01*
X35373Y868775D01*
X35327Y868750D01*
X35278Y868698D01*
X35222Y868654D01*
X35194Y868610D01*
X35158Y868572D01*
X35128Y868507D01*
X35089Y868447D01*
X35076Y868396D01*
X35054Y868349D01*
X35046Y868278D01*
X35029Y868208D01*
X35033Y868156D01*
X35027Y868105D01*
X35042Y868034D01*
X35048Y867963D01*
X35068Y867915D01*
X35079Y867864D01*
X35116Y867803D01*
X35144Y867737D01*
X35189Y867681D01*
X35206Y867653D01*
X35223Y867638D01*
X35249Y867606D01*
X35787Y867068D01*
X35787Y862672D01*
X32678Y859563D01*
X28282Y859563D01*
X25173Y862672D01*
X25173Y867068D01*
X27799Y869694D01*
X27841Y869752D01*
X27890Y869804D01*
X27912Y869851D01*
X27942Y869893D01*
X27964Y869962D01*
X27994Y870027D01*
X27999Y870079D01*
X28015Y870129D01*
X28013Y870200D01*
X28021Y870271D01*
X28010Y870322D01*
X28008Y870374D01*
X27984Y870442D01*
X27969Y870512D01*
X27942Y870557D01*
X27924Y870605D01*
X27879Y870661D01*
X27842Y870723D01*
X27803Y870757D01*
X27770Y870797D01*
X27710Y870836D01*
X27655Y870883D01*
X27607Y870902D01*
X27563Y870930D01*
X27494Y870948D01*
X27427Y870975D01*
X27356Y870983D01*
X27325Y870991D01*
X27302Y870989D01*
X27261Y870993D01*
X23202Y870993D01*
X20093Y874102D01*
X20093Y878498D01*
X23202Y881607D01*
X27598Y881607D01*
X30707Y878498D01*
X30707Y874183D01*
X30721Y874093D01*
X30729Y874002D01*
X30741Y873973D01*
X30746Y873941D01*
X30789Y873860D01*
X30825Y873776D01*
X30851Y873744D01*
X30862Y873723D01*
X30885Y873701D01*
X30930Y873645D01*
X31381Y873194D01*
X31455Y873141D01*
X31524Y873081D01*
X31555Y873069D01*
X31581Y873050D01*
X31668Y873023D01*
X31753Y872989D01*
X31794Y872985D01*
X31816Y872978D01*
X31848Y872979D01*
X31919Y872971D01*
X38106Y872971D01*
X182252Y728825D01*
X182271Y728800D01*
X182296Y728754D01*
X182348Y728705D01*
X182392Y728649D01*
X182436Y728621D01*
X182474Y728585D01*
X182539Y728555D01*
X182599Y728516D01*
X182650Y728503D01*
X182697Y728481D01*
X182768Y728473D01*
X182838Y728456D01*
X182890Y728460D01*
X182941Y728454D01*
X183012Y728469D01*
X183083Y728475D01*
X183131Y728495D01*
X183182Y728506D01*
X183243Y728543D01*
X183309Y728571D01*
X183365Y728616D01*
X183393Y728633D01*
X183408Y728650D01*
X183440Y728676D01*
X185250Y730486D01*
X188786Y731951D01*
X192614Y731951D01*
X196150Y730486D01*
X198856Y727780D01*
X200321Y724244D01*
X200321Y720416D01*
X198856Y716880D01*
X196150Y714174D01*
X192614Y712709D01*
X188786Y712709D01*
X185250Y714174D01*
X183440Y715984D01*
X183382Y716026D01*
X183330Y716075D01*
X183283Y716097D01*
X183241Y716128D01*
X183172Y716149D01*
X183107Y716179D01*
X183055Y716185D01*
X183005Y716200D01*
X182934Y716198D01*
X182863Y716206D01*
X182812Y716195D01*
X182760Y716194D01*
X182692Y716169D01*
X182622Y716154D01*
X182577Y716127D01*
X182529Y716109D01*
X182473Y716064D01*
X182411Y716027D01*
X182377Y715988D01*
X182337Y715955D01*
X182298Y715895D01*
X182251Y715841D01*
X182232Y715792D01*
X182204Y715748D01*
X182186Y715679D01*
X182159Y715612D01*
X182151Y715541D01*
X182143Y715510D01*
X182145Y715487D01*
X182141Y715446D01*
X182141Y710767D01*
X182155Y710677D01*
X182163Y710586D01*
X182175Y710556D01*
X182180Y710524D01*
X182223Y710444D01*
X182259Y710360D01*
X182285Y710328D01*
X182296Y710307D01*
X182319Y710285D01*
X182364Y710229D01*
X510033Y382560D01*
X510033Y98980D01*
X510052Y98865D01*
X510069Y98749D01*
X510071Y98744D01*
X510072Y98737D01*
X510127Y98635D01*
X510180Y98530D01*
X510185Y98525D01*
X510188Y98520D01*
X510272Y98440D01*
X510356Y98358D01*
X510362Y98354D01*
X510366Y98351D01*
X510383Y98343D01*
X510503Y98277D01*
X513450Y97056D01*
X516156Y94350D01*
X517621Y90814D01*
X517621Y86986D01*
X516156Y83450D01*
X513450Y80744D01*
X509914Y79279D01*
X506086Y79279D01*
X502550Y80744D01*
X499844Y83450D01*
X498379Y86986D01*
X498379Y90814D01*
X499844Y94350D01*
X502550Y97056D01*
X505497Y98277D01*
X505597Y98338D01*
X505697Y98398D01*
X505701Y98403D01*
X505706Y98406D01*
X505781Y98496D01*
X505857Y98585D01*
X505859Y98591D01*
X505863Y98596D01*
X505905Y98704D01*
X505949Y98813D01*
X505950Y98821D01*
X505951Y98825D01*
X505952Y98844D01*
X505967Y98980D01*
X505967Y380560D01*
X505953Y380650D01*
X505945Y380741D01*
X505933Y380771D01*
X505928Y380803D01*
X505885Y380884D01*
X505849Y380968D01*
X505823Y381000D01*
X505812Y381020D01*
X505789Y381043D01*
X505744Y381099D01*
X473232Y413611D01*
X473174Y413652D01*
X473122Y413702D01*
X473075Y413724D01*
X473033Y413754D01*
X472964Y413775D01*
X472899Y413805D01*
X472847Y413811D01*
X472797Y413827D01*
X472726Y413825D01*
X472655Y413833D01*
X472604Y413822D01*
X472552Y413820D01*
X472484Y413796D01*
X472414Y413780D01*
X472369Y413754D01*
X472321Y413736D01*
X472265Y413691D01*
X472203Y413654D01*
X472169Y413615D01*
X472129Y413582D01*
X472090Y413522D01*
X472043Y413467D01*
X472024Y413419D01*
X471996Y413375D01*
X471978Y413306D01*
X471951Y413239D01*
X471943Y413168D01*
X471935Y413137D01*
X471937Y413113D01*
X471933Y413072D01*
X471933Y102757D01*
X471947Y102667D01*
X471955Y102576D01*
X471967Y102547D01*
X471972Y102515D01*
X472015Y102434D01*
X472051Y102350D01*
X472077Y102318D01*
X472088Y102297D01*
X472111Y102275D01*
X472156Y102219D01*
X476910Y97465D01*
X477004Y97397D01*
X477098Y97327D01*
X477104Y97325D01*
X477109Y97322D01*
X477221Y97287D01*
X477332Y97251D01*
X477339Y97251D01*
X477344Y97249D01*
X477461Y97252D01*
X477578Y97253D01*
X477585Y97255D01*
X477590Y97256D01*
X477608Y97262D01*
X477739Y97300D01*
X480686Y98521D01*
X484514Y98521D01*
X488050Y97056D01*
X490756Y94350D01*
X492221Y90814D01*
X492221Y86986D01*
X490756Y83450D01*
X488050Y80744D01*
X484514Y79279D01*
X480686Y79279D01*
G37*
%LPD*%
%LPC*%
G36*
X455286Y79279D02*
X455286Y79279D01*
X451750Y80744D01*
X449044Y83450D01*
X447579Y86986D01*
X447579Y90814D01*
X449044Y94350D01*
X451750Y97056D01*
X454697Y98277D01*
X454797Y98338D01*
X454897Y98398D01*
X454901Y98403D01*
X454906Y98406D01*
X454981Y98496D01*
X455057Y98585D01*
X455059Y98591D01*
X455063Y98596D01*
X455105Y98704D01*
X455149Y98813D01*
X455150Y98821D01*
X455151Y98825D01*
X455152Y98844D01*
X455167Y98980D01*
X455167Y390833D01*
X455153Y390923D01*
X455145Y391014D01*
X455133Y391043D01*
X455128Y391075D01*
X455085Y391156D01*
X455049Y391240D01*
X455023Y391272D01*
X455012Y391293D01*
X454989Y391315D01*
X454944Y391371D01*
X280926Y565389D01*
X280868Y565431D01*
X280816Y565480D01*
X280769Y565502D01*
X280727Y565533D01*
X280658Y565554D01*
X280593Y565584D01*
X280541Y565590D01*
X280491Y565605D01*
X280420Y565603D01*
X280349Y565611D01*
X280298Y565600D01*
X280246Y565599D01*
X280178Y565574D01*
X280108Y565559D01*
X280064Y565532D01*
X280015Y565514D01*
X279959Y565469D01*
X279897Y565433D01*
X279863Y565393D01*
X279823Y565360D01*
X279784Y565300D01*
X279737Y565246D01*
X279718Y565197D01*
X279690Y565153D01*
X279672Y565084D01*
X279645Y565017D01*
X279637Y564946D01*
X279629Y564915D01*
X279631Y564892D01*
X279627Y564851D01*
X279627Y562952D01*
X276518Y559843D01*
X272122Y559843D01*
X269013Y562952D01*
X269013Y567348D01*
X272122Y570457D01*
X274021Y570457D01*
X274091Y570468D01*
X274163Y570470D01*
X274212Y570488D01*
X274263Y570496D01*
X274327Y570530D01*
X274394Y570555D01*
X274435Y570587D01*
X274481Y570612D01*
X274530Y570663D01*
X274586Y570708D01*
X274614Y570752D01*
X274650Y570790D01*
X274680Y570855D01*
X274719Y570915D01*
X274732Y570966D01*
X274754Y571013D01*
X274762Y571084D01*
X274779Y571154D01*
X274775Y571206D01*
X274781Y571257D01*
X274766Y571328D01*
X274760Y571399D01*
X274740Y571447D01*
X274729Y571498D01*
X274692Y571559D01*
X274664Y571625D01*
X274619Y571681D01*
X274603Y571709D01*
X274585Y571724D01*
X274559Y571756D01*
X161507Y684809D01*
X161469Y684836D01*
X161438Y684869D01*
X161370Y684907D01*
X161307Y684952D01*
X161263Y684966D01*
X161223Y684988D01*
X161146Y685002D01*
X161072Y685025D01*
X161026Y685023D01*
X160981Y685032D01*
X160904Y685020D01*
X160826Y685018D01*
X160783Y685002D01*
X160737Y684996D01*
X160668Y684961D01*
X160595Y684934D01*
X160559Y684905D01*
X160518Y684884D01*
X160464Y684829D01*
X160403Y684780D01*
X160378Y684742D01*
X160346Y684709D01*
X160280Y684589D01*
X160270Y684573D01*
X160269Y684568D01*
X160265Y684562D01*
X159556Y682850D01*
X156850Y680144D01*
X153314Y678679D01*
X149486Y678679D01*
X145950Y680144D01*
X143244Y682850D01*
X141779Y686386D01*
X141779Y690214D01*
X143244Y693750D01*
X144844Y695350D01*
X144886Y695408D01*
X144935Y695460D01*
X144957Y695507D01*
X144988Y695549D01*
X145009Y695618D01*
X145039Y695683D01*
X145045Y695735D01*
X145060Y695785D01*
X145058Y695856D01*
X145066Y695927D01*
X145055Y695978D01*
X145054Y696030D01*
X145029Y696098D01*
X145014Y696168D01*
X144987Y696213D01*
X144969Y696261D01*
X144924Y696317D01*
X144887Y696379D01*
X144848Y696413D01*
X144815Y696453D01*
X144755Y696492D01*
X144701Y696539D01*
X144652Y696558D01*
X144608Y696586D01*
X144539Y696604D01*
X144472Y696631D01*
X144401Y696639D01*
X144370Y696647D01*
X144347Y696645D01*
X144306Y696649D01*
X143094Y696649D01*
X125485Y714258D01*
X125485Y719884D01*
X125484Y719894D01*
X125484Y719899D01*
X125478Y719927D01*
X125470Y719980D01*
X125460Y720077D01*
X125450Y720101D01*
X125446Y720126D01*
X125400Y720212D01*
X125360Y720301D01*
X125343Y720321D01*
X125330Y720344D01*
X125260Y720411D01*
X125194Y720482D01*
X125171Y720495D01*
X125152Y720513D01*
X125064Y720554D01*
X124978Y720601D01*
X124953Y720606D01*
X124929Y720617D01*
X124832Y720627D01*
X124736Y720645D01*
X124710Y720641D01*
X124685Y720644D01*
X124589Y720623D01*
X124493Y720609D01*
X124470Y720597D01*
X124444Y720592D01*
X124361Y720542D01*
X124274Y720497D01*
X124255Y720479D01*
X124233Y720465D01*
X124170Y720391D01*
X124102Y720322D01*
X124086Y720293D01*
X124073Y720278D01*
X124061Y720248D01*
X124021Y720175D01*
X122656Y716880D01*
X119950Y714174D01*
X116414Y712709D01*
X112586Y712709D01*
X109050Y714174D01*
X106344Y716880D01*
X104879Y720416D01*
X104879Y724244D01*
X106344Y727780D01*
X109050Y730486D01*
X112586Y731951D01*
X114849Y731951D01*
X114920Y731962D01*
X114992Y731964D01*
X115041Y731982D01*
X115092Y731990D01*
X115155Y732024D01*
X115223Y732049D01*
X115263Y732081D01*
X115309Y732106D01*
X115359Y732158D01*
X115415Y732202D01*
X115443Y732246D01*
X115479Y732284D01*
X115509Y732349D01*
X115548Y732409D01*
X115560Y732460D01*
X115582Y732507D01*
X115590Y732578D01*
X115608Y732648D01*
X115604Y732700D01*
X115609Y732751D01*
X115594Y732822D01*
X115589Y732893D01*
X115568Y732941D01*
X115557Y732992D01*
X115520Y733053D01*
X115492Y733119D01*
X115447Y733175D01*
X115431Y733203D01*
X115413Y733218D01*
X115387Y733250D01*
X34910Y813728D01*
X34893Y813740D01*
X34881Y813755D01*
X34794Y813811D01*
X34710Y813872D01*
X34691Y813877D01*
X34674Y813888D01*
X34574Y813914D01*
X34475Y813944D01*
X34455Y813943D01*
X34435Y813948D01*
X34332Y813940D01*
X34229Y813938D01*
X34210Y813931D01*
X34190Y813929D01*
X34095Y813889D01*
X33998Y813853D01*
X33985Y813843D01*
X29552Y813843D01*
X26443Y816952D01*
X26443Y821348D01*
X29552Y824457D01*
X33948Y824457D01*
X37057Y821348D01*
X37057Y817646D01*
X37071Y817556D01*
X37079Y817465D01*
X37091Y817435D01*
X37096Y817403D01*
X37139Y817322D01*
X37175Y817238D01*
X37201Y817206D01*
X37212Y817186D01*
X37235Y817163D01*
X37280Y817107D01*
X129434Y724953D01*
X129471Y724926D01*
X129502Y724893D01*
X129571Y724855D01*
X129634Y724810D01*
X129677Y724796D01*
X129718Y724774D01*
X129794Y724760D01*
X129869Y724737D01*
X129915Y724738D01*
X129960Y724730D01*
X130037Y724742D01*
X130115Y724744D01*
X130158Y724759D01*
X130203Y724766D01*
X130272Y724801D01*
X130346Y724828D01*
X130381Y724857D01*
X130422Y724878D01*
X130477Y724933D01*
X130538Y724982D01*
X130562Y725020D01*
X130595Y725053D01*
X130661Y725173D01*
X130671Y725189D01*
X130672Y725194D01*
X130675Y725200D01*
X131744Y727780D01*
X134450Y730486D01*
X137986Y731951D01*
X141814Y731951D01*
X145350Y730486D01*
X148056Y727780D01*
X149521Y724244D01*
X149521Y720416D01*
X148056Y716880D01*
X145350Y714174D01*
X141814Y712709D01*
X137986Y712709D01*
X134450Y714174D01*
X131744Y716880D01*
X131015Y718639D01*
X130964Y718722D01*
X130918Y718808D01*
X130900Y718826D01*
X130886Y718849D01*
X130810Y718911D01*
X130740Y718978D01*
X130716Y718989D01*
X130696Y719005D01*
X130605Y719040D01*
X130517Y719081D01*
X130491Y719084D01*
X130467Y719094D01*
X130369Y719098D01*
X130273Y719108D01*
X130247Y719103D01*
X130221Y719104D01*
X130127Y719077D01*
X130032Y719056D01*
X130010Y719043D01*
X129985Y719035D01*
X129905Y718980D01*
X129821Y718930D01*
X129804Y718910D01*
X129783Y718895D01*
X129724Y718817D01*
X129661Y718743D01*
X129651Y718719D01*
X129636Y718698D01*
X129606Y718605D01*
X129588Y718563D01*
X129579Y718542D01*
X129578Y718538D01*
X129569Y718515D01*
X129566Y718482D01*
X129560Y718464D01*
X129560Y718431D01*
X129551Y718348D01*
X129551Y716257D01*
X129565Y716167D01*
X129573Y716076D01*
X129585Y716046D01*
X129590Y716014D01*
X129633Y715934D01*
X129669Y715850D01*
X129695Y715818D01*
X129706Y715797D01*
X129729Y715775D01*
X129774Y715719D01*
X144555Y700938D01*
X144629Y700885D01*
X144698Y700825D01*
X144728Y700813D01*
X144754Y700794D01*
X144841Y700767D01*
X144926Y700733D01*
X144967Y700729D01*
X144989Y700722D01*
X145022Y700723D01*
X145093Y700715D01*
X156542Y700715D01*
X163815Y693442D01*
X163815Y688565D01*
X163829Y688475D01*
X163837Y688384D01*
X163849Y688355D01*
X163854Y688323D01*
X163897Y688242D01*
X163933Y688158D01*
X163959Y688126D01*
X163970Y688105D01*
X163993Y688083D01*
X164038Y688027D01*
X196530Y655534D01*
X196589Y655493D01*
X196641Y655443D01*
X196688Y655421D01*
X196730Y655391D01*
X196799Y655370D01*
X196864Y655340D01*
X196915Y655334D01*
X196965Y655318D01*
X197037Y655320D01*
X197108Y655312D01*
X197159Y655323D01*
X197211Y655325D01*
X197278Y655349D01*
X197348Y655365D01*
X197393Y655391D01*
X197442Y655409D01*
X197498Y655454D01*
X197560Y655491D01*
X197593Y655530D01*
X197634Y655563D01*
X197673Y655623D01*
X197719Y655678D01*
X197739Y655726D01*
X197767Y655770D01*
X197785Y655839D01*
X197811Y655906D01*
X197819Y655977D01*
X197827Y656008D01*
X197825Y656032D01*
X197830Y656073D01*
X197830Y658394D01*
X200938Y661503D01*
X205335Y661503D01*
X208456Y658382D01*
X208457Y658334D01*
X208475Y658285D01*
X208483Y658233D01*
X208517Y658170D01*
X208541Y658103D01*
X208574Y658062D01*
X208598Y658016D01*
X208650Y657967D01*
X208695Y657911D01*
X208739Y657882D01*
X208777Y657847D01*
X208842Y657816D01*
X208902Y657778D01*
X208952Y657765D01*
X209000Y657743D01*
X209071Y657735D01*
X209140Y657717D01*
X209192Y657722D01*
X209244Y657716D01*
X209314Y657731D01*
X209386Y657737D01*
X209433Y657757D01*
X209484Y657768D01*
X209546Y657805D01*
X209612Y657833D01*
X209668Y657878D01*
X209696Y657894D01*
X209711Y657912D01*
X209743Y657938D01*
X212566Y660761D01*
X216963Y660761D01*
X220071Y657653D01*
X220071Y653256D01*
X216963Y650148D01*
X212566Y650148D01*
X209446Y653269D01*
X209444Y653317D01*
X209427Y653366D01*
X209418Y653417D01*
X209385Y653481D01*
X209360Y653548D01*
X209327Y653589D01*
X209303Y653635D01*
X209251Y653684D01*
X209206Y653740D01*
X209162Y653768D01*
X209125Y653804D01*
X209060Y653834D01*
X208999Y653873D01*
X208949Y653886D01*
X208902Y653908D01*
X208830Y653916D01*
X208761Y653933D01*
X208709Y653929D01*
X208657Y653935D01*
X208587Y653920D01*
X208516Y653914D01*
X208468Y653894D01*
X208417Y653883D01*
X208355Y653846D01*
X208289Y653818D01*
X208233Y653773D01*
X208206Y653756D01*
X208190Y653739D01*
X208158Y653713D01*
X205335Y650889D01*
X203013Y650889D01*
X202943Y650878D01*
X202871Y650876D01*
X202822Y650858D01*
X202771Y650850D01*
X202707Y650816D01*
X202640Y650791D01*
X202599Y650759D01*
X202553Y650734D01*
X202504Y650682D01*
X202448Y650638D01*
X202420Y650594D01*
X202384Y650556D01*
X202354Y650491D01*
X202315Y650431D01*
X202302Y650380D01*
X202280Y650333D01*
X202272Y650262D01*
X202255Y650192D01*
X202259Y650140D01*
X202253Y650089D01*
X202268Y650018D01*
X202274Y649947D01*
X202294Y649899D01*
X202305Y649848D01*
X202342Y649787D01*
X202370Y649721D01*
X202415Y649665D01*
X202431Y649637D01*
X202449Y649622D01*
X202475Y649590D01*
X459233Y392832D01*
X459233Y98980D01*
X459252Y98865D01*
X459269Y98749D01*
X459271Y98744D01*
X459272Y98737D01*
X459327Y98635D01*
X459380Y98530D01*
X459385Y98525D01*
X459388Y98520D01*
X459472Y98440D01*
X459556Y98358D01*
X459562Y98354D01*
X459566Y98351D01*
X459583Y98343D01*
X459703Y98277D01*
X462650Y97056D01*
X465356Y94350D01*
X466821Y90814D01*
X466821Y86986D01*
X465356Y83450D01*
X462650Y80744D01*
X459114Y79279D01*
X455286Y79279D01*
G37*
%LPD*%
%LPC*%
G36*
X616528Y821199D02*
X616528Y821199D01*
X610280Y823787D01*
X605497Y828570D01*
X602909Y834818D01*
X602909Y841582D01*
X605497Y847830D01*
X610280Y852613D01*
X616528Y855201D01*
X623292Y855201D01*
X629540Y852613D01*
X634323Y847830D01*
X636911Y841582D01*
X636911Y834818D01*
X634323Y828570D01*
X629540Y823787D01*
X623292Y821199D01*
X616528Y821199D01*
G37*
%LPD*%
%LPC*%
G36*
X730528Y821199D02*
X730528Y821199D01*
X724280Y823787D01*
X719497Y828570D01*
X716909Y834818D01*
X716909Y841582D01*
X719497Y847830D01*
X724280Y852613D01*
X730528Y855201D01*
X737292Y855201D01*
X743540Y852613D01*
X748323Y847830D01*
X750911Y841582D01*
X750911Y834818D01*
X748323Y828570D01*
X743540Y823787D01*
X737292Y821199D01*
X730528Y821199D01*
G37*
%LPD*%
%LPC*%
G36*
X187317Y491999D02*
X187317Y491999D01*
X181436Y494435D01*
X176935Y498936D01*
X174499Y504817D01*
X174499Y511183D01*
X176935Y517064D01*
X181436Y521565D01*
X187317Y524001D01*
X193683Y524001D01*
X199564Y521565D01*
X204065Y517064D01*
X206501Y511183D01*
X206501Y504817D01*
X204065Y498936D01*
X199564Y494435D01*
X193683Y491999D01*
X187317Y491999D01*
G37*
%LPD*%
%LPC*%
G36*
X987417Y34799D02*
X987417Y34799D01*
X981536Y37235D01*
X977035Y41736D01*
X974599Y47617D01*
X974599Y53983D01*
X977035Y59864D01*
X981536Y64365D01*
X987417Y66801D01*
X993783Y66801D01*
X999664Y64365D01*
X1004165Y59864D01*
X1006601Y53983D01*
X1006601Y47617D01*
X1004165Y41736D01*
X999664Y37235D01*
X993783Y34799D01*
X987417Y34799D01*
G37*
%LPD*%
%LPC*%
G36*
X327017Y174499D02*
X327017Y174499D01*
X321136Y176935D01*
X316635Y181436D01*
X314199Y187317D01*
X314199Y193683D01*
X316635Y199564D01*
X321136Y204065D01*
X327017Y206501D01*
X333383Y206501D01*
X339264Y204065D01*
X343765Y199564D01*
X346201Y193683D01*
X346201Y187317D01*
X343765Y181436D01*
X339264Y176935D01*
X333383Y174499D01*
X327017Y174499D01*
G37*
%LPD*%
%LPC*%
G36*
X809617Y834899D02*
X809617Y834899D01*
X803736Y837335D01*
X799235Y841836D01*
X796799Y847717D01*
X796799Y854083D01*
X799235Y859964D01*
X803736Y864465D01*
X809617Y866901D01*
X815983Y866901D01*
X821864Y864465D01*
X826365Y859964D01*
X828801Y854083D01*
X828801Y847717D01*
X826365Y841836D01*
X821864Y837335D01*
X815983Y834899D01*
X809617Y834899D01*
G37*
%LPD*%
%LPC*%
G36*
X53682Y618263D02*
X53682Y618263D01*
X50573Y621372D01*
X50573Y625687D01*
X50559Y625777D01*
X50551Y625868D01*
X50539Y625897D01*
X50534Y625929D01*
X50491Y626010D01*
X50455Y626094D01*
X50429Y626126D01*
X50418Y626147D01*
X50395Y626169D01*
X50350Y626225D01*
X49355Y627220D01*
X49355Y678924D01*
X49348Y678969D01*
X49350Y679015D01*
X49328Y679090D01*
X49316Y679167D01*
X49294Y679207D01*
X49281Y679251D01*
X49237Y679315D01*
X49200Y679384D01*
X49167Y679416D01*
X49141Y679454D01*
X49078Y679500D01*
X49022Y679554D01*
X48980Y679573D01*
X48944Y679600D01*
X48870Y679624D01*
X48799Y679657D01*
X48753Y679662D01*
X48710Y679677D01*
X48632Y679676D01*
X48555Y679684D01*
X48510Y679675D01*
X48464Y679674D01*
X48332Y679636D01*
X48314Y679632D01*
X48310Y679630D01*
X48303Y679627D01*
X46014Y678679D01*
X42186Y678679D01*
X38650Y680144D01*
X35944Y682850D01*
X34479Y686386D01*
X34479Y690214D01*
X35944Y693750D01*
X38650Y696456D01*
X42186Y697921D01*
X46014Y697921D01*
X49550Y696456D01*
X52256Y693750D01*
X53721Y690214D01*
X53721Y686386D01*
X52500Y683439D01*
X52473Y683326D01*
X52445Y683212D01*
X52445Y683206D01*
X52444Y683200D01*
X52455Y683082D01*
X52464Y682967D01*
X52466Y682961D01*
X52467Y682955D01*
X52515Y682848D01*
X52560Y682741D01*
X52565Y682735D01*
X52567Y682730D01*
X52579Y682717D01*
X52665Y682610D01*
X53421Y681854D01*
X53421Y629638D01*
X53424Y629618D01*
X53422Y629599D01*
X53444Y629497D01*
X53460Y629395D01*
X53470Y629378D01*
X53474Y629358D01*
X53527Y629269D01*
X53576Y629178D01*
X53590Y629164D01*
X53600Y629147D01*
X53679Y629080D01*
X53754Y629008D01*
X53772Y629000D01*
X53787Y628987D01*
X53883Y628948D01*
X53977Y628905D01*
X53997Y628903D01*
X54015Y628895D01*
X54182Y628877D01*
X58078Y628877D01*
X61187Y625768D01*
X61187Y621372D01*
X58078Y618263D01*
X53682Y618263D01*
G37*
%LPD*%
%LPC*%
G36*
X95313Y483299D02*
X95313Y483299D01*
X90902Y485126D01*
X87526Y488502D01*
X85699Y492913D01*
X85699Y497687D01*
X87526Y502098D01*
X90902Y505474D01*
X95313Y507301D01*
X100087Y507301D01*
X104498Y505474D01*
X107874Y502098D01*
X109701Y497687D01*
X109701Y492913D01*
X107874Y488502D01*
X104498Y485126D01*
X100087Y483299D01*
X95313Y483299D01*
G37*
%LPD*%
%LPC*%
G36*
X699871Y897949D02*
X699871Y897949D01*
X696103Y899510D01*
X693220Y902393D01*
X691659Y906161D01*
X691659Y910239D01*
X693220Y914007D01*
X696103Y916890D01*
X699871Y918451D01*
X703949Y918451D01*
X707717Y916890D01*
X710600Y914007D01*
X712161Y910239D01*
X712161Y906161D01*
X710600Y902393D01*
X707717Y899510D01*
X703949Y897949D01*
X699871Y897949D01*
G37*
%LPD*%
%LPC*%
G36*
X649871Y897949D02*
X649871Y897949D01*
X646103Y899510D01*
X643220Y902393D01*
X641659Y906161D01*
X641659Y910239D01*
X643220Y914007D01*
X646103Y916890D01*
X649871Y918451D01*
X653949Y918451D01*
X657717Y916890D01*
X660600Y914007D01*
X662161Y910239D01*
X662161Y906161D01*
X660600Y902393D01*
X657717Y899510D01*
X653949Y897949D01*
X649871Y897949D01*
G37*
%LPD*%
%LPC*%
G36*
X699871Y752949D02*
X699871Y752949D01*
X696103Y754510D01*
X693220Y757393D01*
X691659Y761161D01*
X691659Y765239D01*
X693220Y769007D01*
X696103Y771890D01*
X699871Y773451D01*
X703949Y773451D01*
X707717Y771890D01*
X710600Y769007D01*
X712161Y765239D01*
X712161Y761161D01*
X710600Y757393D01*
X707717Y754510D01*
X703949Y752949D01*
X699871Y752949D01*
G37*
%LPD*%
%LPC*%
G36*
X674871Y752949D02*
X674871Y752949D01*
X671103Y754510D01*
X668220Y757393D01*
X666659Y761161D01*
X666659Y765239D01*
X668220Y769007D01*
X671103Y771890D01*
X674871Y773451D01*
X678949Y773451D01*
X682717Y771890D01*
X685600Y769007D01*
X687161Y765239D01*
X687161Y761161D01*
X685600Y757393D01*
X682717Y754510D01*
X678949Y752949D01*
X674871Y752949D01*
G37*
%LPD*%
%LPC*%
G36*
X649871Y752949D02*
X649871Y752949D01*
X646103Y754510D01*
X643220Y757393D01*
X641659Y761161D01*
X641659Y765239D01*
X643220Y769007D01*
X646103Y771890D01*
X649871Y773451D01*
X653949Y773451D01*
X657717Y771890D01*
X660600Y769007D01*
X662161Y765239D01*
X662161Y761161D01*
X660600Y757393D01*
X657717Y754510D01*
X653949Y752949D01*
X649871Y752949D01*
G37*
%LPD*%
%LPC*%
G36*
X1002656Y959389D02*
X1002656Y959389D01*
X999120Y960854D01*
X996414Y963560D01*
X994949Y967096D01*
X994949Y970924D01*
X996414Y974460D01*
X999120Y977166D01*
X1002656Y978631D01*
X1006484Y978631D01*
X1010020Y977166D01*
X1012726Y974460D01*
X1014191Y970924D01*
X1014191Y967096D01*
X1012726Y963560D01*
X1010020Y960854D01*
X1006484Y959389D01*
X1002656Y959389D01*
G37*
%LPD*%
%LPC*%
G36*
X977256Y959389D02*
X977256Y959389D01*
X973720Y960854D01*
X971014Y963560D01*
X969549Y967096D01*
X969549Y970924D01*
X971014Y974460D01*
X973720Y977166D01*
X977256Y978631D01*
X981084Y978631D01*
X984620Y977166D01*
X987326Y974460D01*
X988791Y970924D01*
X988791Y967096D01*
X987326Y963560D01*
X984620Y960854D01*
X981084Y959389D01*
X977256Y959389D01*
G37*
%LPD*%
%LPC*%
G36*
X582286Y29749D02*
X582286Y29749D01*
X578750Y31214D01*
X576044Y33920D01*
X574579Y37456D01*
X574579Y41284D01*
X576044Y44820D01*
X578750Y47526D01*
X582286Y48991D01*
X586114Y48991D01*
X589650Y47526D01*
X592356Y44820D01*
X593821Y41284D01*
X593821Y37456D01*
X592356Y33920D01*
X589650Y31214D01*
X586114Y29749D01*
X582286Y29749D01*
G37*
%LPD*%
%LPC*%
G36*
X633086Y29749D02*
X633086Y29749D01*
X629550Y31214D01*
X626844Y33920D01*
X625379Y37456D01*
X625379Y41284D01*
X626844Y44820D01*
X629550Y47526D01*
X633086Y48991D01*
X636914Y48991D01*
X640450Y47526D01*
X643156Y44820D01*
X644621Y41284D01*
X644621Y37456D01*
X643156Y33920D01*
X640450Y31214D01*
X636914Y29749D01*
X633086Y29749D01*
G37*
%LPD*%
%LPC*%
G36*
X826126Y937799D02*
X826126Y937799D01*
X822590Y939264D01*
X819884Y941970D01*
X818419Y945506D01*
X818419Y949334D01*
X819884Y952870D01*
X822590Y955576D01*
X826126Y957041D01*
X829954Y957041D01*
X833490Y955576D01*
X836196Y952870D01*
X837661Y949334D01*
X837661Y945506D01*
X836196Y941970D01*
X833490Y939264D01*
X829954Y937799D01*
X826126Y937799D01*
G37*
%LPD*%
%LPC*%
G36*
X724526Y937799D02*
X724526Y937799D01*
X720990Y939264D01*
X718284Y941970D01*
X716819Y945506D01*
X716819Y949334D01*
X718284Y952870D01*
X720990Y955576D01*
X724526Y957041D01*
X728354Y957041D01*
X731890Y955576D01*
X734596Y952870D01*
X736061Y949334D01*
X736061Y945506D01*
X734596Y941970D01*
X731890Y939264D01*
X728354Y937799D01*
X724526Y937799D01*
G37*
%LPD*%
%LPC*%
G36*
X699126Y937799D02*
X699126Y937799D01*
X695590Y939264D01*
X692884Y941970D01*
X691419Y945506D01*
X691419Y949334D01*
X692884Y952870D01*
X695590Y955576D01*
X699126Y957041D01*
X702954Y957041D01*
X706490Y955576D01*
X709196Y952870D01*
X710661Y949334D01*
X710661Y945506D01*
X709196Y941970D01*
X706490Y939264D01*
X702954Y937799D01*
X699126Y937799D01*
G37*
%LPD*%
%LPC*%
G36*
X800726Y937799D02*
X800726Y937799D01*
X797190Y939264D01*
X794484Y941970D01*
X793019Y945506D01*
X793019Y949334D01*
X794484Y952870D01*
X797190Y955576D01*
X800726Y957041D01*
X804554Y957041D01*
X808090Y955576D01*
X810796Y952870D01*
X812261Y949334D01*
X812261Y945506D01*
X810796Y941970D01*
X808090Y939264D01*
X804554Y937799D01*
X800726Y937799D01*
G37*
%LPD*%
%LPC*%
G36*
X775326Y937799D02*
X775326Y937799D01*
X771790Y939264D01*
X769084Y941970D01*
X767619Y945506D01*
X767619Y949334D01*
X769084Y952870D01*
X771790Y955576D01*
X775326Y957041D01*
X779154Y957041D01*
X782690Y955576D01*
X785396Y952870D01*
X786861Y949334D01*
X786861Y945506D01*
X785396Y941970D01*
X782690Y939264D01*
X779154Y937799D01*
X775326Y937799D01*
G37*
%LPD*%
%LPC*%
G36*
X749926Y937799D02*
X749926Y937799D01*
X746390Y939264D01*
X743684Y941970D01*
X742219Y945506D01*
X742219Y949334D01*
X743684Y952870D01*
X746390Y955576D01*
X749926Y957041D01*
X753754Y957041D01*
X757290Y955576D01*
X759996Y952870D01*
X761461Y949334D01*
X761461Y945506D01*
X759996Y941970D01*
X757290Y939264D01*
X753754Y937799D01*
X749926Y937799D01*
G37*
%LPD*%
%LPC*%
G36*
X469256Y936529D02*
X469256Y936529D01*
X465720Y937994D01*
X463014Y940700D01*
X461549Y944236D01*
X461549Y948064D01*
X463014Y951600D01*
X465720Y954306D01*
X469256Y955771D01*
X473084Y955771D01*
X476620Y954306D01*
X479326Y951600D01*
X480791Y948064D01*
X480791Y944236D01*
X479326Y940700D01*
X476620Y937994D01*
X473084Y936529D01*
X469256Y936529D01*
G37*
%LPD*%
%LPC*%
G36*
X443856Y936529D02*
X443856Y936529D01*
X440320Y937994D01*
X437614Y940700D01*
X436149Y944236D01*
X436149Y948064D01*
X437614Y951600D01*
X440320Y954306D01*
X443856Y955771D01*
X447684Y955771D01*
X451220Y954306D01*
X453926Y951600D01*
X455391Y948064D01*
X455391Y944236D01*
X453926Y940700D01*
X451220Y937994D01*
X447684Y936529D01*
X443856Y936529D01*
G37*
%LPD*%
%LPC*%
G36*
X647056Y936529D02*
X647056Y936529D01*
X643520Y937994D01*
X640814Y940700D01*
X639349Y944236D01*
X639349Y948064D01*
X640814Y951600D01*
X643520Y954306D01*
X647056Y955771D01*
X650884Y955771D01*
X654420Y954306D01*
X657126Y951600D01*
X658591Y948064D01*
X658591Y944236D01*
X657126Y940700D01*
X654420Y937994D01*
X650884Y936529D01*
X647056Y936529D01*
G37*
%LPD*%
%LPC*%
G36*
X621656Y936529D02*
X621656Y936529D01*
X618120Y937994D01*
X615414Y940700D01*
X613949Y944236D01*
X613949Y948064D01*
X615414Y951600D01*
X618120Y954306D01*
X621656Y955771D01*
X625484Y955771D01*
X629020Y954306D01*
X631726Y951600D01*
X633191Y948064D01*
X633191Y944236D01*
X631726Y940700D01*
X629020Y937994D01*
X625484Y936529D01*
X621656Y936529D01*
G37*
%LPD*%
%LPC*%
G36*
X570856Y936529D02*
X570856Y936529D01*
X567320Y937994D01*
X564614Y940700D01*
X563149Y944236D01*
X563149Y948064D01*
X564614Y951600D01*
X567320Y954306D01*
X570856Y955771D01*
X574684Y955771D01*
X578220Y954306D01*
X580926Y951600D01*
X582391Y948064D01*
X582391Y944236D01*
X580926Y940700D01*
X578220Y937994D01*
X574684Y936529D01*
X570856Y936529D01*
G37*
%LPD*%
%LPC*%
G36*
X545456Y936529D02*
X545456Y936529D01*
X541920Y937994D01*
X539214Y940700D01*
X537749Y944236D01*
X537749Y948064D01*
X539214Y951600D01*
X541920Y954306D01*
X545456Y955771D01*
X549284Y955771D01*
X552820Y954306D01*
X555526Y951600D01*
X556991Y948064D01*
X556991Y944236D01*
X555526Y940700D01*
X552820Y937994D01*
X549284Y936529D01*
X545456Y936529D01*
G37*
%LPD*%
%LPC*%
G36*
X520056Y936529D02*
X520056Y936529D01*
X516520Y937994D01*
X513814Y940700D01*
X512349Y944236D01*
X512349Y948064D01*
X513814Y951600D01*
X516520Y954306D01*
X520056Y955771D01*
X523884Y955771D01*
X527420Y954306D01*
X530126Y951600D01*
X531591Y948064D01*
X531591Y944236D01*
X530126Y940700D01*
X527420Y937994D01*
X523884Y936529D01*
X520056Y936529D01*
G37*
%LPD*%
%LPC*%
G36*
X494656Y936529D02*
X494656Y936529D01*
X491120Y937994D01*
X488414Y940700D01*
X486949Y944236D01*
X486949Y948064D01*
X488414Y951600D01*
X491120Y954306D01*
X494656Y955771D01*
X498484Y955771D01*
X502020Y954306D01*
X504726Y951600D01*
X506191Y948064D01*
X506191Y944236D01*
X504726Y940700D01*
X502020Y937994D01*
X498484Y936529D01*
X494656Y936529D01*
G37*
%LPD*%
%LPC*%
G36*
X418456Y936529D02*
X418456Y936529D01*
X414920Y937994D01*
X412214Y940700D01*
X410749Y944236D01*
X410749Y948064D01*
X412214Y951600D01*
X414920Y954306D01*
X418456Y955771D01*
X422284Y955771D01*
X425820Y954306D01*
X428526Y951600D01*
X429991Y948064D01*
X429991Y944236D01*
X428526Y940700D01*
X425820Y937994D01*
X422284Y936529D01*
X418456Y936529D01*
G37*
%LPD*%
%LPC*%
G36*
X393056Y936529D02*
X393056Y936529D01*
X389520Y937994D01*
X386814Y940700D01*
X385349Y944236D01*
X385349Y948064D01*
X386814Y951600D01*
X389520Y954306D01*
X393056Y955771D01*
X396884Y955771D01*
X400420Y954306D01*
X403126Y951600D01*
X404591Y948064D01*
X404591Y944236D01*
X403126Y940700D01*
X400420Y937994D01*
X396884Y936529D01*
X393056Y936529D01*
G37*
%LPD*%
%LPC*%
G36*
X367656Y936529D02*
X367656Y936529D01*
X364120Y937994D01*
X361414Y940700D01*
X359949Y944236D01*
X359949Y948064D01*
X361414Y951600D01*
X364120Y954306D01*
X367656Y955771D01*
X371484Y955771D01*
X375020Y954306D01*
X377726Y951600D01*
X379191Y948064D01*
X379191Y944236D01*
X377726Y940700D01*
X375020Y937994D01*
X371484Y936529D01*
X367656Y936529D01*
G37*
%LPD*%
%LPC*%
G36*
X342256Y936529D02*
X342256Y936529D01*
X338720Y937994D01*
X336014Y940700D01*
X334549Y944236D01*
X334549Y948064D01*
X336014Y951600D01*
X338720Y954306D01*
X342256Y955771D01*
X346084Y955771D01*
X349620Y954306D01*
X352326Y951600D01*
X353791Y948064D01*
X353791Y944236D01*
X352326Y940700D01*
X349620Y937994D01*
X346084Y936529D01*
X342256Y936529D01*
G37*
%LPD*%
%LPC*%
G36*
X316856Y936529D02*
X316856Y936529D01*
X313320Y937994D01*
X310614Y940700D01*
X309149Y944236D01*
X309149Y948064D01*
X310614Y951600D01*
X313320Y954306D01*
X316856Y955771D01*
X320684Y955771D01*
X324220Y954306D01*
X326926Y951600D01*
X328391Y948064D01*
X328391Y944236D01*
X326926Y940700D01*
X324220Y937994D01*
X320684Y936529D01*
X316856Y936529D01*
G37*
%LPD*%
%LPC*%
G36*
X291456Y936529D02*
X291456Y936529D01*
X287920Y937994D01*
X285214Y940700D01*
X283749Y944236D01*
X283749Y948064D01*
X285214Y951600D01*
X287920Y954306D01*
X291456Y955771D01*
X295284Y955771D01*
X298820Y954306D01*
X301526Y951600D01*
X302991Y948064D01*
X302991Y944236D01*
X301526Y940700D01*
X298820Y937994D01*
X295284Y936529D01*
X291456Y936529D01*
G37*
%LPD*%
%LPC*%
G36*
X266056Y936529D02*
X266056Y936529D01*
X262520Y937994D01*
X259814Y940700D01*
X258349Y944236D01*
X258349Y948064D01*
X259814Y951600D01*
X262520Y954306D01*
X266056Y955771D01*
X269884Y955771D01*
X273420Y954306D01*
X276126Y951600D01*
X277591Y948064D01*
X277591Y944236D01*
X276126Y940700D01*
X273420Y937994D01*
X269884Y936529D01*
X266056Y936529D01*
G37*
%LPD*%
%LPC*%
G36*
X683886Y29749D02*
X683886Y29749D01*
X680350Y31214D01*
X677644Y33920D01*
X676179Y37456D01*
X676179Y41284D01*
X677644Y44820D01*
X680350Y47526D01*
X683886Y48991D01*
X687714Y48991D01*
X691250Y47526D01*
X693956Y44820D01*
X695421Y41284D01*
X695421Y37456D01*
X693956Y33920D01*
X691250Y31214D01*
X687714Y29749D01*
X683886Y29749D01*
G37*
%LPD*%
%LPC*%
G36*
X734686Y29749D02*
X734686Y29749D01*
X731150Y31214D01*
X728444Y33920D01*
X726979Y37456D01*
X726979Y41284D01*
X728444Y44820D01*
X731150Y47526D01*
X734686Y48991D01*
X738514Y48991D01*
X742050Y47526D01*
X744756Y44820D01*
X746221Y41284D01*
X746221Y37456D01*
X744756Y33920D01*
X742050Y31214D01*
X738514Y29749D01*
X734686Y29749D01*
G37*
%LPD*%
%LPC*%
G36*
X785486Y29749D02*
X785486Y29749D01*
X781950Y31214D01*
X779244Y33920D01*
X777779Y37456D01*
X777779Y41284D01*
X779244Y44820D01*
X781950Y47526D01*
X785486Y48991D01*
X789314Y48991D01*
X792850Y47526D01*
X795556Y44820D01*
X797021Y41284D01*
X797021Y37456D01*
X795556Y33920D01*
X792850Y31214D01*
X789314Y29749D01*
X785486Y29749D01*
G37*
%LPD*%
%LPC*%
G36*
X836286Y29749D02*
X836286Y29749D01*
X832750Y31214D01*
X830044Y33920D01*
X828579Y37456D01*
X828579Y41284D01*
X830044Y44820D01*
X832750Y47526D01*
X836286Y48991D01*
X840114Y48991D01*
X843650Y47526D01*
X846356Y44820D01*
X847821Y41284D01*
X847821Y37456D01*
X846356Y33920D01*
X843650Y31214D01*
X840114Y29749D01*
X836286Y29749D01*
G37*
%LPD*%
%LPC*%
G36*
X436998Y889285D02*
X436998Y889285D01*
X433462Y890750D01*
X430756Y893456D01*
X429291Y896992D01*
X429291Y900820D01*
X430756Y904356D01*
X433462Y907062D01*
X436998Y908527D01*
X440826Y908527D01*
X444362Y907062D01*
X447068Y904356D01*
X448533Y900820D01*
X448533Y896992D01*
X447068Y893456D01*
X444362Y890750D01*
X440826Y889285D01*
X436998Y889285D01*
G37*
%LPD*%
%LPC*%
G36*
X371974Y889285D02*
X371974Y889285D01*
X368438Y890750D01*
X365732Y893456D01*
X364267Y896992D01*
X364267Y900820D01*
X365732Y904356D01*
X368438Y907062D01*
X371974Y908527D01*
X375802Y908527D01*
X379338Y907062D01*
X382044Y904356D01*
X383509Y900820D01*
X383509Y896992D01*
X382044Y893456D01*
X379338Y890750D01*
X375802Y889285D01*
X371974Y889285D01*
G37*
%LPD*%
%LPC*%
G36*
X887086Y29749D02*
X887086Y29749D01*
X883550Y31214D01*
X880844Y33920D01*
X879379Y37456D01*
X879379Y41284D01*
X880844Y44820D01*
X883550Y47526D01*
X887086Y48991D01*
X890914Y48991D01*
X894450Y47526D01*
X897156Y44820D01*
X898621Y41284D01*
X898621Y37456D01*
X897156Y33920D01*
X894450Y31214D01*
X890914Y29749D01*
X887086Y29749D01*
G37*
%LPD*%
%LPC*%
G36*
X339716Y883189D02*
X339716Y883189D01*
X336180Y884654D01*
X333474Y887360D01*
X332009Y890896D01*
X332009Y894724D01*
X333474Y898260D01*
X336180Y900966D01*
X339716Y902431D01*
X343544Y902431D01*
X347080Y900966D01*
X349786Y898260D01*
X351251Y894724D01*
X351251Y890896D01*
X349786Y887360D01*
X347080Y884654D01*
X343544Y883189D01*
X339716Y883189D01*
G37*
%LPD*%
%LPC*%
G36*
X288916Y883189D02*
X288916Y883189D01*
X285380Y884654D01*
X282674Y887360D01*
X281209Y890896D01*
X281209Y894724D01*
X282674Y898260D01*
X285380Y900966D01*
X288916Y902431D01*
X292744Y902431D01*
X296280Y900966D01*
X298986Y898260D01*
X300451Y894724D01*
X300451Y890896D01*
X298986Y887360D01*
X296280Y884654D01*
X292744Y883189D01*
X288916Y883189D01*
G37*
%LPD*%
%LPC*%
G36*
X950586Y206279D02*
X950586Y206279D01*
X947050Y207744D01*
X944344Y210450D01*
X942879Y213986D01*
X942879Y217814D01*
X944344Y221350D01*
X947050Y224056D01*
X950586Y225521D01*
X954414Y225521D01*
X957950Y224056D01*
X960656Y221350D01*
X962121Y217814D01*
X962121Y213986D01*
X960656Y210450D01*
X957950Y207744D01*
X954414Y206279D01*
X950586Y206279D01*
G37*
%LPD*%
%LPC*%
G36*
X975986Y206279D02*
X975986Y206279D01*
X972450Y207744D01*
X969744Y210450D01*
X968279Y213986D01*
X968279Y217814D01*
X969744Y221350D01*
X972450Y224056D01*
X975986Y225521D01*
X979814Y225521D01*
X983350Y224056D01*
X986056Y221350D01*
X987521Y217814D01*
X987521Y213986D01*
X986056Y210450D01*
X983350Y207744D01*
X979814Y206279D01*
X975986Y206279D01*
G37*
%LPD*%
%LPC*%
G36*
X1001386Y206279D02*
X1001386Y206279D01*
X997850Y207744D01*
X995144Y210450D01*
X993679Y213986D01*
X993679Y217814D01*
X995144Y221350D01*
X997850Y224056D01*
X1001386Y225521D01*
X1005214Y225521D01*
X1008750Y224056D01*
X1011456Y221350D01*
X1012921Y217814D01*
X1012921Y213986D01*
X1011456Y210450D01*
X1008750Y207744D01*
X1005214Y206279D01*
X1001386Y206279D01*
G37*
%LPD*%
%LPC*%
G36*
X1052186Y206279D02*
X1052186Y206279D01*
X1048650Y207744D01*
X1045944Y210450D01*
X1044479Y213986D01*
X1044479Y217814D01*
X1045944Y221350D01*
X1048650Y224056D01*
X1052186Y225521D01*
X1056014Y225521D01*
X1059550Y224056D01*
X1062256Y221350D01*
X1063721Y217814D01*
X1063721Y213986D01*
X1062256Y210450D01*
X1059550Y207744D01*
X1056014Y206279D01*
X1052186Y206279D01*
G37*
%LPD*%
%LPC*%
G36*
X1026786Y206279D02*
X1026786Y206279D01*
X1023250Y207744D01*
X1020544Y210450D01*
X1019079Y213986D01*
X1019079Y217814D01*
X1020544Y221350D01*
X1023250Y224056D01*
X1026786Y225521D01*
X1030614Y225521D01*
X1034150Y224056D01*
X1036856Y221350D01*
X1038321Y217814D01*
X1038321Y213986D01*
X1036856Y210450D01*
X1034150Y207744D01*
X1030614Y206279D01*
X1026786Y206279D01*
G37*
%LPD*%
%LPC*%
G36*
X1077586Y206279D02*
X1077586Y206279D01*
X1074050Y207744D01*
X1071344Y210450D01*
X1069879Y213986D01*
X1069879Y217814D01*
X1071344Y221350D01*
X1074050Y224056D01*
X1077586Y225521D01*
X1081414Y225521D01*
X1084950Y224056D01*
X1087656Y221350D01*
X1089121Y217814D01*
X1089121Y213986D01*
X1087656Y210450D01*
X1084950Y207744D01*
X1081414Y206279D01*
X1077586Y206279D01*
G37*
%LPD*%
%LPC*%
G36*
X436998Y844073D02*
X436998Y844073D01*
X433462Y845538D01*
X430756Y848244D01*
X429291Y851780D01*
X429291Y855608D01*
X430756Y859144D01*
X433462Y861850D01*
X436998Y863315D01*
X440826Y863315D01*
X444362Y861850D01*
X447068Y859144D01*
X448533Y855608D01*
X448533Y851780D01*
X447068Y848244D01*
X444362Y845538D01*
X440826Y844073D01*
X436998Y844073D01*
G37*
%LPD*%
%LPC*%
G36*
X371974Y844073D02*
X371974Y844073D01*
X368438Y845538D01*
X365732Y848244D01*
X364267Y851780D01*
X364267Y855608D01*
X365732Y859144D01*
X368438Y861850D01*
X371974Y863315D01*
X375802Y863315D01*
X379338Y861850D01*
X382044Y859144D01*
X383509Y855608D01*
X383509Y851780D01*
X382044Y848244D01*
X379338Y845538D01*
X375802Y844073D01*
X371974Y844073D01*
G37*
%LPD*%
%LPC*%
G36*
X340986Y841279D02*
X340986Y841279D01*
X337450Y842744D01*
X334744Y845450D01*
X333279Y848986D01*
X333279Y852814D01*
X334744Y856350D01*
X337450Y859056D01*
X340986Y860521D01*
X344814Y860521D01*
X348350Y859056D01*
X351056Y856350D01*
X352521Y852814D01*
X352521Y848986D01*
X351056Y845450D01*
X348350Y842744D01*
X344814Y841279D01*
X340986Y841279D01*
G37*
%LPD*%
%LPC*%
G36*
X290186Y841279D02*
X290186Y841279D01*
X286650Y842744D01*
X283944Y845450D01*
X282479Y848986D01*
X282479Y852814D01*
X283944Y856350D01*
X286650Y859056D01*
X290186Y860521D01*
X294014Y860521D01*
X297550Y859056D01*
X300256Y856350D01*
X301721Y852814D01*
X301721Y848986D01*
X300256Y845450D01*
X297550Y842744D01*
X294014Y841279D01*
X290186Y841279D01*
G37*
%LPD*%
%LPC*%
G36*
X925186Y206279D02*
X925186Y206279D01*
X921650Y207744D01*
X918944Y210450D01*
X917479Y213986D01*
X917479Y217814D01*
X918944Y221350D01*
X921650Y224056D01*
X925186Y225521D01*
X929014Y225521D01*
X932550Y224056D01*
X935256Y221350D01*
X936721Y217814D01*
X936721Y213986D01*
X935256Y210450D01*
X932550Y207744D01*
X929014Y206279D01*
X925186Y206279D01*
G37*
%LPD*%
%LPC*%
G36*
X899786Y206279D02*
X899786Y206279D01*
X896250Y207744D01*
X893544Y210450D01*
X892079Y213986D01*
X892079Y217814D01*
X893544Y221350D01*
X896250Y224056D01*
X899786Y225521D01*
X903614Y225521D01*
X907150Y224056D01*
X909856Y221350D01*
X911321Y217814D01*
X911321Y213986D01*
X909856Y210450D01*
X907150Y207744D01*
X903614Y206279D01*
X899786Y206279D01*
G37*
%LPD*%
%LPC*%
G36*
X23486Y29749D02*
X23486Y29749D01*
X19950Y31214D01*
X17244Y33920D01*
X15779Y37456D01*
X15779Y41284D01*
X17244Y44820D01*
X19950Y47526D01*
X23486Y48991D01*
X27314Y48991D01*
X30850Y47526D01*
X33556Y44820D01*
X35021Y41284D01*
X35021Y37456D01*
X33556Y33920D01*
X30850Y31214D01*
X27314Y29749D01*
X23486Y29749D01*
G37*
%LPD*%
%LPC*%
G36*
X975986Y244379D02*
X975986Y244379D01*
X972450Y245844D01*
X969744Y248550D01*
X968279Y252086D01*
X968279Y255914D01*
X969744Y259450D01*
X972450Y262156D01*
X975986Y263621D01*
X979814Y263621D01*
X983350Y262156D01*
X986056Y259450D01*
X987521Y255914D01*
X987521Y252086D01*
X986056Y248550D01*
X983350Y245844D01*
X979814Y244379D01*
X975986Y244379D01*
G37*
%LPD*%
%LPC*%
G36*
X340986Y803179D02*
X340986Y803179D01*
X337450Y804644D01*
X334744Y807350D01*
X333279Y810886D01*
X333279Y814714D01*
X334744Y818250D01*
X337450Y820956D01*
X340986Y822421D01*
X344814Y822421D01*
X348350Y820956D01*
X351056Y818250D01*
X352521Y814714D01*
X352521Y810886D01*
X351056Y807350D01*
X348350Y804644D01*
X344814Y803179D01*
X340986Y803179D01*
G37*
%LPD*%
%LPC*%
G36*
X290186Y803179D02*
X290186Y803179D01*
X286650Y804644D01*
X283944Y807350D01*
X282479Y810886D01*
X282479Y814714D01*
X283944Y818250D01*
X286650Y820956D01*
X290186Y822421D01*
X294014Y822421D01*
X297550Y820956D01*
X300256Y818250D01*
X301721Y814714D01*
X301721Y810886D01*
X300256Y807350D01*
X297550Y804644D01*
X294014Y803179D01*
X290186Y803179D01*
G37*
%LPD*%
%LPC*%
G36*
X1001386Y244379D02*
X1001386Y244379D01*
X997850Y245844D01*
X995144Y248550D01*
X993679Y252086D01*
X993679Y255914D01*
X995144Y259450D01*
X997850Y262156D01*
X1001386Y263621D01*
X1005214Y263621D01*
X1008750Y262156D01*
X1011456Y259450D01*
X1012921Y255914D01*
X1012921Y252086D01*
X1011456Y248550D01*
X1008750Y245844D01*
X1005214Y244379D01*
X1001386Y244379D01*
G37*
%LPD*%
%LPC*%
G36*
X899786Y422179D02*
X899786Y422179D01*
X896250Y423644D01*
X893544Y426350D01*
X892079Y429886D01*
X892079Y433714D01*
X893544Y437250D01*
X896250Y439956D01*
X899786Y441421D01*
X903614Y441421D01*
X907150Y439956D01*
X909856Y437250D01*
X911321Y433714D01*
X911321Y429886D01*
X909856Y426350D01*
X907150Y423644D01*
X903614Y422179D01*
X899786Y422179D01*
G37*
%LPD*%
%LPC*%
G36*
X950586Y422179D02*
X950586Y422179D01*
X947050Y423644D01*
X944344Y426350D01*
X942879Y429886D01*
X942879Y433714D01*
X944344Y437250D01*
X947050Y439956D01*
X950586Y441421D01*
X954414Y441421D01*
X957950Y439956D01*
X960656Y437250D01*
X962121Y433714D01*
X962121Y429886D01*
X960656Y426350D01*
X957950Y423644D01*
X954414Y422179D01*
X950586Y422179D01*
G37*
%LPD*%
%LPC*%
G36*
X1002656Y781589D02*
X1002656Y781589D01*
X999120Y783054D01*
X996414Y785760D01*
X994949Y789296D01*
X994949Y793124D01*
X996414Y796660D01*
X999120Y799366D01*
X1002656Y800831D01*
X1006484Y800831D01*
X1010020Y799366D01*
X1012726Y796660D01*
X1014191Y793124D01*
X1014191Y789296D01*
X1012726Y785760D01*
X1010020Y783054D01*
X1006484Y781589D01*
X1002656Y781589D01*
G37*
%LPD*%
%LPC*%
G36*
X977256Y781589D02*
X977256Y781589D01*
X973720Y783054D01*
X971014Y785760D01*
X969549Y789296D01*
X969549Y793124D01*
X971014Y796660D01*
X973720Y799366D01*
X977256Y800831D01*
X981084Y800831D01*
X984620Y799366D01*
X987326Y796660D01*
X988791Y793124D01*
X988791Y789296D01*
X987326Y785760D01*
X984620Y783054D01*
X981084Y781589D01*
X977256Y781589D01*
G37*
%LPD*%
%LPC*%
G36*
X975986Y422179D02*
X975986Y422179D01*
X972450Y423644D01*
X969744Y426350D01*
X968279Y429886D01*
X968279Y433714D01*
X969744Y437250D01*
X972450Y439956D01*
X975986Y441421D01*
X979814Y441421D01*
X983350Y439956D01*
X986056Y437250D01*
X987521Y433714D01*
X987521Y429886D01*
X986056Y426350D01*
X983350Y423644D01*
X979814Y422179D01*
X975986Y422179D01*
G37*
%LPD*%
%LPC*%
G36*
X1001386Y422179D02*
X1001386Y422179D01*
X997850Y423644D01*
X995144Y426350D01*
X993679Y429886D01*
X993679Y433714D01*
X995144Y437250D01*
X997850Y439956D01*
X1001386Y441421D01*
X1005214Y441421D01*
X1008750Y439956D01*
X1011456Y437250D01*
X1012921Y433714D01*
X1012921Y429886D01*
X1011456Y426350D01*
X1008750Y423644D01*
X1005214Y422179D01*
X1001386Y422179D01*
G37*
%LPD*%
%LPC*%
G36*
X1026786Y422179D02*
X1026786Y422179D01*
X1023250Y423644D01*
X1020544Y426350D01*
X1019079Y429886D01*
X1019079Y433714D01*
X1020544Y437250D01*
X1023250Y439956D01*
X1026786Y441421D01*
X1030614Y441421D01*
X1034150Y439956D01*
X1036856Y437250D01*
X1038321Y433714D01*
X1038321Y429886D01*
X1036856Y426350D01*
X1034150Y423644D01*
X1030614Y422179D01*
X1026786Y422179D01*
G37*
%LPD*%
%LPC*%
G36*
X1052186Y422179D02*
X1052186Y422179D01*
X1048650Y423644D01*
X1045944Y426350D01*
X1044479Y429886D01*
X1044479Y433714D01*
X1045944Y437250D01*
X1048650Y439956D01*
X1052186Y441421D01*
X1056014Y441421D01*
X1059550Y439956D01*
X1062256Y437250D01*
X1063721Y433714D01*
X1063721Y429886D01*
X1062256Y426350D01*
X1059550Y423644D01*
X1056014Y422179D01*
X1052186Y422179D01*
G37*
%LPD*%
%LPC*%
G36*
X1077586Y422179D02*
X1077586Y422179D01*
X1074050Y423644D01*
X1071344Y426350D01*
X1069879Y429886D01*
X1069879Y433714D01*
X1071344Y437250D01*
X1074050Y439956D01*
X1077586Y441421D01*
X1081414Y441421D01*
X1084950Y439956D01*
X1087656Y437250D01*
X1089121Y433714D01*
X1089121Y429886D01*
X1087656Y426350D01*
X1084950Y423644D01*
X1081414Y422179D01*
X1077586Y422179D01*
G37*
%LPD*%
%LPC*%
G36*
X951856Y959389D02*
X951856Y959389D01*
X948320Y960854D01*
X945614Y963560D01*
X944149Y967096D01*
X944149Y970924D01*
X945614Y974460D01*
X948320Y977166D01*
X951856Y978631D01*
X955684Y978631D01*
X959220Y977166D01*
X961926Y974460D01*
X963391Y970924D01*
X963391Y967096D01*
X961926Y963560D01*
X959220Y960854D01*
X955684Y959389D01*
X951856Y959389D01*
G37*
%LPD*%
%LPC*%
G36*
X901056Y959389D02*
X901056Y959389D01*
X897520Y960854D01*
X894814Y963560D01*
X893349Y967096D01*
X893349Y970924D01*
X894814Y974460D01*
X897520Y977166D01*
X901056Y978631D01*
X904884Y978631D01*
X908420Y977166D01*
X911126Y974460D01*
X912591Y970924D01*
X912591Y967096D01*
X911126Y963560D01*
X908420Y960854D01*
X904884Y959389D01*
X901056Y959389D01*
G37*
%LPD*%
%LPC*%
G36*
X1078856Y959389D02*
X1078856Y959389D01*
X1075320Y960854D01*
X1072614Y963560D01*
X1071149Y967096D01*
X1071149Y970924D01*
X1072614Y974460D01*
X1075320Y977166D01*
X1078856Y978631D01*
X1082684Y978631D01*
X1086220Y977166D01*
X1088926Y974460D01*
X1090391Y970924D01*
X1090391Y967096D01*
X1088926Y963560D01*
X1086220Y960854D01*
X1082684Y959389D01*
X1078856Y959389D01*
G37*
%LPD*%
%LPC*%
G36*
X1078856Y743489D02*
X1078856Y743489D01*
X1075320Y744954D01*
X1072614Y747660D01*
X1071149Y751196D01*
X1071149Y755024D01*
X1072614Y758560D01*
X1075320Y761266D01*
X1078856Y762731D01*
X1082684Y762731D01*
X1086220Y761266D01*
X1088926Y758560D01*
X1090391Y755024D01*
X1090391Y751196D01*
X1088926Y747660D01*
X1086220Y744954D01*
X1082684Y743489D01*
X1078856Y743489D01*
G37*
%LPD*%
%LPC*%
G36*
X1053456Y743489D02*
X1053456Y743489D01*
X1049920Y744954D01*
X1047214Y747660D01*
X1045749Y751196D01*
X1045749Y755024D01*
X1047214Y758560D01*
X1049920Y761266D01*
X1053456Y762731D01*
X1057284Y762731D01*
X1060820Y761266D01*
X1063526Y758560D01*
X1064991Y755024D01*
X1064991Y751196D01*
X1063526Y747660D01*
X1060820Y744954D01*
X1057284Y743489D01*
X1053456Y743489D01*
G37*
%LPD*%
%LPC*%
G36*
X1028056Y743489D02*
X1028056Y743489D01*
X1024520Y744954D01*
X1021814Y747660D01*
X1020349Y751196D01*
X1020349Y755024D01*
X1021814Y758560D01*
X1024520Y761266D01*
X1028056Y762731D01*
X1031884Y762731D01*
X1035420Y761266D01*
X1038126Y758560D01*
X1039591Y755024D01*
X1039591Y751196D01*
X1038126Y747660D01*
X1035420Y744954D01*
X1031884Y743489D01*
X1028056Y743489D01*
G37*
%LPD*%
%LPC*%
G36*
X1002656Y743489D02*
X1002656Y743489D01*
X999120Y744954D01*
X996414Y747660D01*
X994949Y751196D01*
X994949Y755024D01*
X996414Y758560D01*
X999120Y761266D01*
X1002656Y762731D01*
X1006484Y762731D01*
X1010020Y761266D01*
X1012726Y758560D01*
X1014191Y755024D01*
X1014191Y751196D01*
X1012726Y747660D01*
X1010020Y744954D01*
X1006484Y743489D01*
X1002656Y743489D01*
G37*
%LPD*%
%LPC*%
G36*
X977256Y743489D02*
X977256Y743489D01*
X973720Y744954D01*
X971014Y747660D01*
X969549Y751196D01*
X969549Y755024D01*
X971014Y758560D01*
X973720Y761266D01*
X977256Y762731D01*
X981084Y762731D01*
X984620Y761266D01*
X987326Y758560D01*
X988791Y755024D01*
X988791Y751196D01*
X987326Y747660D01*
X984620Y744954D01*
X981084Y743489D01*
X977256Y743489D01*
G37*
%LPD*%
%LPC*%
G36*
X951856Y743489D02*
X951856Y743489D01*
X948320Y744954D01*
X945614Y747660D01*
X944149Y751196D01*
X944149Y755024D01*
X945614Y758560D01*
X948320Y761266D01*
X951856Y762731D01*
X955684Y762731D01*
X959220Y761266D01*
X961926Y758560D01*
X963391Y755024D01*
X963391Y751196D01*
X961926Y747660D01*
X959220Y744954D01*
X955684Y743489D01*
X951856Y743489D01*
G37*
%LPD*%
%LPC*%
G36*
X926456Y743489D02*
X926456Y743489D01*
X922920Y744954D01*
X920214Y747660D01*
X918749Y751196D01*
X918749Y755024D01*
X920214Y758560D01*
X922920Y761266D01*
X926456Y762731D01*
X930284Y762731D01*
X933820Y761266D01*
X936526Y758560D01*
X937991Y755024D01*
X937991Y751196D01*
X936526Y747660D01*
X933820Y744954D01*
X930284Y743489D01*
X926456Y743489D01*
G37*
%LPD*%
%LPC*%
G36*
X901056Y743489D02*
X901056Y743489D01*
X897520Y744954D01*
X894814Y747660D01*
X893349Y751196D01*
X893349Y755024D01*
X894814Y758560D01*
X897520Y761266D01*
X901056Y762731D01*
X904884Y762731D01*
X908420Y761266D01*
X911126Y758560D01*
X912591Y755024D01*
X912591Y751196D01*
X911126Y747660D01*
X908420Y744954D01*
X904884Y743489D01*
X901056Y743489D01*
G37*
%LPD*%
%LPC*%
G36*
X1001386Y472979D02*
X1001386Y472979D01*
X997850Y474444D01*
X995144Y477150D01*
X993679Y480686D01*
X993679Y484514D01*
X995144Y488050D01*
X997850Y490756D01*
X1001386Y492221D01*
X1005214Y492221D01*
X1008750Y490756D01*
X1011456Y488050D01*
X1012921Y484514D01*
X1012921Y480686D01*
X1011456Y477150D01*
X1008750Y474444D01*
X1005214Y472979D01*
X1001386Y472979D01*
G37*
%LPD*%
%LPC*%
G36*
X975986Y472979D02*
X975986Y472979D01*
X972450Y474444D01*
X969744Y477150D01*
X968279Y480686D01*
X968279Y484514D01*
X969744Y488050D01*
X972450Y490756D01*
X975986Y492221D01*
X979814Y492221D01*
X983350Y490756D01*
X986056Y488050D01*
X987521Y484514D01*
X987521Y480686D01*
X986056Y477150D01*
X983350Y474444D01*
X979814Y472979D01*
X975986Y472979D01*
G37*
%LPD*%
%LPC*%
G36*
X1053456Y959389D02*
X1053456Y959389D01*
X1049920Y960854D01*
X1047214Y963560D01*
X1045749Y967096D01*
X1045749Y970924D01*
X1047214Y974460D01*
X1049920Y977166D01*
X1053456Y978631D01*
X1057284Y978631D01*
X1060820Y977166D01*
X1063526Y974460D01*
X1064991Y970924D01*
X1064991Y967096D01*
X1063526Y963560D01*
X1060820Y960854D01*
X1057284Y959389D01*
X1053456Y959389D01*
G37*
%LPD*%
%LPC*%
G36*
X1026786Y472979D02*
X1026786Y472979D01*
X1023250Y474444D01*
X1020544Y477150D01*
X1019079Y480686D01*
X1019079Y484514D01*
X1020544Y488050D01*
X1023250Y490756D01*
X1026786Y492221D01*
X1030614Y492221D01*
X1034150Y490756D01*
X1036856Y488050D01*
X1038321Y484514D01*
X1038321Y480686D01*
X1036856Y477150D01*
X1034150Y474444D01*
X1030614Y472979D01*
X1026786Y472979D01*
G37*
%LPD*%
%LPC*%
G36*
X544386Y712709D02*
X544386Y712709D01*
X540850Y714174D01*
X538144Y716880D01*
X536679Y720416D01*
X536679Y724244D01*
X538144Y727780D01*
X540850Y730486D01*
X544386Y731951D01*
X548214Y731951D01*
X551750Y730486D01*
X554456Y727780D01*
X555921Y724244D01*
X555921Y720416D01*
X554456Y716880D01*
X551750Y714174D01*
X548214Y712709D01*
X544386Y712709D01*
G37*
%LPD*%
%LPC*%
G36*
X518986Y712709D02*
X518986Y712709D01*
X515450Y714174D01*
X512744Y716880D01*
X511279Y720416D01*
X511279Y724244D01*
X512744Y727780D01*
X515450Y730486D01*
X518986Y731951D01*
X522814Y731951D01*
X526350Y730486D01*
X529056Y727780D01*
X530521Y724244D01*
X530521Y720416D01*
X529056Y716880D01*
X526350Y714174D01*
X522814Y712709D01*
X518986Y712709D01*
G37*
%LPD*%
%LPC*%
G36*
X493586Y712709D02*
X493586Y712709D01*
X490050Y714174D01*
X487344Y716880D01*
X485879Y720416D01*
X485879Y724244D01*
X487344Y727780D01*
X490050Y730486D01*
X493586Y731951D01*
X497414Y731951D01*
X500950Y730486D01*
X503656Y727780D01*
X505121Y724244D01*
X505121Y720416D01*
X503656Y716880D01*
X500950Y714174D01*
X497414Y712709D01*
X493586Y712709D01*
G37*
%LPD*%
%LPC*%
G36*
X468186Y712709D02*
X468186Y712709D01*
X464650Y714174D01*
X461944Y716880D01*
X460479Y720416D01*
X460479Y724244D01*
X461944Y727780D01*
X464650Y730486D01*
X468186Y731951D01*
X472014Y731951D01*
X475550Y730486D01*
X478256Y727780D01*
X479721Y724244D01*
X479721Y720416D01*
X478256Y716880D01*
X475550Y714174D01*
X472014Y712709D01*
X468186Y712709D01*
G37*
%LPD*%
%LPC*%
G36*
X442786Y712709D02*
X442786Y712709D01*
X439250Y714174D01*
X436544Y716880D01*
X435079Y720416D01*
X435079Y724244D01*
X436544Y727780D01*
X439250Y730486D01*
X442786Y731951D01*
X446614Y731951D01*
X450150Y730486D01*
X452856Y727780D01*
X454321Y724244D01*
X454321Y720416D01*
X452856Y716880D01*
X450150Y714174D01*
X446614Y712709D01*
X442786Y712709D01*
G37*
%LPD*%
%LPC*%
G36*
X417386Y712709D02*
X417386Y712709D01*
X413850Y714174D01*
X411144Y716880D01*
X409679Y720416D01*
X409679Y724244D01*
X411144Y727780D01*
X413850Y730486D01*
X417386Y731951D01*
X421214Y731951D01*
X424750Y730486D01*
X427456Y727780D01*
X428921Y724244D01*
X428921Y720416D01*
X427456Y716880D01*
X424750Y714174D01*
X421214Y712709D01*
X417386Y712709D01*
G37*
%LPD*%
%LPC*%
G36*
X391986Y712709D02*
X391986Y712709D01*
X388450Y714174D01*
X385744Y716880D01*
X384279Y720416D01*
X384279Y724244D01*
X385744Y727780D01*
X388450Y730486D01*
X391986Y731951D01*
X395814Y731951D01*
X399350Y730486D01*
X402056Y727780D01*
X403521Y724244D01*
X403521Y720416D01*
X402056Y716880D01*
X399350Y714174D01*
X395814Y712709D01*
X391986Y712709D01*
G37*
%LPD*%
%LPC*%
G36*
X366586Y712709D02*
X366586Y712709D01*
X363050Y714174D01*
X360344Y716880D01*
X358879Y720416D01*
X358879Y724244D01*
X360344Y727780D01*
X363050Y730486D01*
X366586Y731951D01*
X370414Y731951D01*
X373950Y730486D01*
X376656Y727780D01*
X378121Y724244D01*
X378121Y720416D01*
X376656Y716880D01*
X373950Y714174D01*
X370414Y712709D01*
X366586Y712709D01*
G37*
%LPD*%
%LPC*%
G36*
X341186Y712709D02*
X341186Y712709D01*
X337650Y714174D01*
X334944Y716880D01*
X333479Y720416D01*
X333479Y724244D01*
X334944Y727780D01*
X337650Y730486D01*
X341186Y731951D01*
X345014Y731951D01*
X348550Y730486D01*
X351256Y727780D01*
X352721Y724244D01*
X352721Y720416D01*
X351256Y716880D01*
X348550Y714174D01*
X345014Y712709D01*
X341186Y712709D01*
G37*
%LPD*%
%LPC*%
G36*
X315786Y712709D02*
X315786Y712709D01*
X312250Y714174D01*
X309544Y716880D01*
X308079Y720416D01*
X308079Y724244D01*
X309544Y727780D01*
X312250Y730486D01*
X315786Y731951D01*
X319614Y731951D01*
X323150Y730486D01*
X325856Y727780D01*
X327321Y724244D01*
X327321Y720416D01*
X325856Y716880D01*
X323150Y714174D01*
X319614Y712709D01*
X315786Y712709D01*
G37*
%LPD*%
%LPC*%
G36*
X290386Y712709D02*
X290386Y712709D01*
X286850Y714174D01*
X284144Y716880D01*
X282679Y720416D01*
X282679Y724244D01*
X284144Y727780D01*
X286850Y730486D01*
X290386Y731951D01*
X294214Y731951D01*
X297750Y730486D01*
X300456Y727780D01*
X301921Y724244D01*
X301921Y720416D01*
X300456Y716880D01*
X297750Y714174D01*
X294214Y712709D01*
X290386Y712709D01*
G37*
%LPD*%
%LPC*%
G36*
X264986Y712709D02*
X264986Y712709D01*
X261450Y714174D01*
X258744Y716880D01*
X257279Y720416D01*
X257279Y724244D01*
X258744Y727780D01*
X261450Y730486D01*
X264986Y731951D01*
X268814Y731951D01*
X272350Y730486D01*
X275056Y727780D01*
X276521Y724244D01*
X276521Y720416D01*
X275056Y716880D01*
X272350Y714174D01*
X268814Y712709D01*
X264986Y712709D01*
G37*
%LPD*%
%LPC*%
G36*
X239586Y712709D02*
X239586Y712709D01*
X236050Y714174D01*
X233344Y716880D01*
X231879Y720416D01*
X231879Y724244D01*
X233344Y727780D01*
X236050Y730486D01*
X239586Y731951D01*
X243414Y731951D01*
X246950Y730486D01*
X249656Y727780D01*
X251121Y724244D01*
X251121Y720416D01*
X249656Y716880D01*
X246950Y714174D01*
X243414Y712709D01*
X239586Y712709D01*
G37*
%LPD*%
%LPC*%
G36*
X214186Y712709D02*
X214186Y712709D01*
X210650Y714174D01*
X207944Y716880D01*
X206479Y720416D01*
X206479Y724244D01*
X207944Y727780D01*
X210650Y730486D01*
X214186Y731951D01*
X218014Y731951D01*
X221550Y730486D01*
X224256Y727780D01*
X225721Y724244D01*
X225721Y720416D01*
X224256Y716880D01*
X221550Y714174D01*
X218014Y712709D01*
X214186Y712709D01*
G37*
%LPD*%
%LPC*%
G36*
X595186Y712709D02*
X595186Y712709D01*
X591650Y714174D01*
X588944Y716880D01*
X587479Y720416D01*
X587479Y724244D01*
X588944Y727780D01*
X591650Y730486D01*
X595186Y731951D01*
X599014Y731951D01*
X602550Y730486D01*
X605256Y727780D01*
X606721Y724244D01*
X606721Y720416D01*
X605256Y716880D01*
X602550Y714174D01*
X599014Y712709D01*
X595186Y712709D01*
G37*
%LPD*%
%LPC*%
G36*
X899786Y701579D02*
X899786Y701579D01*
X896250Y703044D01*
X893544Y705750D01*
X892079Y709286D01*
X892079Y713114D01*
X893544Y716650D01*
X896250Y719356D01*
X899786Y720821D01*
X903614Y720821D01*
X907150Y719356D01*
X909856Y716650D01*
X911321Y713114D01*
X911321Y709286D01*
X909856Y705750D01*
X907150Y703044D01*
X903614Y701579D01*
X899786Y701579D01*
G37*
%LPD*%
%LPC*%
G36*
X975986Y701579D02*
X975986Y701579D01*
X972450Y703044D01*
X969744Y705750D01*
X968279Y709286D01*
X968279Y713114D01*
X969744Y716650D01*
X972450Y719356D01*
X975986Y720821D01*
X979814Y720821D01*
X983350Y719356D01*
X986056Y716650D01*
X987521Y713114D01*
X987521Y709286D01*
X986056Y705750D01*
X983350Y703044D01*
X979814Y701579D01*
X975986Y701579D01*
G37*
%LPD*%
%LPC*%
G36*
X1026786Y701579D02*
X1026786Y701579D01*
X1023250Y703044D01*
X1020544Y705750D01*
X1019079Y709286D01*
X1019079Y713114D01*
X1020544Y716650D01*
X1023250Y719356D01*
X1026786Y720821D01*
X1030614Y720821D01*
X1034150Y719356D01*
X1036856Y716650D01*
X1038321Y713114D01*
X1038321Y709286D01*
X1036856Y705750D01*
X1034150Y703044D01*
X1030614Y701579D01*
X1026786Y701579D01*
G37*
%LPD*%
%LPC*%
G36*
X1052186Y701579D02*
X1052186Y701579D01*
X1048650Y703044D01*
X1045944Y705750D01*
X1044479Y709286D01*
X1044479Y713114D01*
X1045944Y716650D01*
X1048650Y719356D01*
X1052186Y720821D01*
X1056014Y720821D01*
X1059550Y719356D01*
X1062256Y716650D01*
X1063721Y713114D01*
X1063721Y709286D01*
X1062256Y705750D01*
X1059550Y703044D01*
X1056014Y701579D01*
X1052186Y701579D01*
G37*
%LPD*%
%LPC*%
G36*
X1001386Y701579D02*
X1001386Y701579D01*
X997850Y703044D01*
X995144Y705750D01*
X993679Y709286D01*
X993679Y713114D01*
X995144Y716650D01*
X997850Y719356D01*
X1001386Y720821D01*
X1005214Y720821D01*
X1008750Y719356D01*
X1011456Y716650D01*
X1012921Y713114D01*
X1012921Y709286D01*
X1011456Y705750D01*
X1008750Y703044D01*
X1005214Y701579D01*
X1001386Y701579D01*
G37*
%LPD*%
%LPC*%
G36*
X1077586Y701579D02*
X1077586Y701579D01*
X1074050Y703044D01*
X1071344Y705750D01*
X1069879Y709286D01*
X1069879Y713114D01*
X1071344Y716650D01*
X1074050Y719356D01*
X1077586Y720821D01*
X1081414Y720821D01*
X1084950Y719356D01*
X1087656Y716650D01*
X1089121Y713114D01*
X1089121Y709286D01*
X1087656Y705750D01*
X1084950Y703044D01*
X1081414Y701579D01*
X1077586Y701579D01*
G37*
%LPD*%
%LPC*%
G36*
X950586Y701579D02*
X950586Y701579D01*
X947050Y703044D01*
X944344Y705750D01*
X942879Y709286D01*
X942879Y713114D01*
X944344Y716650D01*
X947050Y719356D01*
X950586Y720821D01*
X954414Y720821D01*
X957950Y719356D01*
X960656Y716650D01*
X962121Y713114D01*
X962121Y709286D01*
X960656Y705750D01*
X957950Y703044D01*
X954414Y701579D01*
X950586Y701579D01*
G37*
%LPD*%
%LPC*%
G36*
X16786Y678679D02*
X16786Y678679D01*
X13250Y680144D01*
X10544Y682850D01*
X9079Y686386D01*
X9079Y690214D01*
X10544Y693750D01*
X13250Y696456D01*
X16786Y697921D01*
X20614Y697921D01*
X24150Y696456D01*
X26856Y693750D01*
X28321Y690214D01*
X28321Y686386D01*
X26856Y682850D01*
X24150Y680144D01*
X20614Y678679D01*
X16786Y678679D01*
G37*
%LPD*%
%LPC*%
G36*
X1028056Y959389D02*
X1028056Y959389D01*
X1024520Y960854D01*
X1021814Y963560D01*
X1020349Y967096D01*
X1020349Y970924D01*
X1021814Y974460D01*
X1024520Y977166D01*
X1028056Y978631D01*
X1031884Y978631D01*
X1035420Y977166D01*
X1038126Y974460D01*
X1039591Y970924D01*
X1039591Y967096D01*
X1038126Y963560D01*
X1035420Y960854D01*
X1031884Y959389D01*
X1028056Y959389D01*
G37*
%LPD*%
%LPC*%
G36*
X975986Y511079D02*
X975986Y511079D01*
X972450Y512544D01*
X969744Y515250D01*
X968279Y518786D01*
X968279Y522614D01*
X969744Y526150D01*
X972450Y528856D01*
X975986Y530321D01*
X979814Y530321D01*
X983350Y528856D01*
X986056Y526150D01*
X987521Y522614D01*
X987521Y518786D01*
X986056Y515250D01*
X983350Y512544D01*
X979814Y511079D01*
X975986Y511079D01*
G37*
%LPD*%
%LPC*%
G36*
X1001386Y511079D02*
X1001386Y511079D01*
X997850Y512544D01*
X995144Y515250D01*
X993679Y518786D01*
X993679Y522614D01*
X995144Y526150D01*
X997850Y528856D01*
X1001386Y530321D01*
X1005214Y530321D01*
X1008750Y528856D01*
X1011456Y526150D01*
X1012921Y522614D01*
X1012921Y518786D01*
X1011456Y515250D01*
X1008750Y512544D01*
X1005214Y511079D01*
X1001386Y511079D01*
G37*
%LPD*%
%LPC*%
G36*
X1077586Y472979D02*
X1077586Y472979D01*
X1074050Y474444D01*
X1071344Y477150D01*
X1069879Y480686D01*
X1069879Y484514D01*
X1071344Y488050D01*
X1074050Y490756D01*
X1077586Y492221D01*
X1081414Y492221D01*
X1084950Y490756D01*
X1087656Y488050D01*
X1089121Y484514D01*
X1089121Y480686D01*
X1087656Y477150D01*
X1084950Y474444D01*
X1081414Y472979D01*
X1077586Y472979D01*
G37*
%LPD*%
%LPC*%
G36*
X1052186Y472979D02*
X1052186Y472979D01*
X1048650Y474444D01*
X1045944Y477150D01*
X1044479Y480686D01*
X1044479Y484514D01*
X1045944Y488050D01*
X1048650Y490756D01*
X1052186Y492221D01*
X1056014Y492221D01*
X1059550Y490756D01*
X1062256Y488050D01*
X1063721Y484514D01*
X1063721Y480686D01*
X1062256Y477150D01*
X1059550Y474444D01*
X1056014Y472979D01*
X1052186Y472979D01*
G37*
%LPD*%
%LPC*%
G36*
X925186Y472979D02*
X925186Y472979D01*
X921650Y474444D01*
X918944Y477150D01*
X917479Y480686D01*
X917479Y484514D01*
X918944Y488050D01*
X921650Y490756D01*
X925186Y492221D01*
X929014Y492221D01*
X932550Y490756D01*
X935256Y488050D01*
X936721Y484514D01*
X936721Y480686D01*
X935256Y477150D01*
X932550Y474444D01*
X929014Y472979D01*
X925186Y472979D01*
G37*
%LPD*%
%LPC*%
G36*
X899786Y472979D02*
X899786Y472979D01*
X896250Y474444D01*
X893544Y477150D01*
X892079Y480686D01*
X892079Y484514D01*
X893544Y488050D01*
X896250Y490756D01*
X899786Y492221D01*
X903614Y492221D01*
X907150Y490756D01*
X909856Y488050D01*
X911321Y484514D01*
X911321Y480686D01*
X909856Y477150D01*
X907150Y474444D01*
X903614Y472979D01*
X899786Y472979D01*
G37*
%LPD*%
%LPC*%
G36*
X950586Y472979D02*
X950586Y472979D01*
X947050Y474444D01*
X944344Y477150D01*
X942879Y480686D01*
X942879Y484514D01*
X944344Y488050D01*
X947050Y490756D01*
X950586Y492221D01*
X954414Y492221D01*
X957950Y490756D01*
X960656Y488050D01*
X962121Y484514D01*
X962121Y480686D01*
X960656Y477150D01*
X957950Y474444D01*
X954414Y472979D01*
X950586Y472979D01*
G37*
%LPD*%
%LPC*%
G36*
X531486Y29749D02*
X531486Y29749D01*
X527950Y31214D01*
X525244Y33920D01*
X523779Y37456D01*
X523779Y41284D01*
X525244Y44820D01*
X527950Y47526D01*
X531486Y48991D01*
X535314Y48991D01*
X538850Y47526D01*
X541556Y44820D01*
X543021Y41284D01*
X543021Y37456D01*
X541556Y33920D01*
X538850Y31214D01*
X535314Y29749D01*
X531486Y29749D01*
G37*
%LPD*%
%LPC*%
G36*
X480686Y29749D02*
X480686Y29749D01*
X477150Y31214D01*
X474444Y33920D01*
X472979Y37456D01*
X472979Y41284D01*
X474444Y44820D01*
X477150Y47526D01*
X480686Y48991D01*
X484514Y48991D01*
X488050Y47526D01*
X490756Y44820D01*
X492221Y41284D01*
X492221Y37456D01*
X490756Y33920D01*
X488050Y31214D01*
X484514Y29749D01*
X480686Y29749D01*
G37*
%LPD*%
%LPC*%
G36*
X429886Y29749D02*
X429886Y29749D01*
X426350Y31214D01*
X423644Y33920D01*
X422179Y37456D01*
X422179Y41284D01*
X423644Y44820D01*
X426350Y47526D01*
X429886Y48991D01*
X433714Y48991D01*
X437250Y47526D01*
X439956Y44820D01*
X441421Y41284D01*
X441421Y37456D01*
X439956Y33920D01*
X437250Y31214D01*
X433714Y29749D01*
X429886Y29749D01*
G37*
%LPD*%
%LPC*%
G36*
X379086Y29749D02*
X379086Y29749D01*
X375550Y31214D01*
X372844Y33920D01*
X371379Y37456D01*
X371379Y41284D01*
X372844Y44820D01*
X375550Y47526D01*
X379086Y48991D01*
X382914Y48991D01*
X386450Y47526D01*
X389156Y44820D01*
X390621Y41284D01*
X390621Y37456D01*
X389156Y33920D01*
X386450Y31214D01*
X382914Y29749D01*
X379086Y29749D01*
G37*
%LPD*%
%LPC*%
G36*
X328286Y29749D02*
X328286Y29749D01*
X324750Y31214D01*
X322044Y33920D01*
X320579Y37456D01*
X320579Y41284D01*
X322044Y44820D01*
X324750Y47526D01*
X328286Y48991D01*
X332114Y48991D01*
X335650Y47526D01*
X338356Y44820D01*
X339821Y41284D01*
X339821Y37456D01*
X338356Y33920D01*
X335650Y31214D01*
X332114Y29749D01*
X328286Y29749D01*
G37*
%LPD*%
%LPC*%
G36*
X277486Y29749D02*
X277486Y29749D01*
X273950Y31214D01*
X271244Y33920D01*
X269779Y37456D01*
X269779Y41284D01*
X271244Y44820D01*
X273950Y47526D01*
X277486Y48991D01*
X281314Y48991D01*
X284850Y47526D01*
X287556Y44820D01*
X289021Y41284D01*
X289021Y37456D01*
X287556Y33920D01*
X284850Y31214D01*
X281314Y29749D01*
X277486Y29749D01*
G37*
%LPD*%
%LPC*%
G36*
X226686Y29749D02*
X226686Y29749D01*
X223150Y31214D01*
X220444Y33920D01*
X218979Y37456D01*
X218979Y41284D01*
X220444Y44820D01*
X223150Y47526D01*
X226686Y48991D01*
X230514Y48991D01*
X234050Y47526D01*
X236756Y44820D01*
X238221Y41284D01*
X238221Y37456D01*
X236756Y33920D01*
X234050Y31214D01*
X230514Y29749D01*
X226686Y29749D01*
G37*
%LPD*%
%LPC*%
G36*
X175886Y29749D02*
X175886Y29749D01*
X172350Y31214D01*
X169644Y33920D01*
X168179Y37456D01*
X168179Y41284D01*
X169644Y44820D01*
X172350Y47526D01*
X175886Y48991D01*
X179714Y48991D01*
X183250Y47526D01*
X185956Y44820D01*
X187421Y41284D01*
X187421Y37456D01*
X185956Y33920D01*
X183250Y31214D01*
X179714Y29749D01*
X175886Y29749D01*
G37*
%LPD*%
%LPC*%
G36*
X125086Y29749D02*
X125086Y29749D01*
X121550Y31214D01*
X118844Y33920D01*
X117379Y37456D01*
X117379Y41284D01*
X118844Y44820D01*
X121550Y47526D01*
X125086Y48991D01*
X128914Y48991D01*
X132450Y47526D01*
X135156Y44820D01*
X136621Y41284D01*
X136621Y37456D01*
X135156Y33920D01*
X132450Y31214D01*
X128914Y29749D01*
X125086Y29749D01*
G37*
%LPD*%
%LPC*%
G36*
X74286Y29749D02*
X74286Y29749D01*
X70750Y31214D01*
X68044Y33920D01*
X66579Y37456D01*
X66579Y41284D01*
X68044Y44820D01*
X70750Y47526D01*
X74286Y48991D01*
X78114Y48991D01*
X81650Y47526D01*
X84356Y44820D01*
X85821Y41284D01*
X85821Y37456D01*
X84356Y33920D01*
X81650Y31214D01*
X78114Y29749D01*
X74286Y29749D01*
G37*
%LPD*%
%LPC*%
G36*
X926388Y375895D02*
X926388Y375895D01*
X923226Y377205D01*
X920805Y379626D01*
X919495Y382788D01*
X919495Y386212D01*
X920805Y389374D01*
X923226Y391795D01*
X926388Y393105D01*
X929812Y393105D01*
X932974Y391795D01*
X935395Y389374D01*
X936705Y386212D01*
X936705Y382788D01*
X935395Y379626D01*
X932974Y377205D01*
X929812Y375895D01*
X926388Y375895D01*
G37*
%LPD*%
%LPC*%
G36*
X900988Y375895D02*
X900988Y375895D01*
X897826Y377205D01*
X895405Y379626D01*
X894095Y382788D01*
X894095Y386212D01*
X895405Y389374D01*
X897826Y391795D01*
X900988Y393105D01*
X904412Y393105D01*
X907574Y391795D01*
X909995Y389374D01*
X911305Y386212D01*
X911305Y382788D01*
X909995Y379626D01*
X907574Y377205D01*
X904412Y375895D01*
X900988Y375895D01*
G37*
%LPD*%
%LPC*%
G36*
X922618Y909685D02*
X922618Y909685D01*
X919456Y910995D01*
X917035Y913416D01*
X915725Y916578D01*
X915725Y920002D01*
X917035Y923164D01*
X919456Y925585D01*
X922618Y926895D01*
X926042Y926895D01*
X929204Y925585D01*
X931625Y923164D01*
X932935Y920002D01*
X932935Y916578D01*
X931625Y913416D01*
X929204Y910995D01*
X926042Y909685D01*
X922618Y909685D01*
G37*
%LPD*%
%LPC*%
G36*
X897218Y909685D02*
X897218Y909685D01*
X894056Y910995D01*
X891635Y913416D01*
X890325Y916578D01*
X890325Y920002D01*
X891635Y923164D01*
X894056Y925585D01*
X897218Y926895D01*
X900642Y926895D01*
X903804Y925585D01*
X906225Y923164D01*
X907535Y920002D01*
X907535Y916578D01*
X906225Y913416D01*
X903804Y910995D01*
X900642Y909685D01*
X897218Y909685D01*
G37*
%LPD*%
%LPC*%
G36*
X923988Y655595D02*
X923988Y655595D01*
X920826Y656905D01*
X918405Y659326D01*
X917095Y662488D01*
X917095Y665912D01*
X918405Y669074D01*
X920826Y671495D01*
X923988Y672805D01*
X927412Y672805D01*
X930574Y671495D01*
X932995Y669074D01*
X934305Y665912D01*
X934305Y662488D01*
X932995Y659326D01*
X930574Y656905D01*
X927412Y655595D01*
X923988Y655595D01*
G37*
%LPD*%
%LPC*%
G36*
X898588Y655595D02*
X898588Y655595D01*
X895426Y656905D01*
X893005Y659326D01*
X891695Y662488D01*
X891695Y665912D01*
X893005Y669074D01*
X895426Y671495D01*
X898588Y672805D01*
X902012Y672805D01*
X905174Y671495D01*
X907595Y669074D01*
X908905Y665912D01*
X908905Y662488D01*
X907595Y659326D01*
X905174Y656905D01*
X902012Y655595D01*
X898588Y655595D01*
G37*
%LPD*%
%LPC*%
G36*
X150688Y404145D02*
X150688Y404145D01*
X147526Y405455D01*
X145105Y407876D01*
X143795Y411038D01*
X143795Y414462D01*
X145105Y417624D01*
X147526Y420045D01*
X150688Y421355D01*
X154112Y421355D01*
X157274Y420045D01*
X159695Y417624D01*
X161005Y414462D01*
X161005Y411038D01*
X159695Y407876D01*
X157274Y405455D01*
X154112Y404145D01*
X150688Y404145D01*
G37*
%LPD*%
%LPC*%
G36*
X87188Y404145D02*
X87188Y404145D01*
X84026Y405455D01*
X81605Y407876D01*
X80295Y411038D01*
X80295Y414462D01*
X81605Y417624D01*
X84026Y420045D01*
X87188Y421355D01*
X90612Y421355D01*
X93774Y420045D01*
X96195Y417624D01*
X97505Y414462D01*
X97505Y411038D01*
X96195Y407876D01*
X93774Y405455D01*
X90612Y404145D01*
X87188Y404145D01*
G37*
%LPD*%
%LPC*%
G36*
X163388Y385095D02*
X163388Y385095D01*
X160226Y386405D01*
X157805Y388826D01*
X156495Y391988D01*
X156495Y395412D01*
X157805Y398574D01*
X160226Y400995D01*
X163388Y402305D01*
X166812Y402305D01*
X169974Y400995D01*
X172395Y398574D01*
X173705Y395412D01*
X173705Y391988D01*
X172395Y388826D01*
X169974Y386405D01*
X166812Y385095D01*
X163388Y385095D01*
G37*
%LPD*%
%LPC*%
G36*
X137988Y385095D02*
X137988Y385095D01*
X134826Y386405D01*
X132405Y388826D01*
X131095Y391988D01*
X131095Y395412D01*
X132405Y398574D01*
X134826Y400995D01*
X137988Y402305D01*
X141412Y402305D01*
X144574Y400995D01*
X146995Y398574D01*
X148305Y395412D01*
X148305Y391988D01*
X146995Y388826D01*
X144574Y386405D01*
X141412Y385095D01*
X137988Y385095D01*
G37*
%LPD*%
%LPC*%
G36*
X99888Y385095D02*
X99888Y385095D01*
X96726Y386405D01*
X94305Y388826D01*
X92995Y391988D01*
X92995Y395412D01*
X94305Y398574D01*
X96726Y400995D01*
X99888Y402305D01*
X103312Y402305D01*
X106474Y400995D01*
X108895Y398574D01*
X110205Y395412D01*
X110205Y391988D01*
X108895Y388826D01*
X106474Y386405D01*
X103312Y385095D01*
X99888Y385095D01*
G37*
%LPD*%
%LPC*%
G36*
X74488Y385095D02*
X74488Y385095D01*
X71326Y386405D01*
X68905Y388826D01*
X67595Y391988D01*
X67595Y395412D01*
X68905Y398574D01*
X71326Y400995D01*
X74488Y402305D01*
X77912Y402305D01*
X81074Y400995D01*
X83495Y398574D01*
X84805Y395412D01*
X84805Y391988D01*
X83495Y388826D01*
X81074Y386405D01*
X77912Y385095D01*
X74488Y385095D01*
G37*
%LPD*%
%LPC*%
G36*
X13958Y946054D02*
X13958Y946054D01*
X11589Y947036D01*
X9776Y948849D01*
X8794Y951218D01*
X8794Y953782D01*
X9776Y956151D01*
X11589Y957964D01*
X12710Y958429D01*
X12793Y958480D01*
X12879Y958526D01*
X12896Y958544D01*
X12919Y958558D01*
X12981Y958634D01*
X13048Y958704D01*
X13059Y958728D01*
X13076Y958748D01*
X13110Y958839D01*
X13152Y958927D01*
X13154Y958953D01*
X13164Y958977D01*
X13168Y959075D01*
X13179Y959171D01*
X13173Y959197D01*
X13174Y959223D01*
X13147Y959317D01*
X13126Y959412D01*
X13113Y959434D01*
X13106Y959459D01*
X13050Y959539D01*
X13000Y959623D01*
X12980Y959640D01*
X12965Y959661D01*
X12887Y959720D01*
X12813Y959783D01*
X12789Y959793D01*
X12768Y959808D01*
X12676Y959838D01*
X12585Y959875D01*
X12553Y959878D01*
X12534Y959884D01*
X12501Y959884D01*
X12418Y959893D01*
X11744Y959893D01*
X8635Y963002D01*
X8635Y967398D01*
X11744Y970507D01*
X16140Y970507D01*
X19249Y967398D01*
X19249Y963002D01*
X16388Y960141D01*
X16361Y960103D01*
X16327Y960072D01*
X16289Y960004D01*
X16244Y959941D01*
X16231Y959897D01*
X16208Y959857D01*
X16195Y959780D01*
X16172Y959706D01*
X16173Y959660D01*
X16165Y959615D01*
X16176Y959538D01*
X16178Y959460D01*
X16194Y959417D01*
X16201Y959372D01*
X16236Y959302D01*
X16263Y959229D01*
X16291Y959193D01*
X16312Y959152D01*
X16368Y959098D01*
X16416Y959037D01*
X16455Y959012D01*
X16488Y958980D01*
X16607Y958914D01*
X16623Y958904D01*
X16628Y958903D01*
X16635Y958899D01*
X18891Y957964D01*
X20704Y956151D01*
X21686Y953782D01*
X21686Y951218D01*
X20704Y948849D01*
X18891Y947036D01*
X16522Y946054D01*
X13958Y946054D01*
G37*
%LPD*%
%LPC*%
G36*
X56147Y574172D02*
X56147Y574172D01*
X56072Y574247D01*
X56072Y584353D01*
X56147Y584428D01*
X77253Y584428D01*
X77328Y584353D01*
X77328Y574247D01*
X77253Y574172D01*
X56147Y574172D01*
G37*
%LPD*%
%LPC*%
G36*
X176648Y738037D02*
X176648Y738037D01*
X173539Y741146D01*
X173539Y745542D01*
X176648Y748651D01*
X181044Y748651D01*
X183217Y746478D01*
X183233Y746467D01*
X183245Y746451D01*
X183333Y746395D01*
X183416Y746335D01*
X183435Y746329D01*
X183452Y746318D01*
X183553Y746293D01*
X183652Y746262D01*
X183671Y746263D01*
X183691Y746258D01*
X183794Y746266D01*
X183897Y746269D01*
X183916Y746275D01*
X183936Y746277D01*
X184031Y746317D01*
X184128Y746353D01*
X184144Y746366D01*
X184162Y746373D01*
X184293Y746478D01*
X187302Y749487D01*
X191698Y749487D01*
X194807Y746378D01*
X194807Y741982D01*
X191698Y738873D01*
X187302Y738873D01*
X185129Y741046D01*
X185113Y741057D01*
X185101Y741073D01*
X185013Y741129D01*
X184930Y741189D01*
X184911Y741195D01*
X184894Y741206D01*
X184793Y741231D01*
X184694Y741262D01*
X184675Y741261D01*
X184655Y741266D01*
X184552Y741258D01*
X184449Y741255D01*
X184430Y741249D01*
X184410Y741247D01*
X184315Y741207D01*
X184218Y741171D01*
X184202Y741158D01*
X184184Y741151D01*
X184053Y741046D01*
X181044Y738037D01*
X176648Y738037D01*
G37*
%LPD*%
%LPC*%
G36*
X1034820Y590629D02*
X1034820Y590629D01*
X1032048Y591777D01*
X1029927Y593898D01*
X1028779Y596670D01*
X1028779Y599670D01*
X1029927Y602442D01*
X1032048Y604563D01*
X1034820Y605711D01*
X1037820Y605711D01*
X1040592Y604563D01*
X1042713Y602442D01*
X1043861Y599670D01*
X1043861Y596670D01*
X1042713Y593898D01*
X1040592Y591777D01*
X1037820Y590629D01*
X1034820Y590629D01*
G37*
%LPD*%
%LPC*%
G36*
X1037360Y318849D02*
X1037360Y318849D01*
X1034588Y319997D01*
X1032467Y322118D01*
X1031319Y324890D01*
X1031319Y327890D01*
X1032467Y330662D01*
X1034588Y332783D01*
X1037360Y333931D01*
X1040360Y333931D01*
X1043132Y332783D01*
X1045253Y330662D01*
X1046401Y327890D01*
X1046401Y324890D01*
X1045253Y322118D01*
X1043132Y319997D01*
X1040360Y318849D01*
X1037360Y318849D01*
G37*
%LPD*%
%LPC*%
G36*
X1037360Y857329D02*
X1037360Y857329D01*
X1034588Y858477D01*
X1032467Y860598D01*
X1031319Y863370D01*
X1031319Y866370D01*
X1032467Y869142D01*
X1034588Y871263D01*
X1037360Y872411D01*
X1040360Y872411D01*
X1043132Y871263D01*
X1045253Y869142D01*
X1046401Y866370D01*
X1046401Y863370D01*
X1045253Y860598D01*
X1043132Y858477D01*
X1040360Y857329D01*
X1037360Y857329D01*
G37*
%LPD*%
%LPC*%
G36*
X17147Y660172D02*
X17147Y660172D01*
X17072Y660247D01*
X17072Y670353D01*
X17147Y670428D01*
X33253Y670428D01*
X33328Y670353D01*
X33328Y660247D01*
X33253Y660172D01*
X17147Y660172D01*
G37*
%LPD*%
%LPC*%
G36*
X17147Y574172D02*
X17147Y574172D01*
X17072Y574247D01*
X17072Y584353D01*
X17147Y584428D01*
X33253Y584428D01*
X33328Y584353D01*
X33328Y574247D01*
X33253Y574172D01*
X17147Y574172D01*
G37*
%LPD*%
%LPC*%
G36*
X61302Y159793D02*
X61302Y159793D01*
X58193Y162902D01*
X58193Y167298D01*
X61302Y170407D01*
X65698Y170407D01*
X68807Y167298D01*
X68807Y162902D01*
X65698Y159793D01*
X61302Y159793D01*
G37*
%LPD*%
%LPC*%
G36*
X44792Y736373D02*
X44792Y736373D01*
X41683Y739482D01*
X41683Y743878D01*
X44792Y746987D01*
X49188Y746987D01*
X52297Y743878D01*
X52297Y739482D01*
X49188Y736373D01*
X44792Y736373D01*
G37*
%LPD*%
%LPC*%
G36*
X245170Y743993D02*
X245170Y743993D01*
X242061Y747102D01*
X242061Y751498D01*
X245170Y754607D01*
X249566Y754607D01*
X252675Y751498D01*
X252675Y747102D01*
X249566Y743993D01*
X245170Y743993D01*
G37*
%LPD*%
%LPC*%
G36*
X29552Y768123D02*
X29552Y768123D01*
X26443Y771232D01*
X26443Y775628D01*
X29552Y778737D01*
X33948Y778737D01*
X37057Y775628D01*
X37057Y771232D01*
X33948Y768123D01*
X29552Y768123D01*
G37*
%LPD*%
%LPC*%
G36*
X233034Y769393D02*
X233034Y769393D01*
X229925Y772502D01*
X229925Y776898D01*
X233034Y780007D01*
X237430Y780007D01*
X240539Y776898D01*
X240539Y772502D01*
X237430Y769393D01*
X233034Y769393D01*
G37*
%LPD*%
%LPC*%
G36*
X29552Y783363D02*
X29552Y783363D01*
X26443Y786472D01*
X26443Y790868D01*
X29552Y793977D01*
X33948Y793977D01*
X37057Y790868D01*
X37057Y786472D01*
X33948Y783363D01*
X29552Y783363D01*
G37*
%LPD*%
%LPC*%
G36*
X245170Y788051D02*
X245170Y788051D01*
X242061Y791160D01*
X242061Y795556D01*
X245170Y798665D01*
X249566Y798665D01*
X252675Y795556D01*
X252675Y791160D01*
X249566Y788051D01*
X245170Y788051D01*
G37*
%LPD*%
%LPC*%
G36*
X917282Y788443D02*
X917282Y788443D01*
X914173Y791552D01*
X914173Y795948D01*
X917282Y799057D01*
X921678Y799057D01*
X924787Y795948D01*
X924787Y791552D01*
X921678Y788443D01*
X917282Y788443D01*
G37*
%LPD*%
%LPC*%
G36*
X232470Y794793D02*
X232470Y794793D01*
X229361Y797902D01*
X229361Y802298D01*
X232470Y805407D01*
X236866Y805407D01*
X239975Y802298D01*
X239975Y797902D01*
X236866Y794793D01*
X232470Y794793D01*
G37*
%LPD*%
%LPC*%
G36*
X30822Y798603D02*
X30822Y798603D01*
X27713Y801712D01*
X27713Y806108D01*
X30822Y809217D01*
X35218Y809217D01*
X38327Y806108D01*
X38327Y801712D01*
X35218Y798603D01*
X30822Y798603D01*
G37*
%LPD*%
%LPC*%
G36*
X486752Y639853D02*
X486752Y639853D01*
X483643Y642962D01*
X483643Y647358D01*
X486752Y650467D01*
X491148Y650467D01*
X494257Y647358D01*
X494257Y642962D01*
X491148Y639853D01*
X486752Y639853D01*
G37*
%LPD*%
%LPC*%
G36*
X988402Y591593D02*
X988402Y591593D01*
X985293Y594702D01*
X985293Y599098D01*
X988402Y602207D01*
X992798Y602207D01*
X995907Y599098D01*
X995907Y594702D01*
X992798Y591593D01*
X988402Y591593D01*
G37*
%LPD*%
%LPC*%
G36*
X1001302Y582493D02*
X1001302Y582493D01*
X998193Y585602D01*
X998193Y589998D01*
X1001302Y593107D01*
X1005698Y593107D01*
X1008807Y589998D01*
X1008807Y585602D01*
X1005698Y582493D01*
X1001302Y582493D01*
G37*
%LPD*%
%LPC*%
G36*
X976802Y581993D02*
X976802Y581993D01*
X973693Y585102D01*
X973693Y589498D01*
X976802Y592607D01*
X981198Y592607D01*
X984307Y589498D01*
X984307Y585102D01*
X981198Y581993D01*
X976802Y581993D01*
G37*
%LPD*%
%LPC*%
G36*
X84162Y535713D02*
X84162Y535713D01*
X81053Y538822D01*
X81053Y543218D01*
X84162Y546327D01*
X88558Y546327D01*
X91667Y543218D01*
X91667Y538822D01*
X88558Y535713D01*
X84162Y535713D01*
G37*
%LPD*%
%LPC*%
G36*
X281302Y372693D02*
X281302Y372693D01*
X278193Y375802D01*
X278193Y380198D01*
X281302Y383307D01*
X285698Y383307D01*
X288807Y380198D01*
X288807Y375802D01*
X285698Y372693D01*
X281302Y372693D01*
G37*
%LPD*%
%LPC*%
G36*
X958462Y353293D02*
X958462Y353293D01*
X955353Y356402D01*
X955353Y360798D01*
X958462Y363907D01*
X962858Y363907D01*
X965967Y360798D01*
X965967Y356402D01*
X962858Y353293D01*
X958462Y353293D01*
G37*
%LPD*%
%LPC*%
G36*
X1020152Y351563D02*
X1020152Y351563D01*
X1017043Y354672D01*
X1017043Y359068D01*
X1020152Y362177D01*
X1024548Y362177D01*
X1027657Y359068D01*
X1027657Y354672D01*
X1024548Y351563D01*
X1020152Y351563D01*
G37*
%LPD*%
%LPC*%
G36*
X213702Y350293D02*
X213702Y350293D01*
X210593Y353402D01*
X210593Y357798D01*
X213702Y360907D01*
X218098Y360907D01*
X221207Y357798D01*
X221207Y353402D01*
X218098Y350293D01*
X213702Y350293D01*
G37*
%LPD*%
%LPC*%
G36*
X201002Y350293D02*
X201002Y350293D01*
X197893Y353402D01*
X197893Y357798D01*
X201002Y360907D01*
X205398Y360907D01*
X208507Y357798D01*
X208507Y353402D01*
X205398Y350293D01*
X201002Y350293D01*
G37*
%LPD*%
%LPC*%
G36*
X188302Y350293D02*
X188302Y350293D01*
X185193Y353402D01*
X185193Y357798D01*
X188302Y360907D01*
X192698Y360907D01*
X195807Y357798D01*
X195807Y353402D01*
X192698Y350293D01*
X188302Y350293D01*
G37*
%LPD*%
%LPC*%
G36*
X976702Y338093D02*
X976702Y338093D01*
X973593Y341202D01*
X973593Y345598D01*
X976702Y348707D01*
X981098Y348707D01*
X984207Y345598D01*
X984207Y341202D01*
X981098Y338093D01*
X976702Y338093D01*
G37*
%LPD*%
%LPC*%
G36*
X201002Y337593D02*
X201002Y337593D01*
X197893Y340702D01*
X197893Y345098D01*
X201002Y348207D01*
X205398Y348207D01*
X208507Y345098D01*
X208507Y340702D01*
X205398Y337593D01*
X201002Y337593D01*
G37*
%LPD*%
%LPC*%
G36*
X188302Y337593D02*
X188302Y337593D01*
X185193Y340702D01*
X185193Y345098D01*
X188302Y348207D01*
X192698Y348207D01*
X195807Y345098D01*
X195807Y340702D01*
X192698Y337593D01*
X188302Y337593D01*
G37*
%LPD*%
%LPC*%
G36*
X1001102Y337593D02*
X1001102Y337593D01*
X997993Y340702D01*
X997993Y345098D01*
X1001102Y348207D01*
X1005498Y348207D01*
X1008607Y345098D01*
X1008607Y340702D01*
X1005498Y337593D01*
X1001102Y337593D01*
G37*
%LPD*%
%LPC*%
G36*
X213702Y337593D02*
X213702Y337593D01*
X210593Y340702D01*
X210593Y345098D01*
X213702Y348207D01*
X218098Y348207D01*
X221207Y345098D01*
X221207Y340702D01*
X218098Y337593D01*
X213702Y337593D01*
G37*
%LPD*%
%LPC*%
G36*
X988402Y324893D02*
X988402Y324893D01*
X985293Y328002D01*
X985293Y332398D01*
X988402Y335507D01*
X992798Y335507D01*
X995907Y332398D01*
X995907Y328002D01*
X992798Y324893D01*
X988402Y324893D01*
G37*
%LPD*%
%LPC*%
G36*
X213702Y324893D02*
X213702Y324893D01*
X210593Y328002D01*
X210593Y332398D01*
X213702Y335507D01*
X218098Y335507D01*
X221207Y332398D01*
X221207Y328002D01*
X218098Y324893D01*
X213702Y324893D01*
G37*
%LPD*%
%LPC*%
G36*
X201002Y324893D02*
X201002Y324893D01*
X197893Y328002D01*
X197893Y332398D01*
X201002Y335507D01*
X205398Y335507D01*
X208507Y332398D01*
X208507Y328002D01*
X205398Y324893D01*
X201002Y324893D01*
G37*
%LPD*%
%LPC*%
G36*
X188302Y324893D02*
X188302Y324893D01*
X185193Y328002D01*
X185193Y332398D01*
X188302Y335507D01*
X192698Y335507D01*
X195807Y332398D01*
X195807Y328002D01*
X192698Y324893D01*
X188302Y324893D01*
G37*
%LPD*%
%LPC*%
G36*
X1001302Y315793D02*
X1001302Y315793D01*
X998193Y318902D01*
X998193Y323298D01*
X1001302Y326407D01*
X1005698Y326407D01*
X1008807Y323298D01*
X1008807Y318902D01*
X1005698Y315793D01*
X1001302Y315793D01*
G37*
%LPD*%
%LPC*%
G36*
X976802Y315293D02*
X976802Y315293D01*
X973693Y318402D01*
X973693Y322798D01*
X976802Y325907D01*
X981198Y325907D01*
X984307Y322798D01*
X984307Y318402D01*
X981198Y315293D01*
X976802Y315293D01*
G37*
%LPD*%
%LPC*%
G36*
X213702Y312193D02*
X213702Y312193D01*
X210593Y315302D01*
X210593Y319698D01*
X213702Y322807D01*
X218098Y322807D01*
X221207Y319698D01*
X221207Y315302D01*
X218098Y312193D01*
X213702Y312193D01*
G37*
%LPD*%
%LPC*%
G36*
X201002Y312193D02*
X201002Y312193D01*
X197893Y315302D01*
X197893Y319698D01*
X201002Y322807D01*
X205398Y322807D01*
X208507Y319698D01*
X208507Y315302D01*
X205398Y312193D01*
X201002Y312193D01*
G37*
%LPD*%
%LPC*%
G36*
X188302Y312193D02*
X188302Y312193D01*
X185193Y315302D01*
X185193Y319698D01*
X188302Y322807D01*
X192698Y322807D01*
X195807Y319698D01*
X195807Y315302D01*
X192698Y312193D01*
X188302Y312193D01*
G37*
%LPD*%
%LPC*%
G36*
X213702Y299493D02*
X213702Y299493D01*
X210593Y302602D01*
X210593Y306998D01*
X213702Y310107D01*
X218098Y310107D01*
X221207Y306998D01*
X221207Y302602D01*
X218098Y299493D01*
X213702Y299493D01*
G37*
%LPD*%
%LPC*%
G36*
X201002Y299493D02*
X201002Y299493D01*
X197893Y302602D01*
X197893Y306998D01*
X201002Y310107D01*
X205398Y310107D01*
X208507Y306998D01*
X208507Y302602D01*
X205398Y299493D01*
X201002Y299493D01*
G37*
%LPD*%
%LPC*%
G36*
X188302Y299493D02*
X188302Y299493D01*
X185193Y302602D01*
X185193Y306998D01*
X188302Y310107D01*
X192698Y310107D01*
X195807Y306998D01*
X195807Y302602D01*
X192698Y299493D01*
X188302Y299493D01*
G37*
%LPD*%
%LPC*%
G36*
X245170Y807493D02*
X245170Y807493D01*
X242061Y810602D01*
X242061Y814998D01*
X245170Y818107D01*
X249566Y818107D01*
X252675Y814998D01*
X252675Y810602D01*
X249566Y807493D01*
X245170Y807493D01*
G37*
%LPD*%
%LPC*%
G36*
X28282Y827813D02*
X28282Y827813D01*
X25173Y830922D01*
X25173Y835318D01*
X28282Y838427D01*
X32678Y838427D01*
X35787Y835318D01*
X35787Y830922D01*
X32678Y827813D01*
X28282Y827813D01*
G37*
%LPD*%
%LPC*%
G36*
X28282Y933223D02*
X28282Y933223D01*
X25173Y936332D01*
X25173Y940728D01*
X28282Y943837D01*
X32678Y943837D01*
X35787Y940728D01*
X35787Y936332D01*
X32678Y933223D01*
X28282Y933223D01*
G37*
%LPD*%
%LPC*%
G36*
X289902Y223293D02*
X289902Y223293D01*
X286793Y226402D01*
X286793Y230798D01*
X289902Y233907D01*
X294298Y233907D01*
X297407Y230798D01*
X297407Y226402D01*
X294298Y223293D01*
X289902Y223293D01*
G37*
%LPD*%
%LPC*%
G36*
X976802Y848693D02*
X976802Y848693D01*
X973693Y851802D01*
X973693Y856198D01*
X976802Y859307D01*
X981198Y859307D01*
X984307Y856198D01*
X984307Y851802D01*
X981198Y848693D01*
X976802Y848693D01*
G37*
%LPD*%
%LPC*%
G36*
X1001302Y849193D02*
X1001302Y849193D01*
X998193Y852302D01*
X998193Y856698D01*
X1001302Y859807D01*
X1005698Y859807D01*
X1008807Y856698D01*
X1008807Y852302D01*
X1005698Y849193D01*
X1001302Y849193D01*
G37*
%LPD*%
%LPC*%
G36*
X496912Y858293D02*
X496912Y858293D01*
X493803Y861402D01*
X493803Y865798D01*
X496912Y868907D01*
X501308Y868907D01*
X504417Y865798D01*
X504417Y861402D01*
X501308Y858293D01*
X496912Y858293D01*
G37*
%LPD*%
%LPC*%
G36*
X988402Y858293D02*
X988402Y858293D01*
X985293Y861402D01*
X985293Y865798D01*
X988402Y868907D01*
X992798Y868907D01*
X995907Y865798D01*
X995907Y861402D01*
X992798Y858293D01*
X988402Y858293D01*
G37*
%LPD*%
%LPC*%
G36*
X1001102Y870993D02*
X1001102Y870993D01*
X997993Y874102D01*
X997993Y878498D01*
X1001102Y881607D01*
X1005498Y881607D01*
X1008607Y878498D01*
X1008607Y874102D01*
X1005498Y870993D01*
X1001102Y870993D01*
G37*
%LPD*%
%LPC*%
G36*
X976702Y871493D02*
X976702Y871493D01*
X973593Y874602D01*
X973593Y878998D01*
X976702Y882107D01*
X981098Y882107D01*
X984207Y878998D01*
X984207Y874602D01*
X981098Y871493D01*
X976702Y871493D01*
G37*
%LPD*%
%LPC*%
G36*
X959192Y886233D02*
X959192Y886233D01*
X956083Y889342D01*
X956083Y893738D01*
X959192Y896847D01*
X963588Y896847D01*
X966697Y893738D01*
X966697Y889342D01*
X963588Y886233D01*
X959192Y886233D01*
G37*
%LPD*%
%LPC*%
G36*
X188302Y197893D02*
X188302Y197893D01*
X185193Y201002D01*
X185193Y205398D01*
X188302Y208507D01*
X192698Y208507D01*
X195807Y205398D01*
X195807Y201002D01*
X192698Y197893D01*
X188302Y197893D01*
G37*
%LPD*%
%LPC*%
G36*
X74002Y197893D02*
X74002Y197893D01*
X70893Y201002D01*
X70893Y205398D01*
X74002Y208507D01*
X78398Y208507D01*
X81507Y205398D01*
X81507Y201002D01*
X78398Y197893D01*
X74002Y197893D01*
G37*
%LPD*%
%LPC*%
G36*
X61302Y197893D02*
X61302Y197893D01*
X58193Y201002D01*
X58193Y205398D01*
X61302Y208507D01*
X65698Y208507D01*
X68807Y205398D01*
X68807Y201002D01*
X65698Y197893D01*
X61302Y197893D01*
G37*
%LPD*%
%LPC*%
G36*
X48602Y197893D02*
X48602Y197893D01*
X45493Y201002D01*
X45493Y205398D01*
X48602Y208507D01*
X52998Y208507D01*
X56107Y205398D01*
X56107Y201002D01*
X52998Y197893D01*
X48602Y197893D01*
G37*
%LPD*%
%LPC*%
G36*
X213702Y197893D02*
X213702Y197893D01*
X210593Y201002D01*
X210593Y205398D01*
X213702Y208507D01*
X218098Y208507D01*
X221207Y205398D01*
X221207Y201002D01*
X218098Y197893D01*
X213702Y197893D01*
G37*
%LPD*%
%LPC*%
G36*
X201002Y197893D02*
X201002Y197893D01*
X197893Y201002D01*
X197893Y205398D01*
X201002Y208507D01*
X205398Y208507D01*
X208507Y205398D01*
X208507Y201002D01*
X205398Y197893D01*
X201002Y197893D01*
G37*
%LPD*%
%LPC*%
G36*
X1020152Y886233D02*
X1020152Y886233D01*
X1017043Y889342D01*
X1017043Y893738D01*
X1020152Y896847D01*
X1024548Y896847D01*
X1027657Y893738D01*
X1027657Y889342D01*
X1024548Y886233D01*
X1020152Y886233D01*
G37*
%LPD*%
%LPC*%
G36*
X213702Y185193D02*
X213702Y185193D01*
X210593Y188302D01*
X210593Y192698D01*
X213702Y195807D01*
X218098Y195807D01*
X221207Y192698D01*
X221207Y188302D01*
X218098Y185193D01*
X213702Y185193D01*
G37*
%LPD*%
%LPC*%
G36*
X201002Y185193D02*
X201002Y185193D01*
X197893Y188302D01*
X197893Y192698D01*
X201002Y195807D01*
X205398Y195807D01*
X208507Y192698D01*
X208507Y188302D01*
X205398Y185193D01*
X201002Y185193D01*
G37*
%LPD*%
%LPC*%
G36*
X188302Y185193D02*
X188302Y185193D01*
X185193Y188302D01*
X185193Y192698D01*
X188302Y195807D01*
X192698Y195807D01*
X195807Y192698D01*
X195807Y188302D01*
X192698Y185193D01*
X188302Y185193D01*
G37*
%LPD*%
%LPC*%
G36*
X74002Y185193D02*
X74002Y185193D01*
X70893Y188302D01*
X70893Y192698D01*
X74002Y195807D01*
X78398Y195807D01*
X81507Y192698D01*
X81507Y188302D01*
X78398Y185193D01*
X74002Y185193D01*
G37*
%LPD*%
%LPC*%
G36*
X61302Y185193D02*
X61302Y185193D01*
X58193Y188302D01*
X58193Y192698D01*
X61302Y195807D01*
X65698Y195807D01*
X68807Y192698D01*
X68807Y188302D01*
X65698Y185193D01*
X61302Y185193D01*
G37*
%LPD*%
%LPC*%
G36*
X48602Y185193D02*
X48602Y185193D01*
X45493Y188302D01*
X45493Y192698D01*
X48602Y195807D01*
X52998Y195807D01*
X56107Y192698D01*
X56107Y188302D01*
X52998Y185193D01*
X48602Y185193D01*
G37*
%LPD*%
%LPC*%
G36*
X213702Y172493D02*
X213702Y172493D01*
X210593Y175602D01*
X210593Y179998D01*
X213702Y183107D01*
X218098Y183107D01*
X221207Y179998D01*
X221207Y175602D01*
X218098Y172493D01*
X213702Y172493D01*
G37*
%LPD*%
%LPC*%
G36*
X201002Y172493D02*
X201002Y172493D01*
X197893Y175602D01*
X197893Y179998D01*
X201002Y183107D01*
X205398Y183107D01*
X208507Y179998D01*
X208507Y175602D01*
X205398Y172493D01*
X201002Y172493D01*
G37*
%LPD*%
%LPC*%
G36*
X188302Y172493D02*
X188302Y172493D01*
X185193Y175602D01*
X185193Y179998D01*
X188302Y183107D01*
X192698Y183107D01*
X195807Y179998D01*
X195807Y175602D01*
X192698Y172493D01*
X188302Y172493D01*
G37*
%LPD*%
%LPC*%
G36*
X74002Y172493D02*
X74002Y172493D01*
X70893Y175602D01*
X70893Y179998D01*
X74002Y183107D01*
X78398Y183107D01*
X81507Y179998D01*
X81507Y175602D01*
X78398Y172493D01*
X74002Y172493D01*
G37*
%LPD*%
%LPC*%
G36*
X61302Y172493D02*
X61302Y172493D01*
X58193Y175602D01*
X58193Y179998D01*
X61302Y183107D01*
X65698Y183107D01*
X68807Y179998D01*
X68807Y175602D01*
X65698Y172493D01*
X61302Y172493D01*
G37*
%LPD*%
%LPC*%
G36*
X48602Y172493D02*
X48602Y172493D01*
X45493Y175602D01*
X45493Y179998D01*
X48602Y183107D01*
X52998Y183107D01*
X56107Y179998D01*
X56107Y175602D01*
X52998Y172493D01*
X48602Y172493D01*
G37*
%LPD*%
%LPC*%
G36*
X188302Y159793D02*
X188302Y159793D01*
X185193Y162902D01*
X185193Y167298D01*
X188302Y170407D01*
X192698Y170407D01*
X195807Y167298D01*
X195807Y162902D01*
X192698Y159793D01*
X188302Y159793D01*
G37*
%LPD*%
%LPC*%
G36*
X74002Y159793D02*
X74002Y159793D01*
X70893Y162902D01*
X70893Y167298D01*
X74002Y170407D01*
X78398Y170407D01*
X81507Y167298D01*
X81507Y162902D01*
X78398Y159793D01*
X74002Y159793D01*
G37*
%LPD*%
%LPC*%
G36*
X922362Y247027D02*
X922362Y247027D01*
X919253Y250136D01*
X919253Y254532D01*
X922362Y257641D01*
X926758Y257641D01*
X929867Y254532D01*
X929867Y250136D01*
X926758Y247027D01*
X922362Y247027D01*
G37*
%LPD*%
%LPC*%
G36*
X48602Y159793D02*
X48602Y159793D01*
X45493Y162902D01*
X45493Y167298D01*
X48602Y170407D01*
X52998Y170407D01*
X56107Y167298D01*
X56107Y162902D01*
X52998Y159793D01*
X48602Y159793D01*
G37*
%LPD*%
%LPC*%
G36*
X213702Y159793D02*
X213702Y159793D01*
X210593Y162902D01*
X210593Y167298D01*
X213702Y170407D01*
X218098Y170407D01*
X221207Y167298D01*
X221207Y162902D01*
X218098Y159793D01*
X213702Y159793D01*
G37*
%LPD*%
%LPC*%
G36*
X201002Y159793D02*
X201002Y159793D01*
X197893Y162902D01*
X197893Y167298D01*
X201002Y170407D01*
X205398Y170407D01*
X208507Y167298D01*
X208507Y162902D01*
X205398Y159793D01*
X201002Y159793D01*
G37*
%LPD*%
%LPC*%
G36*
X188302Y147093D02*
X188302Y147093D01*
X185193Y150202D01*
X185193Y154598D01*
X188302Y157707D01*
X192698Y157707D01*
X195807Y154598D01*
X195807Y150202D01*
X192698Y147093D01*
X188302Y147093D01*
G37*
%LPD*%
%LPC*%
G36*
X74002Y147093D02*
X74002Y147093D01*
X70893Y150202D01*
X70893Y154598D01*
X74002Y157707D01*
X78398Y157707D01*
X81507Y154598D01*
X81507Y150202D01*
X78398Y147093D01*
X74002Y147093D01*
G37*
%LPD*%
%LPC*%
G36*
X61302Y147093D02*
X61302Y147093D01*
X58193Y150202D01*
X58193Y154598D01*
X61302Y157707D01*
X65698Y157707D01*
X68807Y154598D01*
X68807Y150202D01*
X65698Y147093D01*
X61302Y147093D01*
G37*
%LPD*%
%LPC*%
G36*
X48602Y147093D02*
X48602Y147093D01*
X45493Y150202D01*
X45493Y154598D01*
X48602Y157707D01*
X52998Y157707D01*
X56107Y154598D01*
X56107Y150202D01*
X52998Y147093D01*
X48602Y147093D01*
G37*
%LPD*%
%LPC*%
G36*
X213702Y147093D02*
X213702Y147093D01*
X210593Y150202D01*
X210593Y154598D01*
X213702Y157707D01*
X218098Y157707D01*
X221207Y154598D01*
X221207Y150202D01*
X218098Y147093D01*
X213702Y147093D01*
G37*
%LPD*%
%LPC*%
G36*
X201002Y147093D02*
X201002Y147093D01*
X197893Y150202D01*
X197893Y154598D01*
X201002Y157707D01*
X205398Y157707D01*
X208507Y154598D01*
X208507Y150202D01*
X205398Y147093D01*
X201002Y147093D01*
G37*
%LPD*%
%LPC*%
G36*
X382612Y134393D02*
X382612Y134393D01*
X379503Y137502D01*
X379503Y141898D01*
X382612Y145007D01*
X387008Y145007D01*
X390117Y141898D01*
X390117Y137502D01*
X387008Y134393D01*
X382612Y134393D01*
G37*
%LPD*%
%LPC*%
G36*
X175602Y108993D02*
X175602Y108993D01*
X172493Y112102D01*
X172493Y116498D01*
X175602Y119607D01*
X179998Y119607D01*
X183107Y116498D01*
X183107Y112102D01*
X179998Y108993D01*
X175602Y108993D01*
G37*
%LPD*%
%LPC*%
G36*
X28282Y107723D02*
X28282Y107723D01*
X25173Y110832D01*
X25173Y115228D01*
X28282Y118337D01*
X32678Y118337D01*
X35787Y115228D01*
X35787Y110832D01*
X32678Y107723D01*
X28282Y107723D01*
G37*
%LPD*%
%LPC*%
G36*
X28282Y888773D02*
X28282Y888773D01*
X25173Y891882D01*
X25173Y896278D01*
X28282Y899387D01*
X32678Y899387D01*
X35787Y896278D01*
X35787Y891882D01*
X32678Y888773D01*
X28282Y888773D01*
G37*
%LPD*%
%LPC*%
G36*
X226402Y896393D02*
X226402Y896393D01*
X223293Y899502D01*
X223293Y903898D01*
X226402Y907007D01*
X230798Y907007D01*
X233907Y903898D01*
X233907Y899502D01*
X230798Y896393D01*
X226402Y896393D01*
G37*
%LPD*%
%LPC*%
G36*
X28282Y904013D02*
X28282Y904013D01*
X25173Y907122D01*
X25173Y911518D01*
X28282Y914627D01*
X32678Y914627D01*
X35787Y911518D01*
X35787Y907122D01*
X32678Y904013D01*
X28282Y904013D01*
G37*
%LPD*%
%LPC*%
G36*
X277202Y909093D02*
X277202Y909093D01*
X274093Y912202D01*
X274093Y916598D01*
X277202Y919707D01*
X281598Y919707D01*
X284707Y916598D01*
X284707Y912202D01*
X281598Y909093D01*
X277202Y909093D01*
G37*
%LPD*%
%LPC*%
G36*
X29552Y917983D02*
X29552Y917983D01*
X26443Y921092D01*
X26443Y925488D01*
X29552Y928597D01*
X33948Y928597D01*
X37057Y925488D01*
X37057Y921092D01*
X33948Y917983D01*
X29552Y917983D01*
G37*
%LPD*%
%LPC*%
G36*
X223128Y921793D02*
X223128Y921793D01*
X220019Y924902D01*
X220019Y929298D01*
X223128Y932407D01*
X227524Y932407D01*
X230633Y929298D01*
X230633Y924902D01*
X227524Y921793D01*
X223128Y921793D01*
G37*
%LPD*%
%LPC*%
G36*
X239102Y947193D02*
X239102Y947193D01*
X235993Y950302D01*
X235993Y954698D01*
X239102Y957807D01*
X243498Y957807D01*
X246607Y954698D01*
X246607Y950302D01*
X243498Y947193D01*
X239102Y947193D01*
G37*
%LPD*%
%LPC*%
G36*
X1001102Y604293D02*
X1001102Y604293D01*
X997993Y607402D01*
X997993Y611798D01*
X1001102Y614907D01*
X1005498Y614907D01*
X1008607Y611798D01*
X1008607Y607402D01*
X1005498Y604293D01*
X1001102Y604293D01*
G37*
%LPD*%
%LPC*%
G36*
X976702Y604793D02*
X976702Y604793D01*
X973593Y607902D01*
X973593Y612298D01*
X976702Y615407D01*
X981098Y615407D01*
X984207Y612298D01*
X984207Y607902D01*
X981098Y604793D01*
X976702Y604793D01*
G37*
%LPD*%
%LPC*%
G36*
X918552Y514123D02*
X918552Y514123D01*
X915443Y517232D01*
X915443Y521628D01*
X918552Y524737D01*
X922948Y524737D01*
X926057Y521628D01*
X926057Y517232D01*
X922948Y514123D01*
X918552Y514123D01*
G37*
%LPD*%
%LPC*%
G36*
X1016342Y620803D02*
X1016342Y620803D01*
X1013233Y623912D01*
X1013233Y628308D01*
X1016342Y631417D01*
X1020738Y631417D01*
X1023847Y628308D01*
X1023847Y623912D01*
X1020738Y620803D01*
X1016342Y620803D01*
G37*
%LPD*%
%LPC*%
G36*
X246722Y509043D02*
X246722Y509043D01*
X243613Y512152D01*
X243613Y516548D01*
X246722Y519657D01*
X251118Y519657D01*
X254227Y516548D01*
X254227Y512152D01*
X251118Y509043D01*
X246722Y509043D01*
G37*
%LPD*%
%LPC*%
G36*
X961962Y621263D02*
X961962Y621263D01*
X958853Y624372D01*
X958853Y628768D01*
X961962Y631877D01*
X966358Y631877D01*
X969467Y628768D01*
X969467Y624372D01*
X966358Y621263D01*
X961962Y621263D01*
G37*
%LPD*%
%LPC*%
G36*
X239102Y489993D02*
X239102Y489993D01*
X235993Y493102D01*
X235993Y497498D01*
X239102Y500607D01*
X243498Y500607D01*
X246607Y497498D01*
X246607Y493102D01*
X243498Y489993D01*
X239102Y489993D01*
G37*
%LPD*%
%LPC*%
G36*
X376262Y634773D02*
X376262Y634773D01*
X373153Y637882D01*
X373153Y642278D01*
X376262Y645387D01*
X380658Y645387D01*
X383767Y642278D01*
X383767Y637882D01*
X380658Y634773D01*
X376262Y634773D01*
G37*
%LPD*%
%LPC*%
G36*
X277202Y635437D02*
X277202Y635437D01*
X274093Y638546D01*
X274093Y642942D01*
X277202Y646051D01*
X281598Y646051D01*
X284707Y642942D01*
X284707Y638546D01*
X281598Y635437D01*
X277202Y635437D01*
G37*
%LPD*%
%LPC*%
G36*
X59575Y645949D02*
X59575Y645949D01*
X56499Y649025D01*
X56499Y653375D01*
X59575Y656451D01*
X63925Y656451D01*
X67001Y653375D01*
X67001Y649025D01*
X63925Y645949D01*
X59575Y645949D01*
G37*
%LPD*%
%LPC*%
G36*
X59575Y588149D02*
X59575Y588149D01*
X56499Y591225D01*
X56499Y595575D01*
X59575Y598651D01*
X63925Y598651D01*
X67001Y595575D01*
X67001Y591225D01*
X63925Y588149D01*
X59575Y588149D01*
G37*
%LPD*%
%LPC*%
G36*
X51556Y490124D02*
X51556Y490124D01*
X48524Y493156D01*
X48524Y497444D01*
X51556Y500476D01*
X55844Y500476D01*
X58876Y497444D01*
X58876Y493156D01*
X55844Y490124D01*
X51556Y490124D01*
G37*
%LPD*%
D10*
X100600Y688300D03*
X126000Y688300D03*
X151400Y688300D03*
X18700Y688300D03*
X44100Y688300D03*
X69500Y688300D03*
D11*
X15240Y952500D03*
D12*
X651910Y908200D03*
X701910Y908200D03*
X651910Y763200D03*
X676910Y763200D03*
X701910Y763200D03*
D13*
X619910Y838200D03*
X733910Y838200D03*
D10*
X1079500Y431800D03*
X1054100Y431800D03*
X1028700Y431800D03*
X1003300Y431800D03*
X977900Y431800D03*
X952500Y431800D03*
X927100Y431800D03*
X901700Y431800D03*
X977900Y254000D03*
X1003300Y254000D03*
D14*
X1038860Y326390D03*
D10*
X1079500Y215900D03*
X1054100Y215900D03*
X1028700Y215900D03*
X1003300Y215900D03*
X977900Y215900D03*
X952500Y215900D03*
X927100Y215900D03*
X901700Y215900D03*
X1079500Y711200D03*
X1054100Y711200D03*
X1028700Y711200D03*
X1003300Y711200D03*
X977900Y711200D03*
X952500Y711200D03*
X927100Y711200D03*
X901700Y711200D03*
X977900Y520700D03*
X1003300Y520700D03*
D14*
X1036320Y598170D03*
D10*
X1079500Y482600D03*
X1054100Y482600D03*
X1028700Y482600D03*
X1003300Y482600D03*
X977900Y482600D03*
X952500Y482600D03*
X927100Y482600D03*
X901700Y482600D03*
X1080770Y969010D03*
X1055370Y969010D03*
X1029970Y969010D03*
X1004570Y969010D03*
X979170Y969010D03*
X953770Y969010D03*
X928370Y969010D03*
X902970Y969010D03*
X979170Y791210D03*
X1004570Y791210D03*
D14*
X1038860Y864870D03*
D10*
X1080770Y753110D03*
X1055370Y753110D03*
X1029970Y753110D03*
X1004570Y753110D03*
X979170Y753110D03*
X953770Y753110D03*
X928370Y753110D03*
X902970Y753110D03*
X292100Y812800D03*
X317500Y812800D03*
X342900Y812800D03*
X292100Y850900D03*
X317500Y850900D03*
X342900Y850900D03*
X290830Y892810D03*
X316230Y892810D03*
X341630Y892810D03*
X597100Y722330D03*
X571700Y722330D03*
X546300Y722330D03*
X520900Y722330D03*
X495500Y722330D03*
X470100Y722330D03*
X444700Y722330D03*
X419300Y722330D03*
X393900Y722330D03*
X368500Y722330D03*
X343100Y722330D03*
X317700Y722330D03*
X292300Y722330D03*
X266900Y722330D03*
X241500Y722330D03*
X216100Y722330D03*
X190700Y722330D03*
X165300Y722330D03*
X139900Y722330D03*
X114500Y722330D03*
X701040Y947420D03*
X726440Y947420D03*
X751840Y947420D03*
X777240Y947420D03*
X802640Y947420D03*
X828040Y947420D03*
X25400Y39370D03*
X76200Y39370D03*
X127000Y39370D03*
X177800Y39370D03*
X228600Y39370D03*
X279400Y39370D03*
X330200Y39370D03*
X381000Y39370D03*
X431800Y39370D03*
X482600Y39370D03*
X533400Y39370D03*
X584200Y39370D03*
X635000Y39370D03*
X685800Y39370D03*
X736600Y39370D03*
X787400Y39370D03*
X838200Y39370D03*
X889000Y39370D03*
D15*
X928100Y384500D03*
X902700Y384500D03*
X925700Y664200D03*
X900300Y664200D03*
X924330Y918290D03*
X898930Y918290D03*
D10*
X373888Y898906D03*
X373888Y853694D03*
X438912Y898906D03*
X438912Y853694D03*
X648970Y946150D03*
X623570Y946150D03*
X598170Y946150D03*
X572770Y946150D03*
X547370Y946150D03*
X521970Y946150D03*
X496570Y946150D03*
X471170Y946150D03*
X445770Y946150D03*
X420370Y946150D03*
X394970Y946150D03*
X369570Y946150D03*
X344170Y946150D03*
X318770Y946150D03*
X293370Y946150D03*
X267970Y946150D03*
X508000Y88900D03*
X482600Y88900D03*
X457200Y88900D03*
X431800Y88900D03*
X406400Y88900D03*
X381000Y88900D03*
D15*
X165100Y393700D03*
X152400Y412750D03*
X139700Y393700D03*
X101600Y393700D03*
X88900Y412750D03*
X76200Y393700D03*
D16*
X279400Y640744D03*
X274320Y565150D03*
X499110Y863600D03*
X13942Y965200D03*
X177800Y609600D03*
X177800Y114300D03*
X384810Y139700D03*
X30480Y113030D03*
X279400Y914400D03*
X241300Y495300D03*
X241300Y952500D03*
X978900Y876800D03*
X1003300Y876300D03*
X990600Y863600D03*
X979000Y854000D03*
X1003500Y854500D03*
X978900Y343400D03*
X1003300Y342900D03*
X990600Y330200D03*
X979000Y320600D03*
X1003500Y321100D03*
X978900Y610100D03*
X1003300Y609600D03*
X990600Y596900D03*
X979000Y587300D03*
X1003500Y587800D03*
X67310Y735330D03*
D17*
X393700Y355600D02*
X393700Y101600D01*
X381000Y88900D01*
X69850Y732790D02*
X67310Y735330D01*
X69850Y732790D02*
X69850Y724259D01*
X80606Y713503D01*
X80606Y668694D02*
X393700Y355600D01*
X80606Y668694D02*
X80606Y713503D01*
D16*
X75950Y729230D03*
D17*
X87490Y717690D01*
X87490Y670651D01*
X142473Y615668D01*
X180314Y615668D01*
X406400Y389582D01*
X406400Y88900D01*
D16*
X62230Y742950D03*
D17*
X63030Y743750D02*
X72709Y743750D01*
X63030Y743750D02*
X62230Y742950D01*
X431800Y384659D02*
X431800Y88900D01*
X136382Y692600D02*
X130300Y698682D01*
X117777Y698682D01*
X136382Y692600D02*
X136382Y680077D01*
X117777Y698682D02*
X72709Y743750D01*
X136382Y680077D02*
X431800Y384659D01*
D16*
X31750Y819150D03*
D17*
X457200Y391990D02*
X457200Y88900D01*
X161782Y692600D02*
X155700Y698682D01*
X161782Y692600D02*
X161782Y687408D01*
X457200Y391990D01*
X143936Y698682D02*
X127518Y715100D01*
X143936Y698682D02*
X155700Y698682D01*
X127518Y715100D02*
X127518Y723994D01*
X32362Y819150D01*
X31750Y819150D01*
D16*
X31750Y849630D03*
D17*
X469900Y101600D02*
X482600Y88900D01*
X469900Y414311D02*
X177214Y706997D01*
X53630Y849630D02*
X31750Y849630D01*
X53630Y849630D02*
X177214Y726046D01*
X469900Y414311D02*
X469900Y101600D01*
X177214Y706997D02*
X177214Y726046D01*
D16*
X25400Y876300D03*
D17*
X30762Y870938D01*
X37264Y870938D01*
X180108Y728094D01*
X508000Y381718D02*
X508000Y88900D01*
X180108Y709610D02*
X180108Y728094D01*
X180108Y709610D02*
X508000Y381718D01*
D16*
X214765Y655455D03*
X228600Y901700D03*
X203137Y656196D03*
X225326Y927100D03*
X30480Y938530D03*
X31750Y923290D03*
X174704Y630824D03*
X176530Y621736D03*
X55880Y623570D03*
D17*
X51388Y628062D01*
X51388Y681012D01*
X44100Y688300D01*
D16*
X356870Y516890D03*
X165100Y266700D03*
X1028700Y307340D03*
X1028700Y576580D03*
X963930Y558800D03*
X969010Y292100D03*
X1027430Y842010D03*
X971550Y830580D03*
X1061720Y939800D03*
X902970Y842010D03*
X407670Y640080D03*
X901700Y563461D03*
X901700Y305651D03*
X1066800Y685800D03*
X1066800Y406400D03*
X30480Y833120D03*
X46990Y741680D03*
X178846Y743344D03*
X189500Y744180D03*
X247368Y749300D03*
X235232Y774700D03*
X247368Y793358D03*
X234668Y800100D03*
X247368Y812800D03*
X86360Y541020D03*
X248920Y514350D03*
X919480Y793750D03*
X378460Y640080D03*
X960660Y358600D03*
X1022350Y356870D03*
X1018540Y626110D03*
X964160Y626570D03*
X1022350Y891540D03*
X961390Y891540D03*
X488950Y645160D03*
X920750Y519430D03*
X924560Y252334D03*
X283500Y378000D03*
X292100Y228600D03*
X30480Y864870D03*
X30480Y909320D03*
X30480Y894080D03*
X33020Y803910D03*
X31750Y788670D03*
X31750Y773430D03*
X190500Y355600D03*
X203200Y355600D03*
X215900Y355600D03*
X190500Y342900D03*
X203200Y342900D03*
X215900Y342900D03*
X190500Y330200D03*
X203200Y330200D03*
X215900Y330200D03*
X190500Y317500D03*
X203200Y317500D03*
X215900Y317500D03*
X190500Y304800D03*
X203200Y304800D03*
X215900Y304800D03*
X190500Y203200D03*
X203200Y203200D03*
X215900Y203200D03*
X190500Y190500D03*
X203200Y190500D03*
X215900Y190500D03*
X190500Y177800D03*
X203200Y177800D03*
X215900Y177800D03*
X190500Y165100D03*
X203200Y165100D03*
X215900Y165100D03*
X190500Y152400D03*
X203200Y152400D03*
X215900Y152400D03*
X50800Y203200D03*
X63500Y203200D03*
X50800Y190500D03*
X63500Y190500D03*
X76200Y190500D03*
X50800Y177800D03*
X63500Y177800D03*
X76200Y177800D03*
X50800Y165100D03*
X63500Y165100D03*
X76200Y165100D03*
X50800Y152400D03*
X63500Y152400D03*
X76200Y152400D03*
X76200Y203200D03*
M02*
