G04 EAGLE Gerber RS-274X export*
G75*
%MOMM*%
%FSLAX34Y34*%
%LPD*%
%INSoldermask Bottom*%
%IPPOS*%
%AMOC8*
5,1,8,0,0,1.08239X$1,22.5*%
G01*
%ADD10R,10.000000X10.000000*%
%ADD11R,5.000000X5.000000*%
%ADD12C,0.750000*%
%ADD13C,1.624000*%
%ADD14C,0.762000*%
%ADD15C,0.735000*%
%ADD16C,2.100000*%
%ADD17R,1.750000X1.750000*%
%ADD18C,1.750000*%
%ADD19C,3.100000*%
%ADD20C,1.208000*%
%ADD21P,1.840279X8X22.500000*%
%ADD22C,1.700200*%
%ADD23P,1.537860X8X22.500000*%
%ADD24C,2.900000*%


D10*
X202400Y331000D03*
X202400Y178600D03*
X62700Y178600D03*
D11*
X992100Y866400D03*
X990600Y595400D03*
X992600Y330400D03*
D12*
X61750Y651200D03*
X61750Y593400D03*
D13*
X100600Y680680D02*
X100600Y695920D01*
X126000Y695920D02*
X126000Y680680D01*
X151400Y680680D02*
X151400Y695920D01*
X18700Y695920D02*
X18700Y680680D01*
X44100Y680680D02*
X44100Y695920D01*
X69500Y695920D02*
X69500Y680680D01*
D14*
X15240Y952500D03*
D15*
X53700Y495300D03*
D16*
X97700Y495300D03*
D17*
X651910Y908200D03*
D18*
X701910Y908200D03*
X651910Y763200D03*
X676910Y763200D03*
X701910Y763200D03*
D19*
X619910Y823200D02*
X619910Y853200D01*
X733910Y853200D02*
X733910Y823200D01*
D13*
X1079500Y439420D02*
X1079500Y424180D01*
X1054100Y424180D02*
X1054100Y439420D01*
X1028700Y439420D02*
X1028700Y424180D01*
X1003300Y424180D02*
X1003300Y439420D01*
X977900Y439420D02*
X977900Y424180D01*
X952500Y424180D02*
X952500Y439420D01*
X927100Y439420D02*
X927100Y424180D01*
X901700Y424180D02*
X901700Y439420D01*
X977900Y261620D02*
X977900Y246380D01*
X1003300Y246380D02*
X1003300Y261620D01*
D20*
X1038860Y326390D03*
D13*
X1079500Y223520D02*
X1079500Y208280D01*
X1054100Y208280D02*
X1054100Y223520D01*
X1028700Y223520D02*
X1028700Y208280D01*
X1003300Y208280D02*
X1003300Y223520D01*
X977900Y223520D02*
X977900Y208280D01*
X952500Y208280D02*
X952500Y223520D01*
X927100Y223520D02*
X927100Y208280D01*
X901700Y208280D02*
X901700Y223520D01*
X1079500Y703580D02*
X1079500Y718820D01*
X1054100Y718820D02*
X1054100Y703580D01*
X1028700Y703580D02*
X1028700Y718820D01*
X1003300Y718820D02*
X1003300Y703580D01*
X977900Y703580D02*
X977900Y718820D01*
X952500Y718820D02*
X952500Y703580D01*
X927100Y703580D02*
X927100Y718820D01*
X901700Y718820D02*
X901700Y703580D01*
X977900Y528320D02*
X977900Y513080D01*
X1003300Y513080D02*
X1003300Y528320D01*
D20*
X1036320Y598170D03*
D13*
X1079500Y490220D02*
X1079500Y474980D01*
X1054100Y474980D02*
X1054100Y490220D01*
X1028700Y490220D02*
X1028700Y474980D01*
X1003300Y474980D02*
X1003300Y490220D01*
X977900Y490220D02*
X977900Y474980D01*
X952500Y474980D02*
X952500Y490220D01*
X927100Y490220D02*
X927100Y474980D01*
X901700Y474980D02*
X901700Y490220D01*
X1080770Y961390D02*
X1080770Y976630D01*
X1055370Y976630D02*
X1055370Y961390D01*
X1029970Y961390D02*
X1029970Y976630D01*
X1004570Y976630D02*
X1004570Y961390D01*
X979170Y961390D02*
X979170Y976630D01*
X953770Y976630D02*
X953770Y961390D01*
X928370Y961390D02*
X928370Y976630D01*
X902970Y976630D02*
X902970Y961390D01*
X979170Y798830D02*
X979170Y783590D01*
X1004570Y783590D02*
X1004570Y798830D01*
D20*
X1038860Y864870D03*
D13*
X1080770Y760730D02*
X1080770Y745490D01*
X1055370Y745490D02*
X1055370Y760730D01*
X1029970Y760730D02*
X1029970Y745490D01*
X1004570Y745490D02*
X1004570Y760730D01*
X979170Y760730D02*
X979170Y745490D01*
X953770Y745490D02*
X953770Y760730D01*
X928370Y760730D02*
X928370Y745490D01*
X902970Y745490D02*
X902970Y760730D01*
X292100Y805180D02*
X292100Y820420D01*
X317500Y820420D02*
X317500Y805180D01*
X342900Y805180D02*
X342900Y820420D01*
X292100Y843280D02*
X292100Y858520D01*
X317500Y858520D02*
X317500Y843280D01*
X342900Y843280D02*
X342900Y858520D01*
X290830Y885190D02*
X290830Y900430D01*
X316230Y900430D02*
X316230Y885190D01*
X341630Y885190D02*
X341630Y900430D01*
X597100Y729950D02*
X597100Y714710D01*
X571700Y714710D02*
X571700Y729950D01*
X546300Y729950D02*
X546300Y714710D01*
X520900Y714710D02*
X520900Y729950D01*
X495500Y729950D02*
X495500Y714710D01*
X470100Y714710D02*
X470100Y729950D01*
X444700Y729950D02*
X444700Y714710D01*
X419300Y714710D02*
X419300Y729950D01*
X393900Y729950D02*
X393900Y714710D01*
X368500Y714710D02*
X368500Y729950D01*
X343100Y729950D02*
X343100Y714710D01*
X317700Y714710D02*
X317700Y729950D01*
X292300Y729950D02*
X292300Y714710D01*
X266900Y714710D02*
X266900Y729950D01*
X241500Y729950D02*
X241500Y714710D01*
X216100Y714710D02*
X216100Y729950D01*
X190700Y729950D02*
X190700Y714710D01*
X165300Y714710D02*
X165300Y729950D01*
X139900Y729950D02*
X139900Y714710D01*
X114500Y714710D02*
X114500Y729950D01*
X701040Y939800D02*
X701040Y955040D01*
X726440Y955040D02*
X726440Y939800D01*
X751840Y939800D02*
X751840Y955040D01*
X777240Y955040D02*
X777240Y939800D01*
X802640Y939800D02*
X802640Y955040D01*
X828040Y955040D02*
X828040Y939800D01*
X25400Y46990D02*
X25400Y31750D01*
X76200Y31750D02*
X76200Y46990D01*
X127000Y46990D02*
X127000Y31750D01*
X177800Y31750D02*
X177800Y46990D01*
X228600Y46990D02*
X228600Y31750D01*
X279400Y31750D02*
X279400Y46990D01*
X330200Y46990D02*
X330200Y31750D01*
X381000Y31750D02*
X381000Y46990D01*
X431800Y46990D02*
X431800Y31750D01*
X482600Y31750D02*
X482600Y46990D01*
X533400Y46990D02*
X533400Y31750D01*
X584200Y31750D02*
X584200Y46990D01*
X635000Y46990D02*
X635000Y31750D01*
X685800Y31750D02*
X685800Y46990D01*
X736600Y46990D02*
X736600Y31750D01*
X787400Y31750D02*
X787400Y46990D01*
X838200Y46990D02*
X838200Y31750D01*
X889000Y31750D02*
X889000Y46990D01*
D21*
X928100Y384500D03*
D22*
X902700Y384500D03*
D21*
X925700Y664200D03*
D22*
X900300Y664200D03*
D21*
X924330Y918290D03*
D22*
X898930Y918290D03*
D13*
X381508Y898906D02*
X366268Y898906D01*
X366268Y853694D02*
X381508Y853694D01*
X431292Y898906D02*
X446532Y898906D01*
X446532Y853694D02*
X431292Y853694D01*
X648970Y938530D02*
X648970Y953770D01*
X623570Y953770D02*
X623570Y938530D01*
X598170Y938530D02*
X598170Y953770D01*
X572770Y953770D02*
X572770Y938530D01*
X547370Y938530D02*
X547370Y953770D01*
X521970Y953770D02*
X521970Y938530D01*
X496570Y938530D02*
X496570Y953770D01*
X471170Y953770D02*
X471170Y938530D01*
X445770Y938530D02*
X445770Y953770D01*
X420370Y953770D02*
X420370Y938530D01*
X394970Y938530D02*
X394970Y953770D01*
X369570Y953770D02*
X369570Y938530D01*
X344170Y938530D02*
X344170Y953770D01*
X318770Y953770D02*
X318770Y938530D01*
X293370Y938530D02*
X293370Y953770D01*
X267970Y953770D02*
X267970Y938530D01*
X508000Y96520D02*
X508000Y81280D01*
X482600Y81280D02*
X482600Y96520D01*
X457200Y96520D02*
X457200Y81280D01*
X431800Y81280D02*
X431800Y96520D01*
X406400Y96520D02*
X406400Y81280D01*
X381000Y81280D02*
X381000Y96520D01*
D23*
X165100Y393700D03*
X152400Y412750D03*
X139700Y393700D03*
X101600Y393700D03*
X88900Y412750D03*
X76200Y393700D03*
D24*
X990600Y50800D03*
X812800Y850900D03*
X330200Y190500D03*
X190500Y508000D03*
M02*
