G04 EAGLE Gerber RS-274X export*
G75*
%MOMM*%
%FSLAX34Y34*%
%LPD*%
%INSoldermask Top*%
%IPPOS*%
%AMOC8*
5,1,8,0,0,1.08239X$1,22.5*%
G01*
%ADD10R,1.900000X1.700000*%
%ADD11C,0.396000*%
%ADD12R,1.370000X0.735000*%
%ADD13R,1.100000X0.400000*%
%ADD14R,1.100000X0.700000*%
%ADD15C,0.750000*%
%ADD16C,1.624000*%
%ADD17R,1.903000X1.700000*%
%ADD18R,1.700000X1.903000*%
%ADD19R,1.600000X1.000000*%
%ADD20R,1.000000X1.600000*%
%ADD21R,1.200000X1.200000*%
%ADD22R,1.900000X1.100000*%
%ADD23C,0.735000*%
%ADD24C,2.100000*%
%ADD25R,2.100000X3.100000*%
%ADD26R,1.750000X1.750000*%
%ADD27C,1.750000*%
%ADD28C,3.100000*%
%ADD29C,0.151200*%
%ADD30C,0.455000*%
%ADD31C,0.261000*%
%ADD32R,1.100000X0.200000*%
%ADD33C,1.208000*%
%ADD34R,0.600000X0.300000*%
%ADD35R,0.300000X0.600000*%
%ADD36R,0.500000X0.500000*%
%ADD37C,0.236900*%
%ADD38C,0.296100*%
%ADD39R,0.735000X1.370000*%
%ADD40R,0.900000X0.900000*%
%ADD41R,1.700000X1.900000*%
%ADD42R,1.370000X2.640000*%
%ADD43P,1.840279X8X22.500000*%
%ADD44C,1.700200*%
%ADD45R,1.400000X1.400000*%
%ADD46R,1.300000X1.350000*%
%ADD47P,1.537860X8X22.500000*%
%ADD48C,2.900000*%
%ADD49R,1.700200X1.268400*%
%ADD50R,1.828800X0.152400*%

G36*
X73004Y659454D02*
X73004Y659454D01*
X73007Y659451D01*
X74129Y659606D01*
X74134Y659611D01*
X74138Y659608D01*
X75209Y659979D01*
X75213Y659985D01*
X75218Y659983D01*
X76195Y660556D01*
X76198Y660562D01*
X76203Y660561D01*
X77050Y661314D01*
X77052Y661321D01*
X77057Y661321D01*
X77741Y662224D01*
X77741Y662231D01*
X77746Y662232D01*
X78241Y663251D01*
X78239Y663258D01*
X78244Y663260D01*
X78531Y664357D01*
X78529Y664361D01*
X78531Y664362D01*
X78529Y664364D01*
X78532Y664366D01*
X78599Y665497D01*
X78597Y665501D01*
X78599Y665503D01*
X78532Y666634D01*
X78527Y666639D01*
X78531Y666643D01*
X78244Y667740D01*
X78238Y667744D01*
X78241Y667749D01*
X77746Y668768D01*
X77740Y668771D01*
X77741Y668776D01*
X77057Y669679D01*
X77050Y669681D01*
X77050Y669686D01*
X76203Y670439D01*
X76196Y670439D01*
X76195Y670444D01*
X75218Y671017D01*
X75211Y671016D01*
X75209Y671021D01*
X74138Y671392D01*
X74132Y671389D01*
X74129Y671394D01*
X73007Y671549D01*
X73002Y671546D01*
X73000Y671549D01*
X61000Y671549D01*
X60995Y671546D01*
X60992Y671549D01*
X59725Y671344D01*
X59719Y671338D01*
X59715Y671341D01*
X58525Y670859D01*
X58521Y670852D01*
X58515Y670854D01*
X57462Y670120D01*
X57460Y670112D01*
X57454Y670113D01*
X56591Y669163D01*
X56590Y669154D01*
X56585Y669154D01*
X55955Y668035D01*
X55956Y668027D01*
X55950Y668025D01*
X55585Y666795D01*
X55588Y666787D01*
X55583Y666784D01*
X55501Y665503D01*
X55504Y665499D01*
X55501Y665497D01*
X55583Y664216D01*
X55589Y664210D01*
X55585Y664205D01*
X55950Y662975D01*
X55957Y662970D01*
X55955Y662965D01*
X56585Y661846D01*
X56592Y661843D01*
X56591Y661837D01*
X57454Y660887D01*
X57462Y660886D01*
X57462Y660880D01*
X58515Y660146D01*
X58523Y660146D01*
X58525Y660141D01*
X59715Y659659D01*
X59722Y659661D01*
X59725Y659656D01*
X60992Y659451D01*
X60997Y659454D01*
X61000Y659451D01*
X73000Y659451D01*
X73004Y659454D01*
G37*
G36*
X73004Y573054D02*
X73004Y573054D01*
X73007Y573051D01*
X74129Y573206D01*
X74134Y573211D01*
X74138Y573208D01*
X75209Y573579D01*
X75213Y573585D01*
X75218Y573583D01*
X76195Y574156D01*
X76198Y574162D01*
X76203Y574161D01*
X77050Y574914D01*
X77052Y574921D01*
X77057Y574921D01*
X77741Y575824D01*
X77741Y575831D01*
X77746Y575832D01*
X78241Y576851D01*
X78239Y576858D01*
X78244Y576860D01*
X78531Y577957D01*
X78529Y577961D01*
X78531Y577962D01*
X78529Y577964D01*
X78532Y577966D01*
X78599Y579097D01*
X78597Y579101D01*
X78599Y579103D01*
X78532Y580234D01*
X78527Y580239D01*
X78531Y580243D01*
X78244Y581340D01*
X78238Y581344D01*
X78241Y581349D01*
X77746Y582368D01*
X77740Y582371D01*
X77741Y582376D01*
X77057Y583279D01*
X77050Y583281D01*
X77050Y583286D01*
X76203Y584039D01*
X76196Y584039D01*
X76195Y584044D01*
X75218Y584617D01*
X75211Y584616D01*
X75209Y584621D01*
X74138Y584992D01*
X74132Y584989D01*
X74129Y584994D01*
X73007Y585149D01*
X73002Y585146D01*
X73000Y585149D01*
X61000Y585149D01*
X60995Y585146D01*
X60992Y585149D01*
X59725Y584944D01*
X59719Y584938D01*
X59715Y584941D01*
X58525Y584459D01*
X58521Y584452D01*
X58515Y584454D01*
X57462Y583720D01*
X57460Y583712D01*
X57454Y583713D01*
X56591Y582763D01*
X56590Y582754D01*
X56585Y582754D01*
X55955Y581635D01*
X55956Y581627D01*
X55950Y581625D01*
X55585Y580395D01*
X55588Y580387D01*
X55583Y580384D01*
X55501Y579103D01*
X55504Y579099D01*
X55501Y579097D01*
X55583Y577816D01*
X55589Y577810D01*
X55585Y577805D01*
X55950Y576575D01*
X55957Y576570D01*
X55955Y576565D01*
X56585Y575446D01*
X56592Y575443D01*
X56591Y575437D01*
X57454Y574487D01*
X57462Y574486D01*
X57462Y574480D01*
X58515Y573746D01*
X58523Y573746D01*
X58525Y573741D01*
X59715Y573259D01*
X59722Y573261D01*
X59725Y573256D01*
X60992Y573051D01*
X60997Y573054D01*
X61000Y573051D01*
X73000Y573051D01*
X73004Y573054D01*
G37*
G36*
X28203Y659453D02*
X28203Y659453D01*
X28205Y659451D01*
X29381Y659562D01*
X29386Y659567D01*
X29390Y659564D01*
X30522Y659902D01*
X30526Y659908D01*
X30531Y659906D01*
X31575Y660458D01*
X31578Y660465D01*
X31583Y660463D01*
X32499Y661209D01*
X32500Y661216D01*
X32506Y661216D01*
X33259Y662126D01*
X33259Y662133D01*
X33264Y662134D01*
X33825Y663173D01*
X33824Y663178D01*
X33828Y663180D01*
X33827Y663181D01*
X33829Y663182D01*
X34176Y664311D01*
X34176Y664312D01*
X34177Y664313D01*
X34174Y664317D01*
X34178Y664320D01*
X34299Y665495D01*
X34295Y665502D01*
X34299Y665506D01*
X34142Y666846D01*
X34137Y666852D01*
X34140Y666857D01*
X33689Y668128D01*
X33682Y668133D01*
X33684Y668138D01*
X32962Y669277D01*
X32954Y669280D01*
X32955Y669286D01*
X31997Y670236D01*
X31989Y670237D01*
X31988Y670243D01*
X30843Y670956D01*
X30835Y670955D01*
X30833Y670961D01*
X29557Y671401D01*
X29550Y671399D01*
X29547Y671403D01*
X28205Y671549D01*
X28202Y671547D01*
X28200Y671549D01*
X22200Y671549D01*
X22197Y671547D01*
X22194Y671549D01*
X20865Y671394D01*
X20859Y671388D01*
X20855Y671391D01*
X19594Y670944D01*
X19589Y670937D01*
X19584Y670939D01*
X18454Y670222D01*
X18451Y670215D01*
X18445Y670216D01*
X17503Y669266D01*
X17502Y669257D01*
X17496Y669257D01*
X16789Y668121D01*
X16790Y668113D01*
X16784Y668111D01*
X16348Y666846D01*
X16350Y666838D01*
X16345Y666836D01*
X16201Y665505D01*
X16205Y665499D01*
X16201Y665495D01*
X16311Y664329D01*
X16316Y664324D01*
X16313Y664320D01*
X16648Y663197D01*
X16654Y663193D01*
X16652Y663189D01*
X17200Y662153D01*
X17206Y662150D01*
X17205Y662145D01*
X17944Y661237D01*
X17951Y661235D01*
X17951Y661230D01*
X18853Y660483D01*
X18861Y660483D01*
X18861Y660478D01*
X19892Y659921D01*
X19899Y659922D01*
X19901Y659917D01*
X21020Y659573D01*
X21027Y659575D01*
X21030Y659571D01*
X22195Y659451D01*
X22198Y659453D01*
X22200Y659451D01*
X28200Y659451D01*
X28203Y659453D01*
G37*
G36*
X28203Y573053D02*
X28203Y573053D01*
X28205Y573051D01*
X29381Y573162D01*
X29386Y573167D01*
X29390Y573164D01*
X30522Y573502D01*
X30526Y573508D01*
X30531Y573506D01*
X31575Y574058D01*
X31578Y574065D01*
X31583Y574063D01*
X32499Y574809D01*
X32500Y574816D01*
X32506Y574816D01*
X33259Y575726D01*
X33259Y575733D01*
X33264Y575734D01*
X33825Y576773D01*
X33824Y576778D01*
X33828Y576780D01*
X33827Y576781D01*
X33829Y576782D01*
X34176Y577911D01*
X34176Y577912D01*
X34177Y577913D01*
X34174Y577917D01*
X34178Y577920D01*
X34299Y579095D01*
X34295Y579102D01*
X34299Y579106D01*
X34142Y580446D01*
X34137Y580452D01*
X34140Y580457D01*
X33689Y581728D01*
X33682Y581733D01*
X33684Y581738D01*
X32962Y582877D01*
X32954Y582880D01*
X32955Y582886D01*
X31997Y583836D01*
X31989Y583837D01*
X31988Y583843D01*
X30843Y584556D01*
X30835Y584555D01*
X30833Y584561D01*
X29557Y585001D01*
X29550Y584999D01*
X29547Y585003D01*
X28205Y585149D01*
X28202Y585147D01*
X28200Y585149D01*
X22200Y585149D01*
X22197Y585147D01*
X22194Y585149D01*
X20865Y584994D01*
X20859Y584988D01*
X20855Y584991D01*
X19594Y584544D01*
X19589Y584537D01*
X19584Y584539D01*
X18454Y583822D01*
X18451Y583815D01*
X18445Y583816D01*
X17503Y582866D01*
X17502Y582857D01*
X17496Y582857D01*
X16789Y581721D01*
X16790Y581713D01*
X16784Y581711D01*
X16348Y580446D01*
X16350Y580438D01*
X16345Y580436D01*
X16201Y579105D01*
X16205Y579099D01*
X16201Y579095D01*
X16311Y577929D01*
X16316Y577924D01*
X16313Y577920D01*
X16648Y576797D01*
X16654Y576793D01*
X16652Y576789D01*
X17200Y575753D01*
X17206Y575750D01*
X17205Y575745D01*
X17944Y574837D01*
X17951Y574835D01*
X17951Y574830D01*
X18853Y574083D01*
X18861Y574083D01*
X18861Y574078D01*
X19892Y573521D01*
X19899Y573522D01*
X19901Y573517D01*
X21020Y573173D01*
X21027Y573175D01*
X21030Y573171D01*
X22195Y573051D01*
X22198Y573053D01*
X22200Y573051D01*
X28200Y573051D01*
X28203Y573053D01*
G37*
D10*
X345863Y621030D03*
X345863Y593030D03*
X319052Y621030D03*
X319052Y593030D03*
X343193Y660340D03*
X343193Y688340D03*
X318965Y660400D03*
X318965Y688400D03*
X316653Y517880D03*
X316653Y545880D03*
D11*
X43350Y359120D02*
X43350Y352080D01*
X43350Y359120D02*
X50390Y359120D01*
X50390Y352080D01*
X43350Y352080D01*
X43350Y355842D02*
X50390Y355842D01*
X25810Y359120D02*
X25810Y352080D01*
X25810Y359120D02*
X32850Y359120D01*
X32850Y352080D01*
X25810Y352080D01*
X25810Y355842D02*
X32850Y355842D01*
D12*
X309880Y134366D03*
X309880Y142494D03*
D13*
X72800Y614800D03*
X72800Y619800D03*
D14*
X72800Y590050D03*
X72800Y597800D03*
D13*
X72800Y604800D03*
X72800Y609800D03*
X72800Y629800D03*
X72800Y624800D03*
D14*
X72800Y654550D03*
X72800Y646800D03*
D13*
X72800Y639800D03*
X72800Y634800D03*
D15*
X61750Y651200D03*
X61750Y593400D03*
D16*
X100600Y680680D02*
X100600Y695920D01*
X126000Y695920D02*
X126000Y680680D01*
X151400Y680680D02*
X151400Y695920D01*
X18700Y695920D02*
X18700Y680680D01*
X44100Y680680D02*
X44100Y695920D01*
X69500Y695920D02*
X69500Y680680D01*
D17*
X291677Y546100D03*
X291677Y517660D03*
X265430Y660120D03*
X265430Y688560D03*
X291612Y660120D03*
X291612Y688560D03*
D18*
X368300Y139700D03*
X339860Y139700D03*
X112530Y344170D03*
X140970Y344170D03*
X140970Y314960D03*
X112530Y314960D03*
D17*
X29210Y382270D03*
X29210Y410710D03*
D18*
X111260Y609600D03*
X139700Y609600D03*
X139700Y584200D03*
X111260Y584200D03*
D19*
X47040Y984270D03*
X47040Y969270D03*
X47040Y954270D03*
X47040Y939270D03*
X47040Y924270D03*
X47040Y909270D03*
X47040Y894270D03*
X47040Y879270D03*
X47040Y864270D03*
X47040Y849270D03*
X47040Y834270D03*
X47040Y819270D03*
X47040Y804270D03*
X47040Y789270D03*
X47040Y774270D03*
X47040Y759270D03*
D20*
X62040Y756670D03*
X77040Y756670D03*
X92040Y756670D03*
X107040Y756670D03*
X122040Y756670D03*
X137040Y756670D03*
X152040Y756670D03*
X167040Y756670D03*
X182040Y756670D03*
X197040Y756670D03*
D19*
X211940Y759270D03*
X211940Y774270D03*
X211940Y789270D03*
X211940Y804270D03*
X211940Y819270D03*
X211940Y834270D03*
X211940Y849270D03*
X211940Y864270D03*
X211940Y879270D03*
X211940Y894270D03*
X211940Y909270D03*
X211940Y924270D03*
D21*
X118040Y903670D03*
D19*
X211940Y939270D03*
X211940Y954270D03*
X211940Y969270D03*
X211940Y984270D03*
D21*
X133040Y918670D03*
X118040Y918670D03*
X103040Y918670D03*
X103040Y903670D03*
X103040Y888670D03*
X118040Y888670D03*
X133040Y888670D03*
X133040Y903670D03*
D22*
X279400Y787200D03*
X279400Y762200D03*
D23*
X53700Y495300D03*
D24*
X97700Y495300D03*
D25*
X52700Y440300D03*
X112700Y440300D03*
X112700Y550300D03*
X52700Y550300D03*
D26*
X651910Y908200D03*
D27*
X701910Y908200D03*
X651910Y763200D03*
X676910Y763200D03*
X701910Y763200D03*
D28*
X619910Y823200D02*
X619910Y853200D01*
X733910Y853200D02*
X733910Y823200D01*
D17*
X965200Y375420D03*
X965200Y403860D03*
X1016000Y375420D03*
X1016000Y403860D03*
D10*
X474882Y660340D03*
X474882Y688340D03*
X479919Y593030D03*
X479919Y621030D03*
X506730Y593030D03*
X506730Y621030D03*
X527245Y660340D03*
X527245Y688340D03*
X941070Y255210D03*
X941070Y283210D03*
X941070Y339150D03*
X941070Y311150D03*
D17*
X1047750Y403860D03*
X1047750Y375420D03*
D29*
X969344Y344156D02*
X961856Y344156D01*
X961856Y346244D01*
X969344Y346244D01*
X969344Y344156D01*
X969344Y345592D02*
X961856Y345592D01*
X961856Y339156D02*
X969344Y339156D01*
X961856Y339156D02*
X961856Y341244D01*
X969344Y341244D01*
X969344Y339156D01*
X969344Y340592D02*
X961856Y340592D01*
X961856Y334156D02*
X969344Y334156D01*
X961856Y334156D02*
X961856Y336244D01*
X969344Y336244D01*
X969344Y334156D01*
X969344Y335592D02*
X961856Y335592D01*
X961856Y329156D02*
X969344Y329156D01*
X961856Y329156D02*
X961856Y331244D01*
X969344Y331244D01*
X969344Y329156D01*
X969344Y330592D02*
X961856Y330592D01*
X961856Y324156D02*
X969344Y324156D01*
X961856Y324156D02*
X961856Y326244D01*
X969344Y326244D01*
X969344Y324156D01*
X969344Y325592D02*
X961856Y325592D01*
X961856Y319156D02*
X969344Y319156D01*
X961856Y319156D02*
X961856Y321244D01*
X969344Y321244D01*
X969344Y319156D01*
X969344Y320592D02*
X961856Y320592D01*
X961856Y314156D02*
X969344Y314156D01*
X961856Y314156D02*
X961856Y316244D01*
X969344Y316244D01*
X969344Y314156D01*
X969344Y315592D02*
X961856Y315592D01*
X976644Y308944D02*
X976644Y301456D01*
X974556Y301456D01*
X974556Y308944D01*
X976644Y308944D01*
X976644Y302892D02*
X974556Y302892D01*
X974556Y304328D02*
X976644Y304328D01*
X976644Y305764D02*
X974556Y305764D01*
X974556Y307200D02*
X976644Y307200D01*
X976644Y308636D02*
X974556Y308636D01*
X981644Y308944D02*
X981644Y301456D01*
X979556Y301456D01*
X979556Y308944D01*
X981644Y308944D01*
X981644Y302892D02*
X979556Y302892D01*
X979556Y304328D02*
X981644Y304328D01*
X981644Y305764D02*
X979556Y305764D01*
X979556Y307200D02*
X981644Y307200D01*
X981644Y308636D02*
X979556Y308636D01*
X986644Y308944D02*
X986644Y301456D01*
X984556Y301456D01*
X984556Y308944D01*
X986644Y308944D01*
X986644Y302892D02*
X984556Y302892D01*
X984556Y304328D02*
X986644Y304328D01*
X986644Y305764D02*
X984556Y305764D01*
X984556Y307200D02*
X986644Y307200D01*
X986644Y308636D02*
X984556Y308636D01*
X991644Y308944D02*
X991644Y301456D01*
X989556Y301456D01*
X989556Y308944D01*
X991644Y308944D01*
X991644Y302892D02*
X989556Y302892D01*
X989556Y304328D02*
X991644Y304328D01*
X991644Y305764D02*
X989556Y305764D01*
X989556Y307200D02*
X991644Y307200D01*
X991644Y308636D02*
X989556Y308636D01*
X996644Y308944D02*
X996644Y301456D01*
X994556Y301456D01*
X994556Y308944D01*
X996644Y308944D01*
X996644Y302892D02*
X994556Y302892D01*
X994556Y304328D02*
X996644Y304328D01*
X996644Y305764D02*
X994556Y305764D01*
X994556Y307200D02*
X996644Y307200D01*
X996644Y308636D02*
X994556Y308636D01*
X1001644Y308944D02*
X1001644Y301456D01*
X999556Y301456D01*
X999556Y308944D01*
X1001644Y308944D01*
X1001644Y302892D02*
X999556Y302892D01*
X999556Y304328D02*
X1001644Y304328D01*
X1001644Y305764D02*
X999556Y305764D01*
X999556Y307200D02*
X1001644Y307200D01*
X1001644Y308636D02*
X999556Y308636D01*
X1006644Y308944D02*
X1006644Y301456D01*
X1004556Y301456D01*
X1004556Y308944D01*
X1006644Y308944D01*
X1006644Y302892D02*
X1004556Y302892D01*
X1004556Y304328D02*
X1006644Y304328D01*
X1006644Y305764D02*
X1004556Y305764D01*
X1004556Y307200D02*
X1006644Y307200D01*
X1006644Y308636D02*
X1004556Y308636D01*
X1011856Y316244D02*
X1019344Y316244D01*
X1019344Y314156D01*
X1011856Y314156D01*
X1011856Y316244D01*
X1011856Y315592D02*
X1019344Y315592D01*
X1019344Y321244D02*
X1011856Y321244D01*
X1019344Y321244D02*
X1019344Y319156D01*
X1011856Y319156D01*
X1011856Y321244D01*
X1011856Y320592D02*
X1019344Y320592D01*
X1019344Y326244D02*
X1011856Y326244D01*
X1019344Y326244D02*
X1019344Y324156D01*
X1011856Y324156D01*
X1011856Y326244D01*
X1011856Y325592D02*
X1019344Y325592D01*
X1019344Y331244D02*
X1011856Y331244D01*
X1019344Y331244D02*
X1019344Y329156D01*
X1011856Y329156D01*
X1011856Y331244D01*
X1011856Y330592D02*
X1019344Y330592D01*
X1019344Y336244D02*
X1011856Y336244D01*
X1019344Y336244D02*
X1019344Y334156D01*
X1011856Y334156D01*
X1011856Y336244D01*
X1011856Y335592D02*
X1019344Y335592D01*
X1019344Y341244D02*
X1011856Y341244D01*
X1019344Y341244D02*
X1019344Y339156D01*
X1011856Y339156D01*
X1011856Y341244D01*
X1011856Y340592D02*
X1019344Y340592D01*
X1019344Y346244D02*
X1011856Y346244D01*
X1019344Y346244D02*
X1019344Y344156D01*
X1011856Y344156D01*
X1011856Y346244D01*
X1011856Y345592D02*
X1019344Y345592D01*
X1004556Y351456D02*
X1004556Y358944D01*
X1006644Y358944D01*
X1006644Y351456D01*
X1004556Y351456D01*
X1004556Y352892D02*
X1006644Y352892D01*
X1006644Y354328D02*
X1004556Y354328D01*
X1004556Y355764D02*
X1006644Y355764D01*
X1006644Y357200D02*
X1004556Y357200D01*
X1004556Y358636D02*
X1006644Y358636D01*
X999556Y358944D02*
X999556Y351456D01*
X999556Y358944D02*
X1001644Y358944D01*
X1001644Y351456D01*
X999556Y351456D01*
X999556Y352892D02*
X1001644Y352892D01*
X1001644Y354328D02*
X999556Y354328D01*
X999556Y355764D02*
X1001644Y355764D01*
X1001644Y357200D02*
X999556Y357200D01*
X999556Y358636D02*
X1001644Y358636D01*
X994556Y358944D02*
X994556Y351456D01*
X994556Y358944D02*
X996644Y358944D01*
X996644Y351456D01*
X994556Y351456D01*
X994556Y352892D02*
X996644Y352892D01*
X996644Y354328D02*
X994556Y354328D01*
X994556Y355764D02*
X996644Y355764D01*
X996644Y357200D02*
X994556Y357200D01*
X994556Y358636D02*
X996644Y358636D01*
X989556Y358944D02*
X989556Y351456D01*
X989556Y358944D02*
X991644Y358944D01*
X991644Y351456D01*
X989556Y351456D01*
X989556Y352892D02*
X991644Y352892D01*
X991644Y354328D02*
X989556Y354328D01*
X989556Y355764D02*
X991644Y355764D01*
X991644Y357200D02*
X989556Y357200D01*
X989556Y358636D02*
X991644Y358636D01*
X984556Y358944D02*
X984556Y351456D01*
X984556Y358944D02*
X986644Y358944D01*
X986644Y351456D01*
X984556Y351456D01*
X984556Y352892D02*
X986644Y352892D01*
X986644Y354328D02*
X984556Y354328D01*
X984556Y355764D02*
X986644Y355764D01*
X986644Y357200D02*
X984556Y357200D01*
X984556Y358636D02*
X986644Y358636D01*
X979556Y358944D02*
X979556Y351456D01*
X979556Y358944D02*
X981644Y358944D01*
X981644Y351456D01*
X979556Y351456D01*
X979556Y352892D02*
X981644Y352892D01*
X981644Y354328D02*
X979556Y354328D01*
X979556Y355764D02*
X981644Y355764D01*
X981644Y357200D02*
X979556Y357200D01*
X979556Y358636D02*
X981644Y358636D01*
X974556Y358944D02*
X974556Y351456D01*
X974556Y358944D02*
X976644Y358944D01*
X976644Y351456D01*
X974556Y351456D01*
X974556Y352892D02*
X976644Y352892D01*
X976644Y354328D02*
X974556Y354328D01*
X974556Y355764D02*
X976644Y355764D01*
X976644Y357200D02*
X974556Y357200D01*
X974556Y358636D02*
X976644Y358636D01*
D30*
X975375Y314975D02*
X1005825Y314975D01*
X975375Y314975D02*
X975375Y345425D01*
X1005825Y345425D01*
X1005825Y314975D01*
X1005825Y319297D02*
X975375Y319297D01*
X975375Y323619D02*
X1005825Y323619D01*
X1005825Y327941D02*
X975375Y327941D01*
X975375Y332263D02*
X1005825Y332263D01*
X1005825Y336585D02*
X975375Y336585D01*
X975375Y340907D02*
X1005825Y340907D01*
X1005825Y345229D02*
X975375Y345229D01*
D18*
X1055370Y290830D03*
X1083810Y290830D03*
D17*
X901700Y255270D03*
X901700Y283710D03*
D10*
X605790Y660340D03*
X605790Y688340D03*
D31*
X1030585Y275775D02*
X1036975Y275775D01*
X1030585Y275775D02*
X1030585Y282165D01*
X1036975Y282165D01*
X1036975Y275775D01*
X1036975Y278254D02*
X1030585Y278254D01*
X1030585Y280733D02*
X1036975Y280733D01*
X1036975Y264775D02*
X1030585Y264775D01*
X1030585Y271165D01*
X1036975Y271165D01*
X1036975Y264775D01*
X1036975Y267254D02*
X1030585Y267254D01*
X1030585Y269733D02*
X1036975Y269733D01*
X1036975Y253775D02*
X1030585Y253775D01*
X1030585Y260165D01*
X1036975Y260165D01*
X1036975Y253775D01*
X1036975Y256254D02*
X1030585Y256254D01*
X1030585Y258733D02*
X1036975Y258733D01*
D32*
X1033780Y262470D03*
X1033780Y273470D03*
D16*
X1079500Y424180D02*
X1079500Y439420D01*
X1054100Y439420D02*
X1054100Y424180D01*
X1028700Y424180D02*
X1028700Y439420D01*
X1003300Y439420D02*
X1003300Y424180D01*
X977900Y424180D02*
X977900Y439420D01*
X952500Y439420D02*
X952500Y424180D01*
X927100Y424180D02*
X927100Y439420D01*
X901700Y439420D02*
X901700Y424180D01*
X977900Y261620D02*
X977900Y246380D01*
X1003300Y246380D02*
X1003300Y261620D01*
D33*
X1038860Y326390D03*
D10*
X501064Y660340D03*
X501064Y688340D03*
D16*
X1079500Y223520D02*
X1079500Y208280D01*
X1054100Y208280D02*
X1054100Y223520D01*
X1028700Y223520D02*
X1028700Y208280D01*
X1003300Y208280D02*
X1003300Y223520D01*
X977900Y223520D02*
X977900Y208280D01*
X952500Y208280D02*
X952500Y223520D01*
X927100Y223520D02*
X927100Y208280D01*
X901700Y208280D02*
X901700Y223520D01*
D17*
X962660Y652780D03*
X962660Y681220D03*
X1016000Y652780D03*
X1016000Y681220D03*
D10*
X396338Y660340D03*
X396338Y688340D03*
X399485Y593030D03*
X399485Y621030D03*
X453108Y593030D03*
X453108Y621030D03*
X553427Y660340D03*
X553427Y688340D03*
X939800Y521910D03*
X939800Y549910D03*
X939800Y612200D03*
X939800Y584200D03*
D17*
X1049020Y681220D03*
X1049020Y652780D03*
D29*
X969344Y610856D02*
X961856Y610856D01*
X961856Y612944D01*
X969344Y612944D01*
X969344Y610856D01*
X969344Y612292D02*
X961856Y612292D01*
X961856Y605856D02*
X969344Y605856D01*
X961856Y605856D02*
X961856Y607944D01*
X969344Y607944D01*
X969344Y605856D01*
X969344Y607292D02*
X961856Y607292D01*
X961856Y600856D02*
X969344Y600856D01*
X961856Y600856D02*
X961856Y602944D01*
X969344Y602944D01*
X969344Y600856D01*
X969344Y602292D02*
X961856Y602292D01*
X961856Y595856D02*
X969344Y595856D01*
X961856Y595856D02*
X961856Y597944D01*
X969344Y597944D01*
X969344Y595856D01*
X969344Y597292D02*
X961856Y597292D01*
X961856Y590856D02*
X969344Y590856D01*
X961856Y590856D02*
X961856Y592944D01*
X969344Y592944D01*
X969344Y590856D01*
X969344Y592292D02*
X961856Y592292D01*
X961856Y585856D02*
X969344Y585856D01*
X961856Y585856D02*
X961856Y587944D01*
X969344Y587944D01*
X969344Y585856D01*
X969344Y587292D02*
X961856Y587292D01*
X961856Y580856D02*
X969344Y580856D01*
X961856Y580856D02*
X961856Y582944D01*
X969344Y582944D01*
X969344Y580856D01*
X969344Y582292D02*
X961856Y582292D01*
X976644Y575644D02*
X976644Y568156D01*
X974556Y568156D01*
X974556Y575644D01*
X976644Y575644D01*
X976644Y569592D02*
X974556Y569592D01*
X974556Y571028D02*
X976644Y571028D01*
X976644Y572464D02*
X974556Y572464D01*
X974556Y573900D02*
X976644Y573900D01*
X976644Y575336D02*
X974556Y575336D01*
X981644Y575644D02*
X981644Y568156D01*
X979556Y568156D01*
X979556Y575644D01*
X981644Y575644D01*
X981644Y569592D02*
X979556Y569592D01*
X979556Y571028D02*
X981644Y571028D01*
X981644Y572464D02*
X979556Y572464D01*
X979556Y573900D02*
X981644Y573900D01*
X981644Y575336D02*
X979556Y575336D01*
X986644Y575644D02*
X986644Y568156D01*
X984556Y568156D01*
X984556Y575644D01*
X986644Y575644D01*
X986644Y569592D02*
X984556Y569592D01*
X984556Y571028D02*
X986644Y571028D01*
X986644Y572464D02*
X984556Y572464D01*
X984556Y573900D02*
X986644Y573900D01*
X986644Y575336D02*
X984556Y575336D01*
X991644Y575644D02*
X991644Y568156D01*
X989556Y568156D01*
X989556Y575644D01*
X991644Y575644D01*
X991644Y569592D02*
X989556Y569592D01*
X989556Y571028D02*
X991644Y571028D01*
X991644Y572464D02*
X989556Y572464D01*
X989556Y573900D02*
X991644Y573900D01*
X991644Y575336D02*
X989556Y575336D01*
X996644Y575644D02*
X996644Y568156D01*
X994556Y568156D01*
X994556Y575644D01*
X996644Y575644D01*
X996644Y569592D02*
X994556Y569592D01*
X994556Y571028D02*
X996644Y571028D01*
X996644Y572464D02*
X994556Y572464D01*
X994556Y573900D02*
X996644Y573900D01*
X996644Y575336D02*
X994556Y575336D01*
X1001644Y575644D02*
X1001644Y568156D01*
X999556Y568156D01*
X999556Y575644D01*
X1001644Y575644D01*
X1001644Y569592D02*
X999556Y569592D01*
X999556Y571028D02*
X1001644Y571028D01*
X1001644Y572464D02*
X999556Y572464D01*
X999556Y573900D02*
X1001644Y573900D01*
X1001644Y575336D02*
X999556Y575336D01*
X1006644Y575644D02*
X1006644Y568156D01*
X1004556Y568156D01*
X1004556Y575644D01*
X1006644Y575644D01*
X1006644Y569592D02*
X1004556Y569592D01*
X1004556Y571028D02*
X1006644Y571028D01*
X1006644Y572464D02*
X1004556Y572464D01*
X1004556Y573900D02*
X1006644Y573900D01*
X1006644Y575336D02*
X1004556Y575336D01*
X1011856Y582944D02*
X1019344Y582944D01*
X1019344Y580856D01*
X1011856Y580856D01*
X1011856Y582944D01*
X1011856Y582292D02*
X1019344Y582292D01*
X1019344Y587944D02*
X1011856Y587944D01*
X1019344Y587944D02*
X1019344Y585856D01*
X1011856Y585856D01*
X1011856Y587944D01*
X1011856Y587292D02*
X1019344Y587292D01*
X1019344Y592944D02*
X1011856Y592944D01*
X1019344Y592944D02*
X1019344Y590856D01*
X1011856Y590856D01*
X1011856Y592944D01*
X1011856Y592292D02*
X1019344Y592292D01*
X1019344Y597944D02*
X1011856Y597944D01*
X1019344Y597944D02*
X1019344Y595856D01*
X1011856Y595856D01*
X1011856Y597944D01*
X1011856Y597292D02*
X1019344Y597292D01*
X1019344Y602944D02*
X1011856Y602944D01*
X1019344Y602944D02*
X1019344Y600856D01*
X1011856Y600856D01*
X1011856Y602944D01*
X1011856Y602292D02*
X1019344Y602292D01*
X1019344Y607944D02*
X1011856Y607944D01*
X1019344Y607944D02*
X1019344Y605856D01*
X1011856Y605856D01*
X1011856Y607944D01*
X1011856Y607292D02*
X1019344Y607292D01*
X1019344Y612944D02*
X1011856Y612944D01*
X1019344Y612944D02*
X1019344Y610856D01*
X1011856Y610856D01*
X1011856Y612944D01*
X1011856Y612292D02*
X1019344Y612292D01*
X1004556Y618156D02*
X1004556Y625644D01*
X1006644Y625644D01*
X1006644Y618156D01*
X1004556Y618156D01*
X1004556Y619592D02*
X1006644Y619592D01*
X1006644Y621028D02*
X1004556Y621028D01*
X1004556Y622464D02*
X1006644Y622464D01*
X1006644Y623900D02*
X1004556Y623900D01*
X1004556Y625336D02*
X1006644Y625336D01*
X999556Y625644D02*
X999556Y618156D01*
X999556Y625644D02*
X1001644Y625644D01*
X1001644Y618156D01*
X999556Y618156D01*
X999556Y619592D02*
X1001644Y619592D01*
X1001644Y621028D02*
X999556Y621028D01*
X999556Y622464D02*
X1001644Y622464D01*
X1001644Y623900D02*
X999556Y623900D01*
X999556Y625336D02*
X1001644Y625336D01*
X994556Y625644D02*
X994556Y618156D01*
X994556Y625644D02*
X996644Y625644D01*
X996644Y618156D01*
X994556Y618156D01*
X994556Y619592D02*
X996644Y619592D01*
X996644Y621028D02*
X994556Y621028D01*
X994556Y622464D02*
X996644Y622464D01*
X996644Y623900D02*
X994556Y623900D01*
X994556Y625336D02*
X996644Y625336D01*
X989556Y625644D02*
X989556Y618156D01*
X989556Y625644D02*
X991644Y625644D01*
X991644Y618156D01*
X989556Y618156D01*
X989556Y619592D02*
X991644Y619592D01*
X991644Y621028D02*
X989556Y621028D01*
X989556Y622464D02*
X991644Y622464D01*
X991644Y623900D02*
X989556Y623900D01*
X989556Y625336D02*
X991644Y625336D01*
X984556Y625644D02*
X984556Y618156D01*
X984556Y625644D02*
X986644Y625644D01*
X986644Y618156D01*
X984556Y618156D01*
X984556Y619592D02*
X986644Y619592D01*
X986644Y621028D02*
X984556Y621028D01*
X984556Y622464D02*
X986644Y622464D01*
X986644Y623900D02*
X984556Y623900D01*
X984556Y625336D02*
X986644Y625336D01*
X979556Y625644D02*
X979556Y618156D01*
X979556Y625644D02*
X981644Y625644D01*
X981644Y618156D01*
X979556Y618156D01*
X979556Y619592D02*
X981644Y619592D01*
X981644Y621028D02*
X979556Y621028D01*
X979556Y622464D02*
X981644Y622464D01*
X981644Y623900D02*
X979556Y623900D01*
X979556Y625336D02*
X981644Y625336D01*
X974556Y625644D02*
X974556Y618156D01*
X974556Y625644D02*
X976644Y625644D01*
X976644Y618156D01*
X974556Y618156D01*
X974556Y619592D02*
X976644Y619592D01*
X976644Y621028D02*
X974556Y621028D01*
X974556Y622464D02*
X976644Y622464D01*
X976644Y623900D02*
X974556Y623900D01*
X974556Y625336D02*
X976644Y625336D01*
D30*
X975375Y581675D02*
X1005825Y581675D01*
X975375Y581675D02*
X975375Y612125D01*
X1005825Y612125D01*
X1005825Y581675D01*
X1005825Y585997D02*
X975375Y585997D01*
X975375Y590319D02*
X1005825Y590319D01*
X1005825Y594641D02*
X975375Y594641D01*
X975375Y598963D02*
X1005825Y598963D01*
X1005825Y603285D02*
X975375Y603285D01*
X975375Y607607D02*
X1005825Y607607D01*
X1005825Y611929D02*
X975375Y611929D01*
D18*
X1054100Y546100D03*
X1082540Y546100D03*
D17*
X901700Y520700D03*
X901700Y549140D03*
D10*
X579608Y660340D03*
X579608Y688340D03*
D31*
X1025505Y553905D02*
X1031895Y553905D01*
X1025505Y553905D02*
X1025505Y560295D01*
X1031895Y560295D01*
X1031895Y553905D01*
X1031895Y556384D02*
X1025505Y556384D01*
X1025505Y558863D02*
X1031895Y558863D01*
X1031895Y542905D02*
X1025505Y542905D01*
X1025505Y549295D01*
X1031895Y549295D01*
X1031895Y542905D01*
X1031895Y545384D02*
X1025505Y545384D01*
X1025505Y547863D02*
X1031895Y547863D01*
X1031895Y531905D02*
X1025505Y531905D01*
X1025505Y538295D01*
X1031895Y538295D01*
X1031895Y531905D01*
X1031895Y534384D02*
X1025505Y534384D01*
X1025505Y536863D02*
X1031895Y536863D01*
D32*
X1028700Y540600D03*
X1028700Y551600D03*
D16*
X1079500Y703580D02*
X1079500Y718820D01*
X1054100Y718820D02*
X1054100Y703580D01*
X1028700Y703580D02*
X1028700Y718820D01*
X1003300Y718820D02*
X1003300Y703580D01*
X977900Y703580D02*
X977900Y718820D01*
X952500Y718820D02*
X952500Y703580D01*
X927100Y703580D02*
X927100Y718820D01*
X901700Y718820D02*
X901700Y703580D01*
X977900Y528320D02*
X977900Y513080D01*
X1003300Y513080D02*
X1003300Y528320D01*
D33*
X1036320Y598170D03*
D10*
X422519Y660340D03*
X422519Y688340D03*
D16*
X1079500Y490220D02*
X1079500Y474980D01*
X1054100Y474980D02*
X1054100Y490220D01*
X1028700Y490220D02*
X1028700Y474980D01*
X1003300Y474980D02*
X1003300Y490220D01*
X977900Y490220D02*
X977900Y474980D01*
X952500Y474980D02*
X952500Y490220D01*
X927100Y490220D02*
X927100Y474980D01*
X901700Y474980D02*
X901700Y490220D01*
D17*
X966470Y913900D03*
X966470Y942340D03*
X1017270Y913900D03*
X1017270Y942340D03*
D10*
X370156Y660340D03*
X370156Y688340D03*
X341630Y545880D03*
X341630Y517880D03*
X426297Y593030D03*
X426297Y621030D03*
X372674Y621030D03*
X372674Y593030D03*
X934720Y791150D03*
X934720Y819150D03*
X934720Y877630D03*
X934720Y849630D03*
D17*
X1045210Y942340D03*
X1045210Y913900D03*
D29*
X970614Y881366D02*
X963126Y881366D01*
X963126Y883454D01*
X970614Y883454D01*
X970614Y881366D01*
X970614Y882802D02*
X963126Y882802D01*
X963126Y876366D02*
X970614Y876366D01*
X963126Y876366D02*
X963126Y878454D01*
X970614Y878454D01*
X970614Y876366D01*
X970614Y877802D02*
X963126Y877802D01*
X963126Y871366D02*
X970614Y871366D01*
X963126Y871366D02*
X963126Y873454D01*
X970614Y873454D01*
X970614Y871366D01*
X970614Y872802D02*
X963126Y872802D01*
X963126Y866366D02*
X970614Y866366D01*
X963126Y866366D02*
X963126Y868454D01*
X970614Y868454D01*
X970614Y866366D01*
X970614Y867802D02*
X963126Y867802D01*
X963126Y861366D02*
X970614Y861366D01*
X963126Y861366D02*
X963126Y863454D01*
X970614Y863454D01*
X970614Y861366D01*
X970614Y862802D02*
X963126Y862802D01*
X963126Y856366D02*
X970614Y856366D01*
X963126Y856366D02*
X963126Y858454D01*
X970614Y858454D01*
X970614Y856366D01*
X970614Y857802D02*
X963126Y857802D01*
X963126Y851366D02*
X970614Y851366D01*
X963126Y851366D02*
X963126Y853454D01*
X970614Y853454D01*
X970614Y851366D01*
X970614Y852802D02*
X963126Y852802D01*
X977914Y846154D02*
X977914Y838666D01*
X975826Y838666D01*
X975826Y846154D01*
X977914Y846154D01*
X977914Y840102D02*
X975826Y840102D01*
X975826Y841538D02*
X977914Y841538D01*
X977914Y842974D02*
X975826Y842974D01*
X975826Y844410D02*
X977914Y844410D01*
X977914Y845846D02*
X975826Y845846D01*
X982914Y846154D02*
X982914Y838666D01*
X980826Y838666D01*
X980826Y846154D01*
X982914Y846154D01*
X982914Y840102D02*
X980826Y840102D01*
X980826Y841538D02*
X982914Y841538D01*
X982914Y842974D02*
X980826Y842974D01*
X980826Y844410D02*
X982914Y844410D01*
X982914Y845846D02*
X980826Y845846D01*
X987914Y846154D02*
X987914Y838666D01*
X985826Y838666D01*
X985826Y846154D01*
X987914Y846154D01*
X987914Y840102D02*
X985826Y840102D01*
X985826Y841538D02*
X987914Y841538D01*
X987914Y842974D02*
X985826Y842974D01*
X985826Y844410D02*
X987914Y844410D01*
X987914Y845846D02*
X985826Y845846D01*
X992914Y846154D02*
X992914Y838666D01*
X990826Y838666D01*
X990826Y846154D01*
X992914Y846154D01*
X992914Y840102D02*
X990826Y840102D01*
X990826Y841538D02*
X992914Y841538D01*
X992914Y842974D02*
X990826Y842974D01*
X990826Y844410D02*
X992914Y844410D01*
X992914Y845846D02*
X990826Y845846D01*
X997914Y846154D02*
X997914Y838666D01*
X995826Y838666D01*
X995826Y846154D01*
X997914Y846154D01*
X997914Y840102D02*
X995826Y840102D01*
X995826Y841538D02*
X997914Y841538D01*
X997914Y842974D02*
X995826Y842974D01*
X995826Y844410D02*
X997914Y844410D01*
X997914Y845846D02*
X995826Y845846D01*
X1002914Y846154D02*
X1002914Y838666D01*
X1000826Y838666D01*
X1000826Y846154D01*
X1002914Y846154D01*
X1002914Y840102D02*
X1000826Y840102D01*
X1000826Y841538D02*
X1002914Y841538D01*
X1002914Y842974D02*
X1000826Y842974D01*
X1000826Y844410D02*
X1002914Y844410D01*
X1002914Y845846D02*
X1000826Y845846D01*
X1007914Y846154D02*
X1007914Y838666D01*
X1005826Y838666D01*
X1005826Y846154D01*
X1007914Y846154D01*
X1007914Y840102D02*
X1005826Y840102D01*
X1005826Y841538D02*
X1007914Y841538D01*
X1007914Y842974D02*
X1005826Y842974D01*
X1005826Y844410D02*
X1007914Y844410D01*
X1007914Y845846D02*
X1005826Y845846D01*
X1013126Y853454D02*
X1020614Y853454D01*
X1020614Y851366D01*
X1013126Y851366D01*
X1013126Y853454D01*
X1013126Y852802D02*
X1020614Y852802D01*
X1020614Y858454D02*
X1013126Y858454D01*
X1020614Y858454D02*
X1020614Y856366D01*
X1013126Y856366D01*
X1013126Y858454D01*
X1013126Y857802D02*
X1020614Y857802D01*
X1020614Y863454D02*
X1013126Y863454D01*
X1020614Y863454D02*
X1020614Y861366D01*
X1013126Y861366D01*
X1013126Y863454D01*
X1013126Y862802D02*
X1020614Y862802D01*
X1020614Y868454D02*
X1013126Y868454D01*
X1020614Y868454D02*
X1020614Y866366D01*
X1013126Y866366D01*
X1013126Y868454D01*
X1013126Y867802D02*
X1020614Y867802D01*
X1020614Y873454D02*
X1013126Y873454D01*
X1020614Y873454D02*
X1020614Y871366D01*
X1013126Y871366D01*
X1013126Y873454D01*
X1013126Y872802D02*
X1020614Y872802D01*
X1020614Y878454D02*
X1013126Y878454D01*
X1020614Y878454D02*
X1020614Y876366D01*
X1013126Y876366D01*
X1013126Y878454D01*
X1013126Y877802D02*
X1020614Y877802D01*
X1020614Y883454D02*
X1013126Y883454D01*
X1020614Y883454D02*
X1020614Y881366D01*
X1013126Y881366D01*
X1013126Y883454D01*
X1013126Y882802D02*
X1020614Y882802D01*
X1005826Y888666D02*
X1005826Y896154D01*
X1007914Y896154D01*
X1007914Y888666D01*
X1005826Y888666D01*
X1005826Y890102D02*
X1007914Y890102D01*
X1007914Y891538D02*
X1005826Y891538D01*
X1005826Y892974D02*
X1007914Y892974D01*
X1007914Y894410D02*
X1005826Y894410D01*
X1005826Y895846D02*
X1007914Y895846D01*
X1000826Y896154D02*
X1000826Y888666D01*
X1000826Y896154D02*
X1002914Y896154D01*
X1002914Y888666D01*
X1000826Y888666D01*
X1000826Y890102D02*
X1002914Y890102D01*
X1002914Y891538D02*
X1000826Y891538D01*
X1000826Y892974D02*
X1002914Y892974D01*
X1002914Y894410D02*
X1000826Y894410D01*
X1000826Y895846D02*
X1002914Y895846D01*
X995826Y896154D02*
X995826Y888666D01*
X995826Y896154D02*
X997914Y896154D01*
X997914Y888666D01*
X995826Y888666D01*
X995826Y890102D02*
X997914Y890102D01*
X997914Y891538D02*
X995826Y891538D01*
X995826Y892974D02*
X997914Y892974D01*
X997914Y894410D02*
X995826Y894410D01*
X995826Y895846D02*
X997914Y895846D01*
X990826Y896154D02*
X990826Y888666D01*
X990826Y896154D02*
X992914Y896154D01*
X992914Y888666D01*
X990826Y888666D01*
X990826Y890102D02*
X992914Y890102D01*
X992914Y891538D02*
X990826Y891538D01*
X990826Y892974D02*
X992914Y892974D01*
X992914Y894410D02*
X990826Y894410D01*
X990826Y895846D02*
X992914Y895846D01*
X985826Y896154D02*
X985826Y888666D01*
X985826Y896154D02*
X987914Y896154D01*
X987914Y888666D01*
X985826Y888666D01*
X985826Y890102D02*
X987914Y890102D01*
X987914Y891538D02*
X985826Y891538D01*
X985826Y892974D02*
X987914Y892974D01*
X987914Y894410D02*
X985826Y894410D01*
X985826Y895846D02*
X987914Y895846D01*
X980826Y896154D02*
X980826Y888666D01*
X980826Y896154D02*
X982914Y896154D01*
X982914Y888666D01*
X980826Y888666D01*
X980826Y890102D02*
X982914Y890102D01*
X982914Y891538D02*
X980826Y891538D01*
X980826Y892974D02*
X982914Y892974D01*
X982914Y894410D02*
X980826Y894410D01*
X980826Y895846D02*
X982914Y895846D01*
X975826Y896154D02*
X975826Y888666D01*
X975826Y896154D02*
X977914Y896154D01*
X977914Y888666D01*
X975826Y888666D01*
X975826Y890102D02*
X977914Y890102D01*
X977914Y891538D02*
X975826Y891538D01*
X975826Y892974D02*
X977914Y892974D01*
X977914Y894410D02*
X975826Y894410D01*
X975826Y895846D02*
X977914Y895846D01*
D30*
X976645Y852185D02*
X1007095Y852185D01*
X976645Y852185D02*
X976645Y882635D01*
X1007095Y882635D01*
X1007095Y852185D01*
X1007095Y856507D02*
X976645Y856507D01*
X976645Y860829D02*
X1007095Y860829D01*
X1007095Y865151D02*
X976645Y865151D01*
X976645Y869473D02*
X1007095Y869473D01*
X1007095Y873795D02*
X976645Y873795D01*
X976645Y878117D02*
X1007095Y878117D01*
X1007095Y882439D02*
X976645Y882439D01*
D18*
X1055370Y829310D03*
X1083810Y829310D03*
D17*
X902970Y791210D03*
X902970Y819650D03*
D10*
X448701Y660340D03*
X448701Y688340D03*
D31*
X1026775Y824415D02*
X1033165Y824415D01*
X1026775Y824415D02*
X1026775Y830805D01*
X1033165Y830805D01*
X1033165Y824415D01*
X1033165Y826894D02*
X1026775Y826894D01*
X1026775Y829373D02*
X1033165Y829373D01*
X1033165Y813415D02*
X1026775Y813415D01*
X1026775Y819805D01*
X1033165Y819805D01*
X1033165Y813415D01*
X1033165Y815894D02*
X1026775Y815894D01*
X1026775Y818373D02*
X1033165Y818373D01*
X1033165Y802415D02*
X1026775Y802415D01*
X1026775Y808805D01*
X1033165Y808805D01*
X1033165Y802415D01*
X1033165Y804894D02*
X1026775Y804894D01*
X1026775Y807373D02*
X1033165Y807373D01*
D32*
X1029970Y811110D03*
X1029970Y822110D03*
D16*
X1080770Y961390D02*
X1080770Y976630D01*
X1055370Y976630D02*
X1055370Y961390D01*
X1029970Y961390D02*
X1029970Y976630D01*
X1004570Y976630D02*
X1004570Y961390D01*
X979170Y961390D02*
X979170Y976630D01*
X953770Y976630D02*
X953770Y961390D01*
X928370Y961390D02*
X928370Y976630D01*
X902970Y976630D02*
X902970Y961390D01*
X979170Y798830D02*
X979170Y783590D01*
X1004570Y783590D02*
X1004570Y798830D01*
D33*
X1038860Y864870D03*
D10*
X266700Y517880D03*
X266700Y545880D03*
D16*
X1080770Y745490D02*
X1080770Y760730D01*
X1055370Y760730D02*
X1055370Y745490D01*
X1029970Y745490D02*
X1029970Y760730D01*
X1004570Y760730D02*
X1004570Y745490D01*
X979170Y745490D02*
X979170Y760730D01*
X953770Y760730D02*
X953770Y745490D01*
X928370Y745490D02*
X928370Y760730D01*
X902970Y760730D02*
X902970Y745490D01*
X292100Y805180D02*
X292100Y820420D01*
X317500Y820420D02*
X317500Y805180D01*
X342900Y805180D02*
X342900Y820420D01*
X292100Y843280D02*
X292100Y858520D01*
X317500Y858520D02*
X317500Y843280D01*
X342900Y843280D02*
X342900Y858520D01*
X290830Y885190D02*
X290830Y900430D01*
X316230Y900430D02*
X316230Y885190D01*
X341630Y885190D02*
X341630Y900430D01*
D34*
X192900Y637300D03*
X192900Y632300D03*
X192900Y627300D03*
X192900Y622300D03*
X192900Y617300D03*
X192900Y612300D03*
X192900Y607300D03*
D35*
X200900Y599300D03*
X205900Y599300D03*
X210900Y599300D03*
X215900Y599300D03*
X220900Y599300D03*
X225900Y599300D03*
X230900Y599300D03*
D34*
X238900Y607300D03*
X238900Y612300D03*
X238900Y617300D03*
X238900Y622300D03*
X238900Y627300D03*
X238900Y632300D03*
X238900Y637300D03*
D35*
X230900Y645300D03*
X225900Y645300D03*
X220900Y645300D03*
X215900Y645300D03*
X210900Y645300D03*
X205900Y645300D03*
X200900Y645300D03*
D36*
X194875Y643325D03*
D34*
X205900Y634800D03*
X215900Y634800D03*
X225900Y634800D03*
X205900Y629800D03*
X215900Y629800D03*
X225900Y629800D03*
X205900Y624800D03*
X215900Y624800D03*
X225900Y624800D03*
X205900Y619800D03*
X215900Y619800D03*
X225900Y619800D03*
X205900Y614800D03*
X215900Y614800D03*
X225900Y614800D03*
X205900Y609800D03*
X215900Y609800D03*
X225900Y609800D03*
D17*
X292241Y621250D03*
X292241Y592810D03*
D16*
X597100Y714710D02*
X597100Y729950D01*
X571700Y729950D02*
X571700Y714710D01*
X546300Y714710D02*
X546300Y729950D01*
X520900Y729950D02*
X520900Y714710D01*
X495500Y714710D02*
X495500Y729950D01*
X470100Y729950D02*
X470100Y714710D01*
X444700Y714710D02*
X444700Y729950D01*
X419300Y729950D02*
X419300Y714710D01*
X393900Y714710D02*
X393900Y729950D01*
X368500Y729950D02*
X368500Y714710D01*
X343100Y714710D02*
X343100Y729950D01*
X317700Y729950D02*
X317700Y714710D01*
X292300Y714710D02*
X292300Y729950D01*
X266900Y729950D02*
X266900Y714710D01*
X241500Y714710D02*
X241500Y729950D01*
X216100Y729950D02*
X216100Y714710D01*
X190700Y714710D02*
X190700Y729950D01*
X165300Y729950D02*
X165300Y714710D01*
X139900Y714710D02*
X139900Y729950D01*
X114500Y729950D02*
X114500Y714710D01*
D37*
X102816Y158866D02*
X91084Y158866D01*
X102816Y158866D02*
X102816Y150934D01*
X91084Y150934D01*
X91084Y158866D01*
X91084Y153185D02*
X102816Y153185D01*
X102816Y155436D02*
X91084Y155436D01*
X91084Y157687D02*
X102816Y157687D01*
X102816Y181766D02*
X91084Y181766D01*
X102816Y181766D02*
X102816Y173834D01*
X91084Y173834D01*
X91084Y181766D01*
X91084Y176085D02*
X102816Y176085D01*
X102816Y178336D02*
X91084Y178336D01*
X91084Y180587D02*
X102816Y180587D01*
X102816Y204666D02*
X91084Y204666D01*
X102816Y204666D02*
X102816Y196734D01*
X91084Y196734D01*
X91084Y204666D01*
X91084Y198985D02*
X102816Y198985D01*
X102816Y201236D02*
X91084Y201236D01*
X91084Y203487D02*
X102816Y203487D01*
D38*
X35620Y193020D02*
X24480Y193020D01*
X35620Y193020D02*
X35620Y162580D01*
X24480Y162580D01*
X24480Y193020D01*
X24480Y165393D02*
X35620Y165393D01*
X35620Y168206D02*
X24480Y168206D01*
X24480Y171019D02*
X35620Y171019D01*
X35620Y173832D02*
X24480Y173832D01*
X24480Y176645D02*
X35620Y176645D01*
X35620Y179458D02*
X24480Y179458D01*
X24480Y182271D02*
X35620Y182271D01*
X35620Y185084D02*
X24480Y185084D01*
X24480Y187897D02*
X35620Y187897D01*
X35620Y190710D02*
X24480Y190710D01*
D17*
X265430Y621250D03*
X265430Y592810D03*
D39*
X224536Y673100D03*
X232664Y673100D03*
D10*
X125584Y229900D03*
X125584Y201900D03*
X125584Y168940D03*
X125584Y140940D03*
D40*
X134500Y114300D03*
X119500Y114300D03*
D18*
X77720Y114300D03*
X49280Y114300D03*
D37*
X230784Y158866D02*
X242516Y158866D01*
X242516Y150934D01*
X230784Y150934D01*
X230784Y158866D01*
X230784Y153185D02*
X242516Y153185D01*
X242516Y155436D02*
X230784Y155436D01*
X230784Y157687D02*
X242516Y157687D01*
X242516Y181766D02*
X230784Y181766D01*
X242516Y181766D02*
X242516Y173834D01*
X230784Y173834D01*
X230784Y181766D01*
X230784Y176085D02*
X242516Y176085D01*
X242516Y178336D02*
X230784Y178336D01*
X230784Y180587D02*
X242516Y180587D01*
X242516Y204666D02*
X230784Y204666D01*
X242516Y204666D02*
X242516Y196734D01*
X230784Y196734D01*
X230784Y204666D01*
X230784Y198985D02*
X242516Y198985D01*
X242516Y201236D02*
X230784Y201236D01*
X230784Y203487D02*
X242516Y203487D01*
D38*
X175320Y193020D02*
X164180Y193020D01*
X175320Y193020D02*
X175320Y162580D01*
X164180Y162580D01*
X164180Y193020D01*
X164180Y165393D02*
X175320Y165393D01*
X175320Y168206D02*
X164180Y168206D01*
X164180Y171019D02*
X175320Y171019D01*
X175320Y173832D02*
X164180Y173832D01*
X164180Y176645D02*
X175320Y176645D01*
X175320Y179458D02*
X164180Y179458D01*
X164180Y182271D02*
X175320Y182271D01*
X175320Y185084D02*
X164180Y185084D01*
X164180Y187897D02*
X175320Y187897D01*
X175320Y190710D02*
X164180Y190710D01*
D10*
X265284Y229900D03*
X265284Y201900D03*
X265284Y170210D03*
X265284Y142210D03*
D40*
X274200Y114300D03*
X259200Y114300D03*
D18*
X230120Y114300D03*
X201680Y114300D03*
D37*
X230784Y311266D02*
X242516Y311266D01*
X242516Y303334D01*
X230784Y303334D01*
X230784Y311266D01*
X230784Y305585D02*
X242516Y305585D01*
X242516Y307836D02*
X230784Y307836D01*
X230784Y310087D02*
X242516Y310087D01*
X242516Y334166D02*
X230784Y334166D01*
X242516Y334166D02*
X242516Y326234D01*
X230784Y326234D01*
X230784Y334166D01*
X230784Y328485D02*
X242516Y328485D01*
X242516Y330736D02*
X230784Y330736D01*
X230784Y332987D02*
X242516Y332987D01*
X242516Y357066D02*
X230784Y357066D01*
X242516Y357066D02*
X242516Y349134D01*
X230784Y349134D01*
X230784Y357066D01*
X230784Y351385D02*
X242516Y351385D01*
X242516Y353636D02*
X230784Y353636D01*
X230784Y355887D02*
X242516Y355887D01*
D38*
X175320Y345420D02*
X164180Y345420D01*
X175320Y345420D02*
X175320Y314980D01*
X164180Y314980D01*
X164180Y345420D01*
X164180Y317793D02*
X175320Y317793D01*
X175320Y320606D02*
X164180Y320606D01*
X164180Y323419D02*
X175320Y323419D01*
X175320Y326232D02*
X164180Y326232D01*
X164180Y329045D02*
X175320Y329045D01*
X175320Y331858D02*
X164180Y331858D01*
X164180Y334671D02*
X175320Y334671D01*
X175320Y337484D02*
X164180Y337484D01*
X164180Y340297D02*
X175320Y340297D01*
X175320Y343110D02*
X164180Y343110D01*
D10*
X265284Y378490D03*
X265284Y350490D03*
X265284Y318800D03*
X265284Y290800D03*
D40*
X274200Y266700D03*
X259200Y266700D03*
D18*
X217420Y266700D03*
X188980Y266700D03*
D16*
X701040Y939800D02*
X701040Y955040D01*
X726440Y955040D02*
X726440Y939800D01*
X751840Y939800D02*
X751840Y955040D01*
X777240Y955040D02*
X777240Y939800D01*
X802640Y939800D02*
X802640Y955040D01*
X828040Y955040D02*
X828040Y939800D01*
D18*
X522990Y825500D03*
X551430Y825500D03*
X522990Y863600D03*
X551430Y863600D03*
X522990Y901700D03*
X551430Y901700D03*
D41*
X523210Y787400D03*
X551210Y787400D03*
D16*
X25400Y46990D02*
X25400Y31750D01*
X76200Y31750D02*
X76200Y46990D01*
X127000Y46990D02*
X127000Y31750D01*
X177800Y31750D02*
X177800Y46990D01*
X228600Y46990D02*
X228600Y31750D01*
X279400Y31750D02*
X279400Y46990D01*
X330200Y46990D02*
X330200Y31750D01*
X381000Y31750D02*
X381000Y46990D01*
X431800Y46990D02*
X431800Y31750D01*
X482600Y31750D02*
X482600Y46990D01*
X533400Y46990D02*
X533400Y31750D01*
X584200Y31750D02*
X584200Y46990D01*
X635000Y46990D02*
X635000Y31750D01*
X685800Y31750D02*
X685800Y46990D01*
X736600Y46990D02*
X736600Y31750D01*
X787400Y31750D02*
X787400Y46990D01*
X838200Y46990D02*
X838200Y31750D01*
X889000Y31750D02*
X889000Y46990D01*
D42*
X20320Y269240D03*
X91440Y267970D03*
X19050Y322580D03*
X90170Y321310D03*
D43*
X928100Y384500D03*
D44*
X902700Y384500D03*
D43*
X925700Y664200D03*
D44*
X900300Y664200D03*
D43*
X924330Y918290D03*
D44*
X898930Y918290D03*
D16*
X381508Y898906D02*
X366268Y898906D01*
X366268Y853694D02*
X381508Y853694D01*
X431292Y898906D02*
X446532Y898906D01*
X446532Y853694D02*
X431292Y853694D01*
D18*
X379480Y825500D03*
X407920Y825500D03*
D16*
X648970Y938530D02*
X648970Y953770D01*
X623570Y953770D02*
X623570Y938530D01*
X598170Y938530D02*
X598170Y953770D01*
X572770Y953770D02*
X572770Y938530D01*
X547370Y938530D02*
X547370Y953770D01*
X521970Y953770D02*
X521970Y938530D01*
X496570Y938530D02*
X496570Y953770D01*
X471170Y953770D02*
X471170Y938530D01*
X445770Y938530D02*
X445770Y953770D01*
X420370Y953770D02*
X420370Y938530D01*
X394970Y938530D02*
X394970Y953770D01*
X369570Y953770D02*
X369570Y938530D01*
X344170Y938530D02*
X344170Y953770D01*
X318770Y953770D02*
X318770Y938530D01*
X293370Y938530D02*
X293370Y953770D01*
X267970Y953770D02*
X267970Y938530D01*
X508000Y96520D02*
X508000Y81280D01*
X482600Y81280D02*
X482600Y96520D01*
X457200Y96520D02*
X457200Y81280D01*
X431800Y81280D02*
X431800Y96520D01*
X406400Y96520D02*
X406400Y81280D01*
X381000Y81280D02*
X381000Y96520D01*
D45*
X1066800Y329900D03*
D46*
X1076800Y355150D03*
X1056800Y355150D03*
D47*
X165100Y393700D03*
X152400Y412750D03*
X139700Y393700D03*
X101600Y393700D03*
X88900Y412750D03*
X76200Y393700D03*
D45*
X1068070Y597870D03*
D46*
X1078070Y623120D03*
X1058070Y623120D03*
D45*
X1068070Y864570D03*
D46*
X1078070Y889820D03*
X1058070Y889820D03*
D48*
X990600Y50800D03*
X812800Y850900D03*
X330200Y190500D03*
X190500Y508000D03*
D41*
X235140Y867730D03*
X263140Y867730D03*
D49*
X261770Y894800D03*
X261770Y910040D03*
D50*
X261770Y902420D03*
D49*
X584390Y821770D03*
X584390Y837010D03*
D50*
X584390Y829390D03*
M02*
