M48
;GenerationSoftware,Autodesk,EAGLE,9.6.2*%
;CreationDate,2023-04-19T10:44:35Z*%
FMAT,2
ICI,OFF
METRIC,TZ,000.000
T10C0.350
T9C0.381
T8C0.600
T7C0.635
T6C0.650
T5C0.813
T4C1.016
T3C1.100
T2C2.000
T1C2.800
%
G90
M71
T1
X99060Y5080
X81280Y85090
X33020Y19050
X19050Y50800
T2
X73391Y83820
X9770Y49530
X61991Y83820
T3
X70191Y76320
X65191Y90820
X70191Y90820
X65191Y76320
X67691Y76320
T4
X44577Y94615
X47117Y94615
X49657Y94615
X52197Y94615
X54737Y94615
X57277Y94615
X59817Y94615
X62357Y94615
X64897Y94615
X43891Y85369
X43891Y89891
X37389Y85369
X37389Y89891
X88900Y3937
X83820Y3937
X78740Y3937
X73660Y3937
X68580Y3937
X63500Y3937
X58420Y3937
X53340Y3937
X48260Y3937
X43180Y3937
X38100Y3937
X33020Y3937
X97790Y48260
X27940Y3937
X22860Y3937
X17780Y3937
X12700Y3937
X7620Y3937
X2540Y3937
X82804Y94742
X80264Y94742
X77724Y94742
X75184Y94742
X72644Y94742
X70104Y94742
X11450Y72233
X13990Y72233
X16530Y72233
X19070Y72233
X21610Y72233
X24150Y72233
X26690Y72233
X29230Y72233
X31770Y72233
X34310Y72233
X36850Y72233
X39390Y72233
X41930Y72233
X44470Y72233
X47010Y72233
X49550Y72233
X52090Y72233
X54630Y72233
X57170Y72233
X59710Y72233
X34163Y89281
X31623Y89281
X29083Y89281
X34290Y85090
X31750Y85090
X29210Y85090
X34290Y81280
X31750Y81280
X29210Y81280
X90297Y75311
X92837Y75311
X95377Y75311
X97917Y75311
X100457Y75311
X102997Y75311
X105537Y75311
X108077Y75311
X100457Y79121
X97917Y79121
X90297Y96901
X92837Y96901
X95377Y96901
X97917Y96901
X100457Y96901
X102997Y96901
X105537Y96901
X108077Y96901
X90170Y48260
X92710Y48260
X95250Y48260
X100330Y48260
X102870Y48260
X105410Y48260
X107950Y48260
X100330Y52070
X97790Y52070
X90170Y71120
X92710Y71120
X95250Y71120
X97790Y71120
X100330Y71120
X102870Y71120
X105410Y71120
X40640Y8890
X107950Y71120
X90170Y21590
X92710Y21590
X95250Y21590
X97790Y21590
X100330Y21590
X102870Y21590
X105410Y21590
X107950Y21590
X100330Y25400
X97790Y25400
X90170Y43180
X92710Y43180
X95250Y43180
X97790Y43180
X100330Y43180
X102870Y43180
X105410Y43180
X107950Y43180
X43180Y8890
X45720Y8890
X48260Y8890
X50800Y8890
X26797Y94615
X29337Y94615
X10060Y68830
X12600Y68830
X15140Y68830
X1870Y68830
X4410Y68830
X6950Y68830
X31877Y94615
X34417Y94615
X36957Y94615
X39497Y94615
X42037Y94615
X38100Y8890
T5
X90270Y38450
X92570Y66420
X90030Y66420
X92433Y91829
X89893Y91829
X92810Y38450
X16510Y39370
X15240Y41275
X13970Y39370
X10160Y39370
X8890Y41275
X7620Y39370
T6
X6175Y59340
X6175Y65120
T7
X5370Y49530
T8
X103886Y32639
X103632Y59817
X103886Y86487
T9
X1524Y95250
T10
X5080Y19050
X6350Y20320
X5080Y20320
X21590Y15240
X20320Y15240
X21590Y16510
X20320Y16510
X19050Y16510
X21590Y17780
X20320Y17780
X19050Y17780
X21590Y19050
X20320Y19050
X19050Y19050
X21590Y20320
X20320Y20320
X19050Y20320
X21590Y30480
X19050Y15240
X20320Y30480
X19050Y30480
X21590Y31750
X20320Y31750
X19050Y31750
X21590Y33020
X20320Y33020
X19050Y33020
X21590Y34290
X20320Y34290
X19050Y34290
X21590Y35560
X20320Y35560
X19050Y35560
X3175Y77343
X3175Y78867
X3302Y80391
X3048Y89408
X3048Y90932
X3048Y86487
X29210Y22860
X28350Y37800
X92456Y25233
X92075Y51943
X48895Y64516
X96139Y89154
X102235Y89154
X96416Y62657
X101854Y62611
X102235Y35687
X96066Y35860
X37846Y64008
X91948Y79375
X24892Y51435
X8636Y54102
X24737Y81280
X23467Y80010
X24737Y79336
X23523Y77470
X24737Y74930
X18950Y74418
X17885Y74334
X4699Y74168
X3048Y83312
X106680Y40640
X106680Y68580
X90170Y30565
X90170Y56346
X40767Y64008
X90297Y84201
X106172Y93980
X97155Y83058
X102743Y84201
X96901Y29210
X96393Y55880
X102870Y57658
X102870Y30734
X16510Y26670
X35687Y51689
X5588Y62357
X17653Y62174
X17470Y63082
X3048Y93853
X22533Y92710
X20314Y65620
X22860Y90170
X21476Y65545
X2540Y87630
X3175Y84963
X3175Y81915
X6223Y74295
X7595Y72923
X6731Y73533
X100350Y58780
X3175Y92329
X6350Y17780
X5080Y17780
X7620Y19050
X6350Y19050
X7620Y20320
X97900Y58730
X99060Y59690
X100330Y60960
X97890Y61010
X100350Y32110
X97900Y32060
X99060Y33020
X100330Y34290
X97890Y34340
X100350Y85450
X97900Y85400
X99060Y86360
X100330Y87630
X97890Y87680
X24130Y95250
X24130Y49530
X27940Y91440
X3048Y11303
X38481Y13970
X17780Y11430
X17780Y60960
X1394Y96520
X49911Y86360
X27432Y56515
X27940Y64074
X7620Y15240
X6350Y15240
X5080Y15240
X7620Y16510
X6350Y16510
X5080Y16510
X7620Y17780
M30